M48
; DRILL file KiCad 10.0.5 date 2026-09-30T12:28:01
; FORMAT={-:-/ absolute / metric / decimal}
; #@! TF.CreationDate,2026-09-30T12:28:01-04:00
; #@! TF.GenerationSoftware,Kicad,Pcbnew,10.0.5
; #@! TF.FileFunction,Plated,1,2,PTH
FMAT,2
METRIC
; #@! TA.AperFunction,Plated,PTH,ViaDrill
T1C0.300
; #@! TA.AperFunction,Plated,PTH,ComponentDrill
T2C0.800
; #@! TA.AperFunction,Plated,PTH,ComponentDrill
T3C1.000
; #@! TA.AperFunction,Plated,PTH,ComponentDrill
T4C1.300
; #@! TA.AperFunction,Plated,PTH,ComponentDrill
T5C1.500
%
G90
G05
T1
X140.3Y-103.0
X140.3Y-109.83
X140.3Y-112.83
X143.9Y-122.4
X149.7Y-137.7
X151.4Y-122.5
X153.0Y-134.0
X153.0Y-140.6
X153.4Y-115.3
X153.4Y-122.5
X154.4Y-111.6
X154.4Y-137.2
X155.4Y-115.3
X156.0Y-138.1
X157.4Y-115.3
T2
X146.1Y-133.4
X148.6Y-133.4
T3
X102.1Y-125.3
X104.4Y-109.5
X104.4Y-114.5
X107.1Y-126.6
X110.42Y-126.59
X115.5Y-126.6
X133.48Y-104.5
X133.48Y-119.5
X136.1Y-129.55
X136.1Y-141.55
X159.17Y-132.38
X159.17Y-134.92
X161.71Y-132.38
X161.71Y-134.92
X164.25Y-132.38
X164.25Y-134.92
T4
X123.85Y-141.6
X123.9Y-129.55
X138.05Y-135.6
T5
X103.34Y-138.8
X108.42Y-138.8
X113.5Y-138.8
M30
