%TF.GenerationSoftware,KiCad,Pcbnew,10.0.5*%
%TF.CreationDate,2026-10-03T19:11:21-04:00*%
%TF.ProjectId,rele-esp12f,72656c65-2d65-4737-9031-32662e6b6963,rev?*%
%TF.SameCoordinates,Original*%
%TF.FileFunction,Legend,Top*%
%TF.FilePolarity,Positive*%
%FSLAX46Y46*%
G04 Gerber Fmt 4.6, Leading zero omitted, Abs format (unit mm)*
G04 Created by KiCad (PCBNEW 10.0.5) date 2026-10-03 19:11:21*
%MOMM*%
%LPD*%
G01*
G04 APERTURE LIST*
%ADD10C,0.120000*%
%ADD11C,0.150000*%
%ADD12C,0.180000*%
%ADD13C,0.125000*%
G04 APERTURE END LIST*
D10*
X131542857Y-147163855D02*
X131542857Y-146630521D01*
X131542857Y-146782902D02*
X131580952Y-146706712D01*
X131580952Y-146706712D02*
X131619047Y-146668617D01*
X131619047Y-146668617D02*
X131695238Y-146630521D01*
X131695238Y-146630521D02*
X131771428Y-146630521D01*
X132342857Y-147125760D02*
X132266666Y-147163855D01*
X132266666Y-147163855D02*
X132114285Y-147163855D01*
X132114285Y-147163855D02*
X132038095Y-147125760D01*
X132038095Y-147125760D02*
X131999999Y-147049569D01*
X131999999Y-147049569D02*
X131999999Y-146744807D01*
X131999999Y-146744807D02*
X132038095Y-146668617D01*
X132038095Y-146668617D02*
X132114285Y-146630521D01*
X132114285Y-146630521D02*
X132266666Y-146630521D01*
X132266666Y-146630521D02*
X132342857Y-146668617D01*
X132342857Y-146668617D02*
X132380952Y-146744807D01*
X132380952Y-146744807D02*
X132380952Y-146820998D01*
X132380952Y-146820998D02*
X131999999Y-146897188D01*
X132838094Y-147163855D02*
X132761904Y-147125760D01*
X132761904Y-147125760D02*
X132723809Y-147049569D01*
X132723809Y-147049569D02*
X132723809Y-146363855D01*
X133447619Y-147125760D02*
X133371428Y-147163855D01*
X133371428Y-147163855D02*
X133219047Y-147163855D01*
X133219047Y-147163855D02*
X133142857Y-147125760D01*
X133142857Y-147125760D02*
X133104761Y-147049569D01*
X133104761Y-147049569D02*
X133104761Y-146744807D01*
X133104761Y-146744807D02*
X133142857Y-146668617D01*
X133142857Y-146668617D02*
X133219047Y-146630521D01*
X133219047Y-146630521D02*
X133371428Y-146630521D01*
X133371428Y-146630521D02*
X133447619Y-146668617D01*
X133447619Y-146668617D02*
X133485714Y-146744807D01*
X133485714Y-146744807D02*
X133485714Y-146820998D01*
X133485714Y-146820998D02*
X133104761Y-146897188D01*
X133828571Y-146859093D02*
X134438095Y-146859093D01*
X135123809Y-147125760D02*
X135047618Y-147163855D01*
X135047618Y-147163855D02*
X134895237Y-147163855D01*
X134895237Y-147163855D02*
X134819047Y-147125760D01*
X134819047Y-147125760D02*
X134780951Y-147049569D01*
X134780951Y-147049569D02*
X134780951Y-146744807D01*
X134780951Y-146744807D02*
X134819047Y-146668617D01*
X134819047Y-146668617D02*
X134895237Y-146630521D01*
X134895237Y-146630521D02*
X135047618Y-146630521D01*
X135047618Y-146630521D02*
X135123809Y-146668617D01*
X135123809Y-146668617D02*
X135161904Y-146744807D01*
X135161904Y-146744807D02*
X135161904Y-146820998D01*
X135161904Y-146820998D02*
X134780951Y-146897188D01*
X135466665Y-147125760D02*
X135542856Y-147163855D01*
X135542856Y-147163855D02*
X135695237Y-147163855D01*
X135695237Y-147163855D02*
X135771427Y-147125760D01*
X135771427Y-147125760D02*
X135809523Y-147049569D01*
X135809523Y-147049569D02*
X135809523Y-147011474D01*
X135809523Y-147011474D02*
X135771427Y-146935283D01*
X135771427Y-146935283D02*
X135695237Y-146897188D01*
X135695237Y-146897188D02*
X135580951Y-146897188D01*
X135580951Y-146897188D02*
X135504761Y-146859093D01*
X135504761Y-146859093D02*
X135466665Y-146782902D01*
X135466665Y-146782902D02*
X135466665Y-146744807D01*
X135466665Y-146744807D02*
X135504761Y-146668617D01*
X135504761Y-146668617D02*
X135580951Y-146630521D01*
X135580951Y-146630521D02*
X135695237Y-146630521D01*
X135695237Y-146630521D02*
X135771427Y-146668617D01*
X136152380Y-146630521D02*
X136152380Y-147430521D01*
X136152380Y-146668617D02*
X136228570Y-146630521D01*
X136228570Y-146630521D02*
X136380951Y-146630521D01*
X136380951Y-146630521D02*
X136457142Y-146668617D01*
X136457142Y-146668617D02*
X136495237Y-146706712D01*
X136495237Y-146706712D02*
X136533332Y-146782902D01*
X136533332Y-146782902D02*
X136533332Y-147011474D01*
X136533332Y-147011474D02*
X136495237Y-147087664D01*
X136495237Y-147087664D02*
X136457142Y-147125760D01*
X136457142Y-147125760D02*
X136380951Y-147163855D01*
X136380951Y-147163855D02*
X136228570Y-147163855D01*
X136228570Y-147163855D02*
X136152380Y-147125760D01*
X137295237Y-147163855D02*
X136838094Y-147163855D01*
X137066666Y-147163855D02*
X137066666Y-146363855D01*
X137066666Y-146363855D02*
X136990475Y-146478140D01*
X136990475Y-146478140D02*
X136914285Y-146554331D01*
X136914285Y-146554331D02*
X136838094Y-146592426D01*
X137599999Y-146440045D02*
X137638095Y-146401950D01*
X137638095Y-146401950D02*
X137714285Y-146363855D01*
X137714285Y-146363855D02*
X137904761Y-146363855D01*
X137904761Y-146363855D02*
X137980952Y-146401950D01*
X137980952Y-146401950D02*
X138019047Y-146440045D01*
X138019047Y-146440045D02*
X138057142Y-146516236D01*
X138057142Y-146516236D02*
X138057142Y-146592426D01*
X138057142Y-146592426D02*
X138019047Y-146706712D01*
X138019047Y-146706712D02*
X137561904Y-147163855D01*
X137561904Y-147163855D02*
X138057142Y-147163855D01*
X138285714Y-146630521D02*
X138590476Y-146630521D01*
X138400000Y-147163855D02*
X138400000Y-146478140D01*
X138400000Y-146478140D02*
X138438095Y-146401950D01*
X138438095Y-146401950D02*
X138514285Y-146363855D01*
X138514285Y-146363855D02*
X138590476Y-146363855D01*
X139390476Y-146630521D02*
X139580952Y-147163855D01*
X139580952Y-147163855D02*
X139771429Y-146630521D01*
X140000000Y-146363855D02*
X140495238Y-146363855D01*
X140495238Y-146363855D02*
X140228572Y-146668617D01*
X140228572Y-146668617D02*
X140342857Y-146668617D01*
X140342857Y-146668617D02*
X140419048Y-146706712D01*
X140419048Y-146706712D02*
X140457143Y-146744807D01*
X140457143Y-146744807D02*
X140495238Y-146820998D01*
X140495238Y-146820998D02*
X140495238Y-147011474D01*
X140495238Y-147011474D02*
X140457143Y-147087664D01*
X140457143Y-147087664D02*
X140419048Y-147125760D01*
X140419048Y-147125760D02*
X140342857Y-147163855D01*
X140342857Y-147163855D02*
X140114286Y-147163855D01*
X140114286Y-147163855D02*
X140038095Y-147125760D01*
X140038095Y-147125760D02*
X140000000Y-147087664D01*
X158370000Y-130313854D02*
X158370000Y-129513854D01*
X158903333Y-129513854D02*
X159055714Y-129513854D01*
X159055714Y-129513854D02*
X159131904Y-129551949D01*
X159131904Y-129551949D02*
X159208095Y-129628139D01*
X159208095Y-129628139D02*
X159246190Y-129780520D01*
X159246190Y-129780520D02*
X159246190Y-130047187D01*
X159246190Y-130047187D02*
X159208095Y-130199568D01*
X159208095Y-130199568D02*
X159131904Y-130275759D01*
X159131904Y-130275759D02*
X159055714Y-130313854D01*
X159055714Y-130313854D02*
X158903333Y-130313854D01*
X158903333Y-130313854D02*
X158827142Y-130275759D01*
X158827142Y-130275759D02*
X158750952Y-130199568D01*
X158750952Y-130199568D02*
X158712856Y-130047187D01*
X158712856Y-130047187D02*
X158712856Y-129780520D01*
X158712856Y-129780520D02*
X158750952Y-129628139D01*
X158750952Y-129628139D02*
X158827142Y-129551949D01*
X158827142Y-129551949D02*
X158903333Y-129513854D01*
X159741428Y-129513854D02*
X159817618Y-129513854D01*
X159817618Y-129513854D02*
X159893809Y-129551949D01*
X159893809Y-129551949D02*
X159931904Y-129590044D01*
X159931904Y-129590044D02*
X159969999Y-129666235D01*
X159969999Y-129666235D02*
X160008094Y-129818616D01*
X160008094Y-129818616D02*
X160008094Y-130009092D01*
X160008094Y-130009092D02*
X159969999Y-130161473D01*
X159969999Y-130161473D02*
X159931904Y-130237663D01*
X159931904Y-130237663D02*
X159893809Y-130275759D01*
X159893809Y-130275759D02*
X159817618Y-130313854D01*
X159817618Y-130313854D02*
X159741428Y-130313854D01*
X159741428Y-130313854D02*
X159665237Y-130275759D01*
X159665237Y-130275759D02*
X159627142Y-130237663D01*
X159627142Y-130237663D02*
X159589047Y-130161473D01*
X159589047Y-130161473D02*
X159550951Y-130009092D01*
X159550951Y-130009092D02*
X159550951Y-129818616D01*
X159550951Y-129818616D02*
X159589047Y-129666235D01*
X159589047Y-129666235D02*
X159627142Y-129590044D01*
X159627142Y-129590044D02*
X159665237Y-129551949D01*
X159665237Y-129551949D02*
X159741428Y-129513854D01*
X158731905Y-137813855D02*
X158465238Y-137432902D01*
X158274762Y-137813855D02*
X158274762Y-137013855D01*
X158274762Y-137013855D02*
X158579524Y-137013855D01*
X158579524Y-137013855D02*
X158655714Y-137051950D01*
X158655714Y-137051950D02*
X158693809Y-137090045D01*
X158693809Y-137090045D02*
X158731905Y-137166236D01*
X158731905Y-137166236D02*
X158731905Y-137280521D01*
X158731905Y-137280521D02*
X158693809Y-137356712D01*
X158693809Y-137356712D02*
X158655714Y-137394807D01*
X158655714Y-137394807D02*
X158579524Y-137432902D01*
X158579524Y-137432902D02*
X158274762Y-137432902D01*
X159036666Y-137775760D02*
X159150952Y-137813855D01*
X159150952Y-137813855D02*
X159341428Y-137813855D01*
X159341428Y-137813855D02*
X159417619Y-137775760D01*
X159417619Y-137775760D02*
X159455714Y-137737664D01*
X159455714Y-137737664D02*
X159493809Y-137661474D01*
X159493809Y-137661474D02*
X159493809Y-137585283D01*
X159493809Y-137585283D02*
X159455714Y-137509093D01*
X159455714Y-137509093D02*
X159417619Y-137470998D01*
X159417619Y-137470998D02*
X159341428Y-137432902D01*
X159341428Y-137432902D02*
X159189047Y-137394807D01*
X159189047Y-137394807D02*
X159112857Y-137356712D01*
X159112857Y-137356712D02*
X159074762Y-137318617D01*
X159074762Y-137318617D02*
X159036666Y-137242426D01*
X159036666Y-137242426D02*
X159036666Y-137166236D01*
X159036666Y-137166236D02*
X159074762Y-137090045D01*
X159074762Y-137090045D02*
X159112857Y-137051950D01*
X159112857Y-137051950D02*
X159189047Y-137013855D01*
X159189047Y-137013855D02*
X159379524Y-137013855D01*
X159379524Y-137013855D02*
X159493809Y-137051950D01*
X159722381Y-137013855D02*
X160179524Y-137013855D01*
X159950952Y-137813855D02*
X159950952Y-137013855D01*
X161100476Y-129513854D02*
X161557619Y-129513854D01*
X161329047Y-130313854D02*
X161329047Y-129513854D01*
X161748095Y-129513854D02*
X162281429Y-130313854D01*
X162281429Y-129513854D02*
X161748095Y-130313854D01*
X161576667Y-137813855D02*
X161310000Y-137432902D01*
X161119524Y-137813855D02*
X161119524Y-137013855D01*
X161119524Y-137013855D02*
X161424286Y-137013855D01*
X161424286Y-137013855D02*
X161500476Y-137051950D01*
X161500476Y-137051950D02*
X161538571Y-137090045D01*
X161538571Y-137090045D02*
X161576667Y-137166236D01*
X161576667Y-137166236D02*
X161576667Y-137280521D01*
X161576667Y-137280521D02*
X161538571Y-137356712D01*
X161538571Y-137356712D02*
X161500476Y-137394807D01*
X161500476Y-137394807D02*
X161424286Y-137432902D01*
X161424286Y-137432902D02*
X161119524Y-137432902D01*
X161843333Y-137013855D02*
X162376667Y-137813855D01*
X162376667Y-137013855D02*
X161843333Y-137813855D01*
X163640476Y-129551949D02*
X163564286Y-129513854D01*
X163564286Y-129513854D02*
X163450000Y-129513854D01*
X163450000Y-129513854D02*
X163335714Y-129551949D01*
X163335714Y-129551949D02*
X163259524Y-129628139D01*
X163259524Y-129628139D02*
X163221429Y-129704330D01*
X163221429Y-129704330D02*
X163183333Y-129856711D01*
X163183333Y-129856711D02*
X163183333Y-129970997D01*
X163183333Y-129970997D02*
X163221429Y-130123378D01*
X163221429Y-130123378D02*
X163259524Y-130199568D01*
X163259524Y-130199568D02*
X163335714Y-130275759D01*
X163335714Y-130275759D02*
X163450000Y-130313854D01*
X163450000Y-130313854D02*
X163526191Y-130313854D01*
X163526191Y-130313854D02*
X163640476Y-130275759D01*
X163640476Y-130275759D02*
X163678572Y-130237663D01*
X163678572Y-130237663D02*
X163678572Y-129970997D01*
X163678572Y-129970997D02*
X163526191Y-129970997D01*
X164021429Y-130313854D02*
X164021429Y-129513854D01*
X164021429Y-129513854D02*
X164478572Y-130313854D01*
X164478572Y-130313854D02*
X164478572Y-129513854D01*
X164859524Y-130313854D02*
X164859524Y-129513854D01*
X164859524Y-129513854D02*
X165050000Y-129513854D01*
X165050000Y-129513854D02*
X165164286Y-129551949D01*
X165164286Y-129551949D02*
X165240476Y-129628139D01*
X165240476Y-129628139D02*
X165278571Y-129704330D01*
X165278571Y-129704330D02*
X165316667Y-129856711D01*
X165316667Y-129856711D02*
X165316667Y-129970997D01*
X165316667Y-129970997D02*
X165278571Y-130123378D01*
X165278571Y-130123378D02*
X165240476Y-130199568D01*
X165240476Y-130199568D02*
X165164286Y-130275759D01*
X165164286Y-130275759D02*
X165050000Y-130313854D01*
X165050000Y-130313854D02*
X164859524Y-130313854D01*
X164097619Y-137013855D02*
X163716667Y-137013855D01*
X163716667Y-137013855D02*
X163678571Y-137394807D01*
X163678571Y-137394807D02*
X163716667Y-137356712D01*
X163716667Y-137356712D02*
X163792857Y-137318617D01*
X163792857Y-137318617D02*
X163983333Y-137318617D01*
X163983333Y-137318617D02*
X164059524Y-137356712D01*
X164059524Y-137356712D02*
X164097619Y-137394807D01*
X164097619Y-137394807D02*
X164135714Y-137470998D01*
X164135714Y-137470998D02*
X164135714Y-137661474D01*
X164135714Y-137661474D02*
X164097619Y-137737664D01*
X164097619Y-137737664D02*
X164059524Y-137775760D01*
X164059524Y-137775760D02*
X163983333Y-137813855D01*
X163983333Y-137813855D02*
X163792857Y-137813855D01*
X163792857Y-137813855D02*
X163716667Y-137775760D01*
X163716667Y-137775760D02*
X163678571Y-137737664D01*
X164364286Y-137013855D02*
X164630953Y-137813855D01*
X164630953Y-137813855D02*
X164897619Y-137013855D01*
D11*
X102333333Y-131354819D02*
X102333333Y-130354819D01*
X102333333Y-130354819D02*
X102714285Y-130354819D01*
X102714285Y-130354819D02*
X102809523Y-130402438D01*
X102809523Y-130402438D02*
X102857142Y-130450057D01*
X102857142Y-130450057D02*
X102904761Y-130545295D01*
X102904761Y-130545295D02*
X102904761Y-130688152D01*
X102904761Y-130688152D02*
X102857142Y-130783390D01*
X102857142Y-130783390D02*
X102809523Y-130831009D01*
X102809523Y-130831009D02*
X102714285Y-130878628D01*
X102714285Y-130878628D02*
X102333333Y-130878628D01*
X103333333Y-130831009D02*
X103666666Y-130831009D01*
X103809523Y-131354819D02*
X103333333Y-131354819D01*
X103333333Y-131354819D02*
X103333333Y-130354819D01*
X103333333Y-130354819D02*
X103809523Y-130354819D01*
X104714285Y-131354819D02*
X104238095Y-131354819D01*
X104238095Y-131354819D02*
X104238095Y-130354819D01*
X105047619Y-131354819D02*
X105047619Y-130354819D01*
X106047618Y-130402438D02*
X105952380Y-130354819D01*
X105952380Y-130354819D02*
X105809523Y-130354819D01*
X105809523Y-130354819D02*
X105666666Y-130402438D01*
X105666666Y-130402438D02*
X105571428Y-130497676D01*
X105571428Y-130497676D02*
X105523809Y-130592914D01*
X105523809Y-130592914D02*
X105476190Y-130783390D01*
X105476190Y-130783390D02*
X105476190Y-130926247D01*
X105476190Y-130926247D02*
X105523809Y-131116723D01*
X105523809Y-131116723D02*
X105571428Y-131211961D01*
X105571428Y-131211961D02*
X105666666Y-131307200D01*
X105666666Y-131307200D02*
X105809523Y-131354819D01*
X105809523Y-131354819D02*
X105904761Y-131354819D01*
X105904761Y-131354819D02*
X106047618Y-131307200D01*
X106047618Y-131307200D02*
X106095237Y-131259580D01*
X106095237Y-131259580D02*
X106095237Y-130926247D01*
X106095237Y-130926247D02*
X105904761Y-130926247D01*
X107095237Y-131354819D02*
X106761904Y-130878628D01*
X106523809Y-131354819D02*
X106523809Y-130354819D01*
X106523809Y-130354819D02*
X106904761Y-130354819D01*
X106904761Y-130354819D02*
X106999999Y-130402438D01*
X106999999Y-130402438D02*
X107047618Y-130450057D01*
X107047618Y-130450057D02*
X107095237Y-130545295D01*
X107095237Y-130545295D02*
X107095237Y-130688152D01*
X107095237Y-130688152D02*
X107047618Y-130783390D01*
X107047618Y-130783390D02*
X106999999Y-130831009D01*
X106999999Y-130831009D02*
X106904761Y-130878628D01*
X106904761Y-130878628D02*
X106523809Y-130878628D01*
X107714285Y-130354819D02*
X107904761Y-130354819D01*
X107904761Y-130354819D02*
X107999999Y-130402438D01*
X107999999Y-130402438D02*
X108095237Y-130497676D01*
X108095237Y-130497676D02*
X108142856Y-130688152D01*
X108142856Y-130688152D02*
X108142856Y-131021485D01*
X108142856Y-131021485D02*
X108095237Y-131211961D01*
X108095237Y-131211961D02*
X107999999Y-131307200D01*
X107999999Y-131307200D02*
X107904761Y-131354819D01*
X107904761Y-131354819D02*
X107714285Y-131354819D01*
X107714285Y-131354819D02*
X107619047Y-131307200D01*
X107619047Y-131307200D02*
X107523809Y-131211961D01*
X107523809Y-131211961D02*
X107476190Y-131021485D01*
X107476190Y-131021485D02*
X107476190Y-130688152D01*
X107476190Y-130688152D02*
X107523809Y-130497676D01*
X107523809Y-130497676D02*
X107619047Y-130402438D01*
X107619047Y-130402438D02*
X107714285Y-130354819D01*
X108571428Y-131259580D02*
X108619047Y-131307200D01*
X108619047Y-131307200D02*
X108571428Y-131354819D01*
X108571428Y-131354819D02*
X108523809Y-131307200D01*
X108523809Y-131307200D02*
X108571428Y-131259580D01*
X108571428Y-131259580D02*
X108571428Y-131354819D01*
X108571428Y-130735771D02*
X108619047Y-130783390D01*
X108619047Y-130783390D02*
X108571428Y-130831009D01*
X108571428Y-130831009D02*
X108523809Y-130783390D01*
X108523809Y-130783390D02*
X108571428Y-130735771D01*
X108571428Y-130735771D02*
X108571428Y-130831009D01*
X110333332Y-131354819D02*
X109761904Y-131354819D01*
X110047618Y-131354819D02*
X110047618Y-130354819D01*
X110047618Y-130354819D02*
X109952380Y-130497676D01*
X109952380Y-130497676D02*
X109857142Y-130592914D01*
X109857142Y-130592914D02*
X109761904Y-130640533D01*
X111285713Y-131354819D02*
X110714285Y-131354819D01*
X110999999Y-131354819D02*
X110999999Y-130354819D01*
X110999999Y-130354819D02*
X110904761Y-130497676D01*
X110904761Y-130497676D02*
X110809523Y-130592914D01*
X110809523Y-130592914D02*
X110714285Y-130640533D01*
X111904761Y-130354819D02*
X111999999Y-130354819D01*
X111999999Y-130354819D02*
X112095237Y-130402438D01*
X112095237Y-130402438D02*
X112142856Y-130450057D01*
X112142856Y-130450057D02*
X112190475Y-130545295D01*
X112190475Y-130545295D02*
X112238094Y-130735771D01*
X112238094Y-130735771D02*
X112238094Y-130973866D01*
X112238094Y-130973866D02*
X112190475Y-131164342D01*
X112190475Y-131164342D02*
X112142856Y-131259580D01*
X112142856Y-131259580D02*
X112095237Y-131307200D01*
X112095237Y-131307200D02*
X111999999Y-131354819D01*
X111999999Y-131354819D02*
X111904761Y-131354819D01*
X111904761Y-131354819D02*
X111809523Y-131307200D01*
X111809523Y-131307200D02*
X111761904Y-131259580D01*
X111761904Y-131259580D02*
X111714285Y-131164342D01*
X111714285Y-131164342D02*
X111666666Y-130973866D01*
X111666666Y-130973866D02*
X111666666Y-130735771D01*
X111666666Y-130735771D02*
X111714285Y-130545295D01*
X111714285Y-130545295D02*
X111761904Y-130450057D01*
X111761904Y-130450057D02*
X111809523Y-130402438D01*
X111809523Y-130402438D02*
X111904761Y-130354819D01*
X113285714Y-130354819D02*
X113619047Y-131354819D01*
X113619047Y-131354819D02*
X113952380Y-130354819D01*
X114238095Y-131069104D02*
X114714285Y-131069104D01*
X114142857Y-131354819D02*
X114476190Y-130354819D01*
X114476190Y-130354819D02*
X114809523Y-131354819D01*
X115714285Y-131259580D02*
X115666666Y-131307200D01*
X115666666Y-131307200D02*
X115523809Y-131354819D01*
X115523809Y-131354819D02*
X115428571Y-131354819D01*
X115428571Y-131354819D02*
X115285714Y-131307200D01*
X115285714Y-131307200D02*
X115190476Y-131211961D01*
X115190476Y-131211961D02*
X115142857Y-131116723D01*
X115142857Y-131116723D02*
X115095238Y-130926247D01*
X115095238Y-130926247D02*
X115095238Y-130783390D01*
X115095238Y-130783390D02*
X115142857Y-130592914D01*
X115142857Y-130592914D02*
X115190476Y-130497676D01*
X115190476Y-130497676D02*
X115285714Y-130402438D01*
X115285714Y-130402438D02*
X115428571Y-130354819D01*
X115428571Y-130354819D02*
X115523809Y-130354819D01*
X115523809Y-130354819D02*
X115666666Y-130402438D01*
X115666666Y-130402438D02*
X115714285Y-130450057D01*
D12*
X102997143Y-136945782D02*
X102997143Y-135745782D01*
X102997143Y-135745782D02*
X103682857Y-136945782D01*
X103682857Y-136945782D02*
X103682857Y-135745782D01*
X107219999Y-135745782D02*
X107448571Y-135745782D01*
X107448571Y-135745782D02*
X107562856Y-135802925D01*
X107562856Y-135802925D02*
X107677142Y-135917211D01*
X107677142Y-135917211D02*
X107734285Y-136145782D01*
X107734285Y-136145782D02*
X107734285Y-136545782D01*
X107734285Y-136545782D02*
X107677142Y-136774354D01*
X107677142Y-136774354D02*
X107562856Y-136888640D01*
X107562856Y-136888640D02*
X107448571Y-136945782D01*
X107448571Y-136945782D02*
X107219999Y-136945782D01*
X107219999Y-136945782D02*
X107105714Y-136888640D01*
X107105714Y-136888640D02*
X106991428Y-136774354D01*
X106991428Y-136774354D02*
X106934285Y-136545782D01*
X106934285Y-136545782D02*
X106934285Y-136145782D01*
X106934285Y-136145782D02*
X106991428Y-135917211D01*
X106991428Y-135917211D02*
X107105714Y-135802925D01*
X107105714Y-135802925D02*
X107219999Y-135745782D01*
X108248571Y-135745782D02*
X108248571Y-136717211D01*
X108248571Y-136717211D02*
X108305714Y-136831497D01*
X108305714Y-136831497D02*
X108362857Y-136888640D01*
X108362857Y-136888640D02*
X108477142Y-136945782D01*
X108477142Y-136945782D02*
X108705714Y-136945782D01*
X108705714Y-136945782D02*
X108819999Y-136888640D01*
X108819999Y-136888640D02*
X108877142Y-136831497D01*
X108877142Y-136831497D02*
X108934285Y-136717211D01*
X108934285Y-136717211D02*
X108934285Y-135745782D01*
X109334285Y-135745782D02*
X110020000Y-135745782D01*
X109677142Y-136945782D02*
X109677142Y-135745782D01*
X113871428Y-136945782D02*
X113300000Y-136945782D01*
X113300000Y-136945782D02*
X113300000Y-135745782D01*
D10*
X161790476Y-119263855D02*
X161790476Y-119911474D01*
X161790476Y-119911474D02*
X161828571Y-119987664D01*
X161828571Y-119987664D02*
X161866666Y-120025760D01*
X161866666Y-120025760D02*
X161942857Y-120063855D01*
X161942857Y-120063855D02*
X162095238Y-120063855D01*
X162095238Y-120063855D02*
X162171428Y-120025760D01*
X162171428Y-120025760D02*
X162209523Y-119987664D01*
X162209523Y-119987664D02*
X162247619Y-119911474D01*
X162247619Y-119911474D02*
X162247619Y-119263855D01*
X162590475Y-119340045D02*
X162628571Y-119301950D01*
X162628571Y-119301950D02*
X162704761Y-119263855D01*
X162704761Y-119263855D02*
X162895237Y-119263855D01*
X162895237Y-119263855D02*
X162971428Y-119301950D01*
X162971428Y-119301950D02*
X163009523Y-119340045D01*
X163009523Y-119340045D02*
X163047618Y-119416236D01*
X163047618Y-119416236D02*
X163047618Y-119492426D01*
X163047618Y-119492426D02*
X163009523Y-119606712D01*
X163009523Y-119606712D02*
X162552380Y-120063855D01*
X162552380Y-120063855D02*
X163047618Y-120063855D01*
X150766667Y-128387664D02*
X150728571Y-128425760D01*
X150728571Y-128425760D02*
X150614286Y-128463855D01*
X150614286Y-128463855D02*
X150538095Y-128463855D01*
X150538095Y-128463855D02*
X150423809Y-128425760D01*
X150423809Y-128425760D02*
X150347619Y-128349569D01*
X150347619Y-128349569D02*
X150309524Y-128273379D01*
X150309524Y-128273379D02*
X150271428Y-128120998D01*
X150271428Y-128120998D02*
X150271428Y-128006712D01*
X150271428Y-128006712D02*
X150309524Y-127854331D01*
X150309524Y-127854331D02*
X150347619Y-127778140D01*
X150347619Y-127778140D02*
X150423809Y-127701950D01*
X150423809Y-127701950D02*
X150538095Y-127663855D01*
X150538095Y-127663855D02*
X150614286Y-127663855D01*
X150614286Y-127663855D02*
X150728571Y-127701950D01*
X150728571Y-127701950D02*
X150766667Y-127740045D01*
X151452381Y-127663855D02*
X151300000Y-127663855D01*
X151300000Y-127663855D02*
X151223809Y-127701950D01*
X151223809Y-127701950D02*
X151185714Y-127740045D01*
X151185714Y-127740045D02*
X151109524Y-127854331D01*
X151109524Y-127854331D02*
X151071428Y-128006712D01*
X151071428Y-128006712D02*
X151071428Y-128311474D01*
X151071428Y-128311474D02*
X151109524Y-128387664D01*
X151109524Y-128387664D02*
X151147619Y-128425760D01*
X151147619Y-128425760D02*
X151223809Y-128463855D01*
X151223809Y-128463855D02*
X151376190Y-128463855D01*
X151376190Y-128463855D02*
X151452381Y-128425760D01*
X151452381Y-128425760D02*
X151490476Y-128387664D01*
X151490476Y-128387664D02*
X151528571Y-128311474D01*
X151528571Y-128311474D02*
X151528571Y-128120998D01*
X151528571Y-128120998D02*
X151490476Y-128044807D01*
X151490476Y-128044807D02*
X151452381Y-128006712D01*
X151452381Y-128006712D02*
X151376190Y-127968617D01*
X151376190Y-127968617D02*
X151223809Y-127968617D01*
X151223809Y-127968617D02*
X151147619Y-128006712D01*
X151147619Y-128006712D02*
X151109524Y-128044807D01*
X151109524Y-128044807D02*
X151071428Y-128120998D01*
D13*
X163966666Y-138456119D02*
X163966666Y-139170404D01*
X163966666Y-139170404D02*
X163919047Y-139313261D01*
X163919047Y-139313261D02*
X163823809Y-139408500D01*
X163823809Y-139408500D02*
X163680952Y-139456119D01*
X163680952Y-139456119D02*
X163585714Y-139456119D01*
X164347619Y-138456119D02*
X164966666Y-138456119D01*
X164966666Y-138456119D02*
X164633333Y-138837071D01*
X164633333Y-138837071D02*
X164776190Y-138837071D01*
X164776190Y-138837071D02*
X164871428Y-138884690D01*
X164871428Y-138884690D02*
X164919047Y-138932309D01*
X164919047Y-138932309D02*
X164966666Y-139027547D01*
X164966666Y-139027547D02*
X164966666Y-139265642D01*
X164966666Y-139265642D02*
X164919047Y-139360880D01*
X164919047Y-139360880D02*
X164871428Y-139408500D01*
X164871428Y-139408500D02*
X164776190Y-139456119D01*
X164776190Y-139456119D02*
X164490476Y-139456119D01*
X164490476Y-139456119D02*
X164395238Y-139408500D01*
X164395238Y-139408500D02*
X164347619Y-139360880D01*
D10*
X120233333Y-126544807D02*
X119966667Y-126544807D01*
X119966667Y-126963855D02*
X119966667Y-126163855D01*
X119966667Y-126163855D02*
X120347619Y-126163855D01*
X121071428Y-126963855D02*
X120614285Y-126963855D01*
X120842857Y-126963855D02*
X120842857Y-126163855D01*
X120842857Y-126163855D02*
X120766666Y-126278140D01*
X120766666Y-126278140D02*
X120690476Y-126354331D01*
X120690476Y-126354331D02*
X120614285Y-126392426D01*
X159933332Y-122125760D02*
X160047618Y-122163855D01*
X160047618Y-122163855D02*
X160238094Y-122163855D01*
X160238094Y-122163855D02*
X160314285Y-122125760D01*
X160314285Y-122125760D02*
X160352380Y-122087664D01*
X160352380Y-122087664D02*
X160390475Y-122011474D01*
X160390475Y-122011474D02*
X160390475Y-121935283D01*
X160390475Y-121935283D02*
X160352380Y-121859093D01*
X160352380Y-121859093D02*
X160314285Y-121820998D01*
X160314285Y-121820998D02*
X160238094Y-121782902D01*
X160238094Y-121782902D02*
X160085713Y-121744807D01*
X160085713Y-121744807D02*
X160009523Y-121706712D01*
X160009523Y-121706712D02*
X159971428Y-121668617D01*
X159971428Y-121668617D02*
X159933332Y-121592426D01*
X159933332Y-121592426D02*
X159933332Y-121516236D01*
X159933332Y-121516236D02*
X159971428Y-121440045D01*
X159971428Y-121440045D02*
X160009523Y-121401950D01*
X160009523Y-121401950D02*
X160085713Y-121363855D01*
X160085713Y-121363855D02*
X160276190Y-121363855D01*
X160276190Y-121363855D02*
X160390475Y-121401950D01*
X160657142Y-121363855D02*
X160847618Y-122163855D01*
X160847618Y-122163855D02*
X160999999Y-121592426D01*
X160999999Y-121592426D02*
X161152380Y-122163855D01*
X161152380Y-122163855D02*
X161342857Y-121363855D01*
X162066666Y-122163855D02*
X161609523Y-122163855D01*
X161838095Y-122163855D02*
X161838095Y-121363855D01*
X161838095Y-121363855D02*
X161761904Y-121478140D01*
X161761904Y-121478140D02*
X161685714Y-121554331D01*
X161685714Y-121554331D02*
X161609523Y-121592426D01*
X140666667Y-103887664D02*
X140628571Y-103925760D01*
X140628571Y-103925760D02*
X140514286Y-103963855D01*
X140514286Y-103963855D02*
X140438095Y-103963855D01*
X140438095Y-103963855D02*
X140323809Y-103925760D01*
X140323809Y-103925760D02*
X140247619Y-103849569D01*
X140247619Y-103849569D02*
X140209524Y-103773379D01*
X140209524Y-103773379D02*
X140171428Y-103620998D01*
X140171428Y-103620998D02*
X140171428Y-103506712D01*
X140171428Y-103506712D02*
X140209524Y-103354331D01*
X140209524Y-103354331D02*
X140247619Y-103278140D01*
X140247619Y-103278140D02*
X140323809Y-103201950D01*
X140323809Y-103201950D02*
X140438095Y-103163855D01*
X140438095Y-103163855D02*
X140514286Y-103163855D01*
X140514286Y-103163855D02*
X140628571Y-103201950D01*
X140628571Y-103201950D02*
X140666667Y-103240045D01*
X141390476Y-103163855D02*
X141009524Y-103163855D01*
X141009524Y-103163855D02*
X140971428Y-103544807D01*
X140971428Y-103544807D02*
X141009524Y-103506712D01*
X141009524Y-103506712D02*
X141085714Y-103468617D01*
X141085714Y-103468617D02*
X141276190Y-103468617D01*
X141276190Y-103468617D02*
X141352381Y-103506712D01*
X141352381Y-103506712D02*
X141390476Y-103544807D01*
X141390476Y-103544807D02*
X141428571Y-103620998D01*
X141428571Y-103620998D02*
X141428571Y-103811474D01*
X141428571Y-103811474D02*
X141390476Y-103887664D01*
X141390476Y-103887664D02*
X141352381Y-103925760D01*
X141352381Y-103925760D02*
X141276190Y-103963855D01*
X141276190Y-103963855D02*
X141085714Y-103963855D01*
X141085714Y-103963855D02*
X141009524Y-103925760D01*
X141009524Y-103925760D02*
X140971428Y-103887664D01*
X152923809Y-138740045D02*
X152847619Y-138701950D01*
X152847619Y-138701950D02*
X152771428Y-138625760D01*
X152771428Y-138625760D02*
X152657142Y-138511474D01*
X152657142Y-138511474D02*
X152580952Y-138473379D01*
X152580952Y-138473379D02*
X152504761Y-138473379D01*
X152542857Y-138663855D02*
X152466666Y-138625760D01*
X152466666Y-138625760D02*
X152390476Y-138549569D01*
X152390476Y-138549569D02*
X152352380Y-138397188D01*
X152352380Y-138397188D02*
X152352380Y-138130521D01*
X152352380Y-138130521D02*
X152390476Y-137978140D01*
X152390476Y-137978140D02*
X152466666Y-137901950D01*
X152466666Y-137901950D02*
X152542857Y-137863855D01*
X152542857Y-137863855D02*
X152695238Y-137863855D01*
X152695238Y-137863855D02*
X152771428Y-137901950D01*
X152771428Y-137901950D02*
X152847619Y-137978140D01*
X152847619Y-137978140D02*
X152885714Y-138130521D01*
X152885714Y-138130521D02*
X152885714Y-138397188D01*
X152885714Y-138397188D02*
X152847619Y-138549569D01*
X152847619Y-138549569D02*
X152771428Y-138625760D01*
X152771428Y-138625760D02*
X152695238Y-138663855D01*
X152695238Y-138663855D02*
X152542857Y-138663855D01*
X153647618Y-138663855D02*
X153190475Y-138663855D01*
X153419047Y-138663855D02*
X153419047Y-137863855D01*
X153419047Y-137863855D02*
X153342856Y-137978140D01*
X153342856Y-137978140D02*
X153266666Y-138054331D01*
X153266666Y-138054331D02*
X153190475Y-138092426D01*
X147409524Y-146113855D02*
X147409524Y-145313855D01*
X147409524Y-145313855D02*
X147600000Y-145313855D01*
X147600000Y-145313855D02*
X147714286Y-145351950D01*
X147714286Y-145351950D02*
X147790476Y-145428140D01*
X147790476Y-145428140D02*
X147828571Y-145504331D01*
X147828571Y-145504331D02*
X147866667Y-145656712D01*
X147866667Y-145656712D02*
X147866667Y-145770998D01*
X147866667Y-145770998D02*
X147828571Y-145923379D01*
X147828571Y-145923379D02*
X147790476Y-145999569D01*
X147790476Y-145999569D02*
X147714286Y-146075760D01*
X147714286Y-146075760D02*
X147600000Y-146113855D01*
X147600000Y-146113855D02*
X147409524Y-146113855D01*
X148133333Y-145313855D02*
X148628571Y-145313855D01*
X148628571Y-145313855D02*
X148361905Y-145618617D01*
X148361905Y-145618617D02*
X148476190Y-145618617D01*
X148476190Y-145618617D02*
X148552381Y-145656712D01*
X148552381Y-145656712D02*
X148590476Y-145694807D01*
X148590476Y-145694807D02*
X148628571Y-145770998D01*
X148628571Y-145770998D02*
X148628571Y-145961474D01*
X148628571Y-145961474D02*
X148590476Y-146037664D01*
X148590476Y-146037664D02*
X148552381Y-146075760D01*
X148552381Y-146075760D02*
X148476190Y-146113855D01*
X148476190Y-146113855D02*
X148247619Y-146113855D01*
X148247619Y-146113855D02*
X148171428Y-146075760D01*
X148171428Y-146075760D02*
X148133333Y-146037664D01*
X138287664Y-107333332D02*
X138325760Y-107371428D01*
X138325760Y-107371428D02*
X138363855Y-107485713D01*
X138363855Y-107485713D02*
X138363855Y-107561904D01*
X138363855Y-107561904D02*
X138325760Y-107676190D01*
X138325760Y-107676190D02*
X138249569Y-107752380D01*
X138249569Y-107752380D02*
X138173379Y-107790475D01*
X138173379Y-107790475D02*
X138020998Y-107828571D01*
X138020998Y-107828571D02*
X137906712Y-107828571D01*
X137906712Y-107828571D02*
X137754331Y-107790475D01*
X137754331Y-107790475D02*
X137678140Y-107752380D01*
X137678140Y-107752380D02*
X137601950Y-107676190D01*
X137601950Y-107676190D02*
X137563855Y-107561904D01*
X137563855Y-107561904D02*
X137563855Y-107485713D01*
X137563855Y-107485713D02*
X137601950Y-107371428D01*
X137601950Y-107371428D02*
X137640045Y-107333332D01*
X138363855Y-106952380D02*
X138363855Y-106799999D01*
X138363855Y-106799999D02*
X138325760Y-106723809D01*
X138325760Y-106723809D02*
X138287664Y-106685713D01*
X138287664Y-106685713D02*
X138173379Y-106609523D01*
X138173379Y-106609523D02*
X138020998Y-106571428D01*
X138020998Y-106571428D02*
X137716236Y-106571428D01*
X137716236Y-106571428D02*
X137640045Y-106609523D01*
X137640045Y-106609523D02*
X137601950Y-106647618D01*
X137601950Y-106647618D02*
X137563855Y-106723809D01*
X137563855Y-106723809D02*
X137563855Y-106876190D01*
X137563855Y-106876190D02*
X137601950Y-106952380D01*
X137601950Y-106952380D02*
X137640045Y-106990475D01*
X137640045Y-106990475D02*
X137716236Y-107028571D01*
X137716236Y-107028571D02*
X137906712Y-107028571D01*
X137906712Y-107028571D02*
X137982902Y-106990475D01*
X137982902Y-106990475D02*
X138020998Y-106952380D01*
X138020998Y-106952380D02*
X138059093Y-106876190D01*
X138059093Y-106876190D02*
X138059093Y-106723809D01*
X138059093Y-106723809D02*
X138020998Y-106647618D01*
X138020998Y-106647618D02*
X137982902Y-106609523D01*
X137982902Y-106609523D02*
X137906712Y-106571428D01*
X101333333Y-134163855D02*
X101333333Y-134735283D01*
X101333333Y-134735283D02*
X101295238Y-134849569D01*
X101295238Y-134849569D02*
X101219047Y-134925760D01*
X101219047Y-134925760D02*
X101104762Y-134963855D01*
X101104762Y-134963855D02*
X101028571Y-134963855D01*
X102133333Y-134963855D02*
X101676190Y-134963855D01*
X101904762Y-134963855D02*
X101904762Y-134163855D01*
X101904762Y-134163855D02*
X101828571Y-134278140D01*
X101828571Y-134278140D02*
X101752381Y-134354331D01*
X101752381Y-134354331D02*
X101676190Y-134392426D01*
X156166667Y-138563855D02*
X155900000Y-138182902D01*
X155709524Y-138563855D02*
X155709524Y-137763855D01*
X155709524Y-137763855D02*
X156014286Y-137763855D01*
X156014286Y-137763855D02*
X156090476Y-137801950D01*
X156090476Y-137801950D02*
X156128571Y-137840045D01*
X156128571Y-137840045D02*
X156166667Y-137916236D01*
X156166667Y-137916236D02*
X156166667Y-138030521D01*
X156166667Y-138030521D02*
X156128571Y-138106712D01*
X156128571Y-138106712D02*
X156090476Y-138144807D01*
X156090476Y-138144807D02*
X156014286Y-138182902D01*
X156014286Y-138182902D02*
X155709524Y-138182902D01*
X156433333Y-137763855D02*
X156966667Y-137763855D01*
X156966667Y-137763855D02*
X156623809Y-138563855D01*
X138363855Y-109133332D02*
X137982902Y-109399999D01*
X138363855Y-109590475D02*
X137563855Y-109590475D01*
X137563855Y-109590475D02*
X137563855Y-109285713D01*
X137563855Y-109285713D02*
X137601950Y-109209523D01*
X137601950Y-109209523D02*
X137640045Y-109171428D01*
X137640045Y-109171428D02*
X137716236Y-109133332D01*
X137716236Y-109133332D02*
X137830521Y-109133332D01*
X137830521Y-109133332D02*
X137906712Y-109171428D01*
X137906712Y-109171428D02*
X137944807Y-109209523D01*
X137944807Y-109209523D02*
X137982902Y-109285713D01*
X137982902Y-109285713D02*
X137982902Y-109590475D01*
X138363855Y-108371428D02*
X138363855Y-108828571D01*
X138363855Y-108599999D02*
X137563855Y-108599999D01*
X137563855Y-108599999D02*
X137678140Y-108676190D01*
X137678140Y-108676190D02*
X137754331Y-108752380D01*
X137754331Y-108752380D02*
X137792426Y-108828571D01*
X146609524Y-140763855D02*
X146609524Y-139963855D01*
X146609524Y-139963855D02*
X146800000Y-139963855D01*
X146800000Y-139963855D02*
X146914286Y-140001950D01*
X146914286Y-140001950D02*
X146990476Y-140078140D01*
X146990476Y-140078140D02*
X147028571Y-140154331D01*
X147028571Y-140154331D02*
X147066667Y-140306712D01*
X147066667Y-140306712D02*
X147066667Y-140420998D01*
X147066667Y-140420998D02*
X147028571Y-140573379D01*
X147028571Y-140573379D02*
X146990476Y-140649569D01*
X146990476Y-140649569D02*
X146914286Y-140725760D01*
X146914286Y-140725760D02*
X146800000Y-140763855D01*
X146800000Y-140763855D02*
X146609524Y-140763855D01*
X147828571Y-140763855D02*
X147371428Y-140763855D01*
X147600000Y-140763855D02*
X147600000Y-139963855D01*
X147600000Y-139963855D02*
X147523809Y-140078140D01*
X147523809Y-140078140D02*
X147447619Y-140154331D01*
X147447619Y-140154331D02*
X147371428Y-140192426D01*
X153266667Y-124287664D02*
X153228571Y-124325760D01*
X153228571Y-124325760D02*
X153114286Y-124363855D01*
X153114286Y-124363855D02*
X153038095Y-124363855D01*
X153038095Y-124363855D02*
X152923809Y-124325760D01*
X152923809Y-124325760D02*
X152847619Y-124249569D01*
X152847619Y-124249569D02*
X152809524Y-124173379D01*
X152809524Y-124173379D02*
X152771428Y-124020998D01*
X152771428Y-124020998D02*
X152771428Y-123906712D01*
X152771428Y-123906712D02*
X152809524Y-123754331D01*
X152809524Y-123754331D02*
X152847619Y-123678140D01*
X152847619Y-123678140D02*
X152923809Y-123601950D01*
X152923809Y-123601950D02*
X153038095Y-123563855D01*
X153038095Y-123563855D02*
X153114286Y-123563855D01*
X153114286Y-123563855D02*
X153228571Y-123601950D01*
X153228571Y-123601950D02*
X153266667Y-123640045D01*
X153952381Y-123830521D02*
X153952381Y-124363855D01*
X153761905Y-123525760D02*
X153571428Y-124097188D01*
X153571428Y-124097188D02*
X154066667Y-124097188D01*
X128656667Y-127487664D02*
X128618571Y-127525760D01*
X128618571Y-127525760D02*
X128504286Y-127563855D01*
X128504286Y-127563855D02*
X128428095Y-127563855D01*
X128428095Y-127563855D02*
X128313809Y-127525760D01*
X128313809Y-127525760D02*
X128237619Y-127449569D01*
X128237619Y-127449569D02*
X128199524Y-127373379D01*
X128199524Y-127373379D02*
X128161428Y-127220998D01*
X128161428Y-127220998D02*
X128161428Y-127106712D01*
X128161428Y-127106712D02*
X128199524Y-126954331D01*
X128199524Y-126954331D02*
X128237619Y-126878140D01*
X128237619Y-126878140D02*
X128313809Y-126801950D01*
X128313809Y-126801950D02*
X128428095Y-126763855D01*
X128428095Y-126763855D02*
X128504286Y-126763855D01*
X128504286Y-126763855D02*
X128618571Y-126801950D01*
X128618571Y-126801950D02*
X128656667Y-126840045D01*
X129418571Y-127563855D02*
X128961428Y-127563855D01*
X129190000Y-127563855D02*
X129190000Y-126763855D01*
X129190000Y-126763855D02*
X129113809Y-126878140D01*
X129113809Y-126878140D02*
X129037619Y-126954331D01*
X129037619Y-126954331D02*
X128961428Y-126992426D01*
D13*
X161333333Y-139230881D02*
X161285714Y-139278501D01*
X161285714Y-139278501D02*
X161142857Y-139326120D01*
X161142857Y-139326120D02*
X161047619Y-139326120D01*
X161047619Y-139326120D02*
X160904762Y-139278501D01*
X160904762Y-139278501D02*
X160809524Y-139183262D01*
X160809524Y-139183262D02*
X160761905Y-139088024D01*
X160761905Y-139088024D02*
X160714286Y-138897548D01*
X160714286Y-138897548D02*
X160714286Y-138754691D01*
X160714286Y-138754691D02*
X160761905Y-138564215D01*
X160761905Y-138564215D02*
X160809524Y-138468977D01*
X160809524Y-138468977D02*
X160904762Y-138373739D01*
X160904762Y-138373739D02*
X161047619Y-138326120D01*
X161047619Y-138326120D02*
X161142857Y-138326120D01*
X161142857Y-138326120D02*
X161285714Y-138373739D01*
X161285714Y-138373739D02*
X161333333Y-138421358D01*
X161904762Y-138754691D02*
X161809524Y-138707072D01*
X161809524Y-138707072D02*
X161761905Y-138659453D01*
X161761905Y-138659453D02*
X161714286Y-138564215D01*
X161714286Y-138564215D02*
X161714286Y-138516596D01*
X161714286Y-138516596D02*
X161761905Y-138421358D01*
X161761905Y-138421358D02*
X161809524Y-138373739D01*
X161809524Y-138373739D02*
X161904762Y-138326120D01*
X161904762Y-138326120D02*
X162095238Y-138326120D01*
X162095238Y-138326120D02*
X162190476Y-138373739D01*
X162190476Y-138373739D02*
X162238095Y-138421358D01*
X162238095Y-138421358D02*
X162285714Y-138516596D01*
X162285714Y-138516596D02*
X162285714Y-138564215D01*
X162285714Y-138564215D02*
X162238095Y-138659453D01*
X162238095Y-138659453D02*
X162190476Y-138707072D01*
X162190476Y-138707072D02*
X162095238Y-138754691D01*
X162095238Y-138754691D02*
X161904762Y-138754691D01*
X161904762Y-138754691D02*
X161809524Y-138802310D01*
X161809524Y-138802310D02*
X161761905Y-138849929D01*
X161761905Y-138849929D02*
X161714286Y-138945167D01*
X161714286Y-138945167D02*
X161714286Y-139135643D01*
X161714286Y-139135643D02*
X161761905Y-139230881D01*
X161761905Y-139230881D02*
X161809524Y-139278501D01*
X161809524Y-139278501D02*
X161904762Y-139326120D01*
X161904762Y-139326120D02*
X162095238Y-139326120D01*
X162095238Y-139326120D02*
X162190476Y-139278501D01*
X162190476Y-139278501D02*
X162238095Y-139230881D01*
X162238095Y-139230881D02*
X162285714Y-139135643D01*
X162285714Y-139135643D02*
X162285714Y-138945167D01*
X162285714Y-138945167D02*
X162238095Y-138849929D01*
X162238095Y-138849929D02*
X162190476Y-138802310D01*
X162190476Y-138802310D02*
X162095238Y-138754691D01*
D10*
X143490476Y-129763854D02*
X143490476Y-130411473D01*
X143490476Y-130411473D02*
X143528571Y-130487663D01*
X143528571Y-130487663D02*
X143566666Y-130525759D01*
X143566666Y-130525759D02*
X143642857Y-130563854D01*
X143642857Y-130563854D02*
X143795238Y-130563854D01*
X143795238Y-130563854D02*
X143871428Y-130525759D01*
X143871428Y-130525759D02*
X143909523Y-130487663D01*
X143909523Y-130487663D02*
X143947619Y-130411473D01*
X143947619Y-130411473D02*
X143947619Y-129763854D01*
X144747618Y-130563854D02*
X144290475Y-130563854D01*
X144519047Y-130563854D02*
X144519047Y-129763854D01*
X144519047Y-129763854D02*
X144442856Y-129878139D01*
X144442856Y-129878139D02*
X144366666Y-129954330D01*
X144366666Y-129954330D02*
X144290475Y-129992425D01*
X147266667Y-122913855D02*
X147000000Y-122532902D01*
X146809524Y-122913855D02*
X146809524Y-122113855D01*
X146809524Y-122113855D02*
X147114286Y-122113855D01*
X147114286Y-122113855D02*
X147190476Y-122151950D01*
X147190476Y-122151950D02*
X147228571Y-122190045D01*
X147228571Y-122190045D02*
X147266667Y-122266236D01*
X147266667Y-122266236D02*
X147266667Y-122380521D01*
X147266667Y-122380521D02*
X147228571Y-122456712D01*
X147228571Y-122456712D02*
X147190476Y-122494807D01*
X147190476Y-122494807D02*
X147114286Y-122532902D01*
X147114286Y-122532902D02*
X146809524Y-122532902D01*
X147952381Y-122380521D02*
X147952381Y-122913855D01*
X147761905Y-122075760D02*
X147571428Y-122647188D01*
X147571428Y-122647188D02*
X148066667Y-122647188D01*
X156963855Y-124590475D02*
X156163855Y-124590475D01*
X156163855Y-124590475D02*
X156163855Y-124399999D01*
X156163855Y-124399999D02*
X156201950Y-124285713D01*
X156201950Y-124285713D02*
X156278140Y-124209523D01*
X156278140Y-124209523D02*
X156354331Y-124171428D01*
X156354331Y-124171428D02*
X156506712Y-124133332D01*
X156506712Y-124133332D02*
X156620998Y-124133332D01*
X156620998Y-124133332D02*
X156773379Y-124171428D01*
X156773379Y-124171428D02*
X156849569Y-124209523D01*
X156849569Y-124209523D02*
X156925760Y-124285713D01*
X156925760Y-124285713D02*
X156963855Y-124399999D01*
X156963855Y-124399999D02*
X156963855Y-124590475D01*
X156240045Y-123828571D02*
X156201950Y-123790475D01*
X156201950Y-123790475D02*
X156163855Y-123714285D01*
X156163855Y-123714285D02*
X156163855Y-123523809D01*
X156163855Y-123523809D02*
X156201950Y-123447618D01*
X156201950Y-123447618D02*
X156240045Y-123409523D01*
X156240045Y-123409523D02*
X156316236Y-123371428D01*
X156316236Y-123371428D02*
X156392426Y-123371428D01*
X156392426Y-123371428D02*
X156506712Y-123409523D01*
X156506712Y-123409523D02*
X156963855Y-123866666D01*
X156963855Y-123866666D02*
X156963855Y-123371428D01*
X155263855Y-120583332D02*
X154882902Y-120849999D01*
X155263855Y-121040475D02*
X154463855Y-121040475D01*
X154463855Y-121040475D02*
X154463855Y-120735713D01*
X154463855Y-120735713D02*
X154501950Y-120659523D01*
X154501950Y-120659523D02*
X154540045Y-120621428D01*
X154540045Y-120621428D02*
X154616236Y-120583332D01*
X154616236Y-120583332D02*
X154730521Y-120583332D01*
X154730521Y-120583332D02*
X154806712Y-120621428D01*
X154806712Y-120621428D02*
X154844807Y-120659523D01*
X154844807Y-120659523D02*
X154882902Y-120735713D01*
X154882902Y-120735713D02*
X154882902Y-121040475D01*
X154463855Y-119897618D02*
X154463855Y-120049999D01*
X154463855Y-120049999D02*
X154501950Y-120126190D01*
X154501950Y-120126190D02*
X154540045Y-120164285D01*
X154540045Y-120164285D02*
X154654331Y-120240475D01*
X154654331Y-120240475D02*
X154806712Y-120278571D01*
X154806712Y-120278571D02*
X155111474Y-120278571D01*
X155111474Y-120278571D02*
X155187664Y-120240475D01*
X155187664Y-120240475D02*
X155225760Y-120202380D01*
X155225760Y-120202380D02*
X155263855Y-120126190D01*
X155263855Y-120126190D02*
X155263855Y-119973809D01*
X155263855Y-119973809D02*
X155225760Y-119897618D01*
X155225760Y-119897618D02*
X155187664Y-119859523D01*
X155187664Y-119859523D02*
X155111474Y-119821428D01*
X155111474Y-119821428D02*
X154920998Y-119821428D01*
X154920998Y-119821428D02*
X154844807Y-119859523D01*
X154844807Y-119859523D02*
X154806712Y-119897618D01*
X154806712Y-119897618D02*
X154768617Y-119973809D01*
X154768617Y-119973809D02*
X154768617Y-120126190D01*
X154768617Y-120126190D02*
X154806712Y-120202380D01*
X154806712Y-120202380D02*
X154844807Y-120240475D01*
X154844807Y-120240475D02*
X154920998Y-120278571D01*
D13*
X130561905Y-145556119D02*
X130561905Y-144556119D01*
X131133333Y-145556119D02*
X130704762Y-144984690D01*
X131133333Y-144556119D02*
X130561905Y-145127547D01*
X132085714Y-145556119D02*
X131514286Y-145556119D01*
X131800000Y-145556119D02*
X131800000Y-144556119D01*
X131800000Y-144556119D02*
X131704762Y-144698976D01*
X131704762Y-144698976D02*
X131609524Y-144794214D01*
X131609524Y-144794214D02*
X131514286Y-144841833D01*
D10*
X153787664Y-131733332D02*
X153825760Y-131771428D01*
X153825760Y-131771428D02*
X153863855Y-131885713D01*
X153863855Y-131885713D02*
X153863855Y-131961904D01*
X153863855Y-131961904D02*
X153825760Y-132076190D01*
X153825760Y-132076190D02*
X153749569Y-132152380D01*
X153749569Y-132152380D02*
X153673379Y-132190475D01*
X153673379Y-132190475D02*
X153520998Y-132228571D01*
X153520998Y-132228571D02*
X153406712Y-132228571D01*
X153406712Y-132228571D02*
X153254331Y-132190475D01*
X153254331Y-132190475D02*
X153178140Y-132152380D01*
X153178140Y-132152380D02*
X153101950Y-132076190D01*
X153101950Y-132076190D02*
X153063855Y-131961904D01*
X153063855Y-131961904D02*
X153063855Y-131885713D01*
X153063855Y-131885713D02*
X153101950Y-131771428D01*
X153101950Y-131771428D02*
X153140045Y-131733332D01*
X153140045Y-131428571D02*
X153101950Y-131390475D01*
X153101950Y-131390475D02*
X153063855Y-131314285D01*
X153063855Y-131314285D02*
X153063855Y-131123809D01*
X153063855Y-131123809D02*
X153101950Y-131047618D01*
X153101950Y-131047618D02*
X153140045Y-131009523D01*
X153140045Y-131009523D02*
X153216236Y-130971428D01*
X153216236Y-130971428D02*
X153292426Y-130971428D01*
X153292426Y-130971428D02*
X153406712Y-131009523D01*
X153406712Y-131009523D02*
X153863855Y-131466666D01*
X153863855Y-131466666D02*
X153863855Y-130971428D01*
X117928571Y-102363855D02*
X117928571Y-101563855D01*
X117928571Y-101563855D02*
X118233333Y-101563855D01*
X118233333Y-101563855D02*
X118309523Y-101601950D01*
X118309523Y-101601950D02*
X118347618Y-101640045D01*
X118347618Y-101640045D02*
X118385714Y-101716236D01*
X118385714Y-101716236D02*
X118385714Y-101830521D01*
X118385714Y-101830521D02*
X118347618Y-101906712D01*
X118347618Y-101906712D02*
X118309523Y-101944807D01*
X118309523Y-101944807D02*
X118233333Y-101982902D01*
X118233333Y-101982902D02*
X117928571Y-101982902D01*
X118690475Y-102325760D02*
X118804761Y-102363855D01*
X118804761Y-102363855D02*
X118995237Y-102363855D01*
X118995237Y-102363855D02*
X119071428Y-102325760D01*
X119071428Y-102325760D02*
X119109523Y-102287664D01*
X119109523Y-102287664D02*
X119147618Y-102211474D01*
X119147618Y-102211474D02*
X119147618Y-102135283D01*
X119147618Y-102135283D02*
X119109523Y-102059093D01*
X119109523Y-102059093D02*
X119071428Y-102020998D01*
X119071428Y-102020998D02*
X118995237Y-101982902D01*
X118995237Y-101982902D02*
X118842856Y-101944807D01*
X118842856Y-101944807D02*
X118766666Y-101906712D01*
X118766666Y-101906712D02*
X118728571Y-101868617D01*
X118728571Y-101868617D02*
X118690475Y-101792426D01*
X118690475Y-101792426D02*
X118690475Y-101716236D01*
X118690475Y-101716236D02*
X118728571Y-101640045D01*
X118728571Y-101640045D02*
X118766666Y-101601950D01*
X118766666Y-101601950D02*
X118842856Y-101563855D01*
X118842856Y-101563855D02*
X119033333Y-101563855D01*
X119033333Y-101563855D02*
X119147618Y-101601950D01*
X119909523Y-102363855D02*
X119452380Y-102363855D01*
X119680952Y-102363855D02*
X119680952Y-101563855D01*
X119680952Y-101563855D02*
X119604761Y-101678140D01*
X119604761Y-101678140D02*
X119528571Y-101754331D01*
X119528571Y-101754331D02*
X119452380Y-101792426D01*
X162075760Y-147066667D02*
X162113855Y-146952381D01*
X162113855Y-146952381D02*
X162113855Y-146761905D01*
X162113855Y-146761905D02*
X162075760Y-146685714D01*
X162075760Y-146685714D02*
X162037664Y-146647619D01*
X162037664Y-146647619D02*
X161961474Y-146609524D01*
X161961474Y-146609524D02*
X161885283Y-146609524D01*
X161885283Y-146609524D02*
X161809093Y-146647619D01*
X161809093Y-146647619D02*
X161770998Y-146685714D01*
X161770998Y-146685714D02*
X161732902Y-146761905D01*
X161732902Y-146761905D02*
X161694807Y-146914286D01*
X161694807Y-146914286D02*
X161656712Y-146990476D01*
X161656712Y-146990476D02*
X161618617Y-147028571D01*
X161618617Y-147028571D02*
X161542426Y-147066667D01*
X161542426Y-147066667D02*
X161466236Y-147066667D01*
X161466236Y-147066667D02*
X161390045Y-147028571D01*
X161390045Y-147028571D02*
X161351950Y-146990476D01*
X161351950Y-146990476D02*
X161313855Y-146914286D01*
X161313855Y-146914286D02*
X161313855Y-146723809D01*
X161313855Y-146723809D02*
X161351950Y-146609524D01*
X161313855Y-146342857D02*
X162113855Y-146152381D01*
X162113855Y-146152381D02*
X161542426Y-146000000D01*
X161542426Y-146000000D02*
X162113855Y-145847619D01*
X162113855Y-145847619D02*
X161313855Y-145657143D01*
X161390045Y-145390476D02*
X161351950Y-145352380D01*
X161351950Y-145352380D02*
X161313855Y-145276190D01*
X161313855Y-145276190D02*
X161313855Y-145085714D01*
X161313855Y-145085714D02*
X161351950Y-145009523D01*
X161351950Y-145009523D02*
X161390045Y-144971428D01*
X161390045Y-144971428D02*
X161466236Y-144933333D01*
X161466236Y-144933333D02*
X161542426Y-144933333D01*
X161542426Y-144933333D02*
X161656712Y-144971428D01*
X161656712Y-144971428D02*
X162113855Y-145428571D01*
X162113855Y-145428571D02*
X162113855Y-144933333D01*
X151266667Y-122913855D02*
X151000000Y-122532902D01*
X150809524Y-122913855D02*
X150809524Y-122113855D01*
X150809524Y-122113855D02*
X151114286Y-122113855D01*
X151114286Y-122113855D02*
X151190476Y-122151950D01*
X151190476Y-122151950D02*
X151228571Y-122190045D01*
X151228571Y-122190045D02*
X151266667Y-122266236D01*
X151266667Y-122266236D02*
X151266667Y-122380521D01*
X151266667Y-122380521D02*
X151228571Y-122456712D01*
X151228571Y-122456712D02*
X151190476Y-122494807D01*
X151190476Y-122494807D02*
X151114286Y-122532902D01*
X151114286Y-122532902D02*
X150809524Y-122532902D01*
X151647619Y-122913855D02*
X151800000Y-122913855D01*
X151800000Y-122913855D02*
X151876190Y-122875760D01*
X151876190Y-122875760D02*
X151914286Y-122837664D01*
X151914286Y-122837664D02*
X151990476Y-122723379D01*
X151990476Y-122723379D02*
X152028571Y-122570998D01*
X152028571Y-122570998D02*
X152028571Y-122266236D01*
X152028571Y-122266236D02*
X151990476Y-122190045D01*
X151990476Y-122190045D02*
X151952381Y-122151950D01*
X151952381Y-122151950D02*
X151876190Y-122113855D01*
X151876190Y-122113855D02*
X151723809Y-122113855D01*
X151723809Y-122113855D02*
X151647619Y-122151950D01*
X151647619Y-122151950D02*
X151609524Y-122190045D01*
X151609524Y-122190045D02*
X151571428Y-122266236D01*
X151571428Y-122266236D02*
X151571428Y-122456712D01*
X151571428Y-122456712D02*
X151609524Y-122532902D01*
X151609524Y-122532902D02*
X151647619Y-122570998D01*
X151647619Y-122570998D02*
X151723809Y-122609093D01*
X151723809Y-122609093D02*
X151876190Y-122609093D01*
X151876190Y-122609093D02*
X151952381Y-122570998D01*
X151952381Y-122570998D02*
X151990476Y-122532902D01*
X151990476Y-122532902D02*
X152028571Y-122456712D01*
X143866667Y-120813855D02*
X143600000Y-120432902D01*
X143409524Y-120813855D02*
X143409524Y-120013855D01*
X143409524Y-120013855D02*
X143714286Y-120013855D01*
X143714286Y-120013855D02*
X143790476Y-120051950D01*
X143790476Y-120051950D02*
X143828571Y-120090045D01*
X143828571Y-120090045D02*
X143866667Y-120166236D01*
X143866667Y-120166236D02*
X143866667Y-120280521D01*
X143866667Y-120280521D02*
X143828571Y-120356712D01*
X143828571Y-120356712D02*
X143790476Y-120394807D01*
X143790476Y-120394807D02*
X143714286Y-120432902D01*
X143714286Y-120432902D02*
X143409524Y-120432902D01*
X144590476Y-120013855D02*
X144209524Y-120013855D01*
X144209524Y-120013855D02*
X144171428Y-120394807D01*
X144171428Y-120394807D02*
X144209524Y-120356712D01*
X144209524Y-120356712D02*
X144285714Y-120318617D01*
X144285714Y-120318617D02*
X144476190Y-120318617D01*
X144476190Y-120318617D02*
X144552381Y-120356712D01*
X144552381Y-120356712D02*
X144590476Y-120394807D01*
X144590476Y-120394807D02*
X144628571Y-120470998D01*
X144628571Y-120470998D02*
X144628571Y-120661474D01*
X144628571Y-120661474D02*
X144590476Y-120737664D01*
X144590476Y-120737664D02*
X144552381Y-120775760D01*
X144552381Y-120775760D02*
X144476190Y-120813855D01*
X144476190Y-120813855D02*
X144285714Y-120813855D01*
X144285714Y-120813855D02*
X144209524Y-120775760D01*
X144209524Y-120775760D02*
X144171428Y-120737664D01*
X154213855Y-127233332D02*
X153832902Y-127499999D01*
X154213855Y-127690475D02*
X153413855Y-127690475D01*
X153413855Y-127690475D02*
X153413855Y-127385713D01*
X153413855Y-127385713D02*
X153451950Y-127309523D01*
X153451950Y-127309523D02*
X153490045Y-127271428D01*
X153490045Y-127271428D02*
X153566236Y-127233332D01*
X153566236Y-127233332D02*
X153680521Y-127233332D01*
X153680521Y-127233332D02*
X153756712Y-127271428D01*
X153756712Y-127271428D02*
X153794807Y-127309523D01*
X153794807Y-127309523D02*
X153832902Y-127385713D01*
X153832902Y-127385713D02*
X153832902Y-127690475D01*
X153756712Y-126776190D02*
X153718617Y-126852380D01*
X153718617Y-126852380D02*
X153680521Y-126890475D01*
X153680521Y-126890475D02*
X153604331Y-126928571D01*
X153604331Y-126928571D02*
X153566236Y-126928571D01*
X153566236Y-126928571D02*
X153490045Y-126890475D01*
X153490045Y-126890475D02*
X153451950Y-126852380D01*
X153451950Y-126852380D02*
X153413855Y-126776190D01*
X153413855Y-126776190D02*
X153413855Y-126623809D01*
X153413855Y-126623809D02*
X153451950Y-126547618D01*
X153451950Y-126547618D02*
X153490045Y-126509523D01*
X153490045Y-126509523D02*
X153566236Y-126471428D01*
X153566236Y-126471428D02*
X153604331Y-126471428D01*
X153604331Y-126471428D02*
X153680521Y-126509523D01*
X153680521Y-126509523D02*
X153718617Y-126547618D01*
X153718617Y-126547618D02*
X153756712Y-126623809D01*
X153756712Y-126623809D02*
X153756712Y-126776190D01*
X153756712Y-126776190D02*
X153794807Y-126852380D01*
X153794807Y-126852380D02*
X153832902Y-126890475D01*
X153832902Y-126890475D02*
X153909093Y-126928571D01*
X153909093Y-126928571D02*
X154061474Y-126928571D01*
X154061474Y-126928571D02*
X154137664Y-126890475D01*
X154137664Y-126890475D02*
X154175760Y-126852380D01*
X154175760Y-126852380D02*
X154213855Y-126776190D01*
X154213855Y-126776190D02*
X154213855Y-126623809D01*
X154213855Y-126623809D02*
X154175760Y-126547618D01*
X154175760Y-126547618D02*
X154137664Y-126509523D01*
X154137664Y-126509523D02*
X154061474Y-126471428D01*
X154061474Y-126471428D02*
X153909093Y-126471428D01*
X153909093Y-126471428D02*
X153832902Y-126509523D01*
X153832902Y-126509523D02*
X153794807Y-126547618D01*
X153794807Y-126547618D02*
X153756712Y-126623809D01*
D13*
X138460880Y-115166666D02*
X138508500Y-115214285D01*
X138508500Y-115214285D02*
X138556119Y-115357142D01*
X138556119Y-115357142D02*
X138556119Y-115452380D01*
X138556119Y-115452380D02*
X138508500Y-115595237D01*
X138508500Y-115595237D02*
X138413261Y-115690475D01*
X138413261Y-115690475D02*
X138318023Y-115738094D01*
X138318023Y-115738094D02*
X138127547Y-115785713D01*
X138127547Y-115785713D02*
X137984690Y-115785713D01*
X137984690Y-115785713D02*
X137794214Y-115738094D01*
X137794214Y-115738094D02*
X137698976Y-115690475D01*
X137698976Y-115690475D02*
X137603738Y-115595237D01*
X137603738Y-115595237D02*
X137556119Y-115452380D01*
X137556119Y-115452380D02*
X137556119Y-115357142D01*
X137556119Y-115357142D02*
X137603738Y-115214285D01*
X137603738Y-115214285D02*
X137651357Y-115166666D01*
X137556119Y-114833332D02*
X137556119Y-114166666D01*
X137556119Y-114166666D02*
X138556119Y-114595237D01*
D10*
X149266667Y-122913855D02*
X149000000Y-122532902D01*
X148809524Y-122913855D02*
X148809524Y-122113855D01*
X148809524Y-122113855D02*
X149114286Y-122113855D01*
X149114286Y-122113855D02*
X149190476Y-122151950D01*
X149190476Y-122151950D02*
X149228571Y-122190045D01*
X149228571Y-122190045D02*
X149266667Y-122266236D01*
X149266667Y-122266236D02*
X149266667Y-122380521D01*
X149266667Y-122380521D02*
X149228571Y-122456712D01*
X149228571Y-122456712D02*
X149190476Y-122494807D01*
X149190476Y-122494807D02*
X149114286Y-122532902D01*
X149114286Y-122532902D02*
X148809524Y-122532902D01*
X149533333Y-122113855D02*
X150028571Y-122113855D01*
X150028571Y-122113855D02*
X149761905Y-122418617D01*
X149761905Y-122418617D02*
X149876190Y-122418617D01*
X149876190Y-122418617D02*
X149952381Y-122456712D01*
X149952381Y-122456712D02*
X149990476Y-122494807D01*
X149990476Y-122494807D02*
X150028571Y-122570998D01*
X150028571Y-122570998D02*
X150028571Y-122761474D01*
X150028571Y-122761474D02*
X149990476Y-122837664D01*
X149990476Y-122837664D02*
X149952381Y-122875760D01*
X149952381Y-122875760D02*
X149876190Y-122913855D01*
X149876190Y-122913855D02*
X149647619Y-122913855D01*
X149647619Y-122913855D02*
X149571428Y-122875760D01*
X149571428Y-122875760D02*
X149533333Y-122837664D01*
X139687664Y-127333332D02*
X139725760Y-127371428D01*
X139725760Y-127371428D02*
X139763855Y-127485713D01*
X139763855Y-127485713D02*
X139763855Y-127561904D01*
X139763855Y-127561904D02*
X139725760Y-127676190D01*
X139725760Y-127676190D02*
X139649569Y-127752380D01*
X139649569Y-127752380D02*
X139573379Y-127790475D01*
X139573379Y-127790475D02*
X139420998Y-127828571D01*
X139420998Y-127828571D02*
X139306712Y-127828571D01*
X139306712Y-127828571D02*
X139154331Y-127790475D01*
X139154331Y-127790475D02*
X139078140Y-127752380D01*
X139078140Y-127752380D02*
X139001950Y-127676190D01*
X139001950Y-127676190D02*
X138963855Y-127561904D01*
X138963855Y-127561904D02*
X138963855Y-127485713D01*
X138963855Y-127485713D02*
X139001950Y-127371428D01*
X139001950Y-127371428D02*
X139040045Y-127333332D01*
X138963855Y-127066666D02*
X138963855Y-126571428D01*
X138963855Y-126571428D02*
X139268617Y-126838094D01*
X139268617Y-126838094D02*
X139268617Y-126723809D01*
X139268617Y-126723809D02*
X139306712Y-126647618D01*
X139306712Y-126647618D02*
X139344807Y-126609523D01*
X139344807Y-126609523D02*
X139420998Y-126571428D01*
X139420998Y-126571428D02*
X139611474Y-126571428D01*
X139611474Y-126571428D02*
X139687664Y-126609523D01*
X139687664Y-126609523D02*
X139725760Y-126647618D01*
X139725760Y-126647618D02*
X139763855Y-126723809D01*
X139763855Y-126723809D02*
X139763855Y-126952380D01*
X139763855Y-126952380D02*
X139725760Y-127028571D01*
X139725760Y-127028571D02*
X139687664Y-127066666D01*
X106123810Y-128763855D02*
X105857143Y-128382902D01*
X105666667Y-128763855D02*
X105666667Y-127963855D01*
X105666667Y-127963855D02*
X105971429Y-127963855D01*
X105971429Y-127963855D02*
X106047619Y-128001950D01*
X106047619Y-128001950D02*
X106085714Y-128040045D01*
X106085714Y-128040045D02*
X106123810Y-128116236D01*
X106123810Y-128116236D02*
X106123810Y-128230521D01*
X106123810Y-128230521D02*
X106085714Y-128306712D01*
X106085714Y-128306712D02*
X106047619Y-128344807D01*
X106047619Y-128344807D02*
X105971429Y-128382902D01*
X105971429Y-128382902D02*
X105666667Y-128382902D01*
X106352381Y-127963855D02*
X106619048Y-128763855D01*
X106619048Y-128763855D02*
X106885714Y-127963855D01*
X107571428Y-128763855D02*
X107114285Y-128763855D01*
X107342857Y-128763855D02*
X107342857Y-127963855D01*
X107342857Y-127963855D02*
X107266666Y-128078140D01*
X107266666Y-128078140D02*
X107190476Y-128154331D01*
X107190476Y-128154331D02*
X107114285Y-128192426D01*
X138463855Y-112133332D02*
X138082902Y-112399999D01*
X138463855Y-112590475D02*
X137663855Y-112590475D01*
X137663855Y-112590475D02*
X137663855Y-112285713D01*
X137663855Y-112285713D02*
X137701950Y-112209523D01*
X137701950Y-112209523D02*
X137740045Y-112171428D01*
X137740045Y-112171428D02*
X137816236Y-112133332D01*
X137816236Y-112133332D02*
X137930521Y-112133332D01*
X137930521Y-112133332D02*
X138006712Y-112171428D01*
X138006712Y-112171428D02*
X138044807Y-112209523D01*
X138044807Y-112209523D02*
X138082902Y-112285713D01*
X138082902Y-112285713D02*
X138082902Y-112590475D01*
X137740045Y-111828571D02*
X137701950Y-111790475D01*
X137701950Y-111790475D02*
X137663855Y-111714285D01*
X137663855Y-111714285D02*
X137663855Y-111523809D01*
X137663855Y-111523809D02*
X137701950Y-111447618D01*
X137701950Y-111447618D02*
X137740045Y-111409523D01*
X137740045Y-111409523D02*
X137816236Y-111371428D01*
X137816236Y-111371428D02*
X137892426Y-111371428D01*
X137892426Y-111371428D02*
X138006712Y-111409523D01*
X138006712Y-111409523D02*
X138463855Y-111866666D01*
X138463855Y-111866666D02*
X138463855Y-111371428D01*
%TO.C,U2*%
X141780000Y-101480000D02*
X142400000Y-101480000D01*
X141780000Y-103600000D02*
X141780000Y-101480000D01*
X141780000Y-117720000D02*
X141780000Y-115600000D01*
X142400000Y-117720000D02*
X141780000Y-117720000D01*
X158400000Y-101480000D02*
X166020000Y-101480000D01*
X166020000Y-101480000D02*
X166020000Y-117720000D01*
X166020000Y-117720000D02*
X158400000Y-117720000D01*
X158400000Y-101050000D02*
X158736000Y-100810000D01*
X158736000Y-101290000D01*
X158400000Y-101050000D01*
G36*
X158736000Y-101290000D02*
G01*
X158400000Y-101050000D01*
X158736000Y-100810000D01*
X158736000Y-101290000D01*
G37*
%TO.C,C6*%
X150759420Y-126090000D02*
X151040580Y-126090000D01*
X150759420Y-127110000D02*
X151040580Y-127110000D01*
%TO.C,J3*%
X157790000Y-131000000D02*
X157790000Y-136300000D01*
X162980000Y-131000000D02*
X157790000Y-131000000D01*
X162980000Y-131000000D02*
X162980000Y-133650000D01*
X162980000Y-133650000D02*
X165630001Y-133650000D01*
X164250000Y-131000000D02*
X165630001Y-131000000D01*
X165630001Y-131000000D02*
X165630001Y-132380000D01*
X165630001Y-133650000D02*
X165630001Y-136300000D01*
X165630001Y-136300000D02*
X157790000Y-136300000D01*
%TO.C,F1*%
X110590000Y-124480000D02*
X110590000Y-128720000D01*
X110590000Y-124480000D02*
X119330000Y-124480000D01*
X119330000Y-128720000D02*
X110590000Y-128720000D01*
X119330000Y-128720000D02*
X119330000Y-124480000D01*
%TO.C,SW1*%
X158250000Y-124200000D02*
X158250000Y-126200000D01*
X159250000Y-122900000D02*
X159700000Y-122450000D01*
X159250000Y-127500000D02*
X159700000Y-127950000D01*
X159700000Y-122450000D02*
X162300000Y-122450000D01*
X159700000Y-127950000D02*
X162300000Y-127950000D01*
X162750000Y-122900000D02*
X162300000Y-122450000D01*
X162750000Y-127500000D02*
X162300000Y-127950000D01*
X163750000Y-124200000D02*
X163750000Y-126200000D01*
%TO.C,C5*%
X138690000Y-103459420D02*
X138690000Y-103740580D01*
X139710000Y-103459420D02*
X139710000Y-103740580D01*
%TO.C,Q1*%
X153000000Y-134340000D02*
X152350000Y-134340000D01*
X153000000Y-134340000D02*
X153650000Y-134340000D01*
X153000000Y-137460000D02*
X152350000Y-137460000D01*
X153000000Y-137460000D02*
X153650000Y-137460000D01*
X154162500Y-137410000D02*
X154402500Y-137740000D01*
X153922500Y-137740000D01*
X154162500Y-137410000D01*
G36*
X154402500Y-137740000D02*
G01*
X153922500Y-137740000D01*
X154162500Y-137410000D01*
X154402500Y-137740000D01*
G37*
%TO.C,D3*%
X146515000Y-143565000D02*
X146515000Y-145035000D01*
X146515000Y-145035000D02*
X148800000Y-145035000D01*
X148800000Y-143565000D02*
X146515000Y-143565000D01*
%TO.C,C9*%
X139390580Y-105490000D02*
X139109420Y-105490000D01*
X139390580Y-106510000D02*
X139109420Y-106510000D01*
%TO.C,J1*%
X100500000Y-147960000D02*
X100500000Y-148700000D01*
X100500000Y-148700000D02*
X101000000Y-148700000D01*
X100740000Y-138539000D02*
X100740000Y-148460000D01*
X100740000Y-138539000D02*
X116100000Y-138539000D01*
X100740000Y-141499000D02*
X116100000Y-141499000D01*
X100740000Y-146400000D02*
X116100000Y-146400000D01*
X100740000Y-147900000D02*
X116100000Y-147900000D01*
X100740000Y-148460000D02*
X116100000Y-148460000D01*
X107193000Y-144823000D02*
X107146000Y-144869000D01*
X107386000Y-145039000D02*
X107351000Y-145074000D01*
X109490000Y-142525000D02*
X109455000Y-142561000D01*
X109695000Y-142731000D02*
X109648000Y-142777000D01*
X112273000Y-144823000D02*
X112226000Y-144869000D01*
X112466000Y-145039000D02*
X112431000Y-145074000D01*
X114570000Y-142525000D02*
X114535000Y-142561000D01*
X114775000Y-142731000D02*
X114728000Y-142777000D01*
X116100000Y-138539000D02*
X116100000Y-148460000D01*
X101804573Y-144483042D02*
G75*
G02*
X101805000Y-143116000I1535420J683041D01*
G01*
X102656958Y-142264573D02*
G75*
G02*
X104024000Y-142265000I683041J-1535420D01*
G01*
X103368805Y-145480253D02*
G75*
G02*
X102656000Y-145335000I-28806J1680254D01*
G01*
X104023318Y-145334756D02*
G75*
G02*
X103340000Y-145480000I-683318J1534756D01*
G01*
X104875427Y-143116958D02*
G75*
G02*
X104875000Y-144484000I-1535427J-683042D01*
G01*
X110100000Y-143800000D02*
G75*
G02*
X106740000Y-143800000I-1680000J0D01*
G01*
X106740000Y-143800000D02*
G75*
G02*
X110100000Y-143800000I1680000J0D01*
G01*
X115180000Y-143800000D02*
G75*
G02*
X111820000Y-143800000I-1680000J0D01*
G01*
X111820000Y-143800000D02*
G75*
G02*
X115180000Y-143800000I1680000J0D01*
G01*
%TO.C,R7*%
X155777500Y-136137258D02*
X155777500Y-135662742D01*
X156822500Y-136137258D02*
X156822500Y-135662742D01*
%TO.C,R1*%
X138677500Y-109237258D02*
X138677500Y-108762742D01*
X139722500Y-109237258D02*
X139722500Y-108762742D01*
%TO.C,D1*%
X146200000Y-139710000D02*
X146200000Y-135700000D01*
X146200000Y-139710000D02*
X148200000Y-139710000D01*
X148200000Y-139710000D02*
X148200000Y-135700000D01*
%TO.C,C4*%
X150638748Y-123265000D02*
X151161252Y-123265000D01*
X150638748Y-124735000D02*
X151161252Y-124735000D01*
%TO.C,C1*%
X129939759Y-125361000D02*
X130569759Y-125361000D01*
X130254759Y-125046000D02*
X130254759Y-125676000D01*
X133440000Y-123970000D02*
X133440000Y-130430000D01*
X133480000Y-123970000D02*
X133480000Y-130430000D01*
X133520000Y-123970000D02*
X133520000Y-130430000D01*
X133560000Y-123972000D02*
X133560000Y-130428000D01*
X133600000Y-123973000D02*
X133600000Y-130427000D01*
X133640000Y-123976000D02*
X133640000Y-130424000D01*
X133680000Y-123978000D02*
X133680000Y-126160000D01*
X133680000Y-128240000D02*
X133680000Y-130422000D01*
X133720000Y-123982000D02*
X133720000Y-126160000D01*
X133720000Y-128240000D02*
X133720000Y-130418000D01*
X133760000Y-123985000D02*
X133760000Y-126160000D01*
X133760000Y-128240000D02*
X133760000Y-130415000D01*
X133800000Y-123989000D02*
X133800000Y-126160000D01*
X133800000Y-128240000D02*
X133800000Y-130411000D01*
X133840000Y-123994000D02*
X133840000Y-126160000D01*
X133840000Y-128240000D02*
X133840000Y-130406000D01*
X133880000Y-123999000D02*
X133880000Y-126160000D01*
X133880000Y-128240000D02*
X133880000Y-130401000D01*
X133920000Y-124005000D02*
X133920000Y-126160000D01*
X133920000Y-128240000D02*
X133920000Y-130395000D01*
X133960000Y-124011000D02*
X133960000Y-126160000D01*
X133960000Y-128240000D02*
X133960000Y-130389000D01*
X134000000Y-124018000D02*
X134000000Y-126160000D01*
X134000000Y-128240000D02*
X134000000Y-130382000D01*
X134040000Y-124025000D02*
X134040000Y-126160000D01*
X134040000Y-128240000D02*
X134040000Y-130375000D01*
X134080000Y-124033000D02*
X134080000Y-126160000D01*
X134080000Y-128240000D02*
X134080000Y-130367000D01*
X134120000Y-124041000D02*
X134120000Y-126160000D01*
X134120000Y-128240000D02*
X134120000Y-130359000D01*
X134161000Y-124050000D02*
X134161000Y-126160000D01*
X134161000Y-128240000D02*
X134161000Y-130350000D01*
X134201000Y-124059000D02*
X134201000Y-126160000D01*
X134201000Y-128240000D02*
X134201000Y-130341000D01*
X134241000Y-124069000D02*
X134241000Y-126160000D01*
X134241000Y-128240000D02*
X134241000Y-130331000D01*
X134281000Y-124079000D02*
X134281000Y-126160000D01*
X134281000Y-128240000D02*
X134281000Y-130321000D01*
X134321000Y-124090000D02*
X134321000Y-126160000D01*
X134321000Y-128240000D02*
X134321000Y-130310000D01*
X134361000Y-124102000D02*
X134361000Y-126160000D01*
X134361000Y-128240000D02*
X134361000Y-130298000D01*
X134401000Y-124114000D02*
X134401000Y-126160000D01*
X134401000Y-128240000D02*
X134401000Y-130286000D01*
X134441000Y-124126000D02*
X134441000Y-126160000D01*
X134441000Y-128240000D02*
X134441000Y-130274000D01*
X134481000Y-124139000D02*
X134481000Y-126160000D01*
X134481000Y-128240000D02*
X134481000Y-130261000D01*
X134521000Y-124153000D02*
X134521000Y-126160000D01*
X134521000Y-128240000D02*
X134521000Y-130247000D01*
X134561000Y-124167000D02*
X134561000Y-126160000D01*
X134561000Y-128240000D02*
X134561000Y-130233000D01*
X134601000Y-124182000D02*
X134601000Y-126160000D01*
X134601000Y-128240000D02*
X134601000Y-130218000D01*
X134641000Y-124198000D02*
X134641000Y-126160000D01*
X134641000Y-128240000D02*
X134641000Y-130202000D01*
X134681000Y-124214000D02*
X134681000Y-126160000D01*
X134681000Y-128240000D02*
X134681000Y-130186000D01*
X134721000Y-124230000D02*
X134721000Y-126160000D01*
X134721000Y-128240000D02*
X134721000Y-130170000D01*
X134761000Y-124248000D02*
X134761000Y-126160000D01*
X134761000Y-128240000D02*
X134761000Y-130152000D01*
X134801000Y-124266000D02*
X134801000Y-126160000D01*
X134801000Y-128240000D02*
X134801000Y-130134000D01*
X134841000Y-124284000D02*
X134841000Y-126160000D01*
X134841000Y-128240000D02*
X134841000Y-130116000D01*
X134881000Y-124304000D02*
X134881000Y-126160000D01*
X134881000Y-128240000D02*
X134881000Y-130096000D01*
X134921000Y-124324000D02*
X134921000Y-126160000D01*
X134921000Y-128240000D02*
X134921000Y-130076000D01*
X134961000Y-124344000D02*
X134961000Y-126160000D01*
X134961000Y-128240000D02*
X134961000Y-130056000D01*
X135001000Y-124366000D02*
X135001000Y-126160000D01*
X135001000Y-128240000D02*
X135001000Y-130034000D01*
X135041000Y-124388000D02*
X135041000Y-126160000D01*
X135041000Y-128240000D02*
X135041000Y-130012000D01*
X135081000Y-124410000D02*
X135081000Y-126160000D01*
X135081000Y-128240000D02*
X135081000Y-129990000D01*
X135121000Y-124434000D02*
X135121000Y-126160000D01*
X135121000Y-128240000D02*
X135121000Y-129966000D01*
X135161000Y-124458000D02*
X135161000Y-126160000D01*
X135161000Y-128240000D02*
X135161000Y-129942000D01*
X135201000Y-124484000D02*
X135201000Y-126160000D01*
X135201000Y-128240000D02*
X135201000Y-129916000D01*
X135241000Y-124510000D02*
X135241000Y-126160000D01*
X135241000Y-128240000D02*
X135241000Y-129890000D01*
X135281000Y-124536000D02*
X135281000Y-126160000D01*
X135281000Y-128240000D02*
X135281000Y-129864000D01*
X135321000Y-124564000D02*
X135321000Y-126160000D01*
X135321000Y-128240000D02*
X135321000Y-129836000D01*
X135361000Y-124593000D02*
X135361000Y-126160000D01*
X135361000Y-128240000D02*
X135361000Y-129807000D01*
X135401000Y-124622000D02*
X135401000Y-126160000D01*
X135401000Y-128240000D02*
X135401000Y-129778000D01*
X135441000Y-124652000D02*
X135441000Y-126160000D01*
X135441000Y-128240000D02*
X135441000Y-129748000D01*
X135481000Y-124684000D02*
X135481000Y-126160000D01*
X135481000Y-128240000D02*
X135481000Y-129716000D01*
X135521000Y-124716000D02*
X135521000Y-126160000D01*
X135521000Y-128240000D02*
X135521000Y-129684000D01*
X135561000Y-124750000D02*
X135561000Y-126160000D01*
X135561000Y-128240000D02*
X135561000Y-129650000D01*
X135601000Y-124784000D02*
X135601000Y-126160000D01*
X135601000Y-128240000D02*
X135601000Y-129616000D01*
X135641000Y-124820000D02*
X135641000Y-126160000D01*
X135641000Y-128240000D02*
X135641000Y-129580000D01*
X135681000Y-124857000D02*
X135681000Y-126160000D01*
X135681000Y-128240000D02*
X135681000Y-129543000D01*
X135721000Y-124895000D02*
X135721000Y-126160000D01*
X135721000Y-128240000D02*
X135721000Y-129505000D01*
X135761000Y-124935000D02*
X135761000Y-129465000D01*
X135801000Y-124976000D02*
X135801000Y-129424000D01*
X135841000Y-125018000D02*
X135841000Y-129382000D01*
X135881000Y-125063000D02*
X135881000Y-129337000D01*
X135921000Y-125108000D02*
X135921000Y-129292000D01*
X135961000Y-125156000D02*
X135961000Y-129244000D01*
X136001000Y-125205000D02*
X136001000Y-129195000D01*
X136041000Y-125256000D02*
X136041000Y-129144000D01*
X136081000Y-125310000D02*
X136081000Y-129090000D01*
X136121000Y-125366000D02*
X136121000Y-129034000D01*
X136161000Y-125424000D02*
X136161000Y-128976000D01*
X136201000Y-125486000D02*
X136201000Y-128914000D01*
X136241000Y-125550000D02*
X136241000Y-128850000D01*
X136281000Y-125619000D02*
X136281000Y-128781000D01*
X136321000Y-125691000D02*
X136321000Y-128709000D01*
X136361000Y-125768000D02*
X136361000Y-128632000D01*
X136401000Y-125850000D02*
X136401000Y-128550000D01*
X136441000Y-125938000D02*
X136441000Y-128462000D01*
X136481000Y-126035000D02*
X136481000Y-128365000D01*
X136521000Y-126141000D02*
X136521000Y-128259000D01*
X136561000Y-126260000D02*
X136561000Y-128140000D01*
X136601000Y-126398000D02*
X136601000Y-128002000D01*
X136641000Y-126567000D02*
X136641000Y-127833000D01*
X136681000Y-126798000D02*
X136681000Y-127602000D01*
X136710000Y-127200000D02*
G75*
G02*
X130170000Y-127200000I-3270000J0D01*
G01*
X130170000Y-127200000D02*
G75*
G02*
X136710000Y-127200000I3270000J0D01*
G01*
%TO.C,C8*%
X161359420Y-139790001D02*
X161640580Y-139790001D01*
X161359420Y-140810000D02*
X161640580Y-140810000D01*
%TO.C,U1*%
X142250000Y-122390000D02*
X146010000Y-122390000D01*
X142250000Y-129210000D02*
X146010000Y-129210000D01*
X146010000Y-122390000D02*
X146010000Y-123650000D01*
X146010000Y-129210000D02*
X146010000Y-127950000D01*
X140970000Y-122490000D02*
X140730000Y-122160000D01*
X141210000Y-122160000D01*
X140970000Y-122490000D01*
G36*
X140970000Y-122490000D02*
G01*
X140730000Y-122160000D01*
X141210000Y-122160000D01*
X140970000Y-122490000D01*
G37*
%TO.C,R4*%
X146877500Y-120687258D02*
X146877500Y-120212742D01*
X147922500Y-120687258D02*
X147922500Y-120212742D01*
%TO.C,D2*%
X154565000Y-123200000D02*
X154565000Y-125485000D01*
X154565000Y-125485000D02*
X156035000Y-125485000D01*
X156035000Y-125485000D02*
X156035000Y-123200000D01*
%TO.C,R6*%
X152877500Y-120212742D02*
X152877500Y-120687258D01*
X153922500Y-120212742D02*
X153922500Y-120687258D01*
%TO.C,K1*%
X116800000Y-131000000D02*
X116800000Y-143700000D01*
X116800000Y-143700000D02*
X145800000Y-143700000D01*
X142800000Y-137000000D02*
X142800000Y-137700000D01*
X142800000Y-137700000D02*
X144000000Y-137700000D01*
X143200000Y-137000000D02*
X143600000Y-137700000D01*
X143700000Y-130760000D02*
X146040000Y-130760000D01*
X144000000Y-137000000D02*
X142800000Y-137000000D01*
X144000000Y-137700000D02*
X144000000Y-137000000D01*
X145800000Y-131000000D02*
X116800000Y-131000000D01*
X145800000Y-143700000D02*
X145800000Y-131000000D01*
X146040000Y-130760000D02*
X146040000Y-132950000D01*
%TO.C,C2*%
X151065000Y-131338748D02*
X151065000Y-131861252D01*
X152535000Y-131338748D02*
X152535000Y-131861252D01*
%TO.C,PS1*%
X100240000Y-100450000D02*
X103240000Y-100450000D01*
X100240000Y-103450000D02*
X100240000Y-100450000D01*
X100480000Y-100690000D02*
X100480000Y-123310000D01*
X100480000Y-100690000D02*
X137400000Y-100690000D01*
X100480000Y-123310000D02*
X137400000Y-123310000D01*
X137400000Y-100690000D02*
X137400000Y-123310000D01*
%TO.C,SW2*%
X154450000Y-145000000D02*
X154450000Y-147000000D01*
X155450000Y-143700000D02*
X155900000Y-143250000D01*
X155450000Y-148300000D02*
X155900000Y-148750000D01*
X155900000Y-143250000D02*
X158500000Y-143250000D01*
X155900000Y-148750000D02*
X158500000Y-148750000D01*
X158950000Y-143700000D02*
X158500000Y-143250000D01*
X158950000Y-148300000D02*
X158500000Y-148750000D01*
X159950000Y-145000000D02*
X159950000Y-147000000D01*
%TO.C,R9*%
X150877500Y-120212742D02*
X150877500Y-120687258D01*
X151922500Y-120212742D02*
X151922500Y-120687258D01*
%TO.C,R5*%
X144877500Y-120212742D02*
X144877500Y-120687258D01*
X145922500Y-120212742D02*
X145922500Y-120687258D01*
%TO.C,R8*%
X154777500Y-126862742D02*
X154777500Y-127337258D01*
X155822500Y-126862742D02*
X155822500Y-127337258D01*
%TO.C,C7*%
X138690000Y-114859420D02*
X138690000Y-115140580D01*
X139710001Y-114859420D02*
X139710001Y-115140580D01*
%TO.C,R3*%
X148877500Y-120687258D02*
X148877500Y-120212742D01*
X149922500Y-120687258D02*
X149922500Y-120212742D01*
%TO.C,C3*%
X137390000Y-127340580D02*
X137390000Y-127059420D01*
X138410000Y-127340580D02*
X138410000Y-127059420D01*
%TO.C,RV1*%
D11*
X103100000Y-127650000D02*
X103100000Y-124250000D01*
X110100000Y-124250000D02*
X103100000Y-124250000D01*
X110100000Y-127650000D02*
X103100000Y-127650000D01*
X110100000Y-127650000D02*
X110100000Y-124250000D01*
%TO.C,R2*%
D10*
X138677500Y-112237258D02*
X138677500Y-111762742D01*
X139722500Y-112237258D02*
X139722500Y-111762742D01*
%TD*%
M02*
