M48
; DRILL file KiCad 10.0.5 date 2026-10-03T19:11:22
; FORMAT={-:-/ absolute / metric / decimal}
; #@! TF.CreationDate,2026-10-03T19:11:22-04:00
; #@! TF.GenerationSoftware,Kicad,Pcbnew,10.0.5
; #@! TF.FileFunction,Plated,1,2,PTH
FMAT,2
METRIC
; #@! TA.AperFunction,Plated,PTH,ViaDrill
T1C0.300
; #@! TA.AperFunction,Plated,PTH,ViaDrill
T2C0.400
; #@! TA.AperFunction,Plated,PTH,ComponentDrill
T3C0.800
; #@! TA.AperFunction,Plated,PTH,ComponentDrill
T4C1.000
; #@! TA.AperFunction,Plated,PTH,ComponentDrill
T5C1.300
; #@! TA.AperFunction,Plated,PTH,ComponentDrill
T6C1.500
%
G90
G05
T1
X140.3Y-103.0
X140.3Y-109.83
X140.3Y-112.83
X143.9Y-122.4
X154.4Y-111.6
X155.4Y-115.3
X157.4Y-115.3
T2
X130.5Y-145.0
X134.5Y-145.0
X137.5Y-130.0
X138.0Y-104.4
X138.5Y-118.0
X138.5Y-122.0
X138.5Y-145.0
X142.5Y-145.0
X143.5Y-120.0
X146.5Y-130.2
X146.5Y-146.0
X147.5Y-142.0
X148.4Y-143.0
X148.5Y-132.0
X149.5Y-128.0
X149.5Y-137.0
X150.5Y-146.2
X151.4Y-122.5
X153.4Y-122.5
X153.4Y-133.6
X154.4Y-142.5
X155.5Y-121.0
X155.5Y-138.0
X156.5Y-129.0
X156.5Y-133.0
X157.5Y-141.0
X160.5Y-138.0
X162.5Y-120.0
X163.0Y-138.6
T3
X132.19Y-127.2
X134.69Y-127.2
T4
X104.1Y-125.3
X104.4Y-109.5
X104.4Y-114.5
X109.1Y-126.6
X112.42Y-126.59
X117.5Y-126.6
X133.48Y-104.5
X133.48Y-119.5
X159.17Y-132.38
X159.17Y-134.92
X161.71Y-132.38
X161.71Y-134.92
X164.25Y-132.38
X164.25Y-134.92
T5
X118.4Y-133.6
X118.4Y-141.1
X123.4Y-133.6
X123.4Y-141.1
X143.4Y-133.6
X143.4Y-141.1
T6
X103.34Y-143.8
X108.42Y-143.8
X113.5Y-143.8
M30
