%TF.GenerationSoftware,KiCad,Pcbnew,10.0.5*%
%TF.CreationDate,2026-10-03T19:11:21-04:00*%
%TF.ProjectId,rele-esp12f,72656c65-2d65-4737-9031-32662e6b6963,rev?*%
%TF.SameCoordinates,Original*%
%TF.FileFunction,Copper,L2,Bot*%
%TF.FilePolarity,Positive*%
%FSLAX46Y46*%
G04 Gerber Fmt 4.6, Leading zero omitted, Abs format (unit mm)*
G04 Created by KiCad (PCBNEW 10.0.5) date 2026-10-03 19:11:21*
%MOMM*%
%LPD*%
G01*
G04 APERTURE LIST*
%TA.AperFunction,ComponentPad*%
%ADD10R,1.700000X1.700000*%
%TD*%
%TA.AperFunction,ComponentPad*%
%ADD11C,1.700000*%
%TD*%
%TA.AperFunction,ComponentPad*%
%ADD12C,2.000000*%
%TD*%
%TA.AperFunction,ComponentPad*%
%ADD13R,2.600000X2.600000*%
%TD*%
%TA.AperFunction,ComponentPad*%
%ADD14C,2.600000*%
%TD*%
%TA.AperFunction,ComponentPad*%
%ADD15R,1.600000X1.600000*%
%TD*%
%TA.AperFunction,ComponentPad*%
%ADD16C,1.600000*%
%TD*%
%TA.AperFunction,ComponentPad*%
%ADD17R,2.000000X2.000000*%
%TD*%
%TA.AperFunction,ComponentPad*%
%ADD18R,1.700000X2.000000*%
%TD*%
%TA.AperFunction,ComponentPad*%
%ADD19O,1.700000X2.000000*%
%TD*%
%TA.AperFunction,ViaPad*%
%ADD20C,0.800000*%
%TD*%
%TA.AperFunction,ViaPad*%
%ADD21C,0.600000*%
%TD*%
%TA.AperFunction,Conductor*%
%ADD22C,0.300000*%
%TD*%
%TA.AperFunction,Conductor*%
%ADD23C,0.500000*%
%TD*%
%TA.AperFunction,Conductor*%
%ADD24C,0.600000*%
%TD*%
%TA.AperFunction,Conductor*%
%ADD25C,1.000000*%
%TD*%
%TA.AperFunction,Conductor*%
%ADD26C,2.500000*%
%TD*%
G04 APERTURE END LIST*
D10*
%TO.P,J3,1*%
%TO.N,GND*%
X164250000Y-132380000D03*
D11*
%TO.P,J3,2*%
%TO.N,+5V*%
X164250000Y-134920000D03*
%TO.P,J3,3*%
%TO.N,/TXD*%
X161710000Y-132380000D03*
%TO.P,J3,4*%
%TO.N,/RXD*%
X161710000Y-134920000D03*
%TO.P,J3,5*%
%TO.N,/GPIO0*%
X159170000Y-132380000D03*
%TO.P,J3,6*%
%TO.N,/RST*%
X159170000Y-134920000D03*
%TD*%
D12*
%TO.P,F1,1*%
%TO.N,/L_IN*%
X117500000Y-126600000D03*
%TO.P,F1,2*%
%TO.N,/L_F*%
X112420000Y-126590000D03*
%TD*%
D13*
%TO.P,J1,1*%
%TO.N,/N*%
X103340000Y-143800000D03*
D14*
%TO.P,J1,2*%
%TO.N,/L_OUT*%
X108420000Y-143800000D03*
%TO.P,J1,3*%
%TO.N,/L_IN*%
X113500000Y-143800000D03*
%TD*%
D15*
%TO.P,C1,1*%
%TO.N,+5V*%
X132190000Y-127200000D03*
D16*
%TO.P,C1,2*%
%TO.N,GND*%
X134690000Y-127200000D03*
%TD*%
D12*
%TO.P,K1,13*%
%TO.N,/L_IN*%
X123400000Y-133600000D03*
X123400000Y-141100000D03*
%TO.P,K1,14*%
%TO.N,/L_OUT*%
X118400000Y-133600000D03*
X118400000Y-141100000D03*
D17*
%TO.P,K1,A1*%
%TO.N,/COIL_N*%
X143400000Y-133600000D03*
D12*
%TO.P,K1,A2*%
%TO.N,+5V*%
X143400000Y-141100000D03*
%TD*%
D18*
%TO.P,PS1,1*%
%TO.N,/L_F*%
X104400000Y-109500000D03*
D19*
%TO.P,PS1,2*%
%TO.N,/N*%
X104400000Y-114500000D03*
%TO.P,PS1,3*%
%TO.N,GND*%
X133480000Y-104500000D03*
%TO.P,PS1,4*%
%TO.N,+5V*%
X133480000Y-119500000D03*
%TD*%
D16*
%TO.P,RV1,1*%
%TO.N,/L_F*%
X109100000Y-126600000D03*
%TO.P,RV1,2*%
%TO.N,/N*%
X104100000Y-125300000D03*
%TD*%
D20*
%TO.N,/RST*%
X154400000Y-142500000D03*
D21*
X154400000Y-111600000D03*
%TO.N,+3V3*%
X140300000Y-103000000D03*
X143900000Y-122400000D03*
X140300000Y-109830000D03*
X140300000Y-112830000D03*
D20*
%TO.N,GND*%
X160500000Y-138000000D03*
X143500000Y-120000000D03*
X156500000Y-133000000D03*
X146500000Y-146000000D03*
X138500000Y-122000000D03*
X156500000Y-129000000D03*
X149500000Y-137000000D03*
X157500000Y-141000000D03*
X162500000Y-120000000D03*
X138500000Y-145000000D03*
X163000000Y-138600000D03*
X150500000Y-146200000D03*
X155500000Y-138000000D03*
X138000000Y-104400000D03*
X134500000Y-145000000D03*
X142500000Y-145000000D03*
X138500000Y-118000000D03*
X147500000Y-142000000D03*
X130500000Y-145000000D03*
X149500000Y-128000000D03*
X148500000Y-132000000D03*
X155500000Y-121000000D03*
X137500000Y-130000000D03*
D21*
%TO.N,/RXD*%
X155400000Y-115300000D03*
%TO.N,/TXD*%
X157400000Y-115300000D03*
D20*
%TO.N,+5V*%
X146500000Y-130199999D03*
%TO.N,Net-(Q1-B)*%
X153400000Y-122500000D03*
X153400000Y-133600000D03*
%TO.N,Net-(D3-A)*%
X151400000Y-122500000D03*
X148400000Y-143000000D03*
%TD*%
%TO.N,/RST*%
D22*
X154400000Y-111600000D02*
X154400000Y-142500000D01*
%TO.N,+3V3*%
D23*
X143900000Y-122400000D02*
X140300000Y-118800000D01*
X140300000Y-118800000D02*
X140300000Y-103000000D01*
%TO.N,/RXD*%
D22*
X160440000Y-124040000D02*
X160440000Y-133600000D01*
X160440000Y-133600000D02*
X161710000Y-134920000D01*
X155400000Y-119000000D02*
X160440000Y-124040000D01*
X155400000Y-115300000D02*
X155400000Y-119000000D01*
%TO.N,/TXD*%
X157400000Y-115300000D02*
X157400000Y-118000000D01*
X157400000Y-118000000D02*
X161710000Y-122310000D01*
X161710000Y-122310000D02*
X161710000Y-132380000D01*
%TO.N,+5V*%
D23*
X146400000Y-144100000D02*
X159600000Y-144100000D01*
X164250000Y-139450000D02*
X164250000Y-134920000D01*
X159600000Y-144100000D02*
X164250000Y-139450000D01*
X143400000Y-141100000D02*
X146400000Y-144100000D01*
D24*
X143400000Y-141100000D02*
X146500000Y-138000000D01*
X146500000Y-138000000D02*
X146500000Y-130199999D01*
%TO.N,/L_IN*%
D25*
X119900000Y-129000000D02*
X117500000Y-126600000D01*
D26*
X113500000Y-144200000D02*
X115000000Y-145700000D01*
X115000000Y-145700000D02*
X123400000Y-145700000D01*
X123400000Y-145700000D02*
X123400000Y-133600000D01*
X113500000Y-143800000D02*
X113500000Y-144200000D01*
D25*
X123400000Y-133600000D02*
X123400000Y-129000000D01*
X123400000Y-129000000D02*
X119900000Y-129000000D01*
%TO.N,Net-(Q1-B)*%
D22*
X153400000Y-122500000D02*
X153400000Y-133600000D01*
%TO.N,Net-(D3-A)*%
X151400000Y-122500000D02*
X151400000Y-133000000D01*
X151400000Y-133000000D02*
X148400000Y-136000000D01*
X148400000Y-136000000D02*
X148400000Y-143000000D01*
%TO.N,/L_OUT*%
D26*
X109920000Y-133600000D02*
X118400000Y-133600000D01*
X108420000Y-135100000D02*
X109920000Y-133600000D01*
X108420000Y-143800000D02*
X108420000Y-135100000D01*
X118400000Y-133600000D02*
X118400000Y-141100000D01*
%TD*%
%TA.AperFunction,Conductor*%
%TO.N,GND*%
G36*
X165292880Y-100615168D02*
G01*
X165356972Y-100650165D01*
X165371855Y-100659730D01*
X165540350Y-100785863D01*
X165553721Y-100797449D01*
X165702550Y-100946278D01*
X165714136Y-100959649D01*
X165840269Y-101128144D01*
X165849832Y-101143023D01*
X165933678Y-101296574D01*
X165948530Y-101364845D01*
X165924114Y-101430310D01*
X165868180Y-101472181D01*
X165824846Y-101480000D01*
X158700000Y-101480000D01*
X158700000Y-117720000D01*
X165876000Y-117720000D01*
X165943039Y-117739685D01*
X165988794Y-117792489D01*
X166000000Y-117844000D01*
X166000000Y-147521319D01*
X165992182Y-147564653D01*
X165958056Y-147656148D01*
X165950706Y-147672241D01*
X165849834Y-147856972D01*
X165840269Y-147871855D01*
X165714136Y-148040350D01*
X165702550Y-148053721D01*
X165553721Y-148202550D01*
X165540350Y-148214136D01*
X165371855Y-148340269D01*
X165356972Y-148349834D01*
X165172241Y-148450706D01*
X165156147Y-148458056D01*
X164958939Y-148531610D01*
X164941964Y-148536594D01*
X164736300Y-148581334D01*
X164718788Y-148583852D01*
X164504418Y-148599184D01*
X164495572Y-148599500D01*
X129124000Y-148599500D01*
X129056961Y-148579815D01*
X129011206Y-148527011D01*
X129000000Y-148475500D01*
X129000000Y-146293713D01*
X162549500Y-146293713D01*
X162549500Y-146506286D01*
X162582753Y-146716239D01*
X162648444Y-146918414D01*
X162744951Y-147107820D01*
X162869890Y-147279786D01*
X163020213Y-147430109D01*
X163192179Y-147555048D01*
X163192181Y-147555049D01*
X163192184Y-147555051D01*
X163381588Y-147651557D01*
X163583757Y-147717246D01*
X163793713Y-147750500D01*
X163793714Y-147750500D01*
X164006286Y-147750500D01*
X164006287Y-147750500D01*
X164216243Y-147717246D01*
X164418412Y-147651557D01*
X164607816Y-147555051D01*
X164629789Y-147539086D01*
X164779786Y-147430109D01*
X164779788Y-147430106D01*
X164779792Y-147430104D01*
X164930104Y-147279792D01*
X164930106Y-147279788D01*
X164930109Y-147279786D01*
X165055048Y-147107820D01*
X165055047Y-147107820D01*
X165055051Y-147107816D01*
X165151557Y-146918412D01*
X165217246Y-146716243D01*
X165250500Y-146506287D01*
X165250500Y-146293713D01*
X165217246Y-146083757D01*
X165151557Y-145881588D01*
X165055051Y-145692184D01*
X165055049Y-145692181D01*
X165055048Y-145692179D01*
X164930109Y-145520213D01*
X164779786Y-145369890D01*
X164607820Y-145244951D01*
X164418414Y-145148444D01*
X164418413Y-145148443D01*
X164418412Y-145148443D01*
X164216243Y-145082754D01*
X164216241Y-145082753D01*
X164216240Y-145082753D01*
X164054957Y-145057208D01*
X164006287Y-145049500D01*
X163793713Y-145049500D01*
X163745042Y-145057208D01*
X163583760Y-145082753D01*
X163381585Y-145148444D01*
X163192179Y-145244951D01*
X163020213Y-145369890D01*
X162869890Y-145520213D01*
X162744951Y-145692179D01*
X162648444Y-145881585D01*
X162582753Y-146083760D01*
X162549500Y-146293713D01*
X129000000Y-146293713D01*
X129000000Y-140997648D01*
X142099500Y-140997648D01*
X142099500Y-141202351D01*
X142131522Y-141404534D01*
X142194781Y-141599223D01*
X142258691Y-141724653D01*
X142274180Y-141755051D01*
X142287715Y-141781613D01*
X142408028Y-141947213D01*
X142552786Y-142091971D01*
X142707749Y-142204556D01*
X142718390Y-142212287D01*
X142834607Y-142271503D01*
X142900776Y-142305218D01*
X142900778Y-142305218D01*
X142900781Y-142305220D01*
X142955518Y-142323005D01*
X143095465Y-142368477D01*
X143147610Y-142376736D01*
X143297648Y-142400500D01*
X143297649Y-142400500D01*
X143502351Y-142400500D01*
X143502352Y-142400500D01*
X143704534Y-142368477D01*
X143772214Y-142346485D01*
X143842052Y-142344491D01*
X143898211Y-142376736D01*
X144998487Y-143477011D01*
X146061986Y-144540510D01*
X146100076Y-144562501D01*
X146187515Y-144612984D01*
X146327525Y-144650500D01*
X146327526Y-144650500D01*
X146327528Y-144650500D01*
X159672472Y-144650500D01*
X159672474Y-144650500D01*
X159672475Y-144650500D01*
X159812485Y-144612984D01*
X159938015Y-144540510D01*
X164690510Y-139788015D01*
X164762984Y-139662485D01*
X164800500Y-139522474D01*
X164800500Y-139377526D01*
X164800500Y-136005316D01*
X164820185Y-135938277D01*
X164851615Y-135904997D01*
X164852989Y-135903998D01*
X164852994Y-135903996D01*
X164999501Y-135797553D01*
X165127553Y-135669501D01*
X165233996Y-135522994D01*
X165316211Y-135361639D01*
X165372171Y-135189409D01*
X165386765Y-135097259D01*
X165400500Y-135010551D01*
X165400500Y-134829448D01*
X165384019Y-134725397D01*
X165372171Y-134650591D01*
X165316211Y-134478361D01*
X165316211Y-134478360D01*
X165282518Y-134412235D01*
X165233996Y-134317006D01*
X165164083Y-134220778D01*
X165127558Y-134170505D01*
X165127554Y-134170500D01*
X164999495Y-134042441D01*
X164878202Y-133954318D01*
X164835536Y-133898989D01*
X164829557Y-133829375D01*
X164862162Y-133767580D01*
X164923001Y-133733223D01*
X164951087Y-133730000D01*
X165147828Y-133730000D01*
X165147844Y-133729999D01*
X165207372Y-133723598D01*
X165207379Y-133723596D01*
X165342086Y-133673354D01*
X165342093Y-133673350D01*
X165457187Y-133587190D01*
X165457190Y-133587187D01*
X165543350Y-133472093D01*
X165543354Y-133472086D01*
X165593596Y-133337379D01*
X165593598Y-133337372D01*
X165599999Y-133277844D01*
X165600000Y-133277827D01*
X165600000Y-132630000D01*
X164683012Y-132630000D01*
X164715925Y-132572993D01*
X164750000Y-132445826D01*
X164750000Y-132314174D01*
X164715925Y-132187007D01*
X164683012Y-132130000D01*
X165600000Y-132130000D01*
X165600000Y-131482172D01*
X165599999Y-131482155D01*
X165593598Y-131422627D01*
X165593596Y-131422620D01*
X165543354Y-131287913D01*
X165543350Y-131287906D01*
X165457190Y-131172812D01*
X165457187Y-131172809D01*
X165342093Y-131086649D01*
X165342086Y-131086645D01*
X165207379Y-131036403D01*
X165207372Y-131036401D01*
X165147844Y-131030000D01*
X164500000Y-131030000D01*
X164500000Y-131946988D01*
X164442993Y-131914075D01*
X164315826Y-131880000D01*
X164184174Y-131880000D01*
X164057007Y-131914075D01*
X164000000Y-131946988D01*
X164000000Y-131030000D01*
X163352155Y-131030000D01*
X163292627Y-131036401D01*
X163292620Y-131036403D01*
X163157913Y-131086645D01*
X163157906Y-131086649D01*
X163042812Y-131172809D01*
X163042809Y-131172812D01*
X162956649Y-131287906D01*
X162956645Y-131287913D01*
X162906403Y-131422620D01*
X162906401Y-131422627D01*
X162900000Y-131482155D01*
X162900000Y-131678912D01*
X162880315Y-131745951D01*
X162827511Y-131791706D01*
X162758353Y-131801650D01*
X162694797Y-131772625D01*
X162675682Y-131751797D01*
X162587558Y-131630505D01*
X162587554Y-131630500D01*
X162459499Y-131502445D01*
X162459494Y-131502441D01*
X162312995Y-131396004D01*
X162228204Y-131352800D01*
X162177409Y-131304826D01*
X162160500Y-131242316D01*
X162160500Y-122250693D01*
X162160500Y-122250691D01*
X162129799Y-122136114D01*
X162116154Y-122112482D01*
X162097517Y-122080200D01*
X162097516Y-122080199D01*
X162091805Y-122070307D01*
X162070489Y-122033386D01*
X157886819Y-117849716D01*
X157853334Y-117788393D01*
X157850500Y-117762035D01*
X157850500Y-115749930D01*
X157870185Y-115682891D01*
X157876128Y-115674438D01*
X157880512Y-115668723D01*
X157880520Y-115668716D01*
X157959577Y-115531784D01*
X158000500Y-115379057D01*
X158000500Y-115220943D01*
X157959577Y-115068216D01*
X157959573Y-115068209D01*
X157880524Y-114931290D01*
X157880518Y-114931282D01*
X157768717Y-114819481D01*
X157768709Y-114819475D01*
X157631790Y-114740426D01*
X157631786Y-114740424D01*
X157631784Y-114740423D01*
X157479057Y-114699500D01*
X157320943Y-114699500D01*
X157168216Y-114740423D01*
X157168209Y-114740426D01*
X157031290Y-114819475D01*
X157031282Y-114819481D01*
X156919481Y-114931282D01*
X156919475Y-114931290D01*
X156840426Y-115068209D01*
X156840423Y-115068216D01*
X156799500Y-115220943D01*
X156799500Y-115379056D01*
X156840423Y-115531783D01*
X156840426Y-115531790D01*
X156919473Y-115668706D01*
X156919477Y-115668712D01*
X156919480Y-115668716D01*
X156919482Y-115668718D01*
X156923872Y-115674438D01*
X156949069Y-115739606D01*
X156949500Y-115749930D01*
X156949500Y-118059308D01*
X156973712Y-118149672D01*
X156980200Y-118173885D01*
X156980200Y-118173886D01*
X156980201Y-118173887D01*
X157039511Y-118276614D01*
X157039513Y-118276616D01*
X161223181Y-122460284D01*
X161256666Y-122521607D01*
X161259500Y-122547965D01*
X161259500Y-131242316D01*
X161239815Y-131309355D01*
X161191796Y-131352800D01*
X161107006Y-131396003D01*
X161087383Y-131410260D01*
X161021576Y-131433738D01*
X160953523Y-131417911D01*
X160904829Y-131367804D01*
X160890500Y-131309940D01*
X160890500Y-123980693D01*
X160890500Y-123980691D01*
X160859799Y-123866114D01*
X160859797Y-123866110D01*
X160834731Y-123822694D01*
X160800493Y-123763392D01*
X160800487Y-123763384D01*
X155886819Y-118849716D01*
X155853334Y-118788393D01*
X155850500Y-118762035D01*
X155850500Y-115749930D01*
X155870185Y-115682891D01*
X155876128Y-115674438D01*
X155880512Y-115668723D01*
X155880520Y-115668716D01*
X155959577Y-115531784D01*
X156000500Y-115379057D01*
X156000500Y-115220943D01*
X155959577Y-115068216D01*
X155959573Y-115068209D01*
X155880524Y-114931290D01*
X155880518Y-114931282D01*
X155768717Y-114819481D01*
X155768709Y-114819475D01*
X155631790Y-114740426D01*
X155631786Y-114740424D01*
X155631784Y-114740423D01*
X155479057Y-114699500D01*
X155320943Y-114699500D01*
X155168216Y-114740423D01*
X155168215Y-114740423D01*
X155036499Y-114816469D01*
X154968599Y-114832941D01*
X154902572Y-114810088D01*
X154859382Y-114755166D01*
X154850500Y-114709081D01*
X154850500Y-112049930D01*
X154870185Y-111982891D01*
X154876128Y-111974438D01*
X154880512Y-111968723D01*
X154880520Y-111968716D01*
X154959577Y-111831784D01*
X155000500Y-111679057D01*
X155000500Y-111520943D01*
X154959577Y-111368216D01*
X154959573Y-111368209D01*
X154880524Y-111231290D01*
X154880518Y-111231282D01*
X154768717Y-111119481D01*
X154768709Y-111119475D01*
X154631790Y-111040426D01*
X154631786Y-111040424D01*
X154631784Y-111040423D01*
X154479057Y-110999500D01*
X154320943Y-110999500D01*
X154168216Y-111040423D01*
X154168209Y-111040426D01*
X154031290Y-111119475D01*
X154031282Y-111119481D01*
X153919481Y-111231282D01*
X153919475Y-111231290D01*
X153840426Y-111368209D01*
X153840423Y-111368216D01*
X153799500Y-111520943D01*
X153799500Y-111679056D01*
X153840423Y-111831783D01*
X153840426Y-111831790D01*
X153919473Y-111968706D01*
X153919477Y-111968712D01*
X153919480Y-111968716D01*
X153919482Y-111968718D01*
X153923872Y-111974438D01*
X153949069Y-112039606D01*
X153949500Y-112049930D01*
X153949500Y-121792691D01*
X153929815Y-121859730D01*
X153877011Y-121905485D01*
X153807853Y-121915429D01*
X153756611Y-121895795D01*
X153731813Y-121879226D01*
X153731804Y-121879221D01*
X153604332Y-121826421D01*
X153604322Y-121826418D01*
X153468995Y-121799500D01*
X153468993Y-121799500D01*
X153331007Y-121799500D01*
X153331005Y-121799500D01*
X153195677Y-121826418D01*
X153195667Y-121826421D01*
X153068195Y-121879221D01*
X153068182Y-121879228D01*
X152953458Y-121955885D01*
X152953454Y-121955888D01*
X152855888Y-122053454D01*
X152855885Y-122053458D01*
X152779228Y-122168182D01*
X152779221Y-122168195D01*
X152726421Y-122295667D01*
X152726418Y-122295677D01*
X152699500Y-122431004D01*
X152699500Y-122431007D01*
X152699500Y-122568993D01*
X152699500Y-122568995D01*
X152699499Y-122568995D01*
X152726418Y-122704322D01*
X152726421Y-122704332D01*
X152779221Y-122831804D01*
X152779228Y-122831817D01*
X152855884Y-122946540D01*
X152855885Y-122946541D01*
X152855886Y-122946542D01*
X152913182Y-123003838D01*
X152946666Y-123065159D01*
X152949500Y-123091518D01*
X152949500Y-133008481D01*
X152929815Y-133075520D01*
X152913181Y-133096162D01*
X152855888Y-133153454D01*
X152855885Y-133153458D01*
X152779228Y-133268182D01*
X152779221Y-133268195D01*
X152726421Y-133395667D01*
X152726418Y-133395677D01*
X152699500Y-133531004D01*
X152699500Y-133531007D01*
X152699500Y-133668993D01*
X152699500Y-133668995D01*
X152699499Y-133668995D01*
X152726418Y-133804322D01*
X152726421Y-133804332D01*
X152779221Y-133931804D01*
X152779228Y-133931817D01*
X152855885Y-134046541D01*
X152855888Y-134046545D01*
X152953454Y-134144111D01*
X152953458Y-134144114D01*
X153068182Y-134220771D01*
X153068195Y-134220778D01*
X153195667Y-134273578D01*
X153195672Y-134273580D01*
X153195676Y-134273580D01*
X153195677Y-134273581D01*
X153331004Y-134300500D01*
X153331007Y-134300500D01*
X153468995Y-134300500D01*
X153560616Y-134282275D01*
X153604328Y-134273580D01*
X153731811Y-134220775D01*
X153731817Y-134220771D01*
X153756609Y-134204206D01*
X153823286Y-134183328D01*
X153890666Y-134201812D01*
X153937357Y-134253791D01*
X153949500Y-134307308D01*
X153949500Y-141908481D01*
X153929815Y-141975520D01*
X153913181Y-141996162D01*
X153855888Y-142053454D01*
X153855885Y-142053458D01*
X153779228Y-142168182D01*
X153779221Y-142168195D01*
X153726421Y-142295667D01*
X153726418Y-142295677D01*
X153699500Y-142431004D01*
X153699500Y-142431007D01*
X153699500Y-142568993D01*
X153699500Y-142568995D01*
X153699499Y-142568995D01*
X153726418Y-142704322D01*
X153726421Y-142704332D01*
X153779221Y-142831804D01*
X153779228Y-142831817D01*
X153855885Y-142946541D01*
X153855888Y-142946545D01*
X153953454Y-143044111D01*
X153953458Y-143044114D01*
X154068182Y-143120771D01*
X154068195Y-143120778D01*
X154195667Y-143173578D01*
X154195672Y-143173580D01*
X154195676Y-143173580D01*
X154195677Y-143173581D01*
X154331004Y-143200500D01*
X154331007Y-143200500D01*
X154468995Y-143200500D01*
X154560041Y-143182389D01*
X154604328Y-143173580D01*
X154731811Y-143120775D01*
X154846542Y-143044114D01*
X154944114Y-142946542D01*
X155020775Y-142831811D01*
X155073580Y-142704328D01*
X155100500Y-142568993D01*
X155100500Y-142431007D01*
X155100500Y-142431004D01*
X155073581Y-142295677D01*
X155073580Y-142295676D01*
X155073580Y-142295672D01*
X155039040Y-142212284D01*
X155020778Y-142168195D01*
X155020771Y-142168182D01*
X154944114Y-142053458D01*
X154944111Y-142053454D01*
X154886819Y-141996162D01*
X154853334Y-141934839D01*
X154850500Y-141908481D01*
X154850500Y-119386965D01*
X154870185Y-119319926D01*
X154922989Y-119274171D01*
X154992147Y-119264227D01*
X155055703Y-119293252D01*
X155062181Y-119299284D01*
X159953181Y-124190284D01*
X159986666Y-124251607D01*
X159989500Y-124277965D01*
X159989500Y-131309940D01*
X159969815Y-131376979D01*
X159917011Y-131422734D01*
X159847853Y-131432678D01*
X159792617Y-131410260D01*
X159777695Y-131399419D01*
X159772994Y-131396004D01*
X159688202Y-131352800D01*
X159611639Y-131313788D01*
X159611636Y-131313787D01*
X159439410Y-131257829D01*
X159260551Y-131229500D01*
X159260546Y-131229500D01*
X159079454Y-131229500D01*
X159079449Y-131229500D01*
X158900589Y-131257829D01*
X158728363Y-131313787D01*
X158728360Y-131313788D01*
X158567002Y-131396006D01*
X158420505Y-131502441D01*
X158420500Y-131502445D01*
X158292445Y-131630500D01*
X158292441Y-131630505D01*
X158186006Y-131777002D01*
X158103788Y-131938360D01*
X158103787Y-131938363D01*
X158047829Y-132110589D01*
X158019500Y-132289448D01*
X158019500Y-132470551D01*
X158047829Y-132649410D01*
X158103787Y-132821636D01*
X158103788Y-132821639D01*
X158186006Y-132982997D01*
X158292441Y-133129494D01*
X158292445Y-133129499D01*
X158420500Y-133257554D01*
X158420505Y-133257558D01*
X158448427Y-133277844D01*
X158567006Y-133363996D01*
X158669789Y-133416367D01*
X158728360Y-133446211D01*
X158728363Y-133446212D01*
X158807997Y-133472086D01*
X158900591Y-133502171D01*
X158973639Y-133513740D01*
X159060678Y-133527527D01*
X159123813Y-133557456D01*
X159160744Y-133616768D01*
X159159746Y-133686631D01*
X159121136Y-133744863D01*
X159060678Y-133772473D01*
X158900589Y-133797829D01*
X158728363Y-133853787D01*
X158728360Y-133853788D01*
X158567002Y-133936006D01*
X158420505Y-134042441D01*
X158420500Y-134042445D01*
X158292445Y-134170500D01*
X158292441Y-134170505D01*
X158186006Y-134317002D01*
X158103788Y-134478360D01*
X158103787Y-134478363D01*
X158047829Y-134650589D01*
X158019500Y-134829448D01*
X158019500Y-135010551D01*
X158047829Y-135189410D01*
X158103787Y-135361636D01*
X158103788Y-135361639D01*
X158186006Y-135522997D01*
X158292441Y-135669494D01*
X158292445Y-135669499D01*
X158420500Y-135797554D01*
X158420505Y-135797558D01*
X158459814Y-135826117D01*
X158567006Y-135903996D01*
X158639024Y-135940691D01*
X158728360Y-135986211D01*
X158728363Y-135986212D01*
X158787161Y-136005316D01*
X158900591Y-136042171D01*
X158983429Y-136055291D01*
X159079449Y-136070500D01*
X159079454Y-136070500D01*
X159260551Y-136070500D01*
X159347259Y-136056765D01*
X159439409Y-136042171D01*
X159611639Y-135986211D01*
X159772994Y-135903996D01*
X159919501Y-135797553D01*
X160047553Y-135669501D01*
X160153996Y-135522994D01*
X160236211Y-135361639D01*
X160292171Y-135189409D01*
X160306422Y-135099425D01*
X160317527Y-135029321D01*
X160347456Y-134966186D01*
X160406768Y-134929255D01*
X160476630Y-134930253D01*
X160534863Y-134968863D01*
X160562473Y-135029321D01*
X160587829Y-135189410D01*
X160643787Y-135361636D01*
X160643788Y-135361639D01*
X160726006Y-135522997D01*
X160832441Y-135669494D01*
X160832445Y-135669499D01*
X160960500Y-135797554D01*
X160960505Y-135797558D01*
X160999814Y-135826117D01*
X161107006Y-135903996D01*
X161179024Y-135940691D01*
X161268360Y-135986211D01*
X161268363Y-135986212D01*
X161327161Y-136005316D01*
X161440591Y-136042171D01*
X161523429Y-136055291D01*
X161619449Y-136070500D01*
X161619454Y-136070500D01*
X161800551Y-136070500D01*
X161887259Y-136056765D01*
X161979409Y-136042171D01*
X162151639Y-135986211D01*
X162312994Y-135903996D01*
X162459501Y-135797553D01*
X162587553Y-135669501D01*
X162693996Y-135522994D01*
X162776211Y-135361639D01*
X162832171Y-135189409D01*
X162846422Y-135099425D01*
X162857527Y-135029321D01*
X162887456Y-134966186D01*
X162946768Y-134929255D01*
X163016630Y-134930253D01*
X163074863Y-134968863D01*
X163102473Y-135029321D01*
X163127829Y-135189410D01*
X163183787Y-135361636D01*
X163183788Y-135361639D01*
X163266006Y-135522997D01*
X163372441Y-135669494D01*
X163372445Y-135669499D01*
X163372447Y-135669501D01*
X163500499Y-135797553D01*
X163647006Y-135903996D01*
X163647010Y-135903998D01*
X163648385Y-135904997D01*
X163691051Y-135960327D01*
X163699500Y-136005316D01*
X163699500Y-139170613D01*
X163679815Y-139237652D01*
X163663181Y-139258294D01*
X159408294Y-143513181D01*
X159346971Y-143546666D01*
X159320613Y-143549500D01*
X149107308Y-143549500D01*
X149040269Y-143529815D01*
X148994514Y-143477011D01*
X148984570Y-143407853D01*
X149004206Y-143356609D01*
X149020771Y-143331817D01*
X149020771Y-143331816D01*
X149020775Y-143331811D01*
X149073580Y-143204328D01*
X149100500Y-143068993D01*
X149100500Y-142931007D01*
X149100500Y-142931004D01*
X149073581Y-142795677D01*
X149073580Y-142795676D01*
X149073580Y-142795672D01*
X149035746Y-142704332D01*
X149020778Y-142668195D01*
X149020771Y-142668182D01*
X148944114Y-142553458D01*
X148944111Y-142553454D01*
X148886819Y-142496162D01*
X148853334Y-142434839D01*
X148850500Y-142408481D01*
X148850500Y-140493713D01*
X149849500Y-140493713D01*
X149849500Y-140706286D01*
X149863624Y-140795465D01*
X149882754Y-140916243D01*
X149909204Y-140997648D01*
X149948444Y-141118414D01*
X150044951Y-141307820D01*
X150169890Y-141479786D01*
X150320213Y-141630109D01*
X150492179Y-141755048D01*
X150492181Y-141755049D01*
X150492184Y-141755051D01*
X150681588Y-141851557D01*
X150883757Y-141917246D01*
X151093713Y-141950500D01*
X151093714Y-141950500D01*
X151306286Y-141950500D01*
X151306287Y-141950500D01*
X151516243Y-141917246D01*
X151718412Y-141851557D01*
X151907816Y-141755051D01*
X151929789Y-141739086D01*
X152079786Y-141630109D01*
X152079788Y-141630106D01*
X152079792Y-141630104D01*
X152230104Y-141479792D01*
X152230106Y-141479788D01*
X152230109Y-141479786D01*
X152355048Y-141307820D01*
X152355047Y-141307820D01*
X152355051Y-141307816D01*
X152451557Y-141118412D01*
X152517246Y-140916243D01*
X152550500Y-140706287D01*
X152550500Y-140493713D01*
X152517246Y-140283757D01*
X152451557Y-140081588D01*
X152355051Y-139892184D01*
X152355049Y-139892181D01*
X152355048Y-139892179D01*
X152230109Y-139720213D01*
X152079786Y-139569890D01*
X151907820Y-139444951D01*
X151718414Y-139348444D01*
X151718413Y-139348443D01*
X151718412Y-139348443D01*
X151516243Y-139282754D01*
X151516241Y-139282753D01*
X151516240Y-139282753D01*
X151354957Y-139257208D01*
X151306287Y-139249500D01*
X151093713Y-139249500D01*
X151045042Y-139257208D01*
X150883760Y-139282753D01*
X150681585Y-139348444D01*
X150492179Y-139444951D01*
X150320213Y-139569890D01*
X150169890Y-139720213D01*
X150044951Y-139892179D01*
X149948444Y-140081585D01*
X149882753Y-140283760D01*
X149849500Y-140493713D01*
X148850500Y-140493713D01*
X148850500Y-136237965D01*
X148870185Y-136170926D01*
X148886819Y-136150284D01*
X150264339Y-134772764D01*
X151760490Y-133276614D01*
X151773019Y-133254912D01*
X151819798Y-133173889D01*
X151819798Y-133173888D01*
X151819799Y-133173887D01*
X151826617Y-133148440D01*
X151850500Y-133059309D01*
X151850500Y-123091518D01*
X151870185Y-123024479D01*
X151886814Y-123003841D01*
X151944114Y-122946542D01*
X152020775Y-122831811D01*
X152073580Y-122704328D01*
X152100500Y-122568993D01*
X152100500Y-122431007D01*
X152100500Y-122431004D01*
X152073581Y-122295677D01*
X152073580Y-122295676D01*
X152073580Y-122295672D01*
X152054949Y-122250693D01*
X152020778Y-122168195D01*
X152020771Y-122168182D01*
X151944114Y-122053458D01*
X151944111Y-122053454D01*
X151846545Y-121955888D01*
X151846541Y-121955885D01*
X151731817Y-121879228D01*
X151731804Y-121879221D01*
X151604332Y-121826421D01*
X151604322Y-121826418D01*
X151468995Y-121799500D01*
X151468993Y-121799500D01*
X151331007Y-121799500D01*
X151331005Y-121799500D01*
X151195677Y-121826418D01*
X151195667Y-121826421D01*
X151068195Y-121879221D01*
X151068182Y-121879228D01*
X150953458Y-121955885D01*
X150953454Y-121955888D01*
X150855888Y-122053454D01*
X150855885Y-122053458D01*
X150779228Y-122168182D01*
X150779221Y-122168195D01*
X150726421Y-122295667D01*
X150726418Y-122295677D01*
X150699500Y-122431004D01*
X150699500Y-122431007D01*
X150699500Y-122568993D01*
X150699500Y-122568995D01*
X150699499Y-122568995D01*
X150726418Y-122704322D01*
X150726421Y-122704332D01*
X150779221Y-122831804D01*
X150779228Y-122831817D01*
X150855884Y-122946540D01*
X150855885Y-122946541D01*
X150855886Y-122946542D01*
X150913182Y-123003838D01*
X150946666Y-123065159D01*
X150949500Y-123091518D01*
X150949500Y-132762034D01*
X150929815Y-132829073D01*
X150913181Y-132849715D01*
X148039513Y-135723383D01*
X148039509Y-135723389D01*
X147980201Y-135826112D01*
X147980200Y-135826117D01*
X147949500Y-135940691D01*
X147949500Y-142408481D01*
X147929815Y-142475520D01*
X147913181Y-142496162D01*
X147855888Y-142553454D01*
X147855885Y-142553458D01*
X147779228Y-142668182D01*
X147779221Y-142668195D01*
X147726421Y-142795667D01*
X147726418Y-142795677D01*
X147699500Y-142931004D01*
X147699500Y-142931007D01*
X147699500Y-143068993D01*
X147699500Y-143068995D01*
X147699499Y-143068995D01*
X147726418Y-143204322D01*
X147726421Y-143204332D01*
X147779221Y-143331804D01*
X147779228Y-143331817D01*
X147795794Y-143356609D01*
X147816672Y-143423286D01*
X147798188Y-143490666D01*
X147746209Y-143537357D01*
X147692692Y-143549500D01*
X146679386Y-143549500D01*
X146612347Y-143529815D01*
X146591705Y-143513181D01*
X144676736Y-141598211D01*
X144643251Y-141536888D01*
X144646485Y-141472214D01*
X144668477Y-141404534D01*
X144700500Y-141202352D01*
X144700500Y-140997648D01*
X144668477Y-140795466D01*
X144663825Y-140781151D01*
X144661832Y-140711312D01*
X144694075Y-140655158D01*
X146858506Y-138490728D01*
X146858511Y-138490724D01*
X146868714Y-138480520D01*
X146868716Y-138480520D01*
X146980520Y-138368716D01*
X147039674Y-138266258D01*
X147059577Y-138231785D01*
X147100501Y-138079057D01*
X147100501Y-137920943D01*
X147100501Y-137913348D01*
X147100500Y-137913330D01*
X147100500Y-130599768D01*
X147118746Y-130537626D01*
X147117906Y-130537177D01*
X147120064Y-130533139D01*
X147120185Y-130532729D01*
X147120721Y-130531909D01*
X147120771Y-130531815D01*
X147120775Y-130531810D01*
X147173580Y-130404327D01*
X147200500Y-130268992D01*
X147200500Y-130131006D01*
X147200500Y-130131003D01*
X147173581Y-129995676D01*
X147173580Y-129995675D01*
X147173580Y-129995671D01*
X147173578Y-129995666D01*
X147120778Y-129868194D01*
X147120771Y-129868181D01*
X147044114Y-129753457D01*
X147044111Y-129753453D01*
X146946545Y-129655887D01*
X146946541Y-129655884D01*
X146831817Y-129579227D01*
X146831804Y-129579220D01*
X146704332Y-129526420D01*
X146704322Y-129526417D01*
X146568995Y-129499499D01*
X146568993Y-129499499D01*
X146431007Y-129499499D01*
X146431005Y-129499499D01*
X146295677Y-129526417D01*
X146295667Y-129526420D01*
X146168195Y-129579220D01*
X146168182Y-129579227D01*
X146053458Y-129655884D01*
X146053454Y-129655887D01*
X145955888Y-129753453D01*
X145955885Y-129753457D01*
X145879228Y-129868181D01*
X145879221Y-129868194D01*
X145826421Y-129995666D01*
X145826418Y-129995676D01*
X145799500Y-130131003D01*
X145799500Y-130131006D01*
X145799500Y-130268992D01*
X145799500Y-130268994D01*
X145799499Y-130268994D01*
X145826418Y-130404321D01*
X145826421Y-130404331D01*
X145879222Y-130531805D01*
X145882094Y-130537177D01*
X145880792Y-130537873D01*
X145899480Y-130597553D01*
X145899500Y-130599768D01*
X145899500Y-137699902D01*
X145879815Y-137766941D01*
X145863181Y-137787583D01*
X143844842Y-139805921D01*
X143783519Y-139839406D01*
X143718848Y-139836173D01*
X143704534Y-139831522D01*
X143529995Y-139803878D01*
X143502352Y-139799500D01*
X143297648Y-139799500D01*
X143273329Y-139803351D01*
X143095465Y-139831522D01*
X142900776Y-139894781D01*
X142718386Y-139987715D01*
X142552786Y-140108028D01*
X142408028Y-140252786D01*
X142287715Y-140418386D01*
X142194781Y-140600776D01*
X142131522Y-140795465D01*
X142099500Y-140997648D01*
X129000000Y-140997648D01*
X129000000Y-132555131D01*
X142099500Y-132555131D01*
X142099500Y-134644856D01*
X142099502Y-134644882D01*
X142102413Y-134669987D01*
X142102415Y-134669991D01*
X142147793Y-134772764D01*
X142147794Y-134772765D01*
X142227235Y-134852206D01*
X142330009Y-134897585D01*
X142355135Y-134900500D01*
X144444864Y-134900499D01*
X144444879Y-134900497D01*
X144444882Y-134900497D01*
X144469987Y-134897586D01*
X144469988Y-134897585D01*
X144469991Y-134897585D01*
X144572765Y-134852206D01*
X144652206Y-134772765D01*
X144697585Y-134669991D01*
X144700500Y-134644865D01*
X144700499Y-132555136D01*
X144700497Y-132555117D01*
X144697586Y-132530012D01*
X144697585Y-132530010D01*
X144697585Y-132530009D01*
X144652206Y-132427235D01*
X144572765Y-132347794D01*
X144496623Y-132314174D01*
X144469992Y-132302415D01*
X144444865Y-132299500D01*
X142355143Y-132299500D01*
X142355117Y-132299502D01*
X142330012Y-132302413D01*
X142330008Y-132302415D01*
X142227235Y-132347793D01*
X142147794Y-132427234D01*
X142102415Y-132530006D01*
X142102415Y-132530008D01*
X142099500Y-132555131D01*
X129000000Y-132555131D01*
X129000000Y-127500000D01*
X128880000Y-127200000D01*
X128542052Y-126355131D01*
X131089500Y-126355131D01*
X131089500Y-128044856D01*
X131089502Y-128044882D01*
X131092413Y-128069987D01*
X131092415Y-128069991D01*
X131137793Y-128172764D01*
X131137794Y-128172765D01*
X131217235Y-128252206D01*
X131320009Y-128297585D01*
X131345135Y-128300500D01*
X133034864Y-128300499D01*
X133034879Y-128300497D01*
X133034882Y-128300497D01*
X133059987Y-128297586D01*
X133059988Y-128297585D01*
X133059991Y-128297585D01*
X133162765Y-128252206D01*
X133242206Y-128172765D01*
X133287585Y-128069991D01*
X133290500Y-128044865D01*
X133290499Y-127833318D01*
X133310183Y-127766281D01*
X133362987Y-127720526D01*
X133432145Y-127710582D01*
X133495701Y-127739607D01*
X133524983Y-127777024D01*
X133578138Y-127881345D01*
X133578147Y-127881359D01*
X133610523Y-127925921D01*
X133610524Y-127925922D01*
X134290000Y-127246446D01*
X134290000Y-127252661D01*
X134317259Y-127354394D01*
X134369920Y-127445606D01*
X134444394Y-127520080D01*
X134535606Y-127572741D01*
X134637339Y-127600000D01*
X134643553Y-127600000D01*
X133964076Y-128279474D01*
X134008650Y-128311859D01*
X134190968Y-128404755D01*
X134385582Y-128467990D01*
X134587683Y-128500000D01*
X134792317Y-128500000D01*
X134994417Y-128467990D01*
X135189031Y-128404755D01*
X135371349Y-128311859D01*
X135415921Y-128279474D01*
X134736447Y-127600000D01*
X134742661Y-127600000D01*
X134844394Y-127572741D01*
X134935606Y-127520080D01*
X135010080Y-127445606D01*
X135062741Y-127354394D01*
X135090000Y-127252661D01*
X135090000Y-127246447D01*
X135769474Y-127925921D01*
X135801859Y-127881349D01*
X135894755Y-127699031D01*
X135957990Y-127504417D01*
X135990000Y-127302317D01*
X135990000Y-127097682D01*
X135957990Y-126895582D01*
X135894755Y-126700968D01*
X135801859Y-126518650D01*
X135769474Y-126474077D01*
X135769474Y-126474076D01*
X135090000Y-127153551D01*
X135090000Y-127147339D01*
X135062741Y-127045606D01*
X135010080Y-126954394D01*
X134935606Y-126879920D01*
X134844394Y-126827259D01*
X134742661Y-126800000D01*
X134736446Y-126800000D01*
X135415922Y-126120524D01*
X135415921Y-126120523D01*
X135371359Y-126088147D01*
X135371350Y-126088141D01*
X135189031Y-125995244D01*
X134994417Y-125932009D01*
X134792317Y-125900000D01*
X134587683Y-125900000D01*
X134385582Y-125932009D01*
X134190968Y-125995244D01*
X134008644Y-126088143D01*
X133964077Y-126120523D01*
X133964077Y-126120524D01*
X134643554Y-126800000D01*
X134637339Y-126800000D01*
X134535606Y-126827259D01*
X134444394Y-126879920D01*
X134369920Y-126954394D01*
X134317259Y-127045606D01*
X134290000Y-127147339D01*
X134290000Y-127153553D01*
X133610524Y-126474077D01*
X133610523Y-126474077D01*
X133578143Y-126518644D01*
X133524984Y-126622976D01*
X133477009Y-126673772D01*
X133409188Y-126690567D01*
X133343053Y-126668029D01*
X133299602Y-126613314D01*
X133290499Y-126566681D01*
X133290499Y-126355143D01*
X133290499Y-126355136D01*
X133290497Y-126355117D01*
X133287586Y-126330013D01*
X133287585Y-126330011D01*
X133287585Y-126330009D01*
X133242206Y-126227235D01*
X133162765Y-126147794D01*
X133162763Y-126147793D01*
X133059992Y-126102415D01*
X133034865Y-126099500D01*
X131345143Y-126099500D01*
X131345117Y-126099502D01*
X131320012Y-126102413D01*
X131320008Y-126102415D01*
X131217235Y-126147793D01*
X131137794Y-126227234D01*
X131092415Y-126330006D01*
X131092415Y-126330008D01*
X131089500Y-126355131D01*
X128542052Y-126355131D01*
X128008869Y-125022172D01*
X128000000Y-124976120D01*
X128000000Y-119259448D01*
X132329500Y-119259448D01*
X132329500Y-119740551D01*
X132357829Y-119919410D01*
X132413787Y-120091636D01*
X132413788Y-120091639D01*
X132496006Y-120252997D01*
X132602441Y-120399494D01*
X132602445Y-120399499D01*
X132730500Y-120527554D01*
X132730505Y-120527558D01*
X132858287Y-120620396D01*
X132877006Y-120633996D01*
X132982484Y-120687740D01*
X133038360Y-120716211D01*
X133038363Y-120716212D01*
X133124476Y-120744191D01*
X133210591Y-120772171D01*
X133293429Y-120785291D01*
X133389449Y-120800500D01*
X133389454Y-120800500D01*
X133570551Y-120800500D01*
X133657259Y-120786765D01*
X133749409Y-120772171D01*
X133921639Y-120716211D01*
X134082994Y-120633996D01*
X134229501Y-120527553D01*
X134357553Y-120399501D01*
X134463996Y-120252994D01*
X134546211Y-120091639D01*
X134602171Y-119919409D01*
X134616765Y-119827259D01*
X134630500Y-119740551D01*
X134630500Y-119259448D01*
X134611266Y-119138013D01*
X134602171Y-119080591D01*
X134546211Y-118908361D01*
X134546211Y-118908360D01*
X134497824Y-118813397D01*
X134463996Y-118747006D01*
X134449843Y-118727526D01*
X134357558Y-118600505D01*
X134357554Y-118600500D01*
X134229499Y-118472445D01*
X134229494Y-118472441D01*
X134082997Y-118366006D01*
X134082996Y-118366005D01*
X134082994Y-118366004D01*
X134031300Y-118339664D01*
X133921639Y-118283788D01*
X133921636Y-118283787D01*
X133749410Y-118227829D01*
X133570551Y-118199500D01*
X133570546Y-118199500D01*
X133389454Y-118199500D01*
X133389449Y-118199500D01*
X133210589Y-118227829D01*
X133038363Y-118283787D01*
X133038360Y-118283788D01*
X132877002Y-118366006D01*
X132730505Y-118472441D01*
X132730500Y-118472445D01*
X132602445Y-118600500D01*
X132602441Y-118600505D01*
X132496006Y-118747002D01*
X132413788Y-118908360D01*
X132413787Y-118908363D01*
X132357829Y-119080589D01*
X132329500Y-119259448D01*
X128000000Y-119259448D01*
X128000000Y-104243753D01*
X132130000Y-104243753D01*
X132130000Y-104250000D01*
X133046988Y-104250000D01*
X133014075Y-104307007D01*
X132980000Y-104434174D01*
X132980000Y-104565826D01*
X133014075Y-104692993D01*
X133046988Y-104750000D01*
X132130000Y-104750000D01*
X132130000Y-104756246D01*
X132163242Y-104966127D01*
X132163242Y-104966130D01*
X132228904Y-105168217D01*
X132325379Y-105357557D01*
X132450272Y-105529459D01*
X132450276Y-105529464D01*
X132600535Y-105679723D01*
X132600540Y-105679727D01*
X132772442Y-105804620D01*
X132961782Y-105901095D01*
X133163871Y-105966757D01*
X133230000Y-105977231D01*
X133230000Y-104933012D01*
X133287007Y-104965925D01*
X133414174Y-105000000D01*
X133545826Y-105000000D01*
X133672993Y-104965925D01*
X133730000Y-104933012D01*
X133730000Y-105977230D01*
X133796126Y-105966757D01*
X133796129Y-105966757D01*
X133998217Y-105901095D01*
X134187557Y-105804620D01*
X134359459Y-105679727D01*
X134359464Y-105679723D01*
X134509723Y-105529464D01*
X134509727Y-105529459D01*
X134634620Y-105357557D01*
X134731095Y-105168217D01*
X134796757Y-104966130D01*
X134796757Y-104966127D01*
X134830000Y-104756246D01*
X134830000Y-104750000D01*
X133913012Y-104750000D01*
X133945925Y-104692993D01*
X133980000Y-104565826D01*
X133980000Y-104434174D01*
X133945925Y-104307007D01*
X133913012Y-104250000D01*
X134830000Y-104250000D01*
X134830000Y-104243753D01*
X134796757Y-104033872D01*
X134796757Y-104033869D01*
X134731095Y-103831782D01*
X134634620Y-103642442D01*
X134509727Y-103470540D01*
X134509723Y-103470535D01*
X134359464Y-103320276D01*
X134359459Y-103320272D01*
X134187557Y-103195379D01*
X133998215Y-103098903D01*
X133821260Y-103041408D01*
X133730000Y-103063337D01*
X133730000Y-104066988D01*
X133672993Y-104034075D01*
X133545826Y-104000000D01*
X133414174Y-104000000D01*
X133287007Y-104034075D01*
X133230000Y-104066988D01*
X133230000Y-103022768D01*
X133229999Y-103022768D01*
X133163875Y-103033241D01*
X132961784Y-103098903D01*
X132772442Y-103195379D01*
X132600540Y-103320272D01*
X132600535Y-103320276D01*
X132450276Y-103470535D01*
X132450272Y-103470540D01*
X132325379Y-103642442D01*
X132228904Y-103831782D01*
X132163242Y-104033869D01*
X132163242Y-104033872D01*
X132130000Y-104243753D01*
X128000000Y-104243753D01*
X128000000Y-102920943D01*
X139699500Y-102920943D01*
X139699500Y-103079056D01*
X139742527Y-103239636D01*
X139741832Y-103239822D01*
X139749500Y-103278362D01*
X139749500Y-109551637D01*
X139741834Y-109590179D01*
X139742527Y-109590365D01*
X139699500Y-109750943D01*
X139699500Y-109909056D01*
X139742527Y-110069636D01*
X139741832Y-110069822D01*
X139749500Y-110108362D01*
X139749500Y-112551637D01*
X139741834Y-112590179D01*
X139742527Y-112590365D01*
X139699500Y-112750943D01*
X139699500Y-112909056D01*
X139742527Y-113069636D01*
X139741832Y-113069822D01*
X139749500Y-113108362D01*
X139749500Y-118727526D01*
X139749500Y-118872474D01*
X139787016Y-119012485D01*
X139826335Y-119080589D01*
X139859489Y-119138013D01*
X139859491Y-119138016D01*
X143313905Y-122592430D01*
X143335737Y-122625105D01*
X143336359Y-122624746D01*
X143419477Y-122768712D01*
X143419479Y-122768715D01*
X143419480Y-122768716D01*
X143531284Y-122880520D01*
X143531286Y-122880521D01*
X143531290Y-122880524D01*
X143668209Y-122959573D01*
X143668216Y-122959577D01*
X143820943Y-123000500D01*
X143820945Y-123000500D01*
X143979055Y-123000500D01*
X143979057Y-123000500D01*
X144131784Y-122959577D01*
X144268716Y-122880520D01*
X144380520Y-122768716D01*
X144459577Y-122631784D01*
X144500500Y-122479057D01*
X144500500Y-122320943D01*
X144459577Y-122168216D01*
X144441043Y-122136114D01*
X144380524Y-122031290D01*
X144380518Y-122031282D01*
X144268717Y-121919481D01*
X144268712Y-121919477D01*
X144124746Y-121836359D01*
X144125105Y-121835737D01*
X144092430Y-121813905D01*
X140886819Y-118608294D01*
X140853334Y-118546971D01*
X140850500Y-118520613D01*
X140850500Y-113108362D01*
X140858167Y-113069822D01*
X140857473Y-113069636D01*
X140859577Y-113061784D01*
X140900500Y-112909057D01*
X140900500Y-112750943D01*
X140859577Y-112598216D01*
X140859576Y-112598214D01*
X140857473Y-112590365D01*
X140858165Y-112590179D01*
X140850500Y-112551637D01*
X140850500Y-110108362D01*
X140858167Y-110069822D01*
X140857473Y-110069636D01*
X140859577Y-110061784D01*
X140900500Y-109909057D01*
X140900500Y-109750943D01*
X140859577Y-109598216D01*
X140859576Y-109598214D01*
X140857473Y-109590365D01*
X140858165Y-109590179D01*
X140850500Y-109551637D01*
X140850500Y-103278362D01*
X140858167Y-103239822D01*
X140857473Y-103239636D01*
X140859577Y-103231784D01*
X140900500Y-103079057D01*
X140900500Y-102920943D01*
X140859577Y-102768216D01*
X140859573Y-102768209D01*
X140780524Y-102631290D01*
X140780518Y-102631282D01*
X140668717Y-102519481D01*
X140668709Y-102519475D01*
X140531790Y-102440426D01*
X140531786Y-102440424D01*
X140531784Y-102440423D01*
X140379057Y-102399500D01*
X140220943Y-102399500D01*
X140068216Y-102440423D01*
X140068209Y-102440426D01*
X139931290Y-102519475D01*
X139931282Y-102519481D01*
X139819481Y-102631282D01*
X139819475Y-102631290D01*
X139740426Y-102768209D01*
X139740423Y-102768216D01*
X139699500Y-102920943D01*
X128000000Y-102920943D01*
X128000000Y-100724000D01*
X128019685Y-100656961D01*
X128072489Y-100611206D01*
X128124000Y-100600000D01*
X165233453Y-100600000D01*
X165292880Y-100615168D01*
G37*
%TD.AperFunction*%
%TD*%
M02*
