M48
; DRILL file {KiCad 7.0.11+dfsg-1build4} date Fri Sep 25 14:59:03 2026
; FORMAT={-:-/ absolute / metric / decimal}
; #@! TF.CreationDate,2026-09-25T14:59:03+00:00
; #@! TF.GenerationSoftware,Kicad,Pcbnew,7.0.11+dfsg-1build4
; #@! TF.FileFunction,Plated,1,2,PTH
FMAT,2
METRIC
; #@! TA.AperFunction,Plated,PTH,ViaDrill
T1C0.300
; #@! TA.AperFunction,Plated,PTH,ComponentDrill
T2C0.600
; #@! TA.AperFunction,Plated,PTH,ComponentDrill
T3C0.800
; #@! TA.AperFunction,Plated,PTH,ComponentDrill
T4C1.000
; #@! TA.AperFunction,Plated,PTH,ComponentDrill
T5C1.300
%
G90
G05
T1
X138.386Y-143.45
X147.076Y-142.743
X149.298Y-127.048
X150.016Y-113.1
X150.016Y-145.301
X158.158Y-109.1
X158.158Y-115.1
X158.158Y-149.93
X162.046Y-111.1
X162.817Y-109.1
X163.573Y-121.2
X165.123Y-115.322
T2
X120.6Y-125.0
X125.6Y-126.3
T3
X146.0Y-130.0
X148.5Y-130.0
T4
X105.5Y-109.5
X105.5Y-114.5
X112.0Y-126.3
X117.08Y-126.31
X134.58Y-104.5
X134.58Y-119.5
X136.55Y-131.45
X136.55Y-143.45
X163.8Y-133.2
X163.8Y-135.74
X163.8Y-138.28
X163.8Y-140.82
X163.8Y-143.36
X163.8Y-145.9
T5
X104.0Y-142.5
X109.08Y-142.5
X114.16Y-142.5
X124.3Y-143.5
X124.35Y-131.45
X138.5Y-137.5
M30
