%TF.GenerationSoftware,KiCad,Pcbnew,10.0.5*%
%TF.CreationDate,2026-09-30T10:53:16-04:00*%
%TF.ProjectId,rele-esp12f,72656c65-2d65-4737-9031-32662e6b6963,rev?*%
%TF.SameCoordinates,Original*%
%TF.FileFunction,Legend,Top*%
%TF.FilePolarity,Positive*%
%FSLAX46Y46*%
G04 Gerber Fmt 4.6, Leading zero omitted, Abs format (unit mm)*
G04 Created by KiCad (PCBNEW 10.0.5) date 2026-09-30 10:53:16*
%MOMM*%
%LPD*%
G01*
G04 APERTURE LIST*
%ADD10C,0.120000*%
%ADD11C,0.180000*%
%ADD12C,0.125000*%
%ADD13C,0.150000*%
G04 APERTURE END LIST*
D10*
X107342857Y-129763855D02*
X107342857Y-129230521D01*
X107342857Y-129382902D02*
X107380952Y-129306712D01*
X107380952Y-129306712D02*
X107419047Y-129268617D01*
X107419047Y-129268617D02*
X107495238Y-129230521D01*
X107495238Y-129230521D02*
X107571428Y-129230521D01*
X108142857Y-129725760D02*
X108066666Y-129763855D01*
X108066666Y-129763855D02*
X107914285Y-129763855D01*
X107914285Y-129763855D02*
X107838095Y-129725760D01*
X107838095Y-129725760D02*
X107799999Y-129649569D01*
X107799999Y-129649569D02*
X107799999Y-129344807D01*
X107799999Y-129344807D02*
X107838095Y-129268617D01*
X107838095Y-129268617D02*
X107914285Y-129230521D01*
X107914285Y-129230521D02*
X108066666Y-129230521D01*
X108066666Y-129230521D02*
X108142857Y-129268617D01*
X108142857Y-129268617D02*
X108180952Y-129344807D01*
X108180952Y-129344807D02*
X108180952Y-129420998D01*
X108180952Y-129420998D02*
X107799999Y-129497188D01*
X108638094Y-129763855D02*
X108561904Y-129725760D01*
X108561904Y-129725760D02*
X108523809Y-129649569D01*
X108523809Y-129649569D02*
X108523809Y-128963855D01*
X109247619Y-129725760D02*
X109171428Y-129763855D01*
X109171428Y-129763855D02*
X109019047Y-129763855D01*
X109019047Y-129763855D02*
X108942857Y-129725760D01*
X108942857Y-129725760D02*
X108904761Y-129649569D01*
X108904761Y-129649569D02*
X108904761Y-129344807D01*
X108904761Y-129344807D02*
X108942857Y-129268617D01*
X108942857Y-129268617D02*
X109019047Y-129230521D01*
X109019047Y-129230521D02*
X109171428Y-129230521D01*
X109171428Y-129230521D02*
X109247619Y-129268617D01*
X109247619Y-129268617D02*
X109285714Y-129344807D01*
X109285714Y-129344807D02*
X109285714Y-129420998D01*
X109285714Y-129420998D02*
X108904761Y-129497188D01*
X109628571Y-129459093D02*
X110238095Y-129459093D01*
X110923809Y-129725760D02*
X110847618Y-129763855D01*
X110847618Y-129763855D02*
X110695237Y-129763855D01*
X110695237Y-129763855D02*
X110619047Y-129725760D01*
X110619047Y-129725760D02*
X110580951Y-129649569D01*
X110580951Y-129649569D02*
X110580951Y-129344807D01*
X110580951Y-129344807D02*
X110619047Y-129268617D01*
X110619047Y-129268617D02*
X110695237Y-129230521D01*
X110695237Y-129230521D02*
X110847618Y-129230521D01*
X110847618Y-129230521D02*
X110923809Y-129268617D01*
X110923809Y-129268617D02*
X110961904Y-129344807D01*
X110961904Y-129344807D02*
X110961904Y-129420998D01*
X110961904Y-129420998D02*
X110580951Y-129497188D01*
X111266665Y-129725760D02*
X111342856Y-129763855D01*
X111342856Y-129763855D02*
X111495237Y-129763855D01*
X111495237Y-129763855D02*
X111571427Y-129725760D01*
X111571427Y-129725760D02*
X111609523Y-129649569D01*
X111609523Y-129649569D02*
X111609523Y-129611474D01*
X111609523Y-129611474D02*
X111571427Y-129535283D01*
X111571427Y-129535283D02*
X111495237Y-129497188D01*
X111495237Y-129497188D02*
X111380951Y-129497188D01*
X111380951Y-129497188D02*
X111304761Y-129459093D01*
X111304761Y-129459093D02*
X111266665Y-129382902D01*
X111266665Y-129382902D02*
X111266665Y-129344807D01*
X111266665Y-129344807D02*
X111304761Y-129268617D01*
X111304761Y-129268617D02*
X111380951Y-129230521D01*
X111380951Y-129230521D02*
X111495237Y-129230521D01*
X111495237Y-129230521D02*
X111571427Y-129268617D01*
X111952380Y-129230521D02*
X111952380Y-130030521D01*
X111952380Y-129268617D02*
X112028570Y-129230521D01*
X112028570Y-129230521D02*
X112180951Y-129230521D01*
X112180951Y-129230521D02*
X112257142Y-129268617D01*
X112257142Y-129268617D02*
X112295237Y-129306712D01*
X112295237Y-129306712D02*
X112333332Y-129382902D01*
X112333332Y-129382902D02*
X112333332Y-129611474D01*
X112333332Y-129611474D02*
X112295237Y-129687664D01*
X112295237Y-129687664D02*
X112257142Y-129725760D01*
X112257142Y-129725760D02*
X112180951Y-129763855D01*
X112180951Y-129763855D02*
X112028570Y-129763855D01*
X112028570Y-129763855D02*
X111952380Y-129725760D01*
X113095237Y-129763855D02*
X112638094Y-129763855D01*
X112866666Y-129763855D02*
X112866666Y-128963855D01*
X112866666Y-128963855D02*
X112790475Y-129078140D01*
X112790475Y-129078140D02*
X112714285Y-129154331D01*
X112714285Y-129154331D02*
X112638094Y-129192426D01*
X113399999Y-129040045D02*
X113438095Y-129001950D01*
X113438095Y-129001950D02*
X113514285Y-128963855D01*
X113514285Y-128963855D02*
X113704761Y-128963855D01*
X113704761Y-128963855D02*
X113780952Y-129001950D01*
X113780952Y-129001950D02*
X113819047Y-129040045D01*
X113819047Y-129040045D02*
X113857142Y-129116236D01*
X113857142Y-129116236D02*
X113857142Y-129192426D01*
X113857142Y-129192426D02*
X113819047Y-129306712D01*
X113819047Y-129306712D02*
X113361904Y-129763855D01*
X113361904Y-129763855D02*
X113857142Y-129763855D01*
X114085714Y-129230521D02*
X114390476Y-129230521D01*
X114200000Y-129763855D02*
X114200000Y-129078140D01*
X114200000Y-129078140D02*
X114238095Y-129001950D01*
X114238095Y-129001950D02*
X114314285Y-128963855D01*
X114314285Y-128963855D02*
X114390476Y-128963855D01*
X115190476Y-129230521D02*
X115380952Y-129763855D01*
X115380952Y-129763855D02*
X115571429Y-129230521D01*
X115838095Y-129040045D02*
X115876191Y-129001950D01*
X115876191Y-129001950D02*
X115952381Y-128963855D01*
X115952381Y-128963855D02*
X116142857Y-128963855D01*
X116142857Y-128963855D02*
X116219048Y-129001950D01*
X116219048Y-129001950D02*
X116257143Y-129040045D01*
X116257143Y-129040045D02*
X116295238Y-129116236D01*
X116295238Y-129116236D02*
X116295238Y-129192426D01*
X116295238Y-129192426D02*
X116257143Y-129306712D01*
X116257143Y-129306712D02*
X115800000Y-129763855D01*
X115800000Y-129763855D02*
X116295238Y-129763855D01*
X158370000Y-130313854D02*
X158370000Y-129513854D01*
X158903333Y-129513854D02*
X159055714Y-129513854D01*
X159055714Y-129513854D02*
X159131904Y-129551949D01*
X159131904Y-129551949D02*
X159208095Y-129628139D01*
X159208095Y-129628139D02*
X159246190Y-129780520D01*
X159246190Y-129780520D02*
X159246190Y-130047187D01*
X159246190Y-130047187D02*
X159208095Y-130199568D01*
X159208095Y-130199568D02*
X159131904Y-130275759D01*
X159131904Y-130275759D02*
X159055714Y-130313854D01*
X159055714Y-130313854D02*
X158903333Y-130313854D01*
X158903333Y-130313854D02*
X158827142Y-130275759D01*
X158827142Y-130275759D02*
X158750952Y-130199568D01*
X158750952Y-130199568D02*
X158712856Y-130047187D01*
X158712856Y-130047187D02*
X158712856Y-129780520D01*
X158712856Y-129780520D02*
X158750952Y-129628139D01*
X158750952Y-129628139D02*
X158827142Y-129551949D01*
X158827142Y-129551949D02*
X158903333Y-129513854D01*
X159741428Y-129513854D02*
X159817618Y-129513854D01*
X159817618Y-129513854D02*
X159893809Y-129551949D01*
X159893809Y-129551949D02*
X159931904Y-129590044D01*
X159931904Y-129590044D02*
X159969999Y-129666235D01*
X159969999Y-129666235D02*
X160008094Y-129818616D01*
X160008094Y-129818616D02*
X160008094Y-130009092D01*
X160008094Y-130009092D02*
X159969999Y-130161473D01*
X159969999Y-130161473D02*
X159931904Y-130237663D01*
X159931904Y-130237663D02*
X159893809Y-130275759D01*
X159893809Y-130275759D02*
X159817618Y-130313854D01*
X159817618Y-130313854D02*
X159741428Y-130313854D01*
X159741428Y-130313854D02*
X159665237Y-130275759D01*
X159665237Y-130275759D02*
X159627142Y-130237663D01*
X159627142Y-130237663D02*
X159589047Y-130161473D01*
X159589047Y-130161473D02*
X159550951Y-130009092D01*
X159550951Y-130009092D02*
X159550951Y-129818616D01*
X159550951Y-129818616D02*
X159589047Y-129666235D01*
X159589047Y-129666235D02*
X159627142Y-129590044D01*
X159627142Y-129590044D02*
X159665237Y-129551949D01*
X159665237Y-129551949D02*
X159741428Y-129513854D01*
X158731905Y-137813855D02*
X158465238Y-137432902D01*
X158274762Y-137813855D02*
X158274762Y-137013855D01*
X158274762Y-137013855D02*
X158579524Y-137013855D01*
X158579524Y-137013855D02*
X158655714Y-137051950D01*
X158655714Y-137051950D02*
X158693809Y-137090045D01*
X158693809Y-137090045D02*
X158731905Y-137166236D01*
X158731905Y-137166236D02*
X158731905Y-137280521D01*
X158731905Y-137280521D02*
X158693809Y-137356712D01*
X158693809Y-137356712D02*
X158655714Y-137394807D01*
X158655714Y-137394807D02*
X158579524Y-137432902D01*
X158579524Y-137432902D02*
X158274762Y-137432902D01*
X159036666Y-137775760D02*
X159150952Y-137813855D01*
X159150952Y-137813855D02*
X159341428Y-137813855D01*
X159341428Y-137813855D02*
X159417619Y-137775760D01*
X159417619Y-137775760D02*
X159455714Y-137737664D01*
X159455714Y-137737664D02*
X159493809Y-137661474D01*
X159493809Y-137661474D02*
X159493809Y-137585283D01*
X159493809Y-137585283D02*
X159455714Y-137509093D01*
X159455714Y-137509093D02*
X159417619Y-137470998D01*
X159417619Y-137470998D02*
X159341428Y-137432902D01*
X159341428Y-137432902D02*
X159189047Y-137394807D01*
X159189047Y-137394807D02*
X159112857Y-137356712D01*
X159112857Y-137356712D02*
X159074762Y-137318617D01*
X159074762Y-137318617D02*
X159036666Y-137242426D01*
X159036666Y-137242426D02*
X159036666Y-137166236D01*
X159036666Y-137166236D02*
X159074762Y-137090045D01*
X159074762Y-137090045D02*
X159112857Y-137051950D01*
X159112857Y-137051950D02*
X159189047Y-137013855D01*
X159189047Y-137013855D02*
X159379524Y-137013855D01*
X159379524Y-137013855D02*
X159493809Y-137051950D01*
X159722381Y-137013855D02*
X160179524Y-137013855D01*
X159950952Y-137813855D02*
X159950952Y-137013855D01*
X161100476Y-129513854D02*
X161557619Y-129513854D01*
X161329047Y-130313854D02*
X161329047Y-129513854D01*
X161748095Y-129513854D02*
X162281429Y-130313854D01*
X162281429Y-129513854D02*
X161748095Y-130313854D01*
X161576667Y-137813855D02*
X161310000Y-137432902D01*
X161119524Y-137813855D02*
X161119524Y-137013855D01*
X161119524Y-137013855D02*
X161424286Y-137013855D01*
X161424286Y-137013855D02*
X161500476Y-137051950D01*
X161500476Y-137051950D02*
X161538571Y-137090045D01*
X161538571Y-137090045D02*
X161576667Y-137166236D01*
X161576667Y-137166236D02*
X161576667Y-137280521D01*
X161576667Y-137280521D02*
X161538571Y-137356712D01*
X161538571Y-137356712D02*
X161500476Y-137394807D01*
X161500476Y-137394807D02*
X161424286Y-137432902D01*
X161424286Y-137432902D02*
X161119524Y-137432902D01*
X161843333Y-137013855D02*
X162376667Y-137813855D01*
X162376667Y-137013855D02*
X161843333Y-137813855D01*
X163259523Y-129513854D02*
X163754761Y-129513854D01*
X163754761Y-129513854D02*
X163488095Y-129818616D01*
X163488095Y-129818616D02*
X163602380Y-129818616D01*
X163602380Y-129818616D02*
X163678571Y-129856711D01*
X163678571Y-129856711D02*
X163716666Y-129894806D01*
X163716666Y-129894806D02*
X163754761Y-129970997D01*
X163754761Y-129970997D02*
X163754761Y-130161473D01*
X163754761Y-130161473D02*
X163716666Y-130237663D01*
X163716666Y-130237663D02*
X163678571Y-130275759D01*
X163678571Y-130275759D02*
X163602380Y-130313854D01*
X163602380Y-130313854D02*
X163373809Y-130313854D01*
X163373809Y-130313854D02*
X163297618Y-130275759D01*
X163297618Y-130275759D02*
X163259523Y-130237663D01*
X163983333Y-129513854D02*
X164250000Y-130313854D01*
X164250000Y-130313854D02*
X164516666Y-129513854D01*
X164707142Y-129513854D02*
X165202380Y-129513854D01*
X165202380Y-129513854D02*
X164935714Y-129818616D01*
X164935714Y-129818616D02*
X165049999Y-129818616D01*
X165049999Y-129818616D02*
X165126190Y-129856711D01*
X165126190Y-129856711D02*
X165164285Y-129894806D01*
X165164285Y-129894806D02*
X165202380Y-129970997D01*
X165202380Y-129970997D02*
X165202380Y-130161473D01*
X165202380Y-130161473D02*
X165164285Y-130237663D01*
X165164285Y-130237663D02*
X165126190Y-130275759D01*
X165126190Y-130275759D02*
X165049999Y-130313854D01*
X165049999Y-130313854D02*
X164821428Y-130313854D01*
X164821428Y-130313854D02*
X164745237Y-130275759D01*
X164745237Y-130275759D02*
X164707142Y-130237663D01*
X163640476Y-137051950D02*
X163564286Y-137013855D01*
X163564286Y-137013855D02*
X163450000Y-137013855D01*
X163450000Y-137013855D02*
X163335714Y-137051950D01*
X163335714Y-137051950D02*
X163259524Y-137128140D01*
X163259524Y-137128140D02*
X163221429Y-137204331D01*
X163221429Y-137204331D02*
X163183333Y-137356712D01*
X163183333Y-137356712D02*
X163183333Y-137470998D01*
X163183333Y-137470998D02*
X163221429Y-137623379D01*
X163221429Y-137623379D02*
X163259524Y-137699569D01*
X163259524Y-137699569D02*
X163335714Y-137775760D01*
X163335714Y-137775760D02*
X163450000Y-137813855D01*
X163450000Y-137813855D02*
X163526191Y-137813855D01*
X163526191Y-137813855D02*
X163640476Y-137775760D01*
X163640476Y-137775760D02*
X163678572Y-137737664D01*
X163678572Y-137737664D02*
X163678572Y-137470998D01*
X163678572Y-137470998D02*
X163526191Y-137470998D01*
X164021429Y-137813855D02*
X164021429Y-137013855D01*
X164021429Y-137013855D02*
X164478572Y-137813855D01*
X164478572Y-137813855D02*
X164478572Y-137013855D01*
X164859524Y-137813855D02*
X164859524Y-137013855D01*
X164859524Y-137013855D02*
X165050000Y-137013855D01*
X165050000Y-137013855D02*
X165164286Y-137051950D01*
X165164286Y-137051950D02*
X165240476Y-137128140D01*
X165240476Y-137128140D02*
X165278571Y-137204331D01*
X165278571Y-137204331D02*
X165316667Y-137356712D01*
X165316667Y-137356712D02*
X165316667Y-137470998D01*
X165316667Y-137470998D02*
X165278571Y-137623379D01*
X165278571Y-137623379D02*
X165240476Y-137699569D01*
X165240476Y-137699569D02*
X165164286Y-137775760D01*
X165164286Y-137775760D02*
X165050000Y-137813855D01*
X165050000Y-137813855D02*
X164859524Y-137813855D01*
D11*
X102997143Y-131645782D02*
X102997143Y-130445782D01*
X102997143Y-130445782D02*
X103682857Y-131645782D01*
X103682857Y-131645782D02*
X103682857Y-130445782D01*
X107219999Y-130445782D02*
X107448571Y-130445782D01*
X107448571Y-130445782D02*
X107562856Y-130502925D01*
X107562856Y-130502925D02*
X107677142Y-130617211D01*
X107677142Y-130617211D02*
X107734285Y-130845782D01*
X107734285Y-130845782D02*
X107734285Y-131245782D01*
X107734285Y-131245782D02*
X107677142Y-131474354D01*
X107677142Y-131474354D02*
X107562856Y-131588640D01*
X107562856Y-131588640D02*
X107448571Y-131645782D01*
X107448571Y-131645782D02*
X107219999Y-131645782D01*
X107219999Y-131645782D02*
X107105714Y-131588640D01*
X107105714Y-131588640D02*
X106991428Y-131474354D01*
X106991428Y-131474354D02*
X106934285Y-131245782D01*
X106934285Y-131245782D02*
X106934285Y-130845782D01*
X106934285Y-130845782D02*
X106991428Y-130617211D01*
X106991428Y-130617211D02*
X107105714Y-130502925D01*
X107105714Y-130502925D02*
X107219999Y-130445782D01*
X108248571Y-130445782D02*
X108248571Y-131417211D01*
X108248571Y-131417211D02*
X108305714Y-131531497D01*
X108305714Y-131531497D02*
X108362857Y-131588640D01*
X108362857Y-131588640D02*
X108477142Y-131645782D01*
X108477142Y-131645782D02*
X108705714Y-131645782D01*
X108705714Y-131645782D02*
X108819999Y-131588640D01*
X108819999Y-131588640D02*
X108877142Y-131531497D01*
X108877142Y-131531497D02*
X108934285Y-131417211D01*
X108934285Y-131417211D02*
X108934285Y-130445782D01*
X109334285Y-130445782D02*
X110020000Y-130445782D01*
X109677142Y-131645782D02*
X109677142Y-130445782D01*
X113871428Y-131645782D02*
X113300000Y-131645782D01*
X113300000Y-131645782D02*
X113300000Y-130445782D01*
X121300000Y-126145782D02*
X121300000Y-124945782D01*
X121300000Y-124945782D02*
X121757143Y-124945782D01*
X121757143Y-124945782D02*
X121871428Y-125002925D01*
X121871428Y-125002925D02*
X121928571Y-125060068D01*
X121928571Y-125060068D02*
X121985714Y-125174354D01*
X121985714Y-125174354D02*
X121985714Y-125345782D01*
X121985714Y-125345782D02*
X121928571Y-125460068D01*
X121928571Y-125460068D02*
X121871428Y-125517211D01*
X121871428Y-125517211D02*
X121757143Y-125574354D01*
X121757143Y-125574354D02*
X121300000Y-125574354D01*
X122500000Y-125517211D02*
X122900000Y-125517211D01*
X123071428Y-126145782D02*
X122500000Y-126145782D01*
X122500000Y-126145782D02*
X122500000Y-124945782D01*
X122500000Y-124945782D02*
X123071428Y-124945782D01*
X124157142Y-126145782D02*
X123585714Y-126145782D01*
X123585714Y-126145782D02*
X123585714Y-124945782D01*
X124557143Y-126145782D02*
X124557143Y-124945782D01*
X125757143Y-125002925D02*
X125642858Y-124945782D01*
X125642858Y-124945782D02*
X125471429Y-124945782D01*
X125471429Y-124945782D02*
X125300000Y-125002925D01*
X125300000Y-125002925D02*
X125185715Y-125117211D01*
X125185715Y-125117211D02*
X125128572Y-125231497D01*
X125128572Y-125231497D02*
X125071429Y-125460068D01*
X125071429Y-125460068D02*
X125071429Y-125631497D01*
X125071429Y-125631497D02*
X125128572Y-125860068D01*
X125128572Y-125860068D02*
X125185715Y-125974354D01*
X125185715Y-125974354D02*
X125300000Y-126088640D01*
X125300000Y-126088640D02*
X125471429Y-126145782D01*
X125471429Y-126145782D02*
X125585715Y-126145782D01*
X125585715Y-126145782D02*
X125757143Y-126088640D01*
X125757143Y-126088640D02*
X125814286Y-126031497D01*
X125814286Y-126031497D02*
X125814286Y-125631497D01*
X125814286Y-125631497D02*
X125585715Y-125631497D01*
X127014286Y-126145782D02*
X126614286Y-125574354D01*
X126328572Y-126145782D02*
X126328572Y-124945782D01*
X126328572Y-124945782D02*
X126785715Y-124945782D01*
X126785715Y-124945782D02*
X126900000Y-125002925D01*
X126900000Y-125002925D02*
X126957143Y-125060068D01*
X126957143Y-125060068D02*
X127014286Y-125174354D01*
X127014286Y-125174354D02*
X127014286Y-125345782D01*
X127014286Y-125345782D02*
X126957143Y-125460068D01*
X126957143Y-125460068D02*
X126900000Y-125517211D01*
X126900000Y-125517211D02*
X126785715Y-125574354D01*
X126785715Y-125574354D02*
X126328572Y-125574354D01*
X127757143Y-124945782D02*
X127985715Y-124945782D01*
X127985715Y-124945782D02*
X128100000Y-125002925D01*
X128100000Y-125002925D02*
X128214286Y-125117211D01*
X128214286Y-125117211D02*
X128271429Y-125345782D01*
X128271429Y-125345782D02*
X128271429Y-125745782D01*
X128271429Y-125745782D02*
X128214286Y-125974354D01*
X128214286Y-125974354D02*
X128100000Y-126088640D01*
X128100000Y-126088640D02*
X127985715Y-126145782D01*
X127985715Y-126145782D02*
X127757143Y-126145782D01*
X127757143Y-126145782D02*
X127642858Y-126088640D01*
X127642858Y-126088640D02*
X127528572Y-125974354D01*
X127528572Y-125974354D02*
X127471429Y-125745782D01*
X127471429Y-125745782D02*
X127471429Y-125345782D01*
X127471429Y-125345782D02*
X127528572Y-125117211D01*
X127528572Y-125117211D02*
X127642858Y-125002925D01*
X127642858Y-125002925D02*
X127757143Y-124945782D01*
X128785715Y-126031497D02*
X128842858Y-126088640D01*
X128842858Y-126088640D02*
X128785715Y-126145782D01*
X128785715Y-126145782D02*
X128728572Y-126088640D01*
X128728572Y-126088640D02*
X128785715Y-126031497D01*
X128785715Y-126031497D02*
X128785715Y-126145782D01*
X128785715Y-125402925D02*
X128842858Y-125460068D01*
X128842858Y-125460068D02*
X128785715Y-125517211D01*
X128785715Y-125517211D02*
X128728572Y-125460068D01*
X128728572Y-125460068D02*
X128785715Y-125402925D01*
X128785715Y-125402925D02*
X128785715Y-125517211D01*
X130900001Y-126145782D02*
X130214287Y-126145782D01*
X130557144Y-126145782D02*
X130557144Y-124945782D01*
X130557144Y-124945782D02*
X130442858Y-125117211D01*
X130442858Y-125117211D02*
X130328573Y-125231497D01*
X130328573Y-125231497D02*
X130214287Y-125288640D01*
X132042858Y-126145782D02*
X131357144Y-126145782D01*
X131700001Y-126145782D02*
X131700001Y-124945782D01*
X131700001Y-124945782D02*
X131585715Y-125117211D01*
X131585715Y-125117211D02*
X131471430Y-125231497D01*
X131471430Y-125231497D02*
X131357144Y-125288640D01*
X132785715Y-124945782D02*
X132900001Y-124945782D01*
X132900001Y-124945782D02*
X133014287Y-125002925D01*
X133014287Y-125002925D02*
X133071430Y-125060068D01*
X133071430Y-125060068D02*
X133128572Y-125174354D01*
X133128572Y-125174354D02*
X133185715Y-125402925D01*
X133185715Y-125402925D02*
X133185715Y-125688640D01*
X133185715Y-125688640D02*
X133128572Y-125917211D01*
X133128572Y-125917211D02*
X133071430Y-126031497D01*
X133071430Y-126031497D02*
X133014287Y-126088640D01*
X133014287Y-126088640D02*
X132900001Y-126145782D01*
X132900001Y-126145782D02*
X132785715Y-126145782D01*
X132785715Y-126145782D02*
X132671430Y-126088640D01*
X132671430Y-126088640D02*
X132614287Y-126031497D01*
X132614287Y-126031497D02*
X132557144Y-125917211D01*
X132557144Y-125917211D02*
X132500001Y-125688640D01*
X132500001Y-125688640D02*
X132500001Y-125402925D01*
X132500001Y-125402925D02*
X132557144Y-125174354D01*
X132557144Y-125174354D02*
X132614287Y-125060068D01*
X132614287Y-125060068D02*
X132671430Y-125002925D01*
X132671430Y-125002925D02*
X132785715Y-124945782D01*
X134442858Y-124945782D02*
X134842858Y-126145782D01*
X134842858Y-126145782D02*
X135242858Y-124945782D01*
X135585715Y-125802925D02*
X136157144Y-125802925D01*
X135471429Y-126145782D02*
X135871429Y-124945782D01*
X135871429Y-124945782D02*
X136271429Y-126145782D01*
X137357143Y-126031497D02*
X137300000Y-126088640D01*
X137300000Y-126088640D02*
X137128572Y-126145782D01*
X137128572Y-126145782D02*
X137014286Y-126145782D01*
X137014286Y-126145782D02*
X136842857Y-126088640D01*
X136842857Y-126088640D02*
X136728572Y-125974354D01*
X136728572Y-125974354D02*
X136671429Y-125860068D01*
X136671429Y-125860068D02*
X136614286Y-125631497D01*
X136614286Y-125631497D02*
X136614286Y-125460068D01*
X136614286Y-125460068D02*
X136671429Y-125231497D01*
X136671429Y-125231497D02*
X136728572Y-125117211D01*
X136728572Y-125117211D02*
X136842857Y-125002925D01*
X136842857Y-125002925D02*
X137014286Y-124945782D01*
X137014286Y-124945782D02*
X137128572Y-124945782D01*
X137128572Y-124945782D02*
X137300000Y-125002925D01*
X137300000Y-125002925D02*
X137357143Y-125060068D01*
D10*
X161790476Y-119263855D02*
X161790476Y-119911474D01*
X161790476Y-119911474D02*
X161828571Y-119987664D01*
X161828571Y-119987664D02*
X161866666Y-120025760D01*
X161866666Y-120025760D02*
X161942857Y-120063855D01*
X161942857Y-120063855D02*
X162095238Y-120063855D01*
X162095238Y-120063855D02*
X162171428Y-120025760D01*
X162171428Y-120025760D02*
X162209523Y-119987664D01*
X162209523Y-119987664D02*
X162247619Y-119911474D01*
X162247619Y-119911474D02*
X162247619Y-119263855D01*
X162590475Y-119340045D02*
X162628571Y-119301950D01*
X162628571Y-119301950D02*
X162704761Y-119263855D01*
X162704761Y-119263855D02*
X162895237Y-119263855D01*
X162895237Y-119263855D02*
X162971428Y-119301950D01*
X162971428Y-119301950D02*
X163009523Y-119340045D01*
X163009523Y-119340045D02*
X163047618Y-119416236D01*
X163047618Y-119416236D02*
X163047618Y-119492426D01*
X163047618Y-119492426D02*
X163009523Y-119606712D01*
X163009523Y-119606712D02*
X162552380Y-120063855D01*
X162552380Y-120063855D02*
X163047618Y-120063855D01*
X153566667Y-126887664D02*
X153528571Y-126925760D01*
X153528571Y-126925760D02*
X153414286Y-126963855D01*
X153414286Y-126963855D02*
X153338095Y-126963855D01*
X153338095Y-126963855D02*
X153223809Y-126925760D01*
X153223809Y-126925760D02*
X153147619Y-126849569D01*
X153147619Y-126849569D02*
X153109524Y-126773379D01*
X153109524Y-126773379D02*
X153071428Y-126620998D01*
X153071428Y-126620998D02*
X153071428Y-126506712D01*
X153071428Y-126506712D02*
X153109524Y-126354331D01*
X153109524Y-126354331D02*
X153147619Y-126278140D01*
X153147619Y-126278140D02*
X153223809Y-126201950D01*
X153223809Y-126201950D02*
X153338095Y-126163855D01*
X153338095Y-126163855D02*
X153414286Y-126163855D01*
X153414286Y-126163855D02*
X153528571Y-126201950D01*
X153528571Y-126201950D02*
X153566667Y-126240045D01*
X154252381Y-126163855D02*
X154100000Y-126163855D01*
X154100000Y-126163855D02*
X154023809Y-126201950D01*
X154023809Y-126201950D02*
X153985714Y-126240045D01*
X153985714Y-126240045D02*
X153909524Y-126354331D01*
X153909524Y-126354331D02*
X153871428Y-126506712D01*
X153871428Y-126506712D02*
X153871428Y-126811474D01*
X153871428Y-126811474D02*
X153909524Y-126887664D01*
X153909524Y-126887664D02*
X153947619Y-126925760D01*
X153947619Y-126925760D02*
X154023809Y-126963855D01*
X154023809Y-126963855D02*
X154176190Y-126963855D01*
X154176190Y-126963855D02*
X154252381Y-126925760D01*
X154252381Y-126925760D02*
X154290476Y-126887664D01*
X154290476Y-126887664D02*
X154328571Y-126811474D01*
X154328571Y-126811474D02*
X154328571Y-126620998D01*
X154328571Y-126620998D02*
X154290476Y-126544807D01*
X154290476Y-126544807D02*
X154252381Y-126506712D01*
X154252381Y-126506712D02*
X154176190Y-126468617D01*
X154176190Y-126468617D02*
X154023809Y-126468617D01*
X154023809Y-126468617D02*
X153947619Y-126506712D01*
X153947619Y-126506712D02*
X153909524Y-126544807D01*
X153909524Y-126544807D02*
X153871428Y-126620998D01*
D12*
X163966666Y-138456119D02*
X163966666Y-139170404D01*
X163966666Y-139170404D02*
X163919047Y-139313261D01*
X163919047Y-139313261D02*
X163823809Y-139408500D01*
X163823809Y-139408500D02*
X163680952Y-139456119D01*
X163680952Y-139456119D02*
X163585714Y-139456119D01*
X164347619Y-138456119D02*
X164966666Y-138456119D01*
X164966666Y-138456119D02*
X164633333Y-138837071D01*
X164633333Y-138837071D02*
X164776190Y-138837071D01*
X164776190Y-138837071D02*
X164871428Y-138884690D01*
X164871428Y-138884690D02*
X164919047Y-138932309D01*
X164919047Y-138932309D02*
X164966666Y-139027547D01*
X164966666Y-139027547D02*
X164966666Y-139265642D01*
X164966666Y-139265642D02*
X164919047Y-139360880D01*
X164919047Y-139360880D02*
X164871428Y-139408500D01*
X164871428Y-139408500D02*
X164776190Y-139456119D01*
X164776190Y-139456119D02*
X164490476Y-139456119D01*
X164490476Y-139456119D02*
X164395238Y-139408500D01*
X164395238Y-139408500D02*
X164347619Y-139360880D01*
D10*
X118233333Y-126544807D02*
X117966667Y-126544807D01*
X117966667Y-126963855D02*
X117966667Y-126163855D01*
X117966667Y-126163855D02*
X118347619Y-126163855D01*
X119071428Y-126963855D02*
X118614285Y-126963855D01*
X118842857Y-126963855D02*
X118842857Y-126163855D01*
X118842857Y-126163855D02*
X118766666Y-126278140D01*
X118766666Y-126278140D02*
X118690476Y-126354331D01*
X118690476Y-126354331D02*
X118614285Y-126392426D01*
X159933332Y-122125760D02*
X160047618Y-122163855D01*
X160047618Y-122163855D02*
X160238094Y-122163855D01*
X160238094Y-122163855D02*
X160314285Y-122125760D01*
X160314285Y-122125760D02*
X160352380Y-122087664D01*
X160352380Y-122087664D02*
X160390475Y-122011474D01*
X160390475Y-122011474D02*
X160390475Y-121935283D01*
X160390475Y-121935283D02*
X160352380Y-121859093D01*
X160352380Y-121859093D02*
X160314285Y-121820998D01*
X160314285Y-121820998D02*
X160238094Y-121782902D01*
X160238094Y-121782902D02*
X160085713Y-121744807D01*
X160085713Y-121744807D02*
X160009523Y-121706712D01*
X160009523Y-121706712D02*
X159971428Y-121668617D01*
X159971428Y-121668617D02*
X159933332Y-121592426D01*
X159933332Y-121592426D02*
X159933332Y-121516236D01*
X159933332Y-121516236D02*
X159971428Y-121440045D01*
X159971428Y-121440045D02*
X160009523Y-121401950D01*
X160009523Y-121401950D02*
X160085713Y-121363855D01*
X160085713Y-121363855D02*
X160276190Y-121363855D01*
X160276190Y-121363855D02*
X160390475Y-121401950D01*
X160657142Y-121363855D02*
X160847618Y-122163855D01*
X160847618Y-122163855D02*
X160999999Y-121592426D01*
X160999999Y-121592426D02*
X161152380Y-122163855D01*
X161152380Y-122163855D02*
X161342857Y-121363855D01*
X162066666Y-122163855D02*
X161609523Y-122163855D01*
X161838095Y-122163855D02*
X161838095Y-121363855D01*
X161838095Y-121363855D02*
X161761904Y-121478140D01*
X161761904Y-121478140D02*
X161685714Y-121554331D01*
X161685714Y-121554331D02*
X161609523Y-121592426D01*
X140666667Y-103887664D02*
X140628571Y-103925760D01*
X140628571Y-103925760D02*
X140514286Y-103963855D01*
X140514286Y-103963855D02*
X140438095Y-103963855D01*
X140438095Y-103963855D02*
X140323809Y-103925760D01*
X140323809Y-103925760D02*
X140247619Y-103849569D01*
X140247619Y-103849569D02*
X140209524Y-103773379D01*
X140209524Y-103773379D02*
X140171428Y-103620998D01*
X140171428Y-103620998D02*
X140171428Y-103506712D01*
X140171428Y-103506712D02*
X140209524Y-103354331D01*
X140209524Y-103354331D02*
X140247619Y-103278140D01*
X140247619Y-103278140D02*
X140323809Y-103201950D01*
X140323809Y-103201950D02*
X140438095Y-103163855D01*
X140438095Y-103163855D02*
X140514286Y-103163855D01*
X140514286Y-103163855D02*
X140628571Y-103201950D01*
X140628571Y-103201950D02*
X140666667Y-103240045D01*
X141390476Y-103163855D02*
X141009524Y-103163855D01*
X141009524Y-103163855D02*
X140971428Y-103544807D01*
X140971428Y-103544807D02*
X141009524Y-103506712D01*
X141009524Y-103506712D02*
X141085714Y-103468617D01*
X141085714Y-103468617D02*
X141276190Y-103468617D01*
X141276190Y-103468617D02*
X141352381Y-103506712D01*
X141352381Y-103506712D02*
X141390476Y-103544807D01*
X141390476Y-103544807D02*
X141428571Y-103620998D01*
X141428571Y-103620998D02*
X141428571Y-103811474D01*
X141428571Y-103811474D02*
X141390476Y-103887664D01*
X141390476Y-103887664D02*
X141352381Y-103925760D01*
X141352381Y-103925760D02*
X141276190Y-103963855D01*
X141276190Y-103963855D02*
X141085714Y-103963855D01*
X141085714Y-103963855D02*
X141009524Y-103925760D01*
X141009524Y-103925760D02*
X140971428Y-103887664D01*
X151040045Y-136276190D02*
X151001950Y-136352380D01*
X151001950Y-136352380D02*
X150925760Y-136428571D01*
X150925760Y-136428571D02*
X150811474Y-136542857D01*
X150811474Y-136542857D02*
X150773379Y-136619047D01*
X150773379Y-136619047D02*
X150773379Y-136695238D01*
X150963855Y-136657142D02*
X150925760Y-136733333D01*
X150925760Y-136733333D02*
X150849569Y-136809523D01*
X150849569Y-136809523D02*
X150697188Y-136847619D01*
X150697188Y-136847619D02*
X150430521Y-136847619D01*
X150430521Y-136847619D02*
X150278140Y-136809523D01*
X150278140Y-136809523D02*
X150201950Y-136733333D01*
X150201950Y-136733333D02*
X150163855Y-136657142D01*
X150163855Y-136657142D02*
X150163855Y-136504761D01*
X150163855Y-136504761D02*
X150201950Y-136428571D01*
X150201950Y-136428571D02*
X150278140Y-136352380D01*
X150278140Y-136352380D02*
X150430521Y-136314285D01*
X150430521Y-136314285D02*
X150697188Y-136314285D01*
X150697188Y-136314285D02*
X150849569Y-136352380D01*
X150849569Y-136352380D02*
X150925760Y-136428571D01*
X150925760Y-136428571D02*
X150963855Y-136504761D01*
X150963855Y-136504761D02*
X150963855Y-136657142D01*
X150963855Y-135552381D02*
X150963855Y-136009524D01*
X150963855Y-135780952D02*
X150163855Y-135780952D01*
X150163855Y-135780952D02*
X150278140Y-135857143D01*
X150278140Y-135857143D02*
X150354331Y-135933333D01*
X150354331Y-135933333D02*
X150392426Y-136009524D01*
X150809524Y-143413855D02*
X150809524Y-142613855D01*
X150809524Y-142613855D02*
X151000000Y-142613855D01*
X151000000Y-142613855D02*
X151114286Y-142651950D01*
X151114286Y-142651950D02*
X151190476Y-142728140D01*
X151190476Y-142728140D02*
X151228571Y-142804331D01*
X151228571Y-142804331D02*
X151266667Y-142956712D01*
X151266667Y-142956712D02*
X151266667Y-143070998D01*
X151266667Y-143070998D02*
X151228571Y-143223379D01*
X151228571Y-143223379D02*
X151190476Y-143299569D01*
X151190476Y-143299569D02*
X151114286Y-143375760D01*
X151114286Y-143375760D02*
X151000000Y-143413855D01*
X151000000Y-143413855D02*
X150809524Y-143413855D01*
X151533333Y-142613855D02*
X152028571Y-142613855D01*
X152028571Y-142613855D02*
X151761905Y-142918617D01*
X151761905Y-142918617D02*
X151876190Y-142918617D01*
X151876190Y-142918617D02*
X151952381Y-142956712D01*
X151952381Y-142956712D02*
X151990476Y-142994807D01*
X151990476Y-142994807D02*
X152028571Y-143070998D01*
X152028571Y-143070998D02*
X152028571Y-143261474D01*
X152028571Y-143261474D02*
X151990476Y-143337664D01*
X151990476Y-143337664D02*
X151952381Y-143375760D01*
X151952381Y-143375760D02*
X151876190Y-143413855D01*
X151876190Y-143413855D02*
X151647619Y-143413855D01*
X151647619Y-143413855D02*
X151571428Y-143375760D01*
X151571428Y-143375760D02*
X151533333Y-143337664D01*
X117633333Y-138363855D02*
X117633333Y-138935283D01*
X117633333Y-138935283D02*
X117595238Y-139049569D01*
X117595238Y-139049569D02*
X117519047Y-139125760D01*
X117519047Y-139125760D02*
X117404762Y-139163855D01*
X117404762Y-139163855D02*
X117328571Y-139163855D01*
X118433333Y-139163855D02*
X117976190Y-139163855D01*
X118204762Y-139163855D02*
X118204762Y-138363855D01*
X118204762Y-138363855D02*
X118128571Y-138478140D01*
X118128571Y-138478140D02*
X118052381Y-138554331D01*
X118052381Y-138554331D02*
X117976190Y-138592426D01*
X151266667Y-138163855D02*
X151000000Y-137782902D01*
X150809524Y-138163855D02*
X150809524Y-137363855D01*
X150809524Y-137363855D02*
X151114286Y-137363855D01*
X151114286Y-137363855D02*
X151190476Y-137401950D01*
X151190476Y-137401950D02*
X151228571Y-137440045D01*
X151228571Y-137440045D02*
X151266667Y-137516236D01*
X151266667Y-137516236D02*
X151266667Y-137630521D01*
X151266667Y-137630521D02*
X151228571Y-137706712D01*
X151228571Y-137706712D02*
X151190476Y-137744807D01*
X151190476Y-137744807D02*
X151114286Y-137782902D01*
X151114286Y-137782902D02*
X150809524Y-137782902D01*
X151533333Y-137363855D02*
X152066667Y-137363855D01*
X152066667Y-137363855D02*
X151723809Y-138163855D01*
X139066667Y-106663855D02*
X138800000Y-106282902D01*
X138609524Y-106663855D02*
X138609524Y-105863855D01*
X138609524Y-105863855D02*
X138914286Y-105863855D01*
X138914286Y-105863855D02*
X138990476Y-105901950D01*
X138990476Y-105901950D02*
X139028571Y-105940045D01*
X139028571Y-105940045D02*
X139066667Y-106016236D01*
X139066667Y-106016236D02*
X139066667Y-106130521D01*
X139066667Y-106130521D02*
X139028571Y-106206712D01*
X139028571Y-106206712D02*
X138990476Y-106244807D01*
X138990476Y-106244807D02*
X138914286Y-106282902D01*
X138914286Y-106282902D02*
X138609524Y-106282902D01*
X139828571Y-106663855D02*
X139371428Y-106663855D01*
X139600000Y-106663855D02*
X139600000Y-105863855D01*
X139600000Y-105863855D02*
X139523809Y-105978140D01*
X139523809Y-105978140D02*
X139447619Y-106054331D01*
X139447619Y-106054331D02*
X139371428Y-106092426D01*
X155509524Y-132313855D02*
X155509524Y-131513855D01*
X155509524Y-131513855D02*
X155700000Y-131513855D01*
X155700000Y-131513855D02*
X155814286Y-131551950D01*
X155814286Y-131551950D02*
X155890476Y-131628140D01*
X155890476Y-131628140D02*
X155928571Y-131704331D01*
X155928571Y-131704331D02*
X155966667Y-131856712D01*
X155966667Y-131856712D02*
X155966667Y-131970998D01*
X155966667Y-131970998D02*
X155928571Y-132123379D01*
X155928571Y-132123379D02*
X155890476Y-132199569D01*
X155890476Y-132199569D02*
X155814286Y-132275760D01*
X155814286Y-132275760D02*
X155700000Y-132313855D01*
X155700000Y-132313855D02*
X155509524Y-132313855D01*
X156728571Y-132313855D02*
X156271428Y-132313855D01*
X156500000Y-132313855D02*
X156500000Y-131513855D01*
X156500000Y-131513855D02*
X156423809Y-131628140D01*
X156423809Y-131628140D02*
X156347619Y-131704331D01*
X156347619Y-131704331D02*
X156271428Y-131742426D01*
X153966667Y-124287664D02*
X153928571Y-124325760D01*
X153928571Y-124325760D02*
X153814286Y-124363855D01*
X153814286Y-124363855D02*
X153738095Y-124363855D01*
X153738095Y-124363855D02*
X153623809Y-124325760D01*
X153623809Y-124325760D02*
X153547619Y-124249569D01*
X153547619Y-124249569D02*
X153509524Y-124173379D01*
X153509524Y-124173379D02*
X153471428Y-124020998D01*
X153471428Y-124020998D02*
X153471428Y-123906712D01*
X153471428Y-123906712D02*
X153509524Y-123754331D01*
X153509524Y-123754331D02*
X153547619Y-123678140D01*
X153547619Y-123678140D02*
X153623809Y-123601950D01*
X153623809Y-123601950D02*
X153738095Y-123563855D01*
X153738095Y-123563855D02*
X153814286Y-123563855D01*
X153814286Y-123563855D02*
X153928571Y-123601950D01*
X153928571Y-123601950D02*
X153966667Y-123640045D01*
X154652381Y-123830521D02*
X154652381Y-124363855D01*
X154461905Y-123525760D02*
X154271428Y-124097188D01*
X154271428Y-124097188D02*
X154766667Y-124097188D01*
X142566667Y-133687664D02*
X142528571Y-133725760D01*
X142528571Y-133725760D02*
X142414286Y-133763855D01*
X142414286Y-133763855D02*
X142338095Y-133763855D01*
X142338095Y-133763855D02*
X142223809Y-133725760D01*
X142223809Y-133725760D02*
X142147619Y-133649569D01*
X142147619Y-133649569D02*
X142109524Y-133573379D01*
X142109524Y-133573379D02*
X142071428Y-133420998D01*
X142071428Y-133420998D02*
X142071428Y-133306712D01*
X142071428Y-133306712D02*
X142109524Y-133154331D01*
X142109524Y-133154331D02*
X142147619Y-133078140D01*
X142147619Y-133078140D02*
X142223809Y-133001950D01*
X142223809Y-133001950D02*
X142338095Y-132963855D01*
X142338095Y-132963855D02*
X142414286Y-132963855D01*
X142414286Y-132963855D02*
X142528571Y-133001950D01*
X142528571Y-133001950D02*
X142566667Y-133040045D01*
X143328571Y-133763855D02*
X142871428Y-133763855D01*
X143100000Y-133763855D02*
X143100000Y-132963855D01*
X143100000Y-132963855D02*
X143023809Y-133078140D01*
X143023809Y-133078140D02*
X142947619Y-133154331D01*
X142947619Y-133154331D02*
X142871428Y-133192426D01*
X138563855Y-126409523D02*
X139211474Y-126409523D01*
X139211474Y-126409523D02*
X139287664Y-126371428D01*
X139287664Y-126371428D02*
X139325760Y-126333333D01*
X139325760Y-126333333D02*
X139363855Y-126257142D01*
X139363855Y-126257142D02*
X139363855Y-126104761D01*
X139363855Y-126104761D02*
X139325760Y-126028571D01*
X139325760Y-126028571D02*
X139287664Y-125990476D01*
X139287664Y-125990476D02*
X139211474Y-125952380D01*
X139211474Y-125952380D02*
X138563855Y-125952380D01*
X139363855Y-125152381D02*
X139363855Y-125609524D01*
X139363855Y-125380952D02*
X138563855Y-125380952D01*
X138563855Y-125380952D02*
X138678140Y-125457143D01*
X138678140Y-125457143D02*
X138754331Y-125533333D01*
X138754331Y-125533333D02*
X138792426Y-125609524D01*
X147266667Y-122913855D02*
X147000000Y-122532902D01*
X146809524Y-122913855D02*
X146809524Y-122113855D01*
X146809524Y-122113855D02*
X147114286Y-122113855D01*
X147114286Y-122113855D02*
X147190476Y-122151950D01*
X147190476Y-122151950D02*
X147228571Y-122190045D01*
X147228571Y-122190045D02*
X147266667Y-122266236D01*
X147266667Y-122266236D02*
X147266667Y-122380521D01*
X147266667Y-122380521D02*
X147228571Y-122456712D01*
X147228571Y-122456712D02*
X147190476Y-122494807D01*
X147190476Y-122494807D02*
X147114286Y-122532902D01*
X147114286Y-122532902D02*
X146809524Y-122532902D01*
X147952381Y-122380521D02*
X147952381Y-122913855D01*
X147761905Y-122075760D02*
X147571428Y-122647188D01*
X147571428Y-122647188D02*
X148066667Y-122647188D01*
X147409524Y-138163855D02*
X147409524Y-137363855D01*
X147409524Y-137363855D02*
X147600000Y-137363855D01*
X147600000Y-137363855D02*
X147714286Y-137401950D01*
X147714286Y-137401950D02*
X147790476Y-137478140D01*
X147790476Y-137478140D02*
X147828571Y-137554331D01*
X147828571Y-137554331D02*
X147866667Y-137706712D01*
X147866667Y-137706712D02*
X147866667Y-137820998D01*
X147866667Y-137820998D02*
X147828571Y-137973379D01*
X147828571Y-137973379D02*
X147790476Y-138049569D01*
X147790476Y-138049569D02*
X147714286Y-138125760D01*
X147714286Y-138125760D02*
X147600000Y-138163855D01*
X147600000Y-138163855D02*
X147409524Y-138163855D01*
X148171428Y-137440045D02*
X148209524Y-137401950D01*
X148209524Y-137401950D02*
X148285714Y-137363855D01*
X148285714Y-137363855D02*
X148476190Y-137363855D01*
X148476190Y-137363855D02*
X148552381Y-137401950D01*
X148552381Y-137401950D02*
X148590476Y-137440045D01*
X148590476Y-137440045D02*
X148628571Y-137516236D01*
X148628571Y-137516236D02*
X148628571Y-137592426D01*
X148628571Y-137592426D02*
X148590476Y-137706712D01*
X148590476Y-137706712D02*
X148133333Y-138163855D01*
X148133333Y-138163855D02*
X148628571Y-138163855D01*
X155263855Y-120583332D02*
X154882902Y-120849999D01*
X155263855Y-121040475D02*
X154463855Y-121040475D01*
X154463855Y-121040475D02*
X154463855Y-120735713D01*
X154463855Y-120735713D02*
X154501950Y-120659523D01*
X154501950Y-120659523D02*
X154540045Y-120621428D01*
X154540045Y-120621428D02*
X154616236Y-120583332D01*
X154616236Y-120583332D02*
X154730521Y-120583332D01*
X154730521Y-120583332D02*
X154806712Y-120621428D01*
X154806712Y-120621428D02*
X154844807Y-120659523D01*
X154844807Y-120659523D02*
X154882902Y-120735713D01*
X154882902Y-120735713D02*
X154882902Y-121040475D01*
X154463855Y-119897618D02*
X154463855Y-120049999D01*
X154463855Y-120049999D02*
X154501950Y-120126190D01*
X154501950Y-120126190D02*
X154540045Y-120164285D01*
X154540045Y-120164285D02*
X154654331Y-120240475D01*
X154654331Y-120240475D02*
X154806712Y-120278571D01*
X154806712Y-120278571D02*
X155111474Y-120278571D01*
X155111474Y-120278571D02*
X155187664Y-120240475D01*
X155187664Y-120240475D02*
X155225760Y-120202380D01*
X155225760Y-120202380D02*
X155263855Y-120126190D01*
X155263855Y-120126190D02*
X155263855Y-119973809D01*
X155263855Y-119973809D02*
X155225760Y-119897618D01*
X155225760Y-119897618D02*
X155187664Y-119859523D01*
X155187664Y-119859523D02*
X155111474Y-119821428D01*
X155111474Y-119821428D02*
X154920998Y-119821428D01*
X154920998Y-119821428D02*
X154844807Y-119859523D01*
X154844807Y-119859523D02*
X154806712Y-119897618D01*
X154806712Y-119897618D02*
X154768617Y-119973809D01*
X154768617Y-119973809D02*
X154768617Y-120126190D01*
X154768617Y-120126190D02*
X154806712Y-120202380D01*
X154806712Y-120202380D02*
X154844807Y-120240475D01*
X154844807Y-120240475D02*
X154920998Y-120278571D01*
X153787664Y-131733332D02*
X153825760Y-131771428D01*
X153825760Y-131771428D02*
X153863855Y-131885713D01*
X153863855Y-131885713D02*
X153863855Y-131961904D01*
X153863855Y-131961904D02*
X153825760Y-132076190D01*
X153825760Y-132076190D02*
X153749569Y-132152380D01*
X153749569Y-132152380D02*
X153673379Y-132190475D01*
X153673379Y-132190475D02*
X153520998Y-132228571D01*
X153520998Y-132228571D02*
X153406712Y-132228571D01*
X153406712Y-132228571D02*
X153254331Y-132190475D01*
X153254331Y-132190475D02*
X153178140Y-132152380D01*
X153178140Y-132152380D02*
X153101950Y-132076190D01*
X153101950Y-132076190D02*
X153063855Y-131961904D01*
X153063855Y-131961904D02*
X153063855Y-131885713D01*
X153063855Y-131885713D02*
X153101950Y-131771428D01*
X153101950Y-131771428D02*
X153140045Y-131733332D01*
X153140045Y-131428571D02*
X153101950Y-131390475D01*
X153101950Y-131390475D02*
X153063855Y-131314285D01*
X153063855Y-131314285D02*
X153063855Y-131123809D01*
X153063855Y-131123809D02*
X153101950Y-131047618D01*
X153101950Y-131047618D02*
X153140045Y-131009523D01*
X153140045Y-131009523D02*
X153216236Y-130971428D01*
X153216236Y-130971428D02*
X153292426Y-130971428D01*
X153292426Y-130971428D02*
X153406712Y-131009523D01*
X153406712Y-131009523D02*
X153863855Y-131466666D01*
X153863855Y-131466666D02*
X153863855Y-130971428D01*
X117928571Y-102363855D02*
X117928571Y-101563855D01*
X117928571Y-101563855D02*
X118233333Y-101563855D01*
X118233333Y-101563855D02*
X118309523Y-101601950D01*
X118309523Y-101601950D02*
X118347618Y-101640045D01*
X118347618Y-101640045D02*
X118385714Y-101716236D01*
X118385714Y-101716236D02*
X118385714Y-101830521D01*
X118385714Y-101830521D02*
X118347618Y-101906712D01*
X118347618Y-101906712D02*
X118309523Y-101944807D01*
X118309523Y-101944807D02*
X118233333Y-101982902D01*
X118233333Y-101982902D02*
X117928571Y-101982902D01*
X118690475Y-102325760D02*
X118804761Y-102363855D01*
X118804761Y-102363855D02*
X118995237Y-102363855D01*
X118995237Y-102363855D02*
X119071428Y-102325760D01*
X119071428Y-102325760D02*
X119109523Y-102287664D01*
X119109523Y-102287664D02*
X119147618Y-102211474D01*
X119147618Y-102211474D02*
X119147618Y-102135283D01*
X119147618Y-102135283D02*
X119109523Y-102059093D01*
X119109523Y-102059093D02*
X119071428Y-102020998D01*
X119071428Y-102020998D02*
X118995237Y-101982902D01*
X118995237Y-101982902D02*
X118842856Y-101944807D01*
X118842856Y-101944807D02*
X118766666Y-101906712D01*
X118766666Y-101906712D02*
X118728571Y-101868617D01*
X118728571Y-101868617D02*
X118690475Y-101792426D01*
X118690475Y-101792426D02*
X118690475Y-101716236D01*
X118690475Y-101716236D02*
X118728571Y-101640045D01*
X118728571Y-101640045D02*
X118766666Y-101601950D01*
X118766666Y-101601950D02*
X118842856Y-101563855D01*
X118842856Y-101563855D02*
X119033333Y-101563855D01*
X119033333Y-101563855D02*
X119147618Y-101601950D01*
X119909523Y-102363855D02*
X119452380Y-102363855D01*
X119680952Y-102363855D02*
X119680952Y-101563855D01*
X119680952Y-101563855D02*
X119604761Y-101678140D01*
X119604761Y-101678140D02*
X119528571Y-101754331D01*
X119528571Y-101754331D02*
X119452380Y-101792426D01*
X162075760Y-142066667D02*
X162113855Y-141952381D01*
X162113855Y-141952381D02*
X162113855Y-141761905D01*
X162113855Y-141761905D02*
X162075760Y-141685714D01*
X162075760Y-141685714D02*
X162037664Y-141647619D01*
X162037664Y-141647619D02*
X161961474Y-141609524D01*
X161961474Y-141609524D02*
X161885283Y-141609524D01*
X161885283Y-141609524D02*
X161809093Y-141647619D01*
X161809093Y-141647619D02*
X161770998Y-141685714D01*
X161770998Y-141685714D02*
X161732902Y-141761905D01*
X161732902Y-141761905D02*
X161694807Y-141914286D01*
X161694807Y-141914286D02*
X161656712Y-141990476D01*
X161656712Y-141990476D02*
X161618617Y-142028571D01*
X161618617Y-142028571D02*
X161542426Y-142066667D01*
X161542426Y-142066667D02*
X161466236Y-142066667D01*
X161466236Y-142066667D02*
X161390045Y-142028571D01*
X161390045Y-142028571D02*
X161351950Y-141990476D01*
X161351950Y-141990476D02*
X161313855Y-141914286D01*
X161313855Y-141914286D02*
X161313855Y-141723809D01*
X161313855Y-141723809D02*
X161351950Y-141609524D01*
X161313855Y-141342857D02*
X162113855Y-141152381D01*
X162113855Y-141152381D02*
X161542426Y-141000000D01*
X161542426Y-141000000D02*
X162113855Y-140847619D01*
X162113855Y-140847619D02*
X161313855Y-140657143D01*
X161390045Y-140390476D02*
X161351950Y-140352380D01*
X161351950Y-140352380D02*
X161313855Y-140276190D01*
X161313855Y-140276190D02*
X161313855Y-140085714D01*
X161313855Y-140085714D02*
X161351950Y-140009523D01*
X161351950Y-140009523D02*
X161390045Y-139971428D01*
X161390045Y-139971428D02*
X161466236Y-139933333D01*
X161466236Y-139933333D02*
X161542426Y-139933333D01*
X161542426Y-139933333D02*
X161656712Y-139971428D01*
X161656712Y-139971428D02*
X162113855Y-140428571D01*
X162113855Y-140428571D02*
X162113855Y-139933333D01*
X151266667Y-122913855D02*
X151000000Y-122532902D01*
X150809524Y-122913855D02*
X150809524Y-122113855D01*
X150809524Y-122113855D02*
X151114286Y-122113855D01*
X151114286Y-122113855D02*
X151190476Y-122151950D01*
X151190476Y-122151950D02*
X151228571Y-122190045D01*
X151228571Y-122190045D02*
X151266667Y-122266236D01*
X151266667Y-122266236D02*
X151266667Y-122380521D01*
X151266667Y-122380521D02*
X151228571Y-122456712D01*
X151228571Y-122456712D02*
X151190476Y-122494807D01*
X151190476Y-122494807D02*
X151114286Y-122532902D01*
X151114286Y-122532902D02*
X150809524Y-122532902D01*
X151647619Y-122913855D02*
X151800000Y-122913855D01*
X151800000Y-122913855D02*
X151876190Y-122875760D01*
X151876190Y-122875760D02*
X151914286Y-122837664D01*
X151914286Y-122837664D02*
X151990476Y-122723379D01*
X151990476Y-122723379D02*
X152028571Y-122570998D01*
X152028571Y-122570998D02*
X152028571Y-122266236D01*
X152028571Y-122266236D02*
X151990476Y-122190045D01*
X151990476Y-122190045D02*
X151952381Y-122151950D01*
X151952381Y-122151950D02*
X151876190Y-122113855D01*
X151876190Y-122113855D02*
X151723809Y-122113855D01*
X151723809Y-122113855D02*
X151647619Y-122151950D01*
X151647619Y-122151950D02*
X151609524Y-122190045D01*
X151609524Y-122190045D02*
X151571428Y-122266236D01*
X151571428Y-122266236D02*
X151571428Y-122456712D01*
X151571428Y-122456712D02*
X151609524Y-122532902D01*
X151609524Y-122532902D02*
X151647619Y-122570998D01*
X151647619Y-122570998D02*
X151723809Y-122609093D01*
X151723809Y-122609093D02*
X151876190Y-122609093D01*
X151876190Y-122609093D02*
X151952381Y-122570998D01*
X151952381Y-122570998D02*
X151990476Y-122532902D01*
X151990476Y-122532902D02*
X152028571Y-122456712D01*
X143866667Y-120813855D02*
X143600000Y-120432902D01*
X143409524Y-120813855D02*
X143409524Y-120013855D01*
X143409524Y-120013855D02*
X143714286Y-120013855D01*
X143714286Y-120013855D02*
X143790476Y-120051950D01*
X143790476Y-120051950D02*
X143828571Y-120090045D01*
X143828571Y-120090045D02*
X143866667Y-120166236D01*
X143866667Y-120166236D02*
X143866667Y-120280521D01*
X143866667Y-120280521D02*
X143828571Y-120356712D01*
X143828571Y-120356712D02*
X143790476Y-120394807D01*
X143790476Y-120394807D02*
X143714286Y-120432902D01*
X143714286Y-120432902D02*
X143409524Y-120432902D01*
X144590476Y-120013855D02*
X144209524Y-120013855D01*
X144209524Y-120013855D02*
X144171428Y-120394807D01*
X144171428Y-120394807D02*
X144209524Y-120356712D01*
X144209524Y-120356712D02*
X144285714Y-120318617D01*
X144285714Y-120318617D02*
X144476190Y-120318617D01*
X144476190Y-120318617D02*
X144552381Y-120356712D01*
X144552381Y-120356712D02*
X144590476Y-120394807D01*
X144590476Y-120394807D02*
X144628571Y-120470998D01*
X144628571Y-120470998D02*
X144628571Y-120661474D01*
X144628571Y-120661474D02*
X144590476Y-120737664D01*
X144590476Y-120737664D02*
X144552381Y-120775760D01*
X144552381Y-120775760D02*
X144476190Y-120813855D01*
X144476190Y-120813855D02*
X144285714Y-120813855D01*
X144285714Y-120813855D02*
X144209524Y-120775760D01*
X144209524Y-120775760D02*
X144171428Y-120737664D01*
X147866667Y-143413855D02*
X147600000Y-143032902D01*
X147409524Y-143413855D02*
X147409524Y-142613855D01*
X147409524Y-142613855D02*
X147714286Y-142613855D01*
X147714286Y-142613855D02*
X147790476Y-142651950D01*
X147790476Y-142651950D02*
X147828571Y-142690045D01*
X147828571Y-142690045D02*
X147866667Y-142766236D01*
X147866667Y-142766236D02*
X147866667Y-142880521D01*
X147866667Y-142880521D02*
X147828571Y-142956712D01*
X147828571Y-142956712D02*
X147790476Y-142994807D01*
X147790476Y-142994807D02*
X147714286Y-143032902D01*
X147714286Y-143032902D02*
X147409524Y-143032902D01*
X148323809Y-142956712D02*
X148247619Y-142918617D01*
X148247619Y-142918617D02*
X148209524Y-142880521D01*
X148209524Y-142880521D02*
X148171428Y-142804331D01*
X148171428Y-142804331D02*
X148171428Y-142766236D01*
X148171428Y-142766236D02*
X148209524Y-142690045D01*
X148209524Y-142690045D02*
X148247619Y-142651950D01*
X148247619Y-142651950D02*
X148323809Y-142613855D01*
X148323809Y-142613855D02*
X148476190Y-142613855D01*
X148476190Y-142613855D02*
X148552381Y-142651950D01*
X148552381Y-142651950D02*
X148590476Y-142690045D01*
X148590476Y-142690045D02*
X148628571Y-142766236D01*
X148628571Y-142766236D02*
X148628571Y-142804331D01*
X148628571Y-142804331D02*
X148590476Y-142880521D01*
X148590476Y-142880521D02*
X148552381Y-142918617D01*
X148552381Y-142918617D02*
X148476190Y-142956712D01*
X148476190Y-142956712D02*
X148323809Y-142956712D01*
X148323809Y-142956712D02*
X148247619Y-142994807D01*
X148247619Y-142994807D02*
X148209524Y-143032902D01*
X148209524Y-143032902D02*
X148171428Y-143109093D01*
X148171428Y-143109093D02*
X148171428Y-143261474D01*
X148171428Y-143261474D02*
X148209524Y-143337664D01*
X148209524Y-143337664D02*
X148247619Y-143375760D01*
X148247619Y-143375760D02*
X148323809Y-143413855D01*
X148323809Y-143413855D02*
X148476190Y-143413855D01*
X148476190Y-143413855D02*
X148552381Y-143375760D01*
X148552381Y-143375760D02*
X148590476Y-143337664D01*
X148590476Y-143337664D02*
X148628571Y-143261474D01*
X148628571Y-143261474D02*
X148628571Y-143109093D01*
X148628571Y-143109093D02*
X148590476Y-143032902D01*
X148590476Y-143032902D02*
X148552381Y-142994807D01*
X148552381Y-142994807D02*
X148476190Y-142956712D01*
X149266667Y-122913855D02*
X149000000Y-122532902D01*
X148809524Y-122913855D02*
X148809524Y-122113855D01*
X148809524Y-122113855D02*
X149114286Y-122113855D01*
X149114286Y-122113855D02*
X149190476Y-122151950D01*
X149190476Y-122151950D02*
X149228571Y-122190045D01*
X149228571Y-122190045D02*
X149266667Y-122266236D01*
X149266667Y-122266236D02*
X149266667Y-122380521D01*
X149266667Y-122380521D02*
X149228571Y-122456712D01*
X149228571Y-122456712D02*
X149190476Y-122494807D01*
X149190476Y-122494807D02*
X149114286Y-122532902D01*
X149114286Y-122532902D02*
X148809524Y-122532902D01*
X149533333Y-122113855D02*
X150028571Y-122113855D01*
X150028571Y-122113855D02*
X149761905Y-122418617D01*
X149761905Y-122418617D02*
X149876190Y-122418617D01*
X149876190Y-122418617D02*
X149952381Y-122456712D01*
X149952381Y-122456712D02*
X149990476Y-122494807D01*
X149990476Y-122494807D02*
X150028571Y-122570998D01*
X150028571Y-122570998D02*
X150028571Y-122761474D01*
X150028571Y-122761474D02*
X149990476Y-122837664D01*
X149990476Y-122837664D02*
X149952381Y-122875760D01*
X149952381Y-122875760D02*
X149876190Y-122913855D01*
X149876190Y-122913855D02*
X149647619Y-122913855D01*
X149647619Y-122913855D02*
X149571428Y-122875760D01*
X149571428Y-122875760D02*
X149533333Y-122837664D01*
X142166667Y-132137664D02*
X142128571Y-132175760D01*
X142128571Y-132175760D02*
X142014286Y-132213855D01*
X142014286Y-132213855D02*
X141938095Y-132213855D01*
X141938095Y-132213855D02*
X141823809Y-132175760D01*
X141823809Y-132175760D02*
X141747619Y-132099569D01*
X141747619Y-132099569D02*
X141709524Y-132023379D01*
X141709524Y-132023379D02*
X141671428Y-131870998D01*
X141671428Y-131870998D02*
X141671428Y-131756712D01*
X141671428Y-131756712D02*
X141709524Y-131604331D01*
X141709524Y-131604331D02*
X141747619Y-131528140D01*
X141747619Y-131528140D02*
X141823809Y-131451950D01*
X141823809Y-131451950D02*
X141938095Y-131413855D01*
X141938095Y-131413855D02*
X142014286Y-131413855D01*
X142014286Y-131413855D02*
X142128571Y-131451950D01*
X142128571Y-131451950D02*
X142166667Y-131490045D01*
X142433333Y-131413855D02*
X142928571Y-131413855D01*
X142928571Y-131413855D02*
X142661905Y-131718617D01*
X142661905Y-131718617D02*
X142776190Y-131718617D01*
X142776190Y-131718617D02*
X142852381Y-131756712D01*
X142852381Y-131756712D02*
X142890476Y-131794807D01*
X142890476Y-131794807D02*
X142928571Y-131870998D01*
X142928571Y-131870998D02*
X142928571Y-132061474D01*
X142928571Y-132061474D02*
X142890476Y-132137664D01*
X142890476Y-132137664D02*
X142852381Y-132175760D01*
X142852381Y-132175760D02*
X142776190Y-132213855D01*
X142776190Y-132213855D02*
X142547619Y-132213855D01*
X142547619Y-132213855D02*
X142471428Y-132175760D01*
X142471428Y-132175760D02*
X142433333Y-132137664D01*
X104123810Y-128763855D02*
X103857143Y-128382902D01*
X103666667Y-128763855D02*
X103666667Y-127963855D01*
X103666667Y-127963855D02*
X103971429Y-127963855D01*
X103971429Y-127963855D02*
X104047619Y-128001950D01*
X104047619Y-128001950D02*
X104085714Y-128040045D01*
X104085714Y-128040045D02*
X104123810Y-128116236D01*
X104123810Y-128116236D02*
X104123810Y-128230521D01*
X104123810Y-128230521D02*
X104085714Y-128306712D01*
X104085714Y-128306712D02*
X104047619Y-128344807D01*
X104047619Y-128344807D02*
X103971429Y-128382902D01*
X103971429Y-128382902D02*
X103666667Y-128382902D01*
X104352381Y-127963855D02*
X104619048Y-128763855D01*
X104619048Y-128763855D02*
X104885714Y-127963855D01*
X105571428Y-128763855D02*
X105114285Y-128763855D01*
X105342857Y-128763855D02*
X105342857Y-127963855D01*
X105342857Y-127963855D02*
X105266666Y-128078140D01*
X105266666Y-128078140D02*
X105190476Y-128154331D01*
X105190476Y-128154331D02*
X105114285Y-128192426D01*
X139066667Y-114663855D02*
X138800000Y-114282902D01*
X138609524Y-114663855D02*
X138609524Y-113863855D01*
X138609524Y-113863855D02*
X138914286Y-113863855D01*
X138914286Y-113863855D02*
X138990476Y-113901950D01*
X138990476Y-113901950D02*
X139028571Y-113940045D01*
X139028571Y-113940045D02*
X139066667Y-114016236D01*
X139066667Y-114016236D02*
X139066667Y-114130521D01*
X139066667Y-114130521D02*
X139028571Y-114206712D01*
X139028571Y-114206712D02*
X138990476Y-114244807D01*
X138990476Y-114244807D02*
X138914286Y-114282902D01*
X138914286Y-114282902D02*
X138609524Y-114282902D01*
X139371428Y-113940045D02*
X139409524Y-113901950D01*
X139409524Y-113901950D02*
X139485714Y-113863855D01*
X139485714Y-113863855D02*
X139676190Y-113863855D01*
X139676190Y-113863855D02*
X139752381Y-113901950D01*
X139752381Y-113901950D02*
X139790476Y-113940045D01*
X139790476Y-113940045D02*
X139828571Y-114016236D01*
X139828571Y-114016236D02*
X139828571Y-114092426D01*
X139828571Y-114092426D02*
X139790476Y-114206712D01*
X139790476Y-114206712D02*
X139333333Y-114663855D01*
X139333333Y-114663855D02*
X139828571Y-114663855D01*
X128009524Y-129363855D02*
X128009524Y-128563855D01*
X128466667Y-129363855D02*
X128123809Y-128906712D01*
X128466667Y-128563855D02*
X128009524Y-129020998D01*
X129228571Y-129363855D02*
X128771428Y-129363855D01*
X129000000Y-129363855D02*
X129000000Y-128563855D01*
X129000000Y-128563855D02*
X128923809Y-128678140D01*
X128923809Y-128678140D02*
X128847619Y-128754331D01*
X128847619Y-128754331D02*
X128771428Y-128792426D01*
%TO.C,U2*%
X141780000Y-101480000D02*
X142400000Y-101480000D01*
X141780000Y-103600000D02*
X141780000Y-101480000D01*
X141780000Y-117720000D02*
X141780000Y-115600000D01*
X142400000Y-117720000D02*
X141780000Y-117720000D01*
X158400000Y-101480000D02*
X166020000Y-101480000D01*
X166020000Y-101480000D02*
X166020000Y-117720000D01*
X166020000Y-117720000D02*
X158400000Y-117720000D01*
X158400000Y-101050000D02*
X158736000Y-100810000D01*
X158736000Y-101290000D01*
X158400000Y-101050000D01*
G36*
X158736000Y-101290000D02*
G01*
X158400000Y-101050000D01*
X158736000Y-100810000D01*
X158736000Y-101290000D01*
G37*
%TO.C,C6*%
X150759420Y-126090000D02*
X151040580Y-126090000D01*
X150759420Y-127110000D02*
X151040580Y-127110000D01*
%TO.C,J3*%
X157790000Y-131000000D02*
X157790000Y-136300000D01*
X162980000Y-131000000D02*
X157790000Y-131000000D01*
X162980000Y-131000000D02*
X162980000Y-133650000D01*
X162980000Y-133650000D02*
X165630001Y-133650000D01*
X164250000Y-131000000D02*
X165630001Y-131000000D01*
X165630001Y-131000000D02*
X165630001Y-132380000D01*
X165630001Y-133650000D02*
X165630001Y-136300000D01*
X165630001Y-136300000D02*
X157790000Y-136300000D01*
%TO.C,F1*%
X108590000Y-124480000D02*
X108590000Y-128720000D01*
X108590000Y-124480000D02*
X117330000Y-124480000D01*
X117330000Y-128720000D02*
X108590000Y-128720000D01*
X117330000Y-128720000D02*
X117330000Y-124480000D01*
%TO.C,SW1*%
X158250000Y-124200000D02*
X158250000Y-126200000D01*
X159250000Y-122900000D02*
X159700000Y-122450000D01*
X159250000Y-127500000D02*
X159700000Y-127950000D01*
X159700000Y-122450000D02*
X162300000Y-122450000D01*
X159700000Y-127950000D02*
X162300000Y-127950000D01*
X162750000Y-122900000D02*
X162300000Y-122450000D01*
X162750000Y-127500000D02*
X162300000Y-127950000D01*
X163750000Y-124200000D02*
X163750000Y-126200000D01*
%TO.C,C5*%
X138690000Y-103459420D02*
X138690000Y-103740580D01*
X139710000Y-103459420D02*
X139710000Y-103740580D01*
%TO.C,Q1*%
X153000000Y-134340000D02*
X152350000Y-134340000D01*
X153000000Y-134340000D02*
X153650000Y-134340000D01*
X153000000Y-137460000D02*
X152350000Y-137460000D01*
X153000000Y-137460000D02*
X153650000Y-137460000D01*
X151837500Y-134390000D02*
X151597500Y-134060000D01*
X152077500Y-134060000D01*
X151837500Y-134390000D01*
G36*
X151837500Y-134390000D02*
G01*
X151597500Y-134060000D01*
X152077500Y-134060000D01*
X151837500Y-134390000D01*
G37*
%TO.C,D3*%
X149915000Y-140865000D02*
X149915000Y-142335000D01*
X149915000Y-142335000D02*
X152200000Y-142335000D01*
X152200000Y-140865000D02*
X149915000Y-140865000D01*
%TO.C,J1*%
X100500000Y-142960000D02*
X100500000Y-143700000D01*
X100500000Y-143700000D02*
X101000000Y-143700000D01*
X100740000Y-133539000D02*
X100740000Y-143460000D01*
X100740000Y-133539000D02*
X116100000Y-133539000D01*
X100740000Y-136499000D02*
X116100000Y-136499000D01*
X100740000Y-141400000D02*
X116100000Y-141400000D01*
X100740000Y-142900000D02*
X116100000Y-142900000D01*
X100740000Y-143460000D02*
X116100000Y-143460000D01*
X107193000Y-139823000D02*
X107146000Y-139869000D01*
X107386000Y-140039000D02*
X107351000Y-140074000D01*
X109490000Y-137525000D02*
X109455000Y-137561000D01*
X109695000Y-137731000D02*
X109648000Y-137777000D01*
X112273000Y-139823000D02*
X112226000Y-139869000D01*
X112466000Y-140039000D02*
X112431000Y-140074000D01*
X114570000Y-137525000D02*
X114535000Y-137561000D01*
X114775000Y-137731000D02*
X114728000Y-137777000D01*
X116100000Y-133539000D02*
X116100000Y-143460000D01*
X101804573Y-139483042D02*
G75*
G02*
X101805000Y-138116000I1535420J683041D01*
G01*
X102656958Y-137264573D02*
G75*
G02*
X104024000Y-137265000I683041J-1535420D01*
G01*
X103368805Y-140480253D02*
G75*
G02*
X102656000Y-140335000I-28806J1680254D01*
G01*
X104023318Y-140334756D02*
G75*
G02*
X103340000Y-140480000I-683318J1534756D01*
G01*
X104875427Y-138116958D02*
G75*
G02*
X104875000Y-139484000I-1535427J-683042D01*
G01*
X110100000Y-138800000D02*
G75*
G02*
X106740000Y-138800000I-1680000J0D01*
G01*
X106740000Y-138800000D02*
G75*
G02*
X110100000Y-138800000I1680000J0D01*
G01*
X115180000Y-138800000D02*
G75*
G02*
X111820000Y-138800000I-1680000J0D01*
G01*
X111820000Y-138800000D02*
G75*
G02*
X115180000Y-138800000I1680000J0D01*
G01*
%TO.C,R7*%
X151162742Y-138777500D02*
X151637258Y-138777500D01*
X151162742Y-139822500D02*
X151637258Y-139822500D01*
%TO.C,R1*%
X138677500Y-109237258D02*
X138677500Y-108762742D01*
X139722500Y-109237258D02*
X139722500Y-108762742D01*
%TO.C,D1*%
X155100000Y-132640000D02*
X155100000Y-136650000D01*
X157100000Y-132640000D02*
X155100000Y-132640000D01*
X157100000Y-132640000D02*
X157100000Y-136650000D01*
%TO.C,C4*%
X150638748Y-123265000D02*
X151161252Y-123265000D01*
X150638748Y-124735000D02*
X151161252Y-124735000D01*
%TO.C,C1*%
X143849759Y-131561000D02*
X144479759Y-131561000D01*
X144164759Y-131246000D02*
X144164759Y-131876000D01*
X147350000Y-130170000D02*
X147350000Y-136630000D01*
X147390000Y-130170000D02*
X147390000Y-136630000D01*
X147430000Y-130170000D02*
X147430000Y-136630000D01*
X147470000Y-130172000D02*
X147470000Y-136628000D01*
X147510000Y-130173000D02*
X147510000Y-136627000D01*
X147550000Y-130176000D02*
X147550000Y-136624000D01*
X147590000Y-130178000D02*
X147590000Y-132360000D01*
X147590000Y-134440000D02*
X147590000Y-136622000D01*
X147630000Y-130182000D02*
X147630000Y-132360000D01*
X147630000Y-134440000D02*
X147630000Y-136618000D01*
X147670000Y-130185000D02*
X147670000Y-132360000D01*
X147670000Y-134440000D02*
X147670000Y-136615000D01*
X147710000Y-130189000D02*
X147710000Y-132360000D01*
X147710000Y-134440000D02*
X147710000Y-136611000D01*
X147750000Y-130194000D02*
X147750000Y-132360000D01*
X147750000Y-134440000D02*
X147750000Y-136606000D01*
X147790000Y-130199000D02*
X147790000Y-132360000D01*
X147790000Y-134440000D02*
X147790000Y-136601000D01*
X147830000Y-130205000D02*
X147830000Y-132360000D01*
X147830000Y-134440000D02*
X147830000Y-136595000D01*
X147870000Y-130211000D02*
X147870000Y-132360000D01*
X147870000Y-134440000D02*
X147870000Y-136589000D01*
X147910000Y-130218000D02*
X147910000Y-132360000D01*
X147910000Y-134440000D02*
X147910000Y-136582000D01*
X147950000Y-130225000D02*
X147950000Y-132360000D01*
X147950000Y-134440000D02*
X147950000Y-136575000D01*
X147990000Y-130233000D02*
X147990000Y-132360000D01*
X147990000Y-134440000D02*
X147990000Y-136567000D01*
X148030000Y-130241000D02*
X148030000Y-132360000D01*
X148030000Y-134440000D02*
X148030000Y-136559000D01*
X148071000Y-130250000D02*
X148071000Y-132360000D01*
X148071000Y-134440000D02*
X148071000Y-136550000D01*
X148111000Y-130259000D02*
X148111000Y-132360000D01*
X148111000Y-134440000D02*
X148111000Y-136541000D01*
X148151000Y-130269000D02*
X148151000Y-132360000D01*
X148151000Y-134440000D02*
X148151000Y-136531000D01*
X148191000Y-130279000D02*
X148191000Y-132360000D01*
X148191000Y-134440000D02*
X148191000Y-136521000D01*
X148231000Y-130290000D02*
X148231000Y-132360000D01*
X148231000Y-134440000D02*
X148231000Y-136510000D01*
X148271000Y-130302000D02*
X148271000Y-132360000D01*
X148271000Y-134440000D02*
X148271000Y-136498000D01*
X148311000Y-130314000D02*
X148311000Y-132360000D01*
X148311000Y-134440000D02*
X148311000Y-136486000D01*
X148351000Y-130326000D02*
X148351000Y-132360000D01*
X148351000Y-134440000D02*
X148351000Y-136474000D01*
X148391000Y-130339000D02*
X148391000Y-132360000D01*
X148391000Y-134440000D02*
X148391000Y-136461000D01*
X148431000Y-130353000D02*
X148431000Y-132360000D01*
X148431000Y-134440000D02*
X148431000Y-136447000D01*
X148471000Y-130367000D02*
X148471000Y-132360000D01*
X148471000Y-134440000D02*
X148471000Y-136433000D01*
X148511000Y-130382000D02*
X148511000Y-132360000D01*
X148511000Y-134440000D02*
X148511000Y-136418000D01*
X148551000Y-130398000D02*
X148551000Y-132360000D01*
X148551000Y-134440000D02*
X148551000Y-136402000D01*
X148591000Y-130414000D02*
X148591000Y-132360000D01*
X148591000Y-134440000D02*
X148591000Y-136386000D01*
X148631000Y-130430000D02*
X148631000Y-132360000D01*
X148631000Y-134440000D02*
X148631000Y-136370000D01*
X148671000Y-130448000D02*
X148671000Y-132360000D01*
X148671000Y-134440000D02*
X148671000Y-136352000D01*
X148711000Y-130466000D02*
X148711000Y-132360000D01*
X148711000Y-134440000D02*
X148711000Y-136334000D01*
X148751000Y-130484000D02*
X148751000Y-132360000D01*
X148751000Y-134440000D02*
X148751000Y-136316000D01*
X148791000Y-130504000D02*
X148791000Y-132360000D01*
X148791000Y-134440000D02*
X148791000Y-136296000D01*
X148831000Y-130524000D02*
X148831000Y-132360000D01*
X148831000Y-134440000D02*
X148831000Y-136276000D01*
X148871000Y-130544000D02*
X148871000Y-132360000D01*
X148871000Y-134440000D02*
X148871000Y-136256000D01*
X148911000Y-130566000D02*
X148911000Y-132360000D01*
X148911000Y-134440000D02*
X148911000Y-136234000D01*
X148951000Y-130588000D02*
X148951000Y-132360000D01*
X148951000Y-134440000D02*
X148951000Y-136212000D01*
X148991000Y-130610000D02*
X148991000Y-132360000D01*
X148991000Y-134440000D02*
X148991000Y-136190000D01*
X149031000Y-130634000D02*
X149031000Y-132360000D01*
X149031000Y-134440000D02*
X149031000Y-136166000D01*
X149071000Y-130658000D02*
X149071000Y-132360000D01*
X149071000Y-134440000D02*
X149071000Y-136142000D01*
X149111000Y-130684000D02*
X149111000Y-132360000D01*
X149111000Y-134440000D02*
X149111000Y-136116000D01*
X149151000Y-130710000D02*
X149151000Y-132360000D01*
X149151000Y-134440000D02*
X149151000Y-136090000D01*
X149191000Y-130736000D02*
X149191000Y-132360000D01*
X149191000Y-134440000D02*
X149191000Y-136064000D01*
X149231000Y-130764000D02*
X149231000Y-132360000D01*
X149231000Y-134440000D02*
X149231000Y-136036000D01*
X149271000Y-130793000D02*
X149271000Y-132360000D01*
X149271000Y-134440000D02*
X149271000Y-136007000D01*
X149311000Y-130822000D02*
X149311000Y-132360000D01*
X149311000Y-134440000D02*
X149311000Y-135978000D01*
X149351000Y-130852000D02*
X149351000Y-132360000D01*
X149351000Y-134440000D02*
X149351000Y-135948000D01*
X149391000Y-130884000D02*
X149391000Y-132360000D01*
X149391000Y-134440000D02*
X149391000Y-135916000D01*
X149431000Y-130916000D02*
X149431000Y-132360000D01*
X149431000Y-134440000D02*
X149431000Y-135884000D01*
X149471000Y-130950000D02*
X149471000Y-132360000D01*
X149471000Y-134440000D02*
X149471000Y-135850000D01*
X149511000Y-130984000D02*
X149511000Y-132360000D01*
X149511000Y-134440000D02*
X149511000Y-135816000D01*
X149551000Y-131020000D02*
X149551000Y-132360000D01*
X149551000Y-134440000D02*
X149551000Y-135780000D01*
X149591000Y-131057000D02*
X149591000Y-132360000D01*
X149591000Y-134440000D02*
X149591000Y-135743000D01*
X149631000Y-131095000D02*
X149631000Y-132360000D01*
X149631000Y-134440000D02*
X149631000Y-135705000D01*
X149671000Y-131135000D02*
X149671000Y-135665000D01*
X149711000Y-131176000D02*
X149711000Y-135624000D01*
X149751000Y-131218000D02*
X149751000Y-135582000D01*
X149791000Y-131263000D02*
X149791000Y-135537000D01*
X149831000Y-131308000D02*
X149831000Y-135492000D01*
X149871000Y-131356000D02*
X149871000Y-135444000D01*
X149911000Y-131405000D02*
X149911000Y-135395000D01*
X149951000Y-131456000D02*
X149951000Y-135344000D01*
X149991000Y-131510000D02*
X149991000Y-135290000D01*
X150031000Y-131566000D02*
X150031000Y-135234000D01*
X150071000Y-131624000D02*
X150071000Y-135176000D01*
X150111000Y-131686000D02*
X150111000Y-135114000D01*
X150151000Y-131750000D02*
X150151000Y-135050000D01*
X150191000Y-131819000D02*
X150191000Y-134981000D01*
X150231000Y-131891000D02*
X150231000Y-134909000D01*
X150271000Y-131968000D02*
X150271000Y-134832000D01*
X150311000Y-132050000D02*
X150311000Y-134750000D01*
X150351000Y-132138000D02*
X150351000Y-134662000D01*
X150391000Y-132235000D02*
X150391000Y-134565000D01*
X150431000Y-132341000D02*
X150431000Y-134459000D01*
X150471000Y-132460000D02*
X150471000Y-134340000D01*
X150511000Y-132598000D02*
X150511000Y-134202000D01*
X150551000Y-132767000D02*
X150551000Y-134033000D01*
X150591000Y-132998000D02*
X150591000Y-133802000D01*
X150620000Y-133400000D02*
G75*
G02*
X144080000Y-133400000I-3270000J0D01*
G01*
X144080000Y-133400000D02*
G75*
G02*
X150620000Y-133400000I3270000J0D01*
G01*
%TO.C,U1*%
X142250000Y-122390000D02*
X146010000Y-122390000D01*
X142250000Y-129210000D02*
X146010000Y-129210000D01*
X146010000Y-122390000D02*
X146010000Y-123650000D01*
X146010000Y-129210000D02*
X146010000Y-127950000D01*
X140970000Y-122490000D02*
X140730000Y-122160000D01*
X141210000Y-122160000D01*
X140970000Y-122490000D01*
G36*
X140970000Y-122490000D02*
G01*
X140730000Y-122160000D01*
X141210000Y-122160000D01*
X140970000Y-122490000D01*
G37*
%TO.C,R4*%
X146877500Y-120687258D02*
X146877500Y-120212742D01*
X147922500Y-120687258D02*
X147922500Y-120212742D01*
%TO.C,D2*%
X146515000Y-138565000D02*
X146515000Y-140035000D01*
X146515000Y-140035000D02*
X148800000Y-140035000D01*
X148800000Y-138565000D02*
X146515000Y-138565000D01*
%TO.C,R6*%
X152877500Y-120212742D02*
X152877500Y-120687258D01*
X153922500Y-120212742D02*
X153922500Y-120687258D01*
%TO.C,C2*%
X151065000Y-131338748D02*
X151065000Y-131861252D01*
X152535000Y-131338748D02*
X152535000Y-131861252D01*
%TO.C,PS1*%
X100240000Y-100450000D02*
X103240000Y-100450000D01*
X100240000Y-103450000D02*
X100240000Y-100450000D01*
X100480000Y-100690000D02*
X100480000Y-123310000D01*
X100480000Y-100690000D02*
X137400000Y-100690000D01*
X100480000Y-123310000D02*
X137400000Y-123310000D01*
X137400000Y-100690000D02*
X137400000Y-123310000D01*
%TO.C,SW2*%
X154450000Y-140000000D02*
X154450000Y-142000000D01*
X155450000Y-138700000D02*
X155900000Y-138250000D01*
X155450000Y-143300000D02*
X155900000Y-143750000D01*
X155900000Y-138250000D02*
X158500000Y-138250000D01*
X155900000Y-143750000D02*
X158500000Y-143750000D01*
X158950000Y-138700000D02*
X158500000Y-138250000D01*
X158950000Y-143300000D02*
X158500000Y-143750000D01*
X159950000Y-140000000D02*
X159950000Y-142000000D01*
%TO.C,R9*%
X150877500Y-120212742D02*
X150877500Y-120687258D01*
X151922500Y-120212742D02*
X151922500Y-120687258D01*
%TO.C,R5*%
X144877500Y-120212742D02*
X144877500Y-120687258D01*
X145922500Y-120212742D02*
X145922500Y-120687258D01*
%TO.C,R8*%
X147762742Y-141077500D02*
X148237258Y-141077500D01*
X147762742Y-142122500D02*
X148237258Y-142122500D01*
%TO.C,R3*%
X148877500Y-120687258D02*
X148877500Y-120212742D01*
X149922500Y-120687258D02*
X149922500Y-120212742D01*
%TO.C,C3*%
X142159420Y-129840000D02*
X142440580Y-129840000D01*
X142159420Y-130860000D02*
X142440580Y-130860000D01*
%TO.C,RV1*%
D13*
X101100000Y-127650000D02*
X101100000Y-124250000D01*
X108100000Y-124250000D02*
X101100000Y-124250000D01*
X108100000Y-127650000D02*
X101100000Y-127650000D01*
X108100000Y-127650000D02*
X108100000Y-124250000D01*
%TO.C,R2*%
D10*
X138677500Y-112237258D02*
X138677500Y-111762742D01*
X139722500Y-112237258D02*
X139722500Y-111762742D01*
%TO.C,K1*%
X119650000Y-127800000D02*
X139450000Y-127800000D01*
X119650000Y-143400000D02*
X119650000Y-127800000D01*
X123900000Y-131400000D02*
X123900000Y-133850000D01*
X123900000Y-139800000D02*
X123900000Y-137300000D01*
X127100000Y-135550000D02*
X122500000Y-138050000D01*
X128600000Y-131950000D02*
X135400000Y-131950000D01*
X128600000Y-135550000D02*
X127100000Y-135550000D01*
X128600000Y-135550000D02*
X128600000Y-131950000D01*
X130000000Y-133750000D02*
X134000000Y-133750000D01*
X130000000Y-133750000D02*
X134000000Y-137350000D01*
X130000000Y-137350000D02*
X130000000Y-133750000D01*
X132000000Y-133750000D02*
X132000000Y-129550000D01*
X132000000Y-141550000D02*
X132000000Y-137350000D01*
X132000000Y-141550000D02*
X134500000Y-141550000D01*
X134000000Y-133750000D02*
X134000000Y-137350000D01*
X134000000Y-137350000D02*
X130000000Y-137350000D01*
X134500000Y-129550000D02*
X132000000Y-129550000D01*
X135400000Y-135550000D02*
X135400000Y-131950000D01*
X135400000Y-135550000D02*
X136200000Y-135550000D01*
X139450000Y-134400000D02*
X139450000Y-127800000D01*
X139450000Y-143400000D02*
X119650000Y-143400000D01*
X139450000Y-143400000D02*
X139450000Y-136800000D01*
%TD*%
M02*
