%TF.GenerationSoftware,KiCad,Pcbnew,10.0.5*%
%TF.CreationDate,2026-10-03T19:11:21-04:00*%
%TF.ProjectId,rele-esp12f,72656c65-2d65-4737-9031-32662e6b6963,rev?*%
%TF.SameCoordinates,Original*%
%TF.FileFunction,Copper,L1,Top*%
%TF.FilePolarity,Positive*%
%FSLAX46Y46*%
G04 Gerber Fmt 4.6, Leading zero omitted, Abs format (unit mm)*
G04 Created by KiCad (PCBNEW 10.0.5) date 2026-10-03 19:11:21*
%MOMM*%
%LPD*%
G01*
G04 APERTURE LIST*
G04 Aperture macros list*
%AMRoundRect*
0 Rectangle with rounded corners*
0 $1 Rounding radius*
0 $2 $3 $4 $5 $6 $7 $8 $9 X,Y pos of 4 corners*
0 Add a 4 corners polygon primitive as box body*
4,1,4,$2,$3,$4,$5,$6,$7,$8,$9,$2,$3,0*
0 Add four circle primitives for the rounded corners*
1,1,$1+$1,$2,$3*
1,1,$1+$1,$4,$5*
1,1,$1+$1,$6,$7*
1,1,$1+$1,$8,$9*
0 Add four rect primitives between the rounded corners*
20,1,$1+$1,$2,$3,$4,$5,0*
20,1,$1+$1,$4,$5,$6,$7,0*
20,1,$1+$1,$6,$7,$8,$9,0*
20,1,$1+$1,$8,$9,$2,$3,0*%
G04 Aperture macros list end*
%TA.AperFunction,SMDPad,CuDef*%
%ADD10R,1.000000X2.500000*%
%TD*%
%TA.AperFunction,SMDPad,CuDef*%
%ADD11R,1.800000X1.000000*%
%TD*%
%TA.AperFunction,SMDPad,CuDef*%
%ADD12RoundRect,0.225000X-0.225000X-0.250000X0.225000X-0.250000X0.225000X0.250000X-0.225000X0.250000X0*%
%TD*%
%TA.AperFunction,ComponentPad*%
%ADD13R,1.700000X1.700000*%
%TD*%
%TA.AperFunction,ComponentPad*%
%ADD14C,1.700000*%
%TD*%
%TA.AperFunction,ComponentPad*%
%ADD15C,2.000000*%
%TD*%
%TA.AperFunction,SMDPad,CuDef*%
%ADD16R,1.000000X0.750000*%
%TD*%
%TA.AperFunction,SMDPad,CuDef*%
%ADD17RoundRect,0.225000X-0.250000X0.225000X-0.250000X-0.225000X0.250000X-0.225000X0.250000X0.225000X0*%
%TD*%
%TA.AperFunction,SMDPad,CuDef*%
%ADD18RoundRect,0.150000X0.587500X0.150000X-0.587500X0.150000X-0.587500X-0.150000X0.587500X-0.150000X0*%
%TD*%
%TA.AperFunction,SMDPad,CuDef*%
%ADD19RoundRect,0.218750X-0.218750X-0.256250X0.218750X-0.256250X0.218750X0.256250X-0.218750X0.256250X0*%
%TD*%
%TA.AperFunction,SMDPad,CuDef*%
%ADD20RoundRect,0.225000X0.225000X0.250000X-0.225000X0.250000X-0.225000X-0.250000X0.225000X-0.250000X0*%
%TD*%
%TA.AperFunction,ComponentPad*%
%ADD21R,2.600000X2.600000*%
%TD*%
%TA.AperFunction,ComponentPad*%
%ADD22C,2.600000*%
%TD*%
%TA.AperFunction,SMDPad,CuDef*%
%ADD23RoundRect,0.200000X0.275000X-0.200000X0.275000X0.200000X-0.275000X0.200000X-0.275000X-0.200000X0*%
%TD*%
%TA.AperFunction,SMDPad,CuDef*%
%ADD24RoundRect,0.225000X0.375000X-0.225000X0.375000X0.225000X-0.375000X0.225000X-0.375000X-0.225000X0*%
%TD*%
%TA.AperFunction,SMDPad,CuDef*%
%ADD25RoundRect,0.250000X-0.250000X-0.475000X0.250000X-0.475000X0.250000X0.475000X-0.250000X0.475000X0*%
%TD*%
%TA.AperFunction,ComponentPad*%
%ADD26R,1.600000X1.600000*%
%TD*%
%TA.AperFunction,ComponentPad*%
%ADD27C,1.600000*%
%TD*%
%TA.AperFunction,SMDPad,CuDef*%
%ADD28RoundRect,0.375000X-0.625000X-0.375000X0.625000X-0.375000X0.625000X0.375000X-0.625000X0.375000X0*%
%TD*%
%TA.AperFunction,SMDPad,CuDef*%
%ADD29RoundRect,0.500000X-0.500000X-1.400000X0.500000X-1.400000X0.500000X1.400000X-0.500000X1.400000X0*%
%TD*%
%TA.AperFunction,SMDPad,CuDef*%
%ADD30RoundRect,0.218750X0.256250X-0.218750X0.256250X0.218750X-0.256250X0.218750X-0.256250X-0.218750X0*%
%TD*%
%TA.AperFunction,SMDPad,CuDef*%
%ADD31RoundRect,0.200000X-0.275000X0.200000X-0.275000X-0.200000X0.275000X-0.200000X0.275000X0.200000X0*%
%TD*%
%TA.AperFunction,ComponentPad*%
%ADD32R,2.000000X2.000000*%
%TD*%
%TA.AperFunction,SMDPad,CuDef*%
%ADD33RoundRect,0.250000X-0.475000X0.250000X-0.475000X-0.250000X0.475000X-0.250000X0.475000X0.250000X0*%
%TD*%
%TA.AperFunction,ComponentPad*%
%ADD34R,1.700000X2.000000*%
%TD*%
%TA.AperFunction,ComponentPad*%
%ADD35O,1.700000X2.000000*%
%TD*%
%TA.AperFunction,SMDPad,CuDef*%
%ADD36RoundRect,0.225000X0.250000X-0.225000X0.250000X0.225000X-0.250000X0.225000X-0.250000X-0.225000X0*%
%TD*%
%TA.AperFunction,ViaPad*%
%ADD37C,0.800000*%
%TD*%
%TA.AperFunction,ViaPad*%
%ADD38C,0.600000*%
%TD*%
%TA.AperFunction,Conductor*%
%ADD39C,0.250000*%
%TD*%
%TA.AperFunction,Conductor*%
%ADD40C,0.300000*%
%TD*%
%TA.AperFunction,Conductor*%
%ADD41C,0.600000*%
%TD*%
%TA.AperFunction,Conductor*%
%ADD42C,0.500000*%
%TD*%
%TA.AperFunction,Conductor*%
%ADD43C,0.400000*%
%TD*%
%TA.AperFunction,Conductor*%
%ADD44C,2.500000*%
%TD*%
%TA.AperFunction,Conductor*%
%ADD45C,1.000000*%
%TD*%
G04 APERTURE END LIST*
D10*
%TO.P,U2,1*%
%TO.N,/RST*%
X157400000Y-102000000D03*
%TO.P,U2,2*%
%TO.N,unconnected-(U2-ADC-Pad2)*%
X155400000Y-102000000D03*
%TO.P,U2,3*%
%TO.N,/EN*%
X153400000Y-102000000D03*
%TO.P,U2,4*%
%TO.N,unconnected-(U2-GPIO16-Pad4)*%
X151400000Y-102000000D03*
%TO.P,U2,5*%
%TO.N,unconnected-(U2-GPIO14-Pad5)*%
X149400000Y-102000000D03*
%TO.P,U2,6*%
%TO.N,unconnected-(U2-GPIO12-Pad6)*%
X147400000Y-102000000D03*
%TO.P,U2,7*%
%TO.N,unconnected-(U2-GPIO13-Pad7)*%
X145400000Y-102000000D03*
%TO.P,U2,8*%
%TO.N,+3V3*%
X143400000Y-102000000D03*
D11*
%TO.P,U2,9*%
%TO.N,unconnected-(U2-CS0-Pad9)*%
X141900000Y-104600000D03*
%TO.P,U2,10*%
%TO.N,unconnected-(U2-MISO-Pad10)*%
X141900000Y-106600000D03*
%TO.P,U2,11*%
%TO.N,unconnected-(U2-GPIO9-Pad11)*%
X141900000Y-108600000D03*
%TO.P,U2,12*%
%TO.N,unconnected-(U2-GPIO10-Pad12)*%
X141900000Y-110600000D03*
%TO.P,U2,13*%
%TO.N,unconnected-(U2-MOSI-Pad13)*%
X141900000Y-112600000D03*
%TO.P,U2,14*%
%TO.N,unconnected-(U2-SCLK-Pad14)*%
X141900000Y-114600000D03*
D10*
%TO.P,U2,15*%
%TO.N,GND*%
X143400000Y-117200000D03*
%TO.P,U2,16*%
%TO.N,/GPIO15*%
X145400000Y-117200000D03*
%TO.P,U2,17*%
%TO.N,/GPIO2*%
X147400000Y-117200000D03*
%TO.P,U2,18*%
%TO.N,/GPIO0*%
X149400000Y-117200000D03*
%TO.P,U2,19*%
%TO.N,/WIFI_LED*%
X151400000Y-117200000D03*
%TO.P,U2,20*%
%TO.N,/RELAY*%
X153400000Y-117200000D03*
%TO.P,U2,21*%
%TO.N,/RXD*%
X155400000Y-117200000D03*
%TO.P,U2,22*%
%TO.N,/TXD*%
X157400000Y-117200000D03*
%TD*%
D12*
%TO.P,C6,1*%
%TO.N,+3V3*%
X150125000Y-126600000D03*
%TO.P,C6,2*%
%TO.N,GND*%
X151675000Y-126600000D03*
%TD*%
D13*
%TO.P,J3,1*%
%TO.N,GND*%
X164250000Y-132380000D03*
D14*
%TO.P,J3,2*%
%TO.N,+5V*%
X164250000Y-134920000D03*
%TO.P,J3,3*%
%TO.N,/TXD*%
X161710000Y-132380000D03*
%TO.P,J3,4*%
%TO.N,/RXD*%
X161710000Y-134920000D03*
%TO.P,J3,5*%
%TO.N,/GPIO0*%
X159170000Y-132380000D03*
%TO.P,J3,6*%
%TO.N,/RST*%
X159170000Y-134920000D03*
%TD*%
D15*
%TO.P,F1,1*%
%TO.N,/L_IN*%
X117500000Y-126600000D03*
%TO.P,F1,2*%
%TO.N,/L_F*%
X112420000Y-126590000D03*
%TD*%
D16*
%TO.P,SW1,1*%
%TO.N,/GPIO0*%
X158000000Y-123325000D03*
X164000000Y-123325000D03*
%TO.P,SW1,2*%
%TO.N,GND*%
X158000000Y-127075000D03*
X164000000Y-127075000D03*
%TD*%
D17*
%TO.P,C5,1*%
%TO.N,+3V3*%
X139200000Y-102825000D03*
%TO.P,C5,2*%
%TO.N,GND*%
X139200000Y-104375000D03*
%TD*%
D18*
%TO.P,Q1,1*%
%TO.N,Net-(Q1-B)*%
X153937500Y-136850000D03*
%TO.P,Q1,2*%
%TO.N,GND*%
X153937500Y-134950000D03*
%TO.P,Q1,3*%
%TO.N,/COIL_N*%
X152062500Y-135900000D03*
%TD*%
D19*
%TO.P,D3,1*%
%TO.N,GND*%
X147212500Y-144300000D03*
%TO.P,D3,2*%
%TO.N,Net-(D3-A)*%
X148787500Y-144300000D03*
%TD*%
D20*
%TO.P,C9,1*%
%TO.N,+3V3*%
X140025000Y-106000000D03*
%TO.P,C9,2*%
%TO.N,GND*%
X138475000Y-106000000D03*
%TD*%
D21*
%TO.P,J1,1*%
%TO.N,/N*%
X103340000Y-143800000D03*
D22*
%TO.P,J1,2*%
%TO.N,/L_OUT*%
X108420000Y-143800000D03*
%TO.P,J1,3*%
%TO.N,/L_IN*%
X113500000Y-143800000D03*
%TD*%
D23*
%TO.P,R7,1*%
%TO.N,Net-(Q1-B)*%
X156300000Y-136725000D03*
%TO.P,R7,2*%
%TO.N,GND*%
X156300000Y-135075000D03*
%TD*%
%TO.P,R1,1*%
%TO.N,+3V3*%
X139200000Y-109825000D03*
%TO.P,R1,2*%
%TO.N,/EN*%
X139200000Y-108175000D03*
%TD*%
D24*
%TO.P,D1,1*%
%TO.N,+5V*%
X147200000Y-139000000D03*
%TO.P,D1,2*%
%TO.N,/COIL_N*%
X147200000Y-135700000D03*
%TD*%
D25*
%TO.P,C4,1*%
%TO.N,+3V3*%
X149950000Y-124000000D03*
%TO.P,C4,2*%
%TO.N,GND*%
X151850000Y-124000000D03*
%TD*%
D26*
%TO.P,C1,1*%
%TO.N,+5V*%
X132190000Y-127200000D03*
D27*
%TO.P,C1,2*%
%TO.N,GND*%
X134690000Y-127200000D03*
%TD*%
D12*
%TO.P,C8,1*%
%TO.N,/RST*%
X160725000Y-140300000D03*
%TO.P,C8,2*%
%TO.N,GND*%
X162275000Y-140300000D03*
%TD*%
D28*
%TO.P,U1,1*%
%TO.N,GND*%
X140950000Y-123500000D03*
%TO.P,U1,2*%
%TO.N,+3V3*%
X140950000Y-125800000D03*
D29*
X147250000Y-125800000D03*
D28*
%TO.P,U1,3*%
%TO.N,+5V*%
X140950000Y-128100000D03*
%TD*%
D23*
%TO.P,R4,1*%
%TO.N,+3V3*%
X147400000Y-121275000D03*
%TO.P,R4,2*%
%TO.N,/GPIO2*%
X147400000Y-119625000D03*
%TD*%
D30*
%TO.P,D2,1*%
%TO.N,Net-(D2-K)*%
X155300000Y-124787500D03*
%TO.P,D2,2*%
%TO.N,/RELAY*%
X155300000Y-123212500D03*
%TD*%
D31*
%TO.P,R6,1*%
%TO.N,/RELAY*%
X153400000Y-119625000D03*
%TO.P,R6,2*%
%TO.N,Net-(Q1-B)*%
X153400000Y-121275000D03*
%TD*%
D15*
%TO.P,K1,13*%
%TO.N,/L_IN*%
X123400000Y-133600000D03*
X123400000Y-141100000D03*
%TO.P,K1,14*%
%TO.N,/L_OUT*%
X118400000Y-133600000D03*
X118400000Y-141100000D03*
D32*
%TO.P,K1,A1*%
%TO.N,/COIL_N*%
X143400000Y-133600000D03*
D15*
%TO.P,K1,A2*%
%TO.N,+5V*%
X143400000Y-141100000D03*
%TD*%
D33*
%TO.P,C2,1*%
%TO.N,+5V*%
X151800000Y-130650000D03*
%TO.P,C2,2*%
%TO.N,GND*%
X151800000Y-132550000D03*
%TD*%
D34*
%TO.P,PS1,1*%
%TO.N,/L_F*%
X104400000Y-109500000D03*
D35*
%TO.P,PS1,2*%
%TO.N,/N*%
X104400000Y-114500000D03*
%TO.P,PS1,3*%
%TO.N,GND*%
X133480000Y-104500000D03*
%TO.P,PS1,4*%
%TO.N,+5V*%
X133480000Y-119500000D03*
%TD*%
D16*
%TO.P,SW2,1*%
%TO.N,/RST*%
X154200000Y-144125000D03*
X160200000Y-144125000D03*
%TO.P,SW2,2*%
%TO.N,GND*%
X154200000Y-147875000D03*
X160200000Y-147875000D03*
%TD*%
D31*
%TO.P,R9,1*%
%TO.N,/WIFI_LED*%
X151400000Y-119625000D03*
%TO.P,R9,2*%
%TO.N,Net-(D3-A)*%
X151400000Y-121275000D03*
%TD*%
%TO.P,R5,1*%
%TO.N,/GPIO15*%
X145400000Y-119625000D03*
%TO.P,R5,2*%
%TO.N,GND*%
X145400000Y-121275000D03*
%TD*%
%TO.P,R8,1*%
%TO.N,Net-(D2-K)*%
X155300000Y-126275000D03*
%TO.P,R8,2*%
%TO.N,GND*%
X155300000Y-127925000D03*
%TD*%
D17*
%TO.P,C7,1*%
%TO.N,/EN*%
X139200000Y-114225000D03*
%TO.P,C7,2*%
%TO.N,GND*%
X139200000Y-115775000D03*
%TD*%
D23*
%TO.P,R3,1*%
%TO.N,+3V3*%
X149400000Y-121275000D03*
%TO.P,R3,2*%
%TO.N,/GPIO0*%
X149400000Y-119625000D03*
%TD*%
D36*
%TO.P,C3,1*%
%TO.N,+5V*%
X137900000Y-127975000D03*
%TO.P,C3,2*%
%TO.N,GND*%
X137900000Y-126425000D03*
%TD*%
D27*
%TO.P,RV1,1*%
%TO.N,/L_F*%
X109100000Y-126600000D03*
%TO.P,RV1,2*%
%TO.N,/N*%
X104100000Y-125300000D03*
%TD*%
D23*
%TO.P,R2,1*%
%TO.N,+3V3*%
X139200000Y-112825000D03*
%TO.P,R2,2*%
%TO.N,/RST*%
X139200000Y-111175000D03*
%TD*%
D37*
%TO.N,/RST*%
X154400000Y-142500000D03*
D38*
X154400000Y-111600000D03*
%TO.N,+3V3*%
X140300000Y-103000000D03*
X143900000Y-122400000D03*
X140300000Y-109830000D03*
X140300000Y-112830000D03*
D37*
%TO.N,GND*%
X160500000Y-138000000D03*
X143500000Y-120000000D03*
X156500000Y-133000000D03*
X146500000Y-146000000D03*
X138500000Y-122000000D03*
X156500000Y-129000000D03*
X149500000Y-137000000D03*
X157500000Y-141000000D03*
X162500000Y-120000000D03*
X138500000Y-145000000D03*
X163000000Y-138600000D03*
X150500000Y-146200000D03*
X155500000Y-138000000D03*
X138000000Y-104400000D03*
X134500000Y-145000000D03*
X142500000Y-145000000D03*
X138500000Y-118000000D03*
X147500000Y-142000000D03*
X130500000Y-145000000D03*
X149500000Y-128000000D03*
X148500000Y-132000000D03*
X155500000Y-121000000D03*
X137500000Y-130000000D03*
D38*
%TO.N,/RXD*%
X155400000Y-115300000D03*
%TO.N,/TXD*%
X157400000Y-115300000D03*
D37*
%TO.N,+5V*%
X146500000Y-130199999D03*
%TO.N,Net-(Q1-B)*%
X153400000Y-122500000D03*
X153400000Y-133600000D03*
%TO.N,Net-(D3-A)*%
X151400000Y-122500000D03*
X148400000Y-143000000D03*
%TD*%
%TO.N,/RST*%
D39*
X139630000Y-111600000D02*
X156400000Y-111600000D01*
D40*
X159170000Y-134920000D02*
X159170000Y-144120000D01*
D39*
X157400000Y-110600000D02*
X157400000Y-103000000D01*
X139200000Y-111170000D02*
X139630000Y-111600000D01*
D40*
X154400000Y-142500000D02*
X154200000Y-144120000D01*
X154200000Y-144120000D02*
X160200000Y-144120000D01*
X159170000Y-140300000D02*
X160725000Y-140300000D01*
D39*
X156400000Y-111600000D02*
X157400000Y-110600000D01*
%TO.N,/EN*%
X152400000Y-107600000D02*
X153400000Y-106600000D01*
X153400000Y-106600000D02*
X153400000Y-103000000D01*
X138200000Y-113225000D02*
X139200000Y-114225000D01*
X138200000Y-109170000D02*
X138200000Y-113225000D01*
X140000000Y-107600000D02*
X152400000Y-107600000D01*
X139200000Y-108170000D02*
X140000000Y-107600000D01*
X139200000Y-108170000D02*
X138200000Y-109170000D01*
%TO.N,+3V3*%
D41*
X140950000Y-125800000D02*
X147250000Y-125800000D01*
D42*
X143900000Y-122400000D02*
X146600000Y-124200000D01*
D43*
X140300000Y-105725000D02*
X140300000Y-103000000D01*
D41*
X147250000Y-126600000D02*
X150120000Y-126600000D01*
D43*
X139200000Y-109830000D02*
X140300000Y-109830000D01*
X140025000Y-106000000D02*
X140300000Y-105725000D01*
D42*
X140300000Y-103000000D02*
X143400000Y-102200000D01*
D41*
X147250000Y-124000000D02*
X149950000Y-124000000D01*
D42*
X140300000Y-103000000D02*
X139200000Y-102820000D01*
D43*
X139200000Y-112830000D02*
X140300000Y-112830000D01*
X149400000Y-121280000D02*
X149950000Y-123300000D01*
X147400000Y-121280000D02*
X147400000Y-123900000D01*
%TO.N,GND*%
X139200000Y-104375000D02*
X138000000Y-104400000D01*
X138000000Y-105525000D02*
X138000000Y-104400000D01*
X138475000Y-106000000D02*
X138000000Y-105525000D01*
%TO.N,/GPIO15*%
D40*
X145400000Y-117200000D02*
X145400000Y-119620000D01*
%TO.N,/GPIO2*%
X147400000Y-117200000D02*
X147400000Y-119620000D01*
%TO.N,/GPIO0*%
X149400000Y-117200000D02*
X149400000Y-119620000D01*
X160000000Y-123330000D02*
X160000000Y-131550000D01*
X160000000Y-131550000D02*
X159170000Y-132380000D01*
X158000000Y-123330000D02*
X164000000Y-123330000D01*
D39*
X149400000Y-116000000D02*
X149400000Y-114200000D01*
X158300000Y-123000000D02*
X158000000Y-123330000D01*
X158300000Y-114200000D02*
X158300000Y-123000000D01*
X149400000Y-114200000D02*
X158300000Y-114200000D01*
%TO.N,/WIFI_LED*%
D40*
X151400000Y-117200000D02*
X151400000Y-119620000D01*
%TO.N,/RELAY*%
X154500000Y-122400000D02*
X155300000Y-123200000D01*
X154500000Y-120720000D02*
X154500000Y-122400000D01*
X153400000Y-119620000D02*
X154500000Y-120720000D01*
X153400000Y-117200000D02*
X153400000Y-119620000D01*
%TO.N,/RXD*%
D39*
X155400000Y-116000000D02*
X155400000Y-115300000D01*
%TO.N,/TXD*%
X157400000Y-116000000D02*
X157400000Y-115300000D01*
%TO.N,+5V*%
D41*
X137550000Y-128100000D02*
X140950000Y-128100000D01*
X147200000Y-139000000D02*
X145100000Y-141100000D01*
X140950000Y-128100000D02*
X141950000Y-129100000D01*
X141950000Y-129100000D02*
X145400000Y-129100000D01*
X146100000Y-129800000D02*
X151800000Y-129800000D01*
X145400000Y-129100000D02*
X146100000Y-129800000D01*
X133479999Y-119500000D02*
X133479999Y-121000000D01*
X137100000Y-128100000D02*
X137550000Y-128100000D01*
X136600000Y-127600000D02*
X137100000Y-128100000D01*
X136600000Y-124120000D02*
X136600000Y-127600000D01*
X151800000Y-129800000D02*
X151800000Y-130650000D01*
X145100000Y-141100000D02*
X143400000Y-141100000D01*
X133479999Y-121000000D02*
X136600000Y-124120000D01*
X146500000Y-130199999D02*
X146100000Y-129800000D01*
X133479999Y-121000000D02*
X132190000Y-122290000D01*
X132190000Y-122290000D02*
X132190000Y-127200000D01*
%TO.N,/L_IN*%
D44*
X113500000Y-144200000D02*
X115000000Y-145700000D01*
X115000000Y-145700000D02*
X123400000Y-145700000D01*
X123400000Y-133600000D02*
X123400000Y-141100000D01*
X113500000Y-143800000D02*
X113500000Y-144200000D01*
X123400000Y-145700000D02*
X123400000Y-141100000D01*
%TO.N,/L_F*%
D45*
X104400000Y-109500000D02*
X110800000Y-109500000D01*
X110800000Y-125000000D02*
X109100000Y-126600000D01*
X110800000Y-109500000D02*
X110800000Y-125000000D01*
X110800000Y-125000000D02*
X112420000Y-126590000D01*
%TO.N,Net-(Q1-B)*%
D40*
X153400000Y-121280000D02*
X153400000Y-122500000D01*
X155100000Y-133600000D02*
X155100000Y-136850000D01*
X155100000Y-136850000D02*
X156300000Y-136725000D01*
X155100000Y-136850000D02*
X153940000Y-136850000D01*
X153400000Y-133600000D02*
X155100000Y-133600000D01*
%TO.N,/COIL_N*%
D42*
X143400000Y-133600000D02*
X145500000Y-135700000D01*
X147200000Y-135700000D02*
X151860000Y-135700000D01*
X145500000Y-135700000D02*
X147200000Y-135700000D01*
X151860000Y-135700000D02*
X152060000Y-135900000D01*
%TO.N,Net-(D3-A)*%
D40*
X151400000Y-121280000D02*
X151400000Y-122500000D01*
X148400000Y-143000000D02*
X148790000Y-144300000D01*
%TO.N,/N*%
D45*
X103340000Y-143800000D02*
X103340000Y-126060000D01*
X104400000Y-125000000D02*
X104400000Y-114500000D01*
X103340000Y-126060000D02*
X104100000Y-125300000D01*
X104100000Y-125300000D02*
X104400000Y-125000000D01*
%TO.N,/L_OUT*%
D44*
X118400000Y-133600000D02*
X118400000Y-141100000D01*
X109920000Y-133600000D02*
X118400000Y-133600000D01*
X108420000Y-143800000D02*
X108420000Y-135100000D01*
X108420000Y-135100000D02*
X109920000Y-133600000D01*
%TO.N,Net-(D2-K)*%
D40*
X155300000Y-124790000D02*
X155300000Y-126275000D01*
%TD*%
%TA.AperFunction,Conductor*%
%TO.N,GND*%
G36*
X133523333Y-121908415D02*
G01*
X133567680Y-121936916D01*
X135963181Y-124332416D01*
X135996666Y-124393739D01*
X135999500Y-124420097D01*
X135999500Y-126409046D01*
X135979815Y-126476085D01*
X135927011Y-126521840D01*
X135857853Y-126531784D01*
X135794297Y-126502759D01*
X135775182Y-126481932D01*
X135769474Y-126474077D01*
X135769474Y-126474076D01*
X135090000Y-127153551D01*
X135090000Y-127147339D01*
X135062741Y-127045606D01*
X135010080Y-126954394D01*
X134935606Y-126879920D01*
X134844394Y-126827259D01*
X134742661Y-126800000D01*
X134736446Y-126800000D01*
X135415922Y-126120524D01*
X135415921Y-126120523D01*
X135371359Y-126088147D01*
X135371350Y-126088141D01*
X135189031Y-125995244D01*
X134994417Y-125932009D01*
X134792317Y-125900000D01*
X134587683Y-125900000D01*
X134385582Y-125932009D01*
X134190968Y-125995244D01*
X134008644Y-126088143D01*
X133964077Y-126120523D01*
X133964077Y-126120524D01*
X134643554Y-126800000D01*
X134637339Y-126800000D01*
X134535606Y-126827259D01*
X134444394Y-126879920D01*
X134369920Y-126954394D01*
X134317259Y-127045606D01*
X134290000Y-127147339D01*
X134290000Y-127153553D01*
X133610524Y-126474077D01*
X133610523Y-126474077D01*
X133578143Y-126518644D01*
X133524984Y-126622976D01*
X133477009Y-126673772D01*
X133409188Y-126690567D01*
X133343053Y-126668029D01*
X133299602Y-126613314D01*
X133290499Y-126566681D01*
X133290499Y-126355143D01*
X133290499Y-126355136D01*
X133290195Y-126352511D01*
X133287586Y-126330013D01*
X133287585Y-126330011D01*
X133287585Y-126330009D01*
X133242206Y-126227235D01*
X133162765Y-126147794D01*
X133162763Y-126147793D01*
X133059992Y-126102415D01*
X133034868Y-126099500D01*
X133034865Y-126099500D01*
X132914500Y-126099500D01*
X132847461Y-126079815D01*
X132801706Y-126027011D01*
X132790500Y-125975500D01*
X132790500Y-122590096D01*
X132810185Y-122523057D01*
X132826815Y-122502419D01*
X133392318Y-121936915D01*
X133453641Y-121903431D01*
X133523333Y-121908415D01*
G37*
%TD.AperFunction*%
%TA.AperFunction,Conductor*%
G36*
X142542539Y-100619685D02*
G01*
X142588294Y-100672489D01*
X142599500Y-100724000D01*
X142599500Y-101741981D01*
X142579815Y-101809020D01*
X142527011Y-101854775D01*
X142506485Y-101862047D01*
X140432031Y-102397390D01*
X140384870Y-102400264D01*
X140379063Y-102399500D01*
X140379057Y-102399500D01*
X140220943Y-102399500D01*
X140220935Y-102399501D01*
X140177808Y-102411056D01*
X140125693Y-102413654D01*
X139994750Y-102392228D01*
X139931769Y-102361976D01*
X139915970Y-102344780D01*
X139825078Y-102224921D01*
X139709976Y-102137636D01*
X139575588Y-102084640D01*
X139532242Y-102079435D01*
X139491144Y-102074500D01*
X138908856Y-102074500D01*
X138870841Y-102079065D01*
X138824411Y-102084640D01*
X138690023Y-102137636D01*
X138574921Y-102224921D01*
X138487636Y-102340023D01*
X138434640Y-102474411D01*
X138429065Y-102520841D01*
X138424500Y-102558856D01*
X138424500Y-103091144D01*
X138425432Y-103098903D01*
X138434640Y-103175588D01*
X138487636Y-103309976D01*
X138546390Y-103387454D01*
X138571213Y-103452765D01*
X138556785Y-103521129D01*
X138512688Y-103567914D01*
X138497273Y-103577422D01*
X138497267Y-103577427D01*
X138377427Y-103697267D01*
X138377424Y-103697271D01*
X138288457Y-103841507D01*
X138288452Y-103841518D01*
X138235144Y-104002393D01*
X138225000Y-104101677D01*
X138225000Y-104125000D01*
X139076000Y-104125000D01*
X139143039Y-104144685D01*
X139188794Y-104197489D01*
X139200000Y-104249000D01*
X139200000Y-104501000D01*
X139180315Y-104568039D01*
X139127511Y-104613794D01*
X139076000Y-104625000D01*
X138225001Y-104625000D01*
X138225001Y-104648322D01*
X138235144Y-104747607D01*
X138274359Y-104865951D01*
X138276761Y-104935780D01*
X138241029Y-104995822D01*
X138178508Y-105027014D01*
X138169256Y-105028313D01*
X138102392Y-105035144D01*
X137941518Y-105088452D01*
X137941507Y-105088457D01*
X137797271Y-105177424D01*
X137797267Y-105177427D01*
X137677427Y-105297267D01*
X137677424Y-105297271D01*
X137588457Y-105441507D01*
X137588452Y-105441518D01*
X137535144Y-105602393D01*
X137525000Y-105701677D01*
X137525000Y-105750000D01*
X138351000Y-105750000D01*
X138418039Y-105769685D01*
X138463794Y-105822489D01*
X138475000Y-105874000D01*
X138475000Y-106000000D01*
X138601000Y-106000000D01*
X138668039Y-106019685D01*
X138713794Y-106072489D01*
X138725000Y-106124000D01*
X138725000Y-106974999D01*
X138748308Y-106974999D01*
X138748322Y-106974998D01*
X138847607Y-106964855D01*
X139008481Y-106911547D01*
X139008492Y-106911542D01*
X139152728Y-106822575D01*
X139152732Y-106822572D01*
X139272573Y-106702731D01*
X139282081Y-106687317D01*
X139334029Y-106640592D01*
X139402991Y-106629369D01*
X139462544Y-106653608D01*
X139540025Y-106712364D01*
X139674410Y-106765359D01*
X139758856Y-106775500D01*
X139758862Y-106775500D01*
X140291138Y-106775500D01*
X140291144Y-106775500D01*
X140375590Y-106765359D01*
X140509975Y-106712364D01*
X140509980Y-106712360D01*
X140514721Y-106709695D01*
X140582804Y-106693993D01*
X140648567Y-106717592D01*
X140691133Y-106773000D01*
X140699500Y-106817777D01*
X140699501Y-107050499D01*
X140679817Y-107117539D01*
X140627013Y-107163294D01*
X140575501Y-107174500D01*
X140045804Y-107174500D01*
X140025277Y-107172789D01*
X140015203Y-107171098D01*
X140015201Y-107171097D01*
X139985575Y-107173935D01*
X139973755Y-107174500D01*
X139943982Y-107174500D01*
X139934118Y-107177143D01*
X139913846Y-107180803D01*
X139905566Y-107181596D01*
X139903676Y-107181777D01*
X139875786Y-107192187D01*
X139864525Y-107195788D01*
X139835765Y-107203495D01*
X139826905Y-107208610D01*
X139808285Y-107217385D01*
X139798718Y-107220956D01*
X139798713Y-107220959D01*
X139774467Y-107238234D01*
X139764518Y-107244630D01*
X139738733Y-107259517D01*
X139731509Y-107266741D01*
X139715789Y-107280041D01*
X139475163Y-107451488D01*
X139409143Y-107474358D01*
X139403209Y-107474500D01*
X138877129Y-107474500D01*
X138877123Y-107474501D01*
X138817516Y-107480908D01*
X138682671Y-107531202D01*
X138682664Y-107531206D01*
X138567455Y-107617452D01*
X138567452Y-107617455D01*
X138481206Y-107732664D01*
X138481202Y-107732671D01*
X138430908Y-107867517D01*
X138424501Y-107927116D01*
X138424500Y-107927135D01*
X138424500Y-108292389D01*
X138404815Y-108359428D01*
X138388181Y-108380070D01*
X137938737Y-108829515D01*
X137859517Y-108908734D01*
X137859513Y-108908740D01*
X137803498Y-109005760D01*
X137803497Y-109005763D01*
X137774500Y-109113982D01*
X137774500Y-113168982D01*
X137774500Y-113281018D01*
X137803497Y-113389237D01*
X137859515Y-113486263D01*
X137859517Y-113486265D01*
X138388181Y-114014929D01*
X138421666Y-114076252D01*
X138424500Y-114102610D01*
X138424500Y-114491144D01*
X138429825Y-114535494D01*
X138434640Y-114575588D01*
X138487636Y-114709976D01*
X138546390Y-114787454D01*
X138571213Y-114852765D01*
X138556785Y-114921129D01*
X138512688Y-114967914D01*
X138497273Y-114977422D01*
X138497267Y-114977427D01*
X138377427Y-115097267D01*
X138377424Y-115097271D01*
X138288457Y-115241507D01*
X138288452Y-115241518D01*
X138235144Y-115402393D01*
X138225000Y-115501677D01*
X138225000Y-115525000D01*
X140174999Y-115525000D01*
X140174999Y-115501692D01*
X140174998Y-115501677D01*
X140164855Y-115402392D01*
X140111547Y-115241518D01*
X140111542Y-115241507D01*
X140022575Y-115097271D01*
X140022572Y-115097267D01*
X139902731Y-114977426D01*
X139887314Y-114967917D01*
X139840590Y-114915969D01*
X139829369Y-114847006D01*
X139853606Y-114787457D01*
X139912364Y-114709975D01*
X139965359Y-114575590D01*
X139975500Y-114491144D01*
X139975500Y-114055131D01*
X140699500Y-114055131D01*
X140699500Y-115144856D01*
X140699502Y-115144882D01*
X140702413Y-115169987D01*
X140702415Y-115169991D01*
X140747793Y-115272764D01*
X140747794Y-115272765D01*
X140827235Y-115352206D01*
X140930009Y-115397585D01*
X140955135Y-115400500D01*
X142439053Y-115400499D01*
X142506092Y-115420184D01*
X142551847Y-115472987D01*
X142561791Y-115542146D01*
X142538320Y-115598810D01*
X142456647Y-115707911D01*
X142456645Y-115707913D01*
X142406403Y-115842620D01*
X142406401Y-115842627D01*
X142400000Y-115902155D01*
X142400000Y-116950000D01*
X143150000Y-116950000D01*
X143150000Y-115465268D01*
X143095812Y-115429404D01*
X143073763Y-115403255D01*
X143051456Y-115377511D01*
X143051332Y-115376652D01*
X143050772Y-115375988D01*
X143046367Y-115342123D01*
X143041512Y-115308353D01*
X143041831Y-115307240D01*
X143041761Y-115306702D01*
X143042331Y-115305496D01*
X143050816Y-115275914D01*
X143097583Y-115169995D01*
X143097585Y-115169991D01*
X143100500Y-115144865D01*
X143100499Y-114055136D01*
X143099766Y-114048814D01*
X143097586Y-114030012D01*
X143097585Y-114030010D01*
X143097585Y-114030009D01*
X143052206Y-113927235D01*
X142972765Y-113847794D01*
X142949755Y-113837634D01*
X142869992Y-113802415D01*
X142844865Y-113799500D01*
X140955143Y-113799500D01*
X140955117Y-113799502D01*
X140930012Y-113802413D01*
X140930008Y-113802415D01*
X140827235Y-113847793D01*
X140747794Y-113927234D01*
X140702415Y-114030006D01*
X140702415Y-114030008D01*
X140699500Y-114055131D01*
X139975500Y-114055131D01*
X139975500Y-113958856D01*
X139965359Y-113874410D01*
X139912364Y-113740025D01*
X139912363Y-113740024D01*
X139912363Y-113740023D01*
X139825079Y-113624923D01*
X139799081Y-113605208D01*
X139757558Y-113549015D01*
X139753007Y-113479294D01*
X139786872Y-113418180D01*
X139799696Y-113407138D01*
X139812455Y-113397586D01*
X139832546Y-113382546D01*
X139834033Y-113380559D01*
X139836019Y-113379072D01*
X139838820Y-113376272D01*
X139839222Y-113376674D01*
X139889963Y-113338687D01*
X139959654Y-113333700D01*
X139995300Y-113347479D01*
X140068216Y-113389577D01*
X140220943Y-113430500D01*
X140220945Y-113430500D01*
X140379055Y-113430500D01*
X140379057Y-113430500D01*
X140531784Y-113389577D01*
X140660385Y-113315329D01*
X140728284Y-113298857D01*
X140794311Y-113321710D01*
X140810065Y-113335036D01*
X140827235Y-113352206D01*
X140930009Y-113397585D01*
X140955135Y-113400500D01*
X142844864Y-113400499D01*
X142844879Y-113400497D01*
X142844882Y-113400497D01*
X142869987Y-113397586D01*
X142869988Y-113397585D01*
X142869991Y-113397585D01*
X142972765Y-113352206D01*
X143052206Y-113272765D01*
X143097585Y-113169991D01*
X143100500Y-113144865D01*
X143100499Y-112149499D01*
X143120183Y-112082461D01*
X143172987Y-112036706D01*
X143224499Y-112025500D01*
X153924902Y-112025500D01*
X153991941Y-112045185D01*
X154012583Y-112061819D01*
X154031284Y-112080520D01*
X154031286Y-112080521D01*
X154031290Y-112080524D01*
X154143139Y-112145099D01*
X154168216Y-112159577D01*
X154320943Y-112200500D01*
X154320945Y-112200500D01*
X154479055Y-112200500D01*
X154479057Y-112200500D01*
X154631784Y-112159577D01*
X154768716Y-112080520D01*
X154787417Y-112061819D01*
X154848740Y-112028334D01*
X154875098Y-112025500D01*
X156456016Y-112025500D01*
X156456018Y-112025500D01*
X156564237Y-111996503D01*
X156661263Y-111940485D01*
X157740485Y-110861263D01*
X157796503Y-110764237D01*
X157825500Y-110656018D01*
X157825500Y-110543981D01*
X157825500Y-103674437D01*
X157845185Y-103607398D01*
X157897989Y-103561643D01*
X157942367Y-103550642D01*
X157944837Y-103550499D01*
X157944864Y-103550499D01*
X157948858Y-103550035D01*
X157969987Y-103547586D01*
X157969988Y-103547585D01*
X157969991Y-103547585D01*
X158072765Y-103502206D01*
X158152206Y-103422765D01*
X158197585Y-103319991D01*
X158200500Y-103294865D01*
X158200499Y-100723999D01*
X158220184Y-100656961D01*
X158272987Y-100611206D01*
X158324499Y-100600000D01*
X165233453Y-100600000D01*
X165292880Y-100615168D01*
X165356972Y-100650165D01*
X165371855Y-100659730D01*
X165540350Y-100785863D01*
X165553721Y-100797449D01*
X165702550Y-100946278D01*
X165714136Y-100959649D01*
X165840269Y-101128144D01*
X165849832Y-101143023D01*
X165933678Y-101296574D01*
X165948530Y-101364845D01*
X165924114Y-101430310D01*
X165868180Y-101472181D01*
X165824846Y-101480000D01*
X158700000Y-101480000D01*
X158700000Y-113724840D01*
X158680315Y-113791879D01*
X158627511Y-113837634D01*
X158558353Y-113847578D01*
X158514001Y-113832228D01*
X158464237Y-113803497D01*
X158449327Y-113799502D01*
X158356018Y-113774500D01*
X149456018Y-113774500D01*
X149343982Y-113774500D01*
X149235763Y-113803497D01*
X149235760Y-113803498D01*
X149138740Y-113859513D01*
X149138734Y-113859517D01*
X149059517Y-113938734D01*
X149059513Y-113938740D01*
X149003498Y-114035760D01*
X149003497Y-114035763D01*
X148974500Y-114143982D01*
X148974500Y-115525561D01*
X148954815Y-115592600D01*
X148902011Y-115638355D01*
X148857672Y-115649353D01*
X148855144Y-115649499D01*
X148830011Y-115652414D01*
X148830008Y-115652415D01*
X148727235Y-115697793D01*
X148647794Y-115777234D01*
X148602415Y-115880006D01*
X148602415Y-115880008D01*
X148599500Y-115905131D01*
X148599500Y-118494856D01*
X148599502Y-118494882D01*
X148602413Y-118519987D01*
X148602415Y-118519991D01*
X148647793Y-118622764D01*
X148647794Y-118622765D01*
X148727235Y-118702206D01*
X148792226Y-118730902D01*
X148830006Y-118747584D01*
X148830009Y-118747585D01*
X148838647Y-118748587D01*
X148902972Y-118775865D01*
X148942338Y-118833590D01*
X148944246Y-118903433D01*
X148908091Y-118963221D01*
X148883792Y-118980590D01*
X148882668Y-118981203D01*
X148767455Y-119067452D01*
X148767452Y-119067455D01*
X148681206Y-119182664D01*
X148681202Y-119182671D01*
X148630910Y-119317513D01*
X148630909Y-119317517D01*
X148624500Y-119377127D01*
X148624500Y-119377134D01*
X148624500Y-119377135D01*
X148624500Y-119872870D01*
X148624501Y-119872876D01*
X148630908Y-119932483D01*
X148681202Y-120067328D01*
X148681206Y-120067335D01*
X148767452Y-120182544D01*
X148767455Y-120182547D01*
X148882664Y-120268793D01*
X148882671Y-120268797D01*
X148927618Y-120285561D01*
X149017517Y-120319091D01*
X149077127Y-120325500D01*
X149722872Y-120325499D01*
X149782483Y-120319091D01*
X149917331Y-120268796D01*
X150032546Y-120182546D01*
X150118796Y-120067331D01*
X150169091Y-119932483D01*
X150175500Y-119872873D01*
X150175499Y-119377128D01*
X150169091Y-119317517D01*
X150118796Y-119182669D01*
X150118795Y-119182668D01*
X150118793Y-119182664D01*
X150032547Y-119067455D01*
X150032544Y-119067452D01*
X149917334Y-118981205D01*
X149916216Y-118980595D01*
X149915314Y-118979693D01*
X149910231Y-118975888D01*
X149910777Y-118975157D01*
X149866809Y-118931192D01*
X149851955Y-118862919D01*
X149876369Y-118797454D01*
X149932301Y-118755581D01*
X149961352Y-118748586D01*
X149969991Y-118747585D01*
X150072765Y-118702206D01*
X150152206Y-118622765D01*
X150197585Y-118519991D01*
X150200500Y-118494865D01*
X150200499Y-115905136D01*
X150200499Y-115905135D01*
X150200499Y-115905131D01*
X150599500Y-115905131D01*
X150599500Y-118494856D01*
X150599502Y-118494882D01*
X150602413Y-118519987D01*
X150602415Y-118519991D01*
X150647793Y-118622764D01*
X150647794Y-118622765D01*
X150727235Y-118702206D01*
X150792226Y-118730902D01*
X150830006Y-118747584D01*
X150830009Y-118747585D01*
X150838647Y-118748587D01*
X150902972Y-118775865D01*
X150942338Y-118833590D01*
X150944246Y-118903433D01*
X150908091Y-118963221D01*
X150883792Y-118980590D01*
X150882668Y-118981203D01*
X150767455Y-119067452D01*
X150767452Y-119067455D01*
X150681206Y-119182664D01*
X150681202Y-119182671D01*
X150630910Y-119317513D01*
X150630909Y-119317517D01*
X150624500Y-119377127D01*
X150624500Y-119377134D01*
X150624500Y-119377135D01*
X150624500Y-119872870D01*
X150624501Y-119872876D01*
X150630908Y-119932483D01*
X150681202Y-120067328D01*
X150681206Y-120067335D01*
X150767452Y-120182544D01*
X150767455Y-120182547D01*
X150882664Y-120268793D01*
X150882671Y-120268797D01*
X150927618Y-120285561D01*
X151017517Y-120319091D01*
X151077127Y-120325500D01*
X151722872Y-120325499D01*
X151782483Y-120319091D01*
X151917331Y-120268796D01*
X152032546Y-120182546D01*
X152118796Y-120067331D01*
X152169091Y-119932483D01*
X152175500Y-119872873D01*
X152175499Y-119377128D01*
X152169091Y-119317517D01*
X152118796Y-119182669D01*
X152118795Y-119182668D01*
X152118793Y-119182664D01*
X152032547Y-119067455D01*
X152032544Y-119067452D01*
X151917334Y-118981205D01*
X151916216Y-118980595D01*
X151915314Y-118979693D01*
X151910231Y-118975888D01*
X151910777Y-118975157D01*
X151866809Y-118931192D01*
X151851955Y-118862919D01*
X151876369Y-118797454D01*
X151932301Y-118755581D01*
X151961352Y-118748586D01*
X151969991Y-118747585D01*
X152072765Y-118702206D01*
X152152206Y-118622765D01*
X152197585Y-118519991D01*
X152200500Y-118494865D01*
X152200499Y-115905136D01*
X152200497Y-115905117D01*
X152197586Y-115880012D01*
X152197585Y-115880010D01*
X152197585Y-115880009D01*
X152152206Y-115777235D01*
X152072765Y-115697794D01*
X152072763Y-115697793D01*
X151969992Y-115652415D01*
X151944865Y-115649500D01*
X150855143Y-115649500D01*
X150855117Y-115649502D01*
X150830012Y-115652413D01*
X150830008Y-115652415D01*
X150727235Y-115697793D01*
X150647794Y-115777234D01*
X150602415Y-115880006D01*
X150602415Y-115880008D01*
X150599500Y-115905131D01*
X150200499Y-115905131D01*
X150200499Y-115905130D01*
X150197586Y-115880012D01*
X150197585Y-115880010D01*
X150197585Y-115880009D01*
X150152206Y-115777235D01*
X150072765Y-115697794D01*
X150072763Y-115697793D01*
X149969992Y-115652415D01*
X149944859Y-115649499D01*
X149942333Y-115649353D01*
X149941725Y-115649135D01*
X149941306Y-115649087D01*
X149941317Y-115648989D01*
X149876543Y-115625826D01*
X149833917Y-115570466D01*
X149825500Y-115525560D01*
X149825500Y-114749500D01*
X149845185Y-114682461D01*
X149897989Y-114636706D01*
X149949500Y-114625500D01*
X154925902Y-114625500D01*
X154992941Y-114645185D01*
X155038696Y-114697989D01*
X155048640Y-114767147D01*
X155019615Y-114830703D01*
X155013583Y-114837181D01*
X154919481Y-114931282D01*
X154919475Y-114931290D01*
X154840426Y-115068209D01*
X154840423Y-115068216D01*
X154799500Y-115220943D01*
X154799500Y-115379057D01*
X154838755Y-115525560D01*
X154840729Y-115532925D01*
X154839066Y-115602774D01*
X154799903Y-115660637D01*
X154771040Y-115678452D01*
X154727236Y-115697793D01*
X154727234Y-115697794D01*
X154647794Y-115777234D01*
X154602415Y-115880006D01*
X154602415Y-115880008D01*
X154599500Y-115905131D01*
X154599500Y-118494856D01*
X154599502Y-118494882D01*
X154602413Y-118519987D01*
X154602415Y-118519991D01*
X154647793Y-118622764D01*
X154647794Y-118622765D01*
X154727235Y-118702206D01*
X154830009Y-118747585D01*
X154855135Y-118750500D01*
X155944864Y-118750499D01*
X155944879Y-118750497D01*
X155944882Y-118750497D01*
X155969987Y-118747586D01*
X155969988Y-118747585D01*
X155969991Y-118747585D01*
X156072765Y-118702206D01*
X156152206Y-118622765D01*
X156197585Y-118519991D01*
X156200500Y-118494865D01*
X156200499Y-115905136D01*
X156200497Y-115905117D01*
X156197586Y-115880012D01*
X156197585Y-115880010D01*
X156197585Y-115880009D01*
X156152206Y-115777235D01*
X156072765Y-115697794D01*
X156072763Y-115697793D01*
X156028958Y-115678451D01*
X155975582Y-115633364D01*
X155955055Y-115566578D01*
X155959270Y-115532923D01*
X155959573Y-115531789D01*
X155959577Y-115531784D01*
X156000500Y-115379057D01*
X156000500Y-115220943D01*
X155959577Y-115068216D01*
X155959573Y-115068209D01*
X155880524Y-114931290D01*
X155880518Y-114931282D01*
X155786417Y-114837181D01*
X155752932Y-114775858D01*
X155757916Y-114706166D01*
X155799788Y-114650233D01*
X155865252Y-114625816D01*
X155874098Y-114625500D01*
X156925902Y-114625500D01*
X156992941Y-114645185D01*
X157038696Y-114697989D01*
X157048640Y-114767147D01*
X157019615Y-114830703D01*
X157013583Y-114837181D01*
X156919481Y-114931282D01*
X156919475Y-114931290D01*
X156840426Y-115068209D01*
X156840423Y-115068216D01*
X156799500Y-115220943D01*
X156799500Y-115379057D01*
X156838755Y-115525560D01*
X156840729Y-115532925D01*
X156839066Y-115602774D01*
X156799903Y-115660637D01*
X156771040Y-115678452D01*
X156727236Y-115697793D01*
X156727234Y-115697794D01*
X156647794Y-115777234D01*
X156602415Y-115880006D01*
X156602415Y-115880008D01*
X156599500Y-115905131D01*
X156599500Y-118494856D01*
X156599502Y-118494882D01*
X156602413Y-118519987D01*
X156602415Y-118519991D01*
X156647793Y-118622764D01*
X156647794Y-118622765D01*
X156727235Y-118702206D01*
X156830009Y-118747585D01*
X156855135Y-118750500D01*
X157750500Y-118750499D01*
X157817539Y-118770183D01*
X157863294Y-118822987D01*
X157874500Y-118874499D01*
X157874500Y-122525500D01*
X157854815Y-122592539D01*
X157802011Y-122638294D01*
X157750500Y-122649500D01*
X157455143Y-122649500D01*
X157455117Y-122649502D01*
X157430012Y-122652413D01*
X157430008Y-122652415D01*
X157327235Y-122697793D01*
X157247794Y-122777234D01*
X157202415Y-122880006D01*
X157202415Y-122880008D01*
X157199500Y-122905131D01*
X157199500Y-123744856D01*
X157199502Y-123744882D01*
X157202413Y-123769987D01*
X157202415Y-123769991D01*
X157247793Y-123872764D01*
X157247794Y-123872765D01*
X157327235Y-123952206D01*
X157430009Y-123997585D01*
X157455135Y-124000500D01*
X158544864Y-124000499D01*
X158544879Y-124000497D01*
X158544882Y-124000497D01*
X158569987Y-123997586D01*
X158569988Y-123997585D01*
X158569991Y-123997585D01*
X158672765Y-123952206D01*
X158752206Y-123872765D01*
X158760309Y-123854412D01*
X158805395Y-123801037D01*
X158872181Y-123780510D01*
X158873743Y-123780500D01*
X159425500Y-123780500D01*
X159492539Y-123800185D01*
X159538294Y-123852989D01*
X159549500Y-123904500D01*
X159549500Y-131130080D01*
X159529815Y-131197119D01*
X159477011Y-131242874D01*
X159407853Y-131252818D01*
X159406102Y-131252553D01*
X159260551Y-131229500D01*
X159260546Y-131229500D01*
X159079454Y-131229500D01*
X159079449Y-131229500D01*
X158900589Y-131257829D01*
X158728363Y-131313787D01*
X158728360Y-131313788D01*
X158567002Y-131396006D01*
X158420505Y-131502441D01*
X158420500Y-131502445D01*
X158292445Y-131630500D01*
X158292441Y-131630505D01*
X158186006Y-131777002D01*
X158103788Y-131938360D01*
X158103787Y-131938363D01*
X158047829Y-132110589D01*
X158019500Y-132289448D01*
X158019500Y-132470551D01*
X158047829Y-132649410D01*
X158103787Y-132821636D01*
X158103788Y-132821639D01*
X158143461Y-132899500D01*
X158184085Y-132979228D01*
X158186006Y-132982997D01*
X158292441Y-133129494D01*
X158292445Y-133129499D01*
X158420500Y-133257554D01*
X158420505Y-133257558D01*
X158448427Y-133277844D01*
X158567006Y-133363996D01*
X158672484Y-133417740D01*
X158728360Y-133446211D01*
X158728363Y-133446212D01*
X158807997Y-133472086D01*
X158900591Y-133502171D01*
X158973639Y-133513740D01*
X159060678Y-133527527D01*
X159123813Y-133557456D01*
X159160744Y-133616768D01*
X159159746Y-133686631D01*
X159121136Y-133744863D01*
X159060678Y-133772473D01*
X158900589Y-133797829D01*
X158728363Y-133853787D01*
X158728360Y-133853788D01*
X158567002Y-133936006D01*
X158420505Y-134042441D01*
X158420500Y-134042445D01*
X158292445Y-134170500D01*
X158292441Y-134170505D01*
X158186006Y-134317002D01*
X158103788Y-134478360D01*
X158103787Y-134478363D01*
X158047829Y-134650589D01*
X158019500Y-134829448D01*
X158019500Y-135010551D01*
X158047829Y-135189410D01*
X158103787Y-135361636D01*
X158103788Y-135361639D01*
X158186006Y-135522997D01*
X158292441Y-135669494D01*
X158292445Y-135669499D01*
X158420500Y-135797554D01*
X158420505Y-135797558D01*
X158567001Y-135903993D01*
X158567003Y-135903994D01*
X158567006Y-135903996D01*
X158651795Y-135947198D01*
X158702591Y-135995173D01*
X158719500Y-136057683D01*
X158719500Y-143545500D01*
X158699815Y-143612539D01*
X158647011Y-143658294D01*
X158595500Y-143669500D01*
X155073743Y-143669500D01*
X155006704Y-143649815D01*
X154960949Y-143597011D01*
X154960309Y-143595587D01*
X154956467Y-143586885D01*
X154952206Y-143577235D01*
X154872765Y-143497794D01*
X154832800Y-143480147D01*
X154822342Y-143475530D01*
X154768967Y-143430443D01*
X154748440Y-143363657D01*
X154749364Y-143346903D01*
X154750555Y-143337253D01*
X154774411Y-143144016D01*
X154802160Y-143079898D01*
X154828585Y-143056111D01*
X154846542Y-143044114D01*
X154944114Y-142946542D01*
X155020775Y-142831811D01*
X155073580Y-142704328D01*
X155100500Y-142568993D01*
X155100500Y-142431007D01*
X155100500Y-142431004D01*
X155073581Y-142295677D01*
X155073580Y-142295676D01*
X155073580Y-142295672D01*
X155039040Y-142212284D01*
X155020778Y-142168195D01*
X155020771Y-142168182D01*
X154944114Y-142053458D01*
X154944111Y-142053454D01*
X154846545Y-141955888D01*
X154846541Y-141955885D01*
X154731817Y-141879228D01*
X154731804Y-141879221D01*
X154604332Y-141826421D01*
X154604322Y-141826418D01*
X154468995Y-141799500D01*
X154468993Y-141799500D01*
X154331007Y-141799500D01*
X154331005Y-141799500D01*
X154195677Y-141826418D01*
X154195667Y-141826421D01*
X154068195Y-141879221D01*
X154068182Y-141879228D01*
X153953458Y-141955885D01*
X153953454Y-141955888D01*
X153855888Y-142053454D01*
X153855885Y-142053458D01*
X153779228Y-142168182D01*
X153779221Y-142168195D01*
X153726421Y-142295667D01*
X153726418Y-142295677D01*
X153699500Y-142431004D01*
X153699500Y-142431007D01*
X153699500Y-142568993D01*
X153699500Y-142568995D01*
X153699499Y-142568995D01*
X153726418Y-142704322D01*
X153726421Y-142704332D01*
X153779221Y-142831804D01*
X153779228Y-142831817D01*
X153859270Y-142951607D01*
X153857091Y-142953062D01*
X153879953Y-143006910D01*
X153879851Y-143036443D01*
X153842289Y-143340693D01*
X153814538Y-143404816D01*
X153756526Y-143443756D01*
X153719225Y-143449500D01*
X153655143Y-143449500D01*
X153655118Y-143449502D01*
X153630011Y-143452414D01*
X153630008Y-143452415D01*
X153527235Y-143497793D01*
X153447794Y-143577234D01*
X153402415Y-143680006D01*
X153402415Y-143680008D01*
X153399500Y-143705131D01*
X153399500Y-144544856D01*
X153399502Y-144544882D01*
X153402413Y-144569987D01*
X153402415Y-144569991D01*
X153447793Y-144672764D01*
X153447794Y-144672765D01*
X153527235Y-144752206D01*
X153630009Y-144797585D01*
X153655135Y-144800500D01*
X154744864Y-144800499D01*
X154744879Y-144800497D01*
X154744882Y-144800497D01*
X154769987Y-144797586D01*
X154769988Y-144797585D01*
X154769991Y-144797585D01*
X154872765Y-144752206D01*
X154952206Y-144672765D01*
X154964725Y-144644411D01*
X155009809Y-144591038D01*
X155076595Y-144570510D01*
X155078158Y-144570500D01*
X159110691Y-144570500D01*
X159229309Y-144570500D01*
X159321842Y-144570500D01*
X159388881Y-144590185D01*
X159434636Y-144642989D01*
X159435218Y-144644284D01*
X159447794Y-144672765D01*
X159527235Y-144752206D01*
X159630009Y-144797585D01*
X159655135Y-144800500D01*
X160744864Y-144800499D01*
X160744879Y-144800497D01*
X160744882Y-144800497D01*
X160769987Y-144797586D01*
X160769988Y-144797585D01*
X160769991Y-144797585D01*
X160872765Y-144752206D01*
X160952206Y-144672765D01*
X160997585Y-144569991D01*
X161000500Y-144544865D01*
X161000499Y-143705136D01*
X161000497Y-143705117D01*
X160997586Y-143680012D01*
X160997585Y-143680010D01*
X160997585Y-143680009D01*
X160952206Y-143577235D01*
X160872765Y-143497794D01*
X160872763Y-143497793D01*
X160769992Y-143452415D01*
X160744868Y-143449500D01*
X159744500Y-143449500D01*
X159677461Y-143429815D01*
X159631706Y-143377011D01*
X159620500Y-143325500D01*
X159620500Y-140874500D01*
X159640185Y-140807461D01*
X159692989Y-140761706D01*
X159744500Y-140750500D01*
X159931659Y-140750500D01*
X159998698Y-140770185D01*
X160030952Y-140804398D01*
X160032511Y-140803217D01*
X160124921Y-140925078D01*
X160240023Y-141012363D01*
X160240024Y-141012363D01*
X160240025Y-141012364D01*
X160374410Y-141065359D01*
X160458856Y-141075500D01*
X160458862Y-141075500D01*
X160991138Y-141075500D01*
X160991144Y-141075500D01*
X161075590Y-141065359D01*
X161209975Y-141012364D01*
X161287457Y-140953607D01*
X161352763Y-140928785D01*
X161421127Y-140943212D01*
X161467917Y-140987314D01*
X161477426Y-141002731D01*
X161597267Y-141122572D01*
X161597271Y-141122575D01*
X161741507Y-141211542D01*
X161741518Y-141211547D01*
X161902393Y-141264855D01*
X162001683Y-141274999D01*
X162525000Y-141274999D01*
X162548308Y-141274999D01*
X162548322Y-141274998D01*
X162647607Y-141264855D01*
X162808481Y-141211547D01*
X162808492Y-141211542D01*
X162952728Y-141122575D01*
X162952732Y-141122572D01*
X163072572Y-141002732D01*
X163072575Y-141002728D01*
X163161542Y-140858492D01*
X163161547Y-140858481D01*
X163214855Y-140697606D01*
X163224999Y-140598322D01*
X163225000Y-140598309D01*
X163225000Y-140550000D01*
X162525000Y-140550000D01*
X162525000Y-141274999D01*
X162001683Y-141274999D01*
X162025000Y-141274998D01*
X162025000Y-140050000D01*
X162525000Y-140050000D01*
X163224999Y-140050000D01*
X163224999Y-140001692D01*
X163224998Y-140001677D01*
X163214855Y-139902392D01*
X163161547Y-139741518D01*
X163161542Y-139741507D01*
X163072575Y-139597271D01*
X163072572Y-139597267D01*
X162952732Y-139477427D01*
X162952728Y-139477424D01*
X162808492Y-139388457D01*
X162808481Y-139388452D01*
X162647606Y-139335144D01*
X162548322Y-139325000D01*
X162525000Y-139325000D01*
X162525000Y-140050000D01*
X162025000Y-140050000D01*
X162025000Y-139324999D01*
X162001693Y-139325000D01*
X162001674Y-139325001D01*
X161902392Y-139335144D01*
X161741518Y-139388452D01*
X161741507Y-139388457D01*
X161597271Y-139477424D01*
X161597267Y-139477427D01*
X161477427Y-139597267D01*
X161477422Y-139597273D01*
X161467914Y-139612688D01*
X161415964Y-139659410D01*
X161347001Y-139670629D01*
X161287454Y-139646390D01*
X161209976Y-139587636D01*
X161075588Y-139534640D01*
X161032242Y-139529435D01*
X160991144Y-139524500D01*
X160458856Y-139524500D01*
X160420841Y-139529065D01*
X160374411Y-139534640D01*
X160240023Y-139587636D01*
X160124921Y-139674921D01*
X160032511Y-139796783D01*
X160030519Y-139795273D01*
X159989725Y-139835064D01*
X159931659Y-139849500D01*
X159744500Y-139849500D01*
X159677461Y-139829815D01*
X159631706Y-139777011D01*
X159620500Y-139725500D01*
X159620500Y-136057683D01*
X159640185Y-135990644D01*
X159688204Y-135947198D01*
X159772994Y-135903996D01*
X159919501Y-135797553D01*
X160047553Y-135669501D01*
X160153996Y-135522994D01*
X160236211Y-135361639D01*
X160292171Y-135189409D01*
X160310133Y-135076000D01*
X160317527Y-135029321D01*
X160347456Y-134966186D01*
X160406768Y-134929255D01*
X160476630Y-134930253D01*
X160534863Y-134968863D01*
X160562473Y-135029321D01*
X160587829Y-135189410D01*
X160643787Y-135361636D01*
X160643788Y-135361639D01*
X160726006Y-135522997D01*
X160832441Y-135669494D01*
X160832445Y-135669499D01*
X160960500Y-135797554D01*
X160960505Y-135797558D01*
X161058766Y-135868948D01*
X161107006Y-135903996D01*
X161212484Y-135957740D01*
X161268360Y-135986211D01*
X161268363Y-135986212D01*
X161354476Y-136014191D01*
X161440591Y-136042171D01*
X161523429Y-136055291D01*
X161619449Y-136070500D01*
X161619454Y-136070500D01*
X161800551Y-136070500D01*
X161887259Y-136056765D01*
X161979409Y-136042171D01*
X162151639Y-135986211D01*
X162312994Y-135903996D01*
X162459501Y-135797553D01*
X162587553Y-135669501D01*
X162693996Y-135522994D01*
X162776211Y-135361639D01*
X162832171Y-135189409D01*
X162850133Y-135076000D01*
X162857527Y-135029321D01*
X162887456Y-134966186D01*
X162946768Y-134929255D01*
X163016630Y-134930253D01*
X163074863Y-134968863D01*
X163102473Y-135029321D01*
X163127829Y-135189410D01*
X163183787Y-135361636D01*
X163183788Y-135361639D01*
X163266006Y-135522997D01*
X163372441Y-135669494D01*
X163372445Y-135669499D01*
X163500500Y-135797554D01*
X163500505Y-135797558D01*
X163598766Y-135868948D01*
X163647006Y-135903996D01*
X163752484Y-135957740D01*
X163808360Y-135986211D01*
X163808363Y-135986212D01*
X163894476Y-136014191D01*
X163980591Y-136042171D01*
X164063429Y-136055291D01*
X164159449Y-136070500D01*
X164159454Y-136070500D01*
X164340551Y-136070500D01*
X164427259Y-136056765D01*
X164519409Y-136042171D01*
X164691639Y-135986211D01*
X164852994Y-135903996D01*
X164999501Y-135797553D01*
X165127553Y-135669501D01*
X165233996Y-135522994D01*
X165316211Y-135361639D01*
X165372171Y-135189409D01*
X165390133Y-135076000D01*
X165400500Y-135010551D01*
X165400500Y-134829448D01*
X165383114Y-134719685D01*
X165372171Y-134650591D01*
X165316211Y-134478361D01*
X165316211Y-134478360D01*
X165287740Y-134422484D01*
X165233996Y-134317006D01*
X165188250Y-134254042D01*
X165127558Y-134170505D01*
X165127554Y-134170500D01*
X164999495Y-134042441D01*
X164878202Y-133954318D01*
X164835536Y-133898989D01*
X164829557Y-133829375D01*
X164862162Y-133767580D01*
X164923001Y-133733223D01*
X164951087Y-133730000D01*
X165147828Y-133730000D01*
X165147844Y-133729999D01*
X165207372Y-133723598D01*
X165207379Y-133723596D01*
X165342086Y-133673354D01*
X165342093Y-133673350D01*
X165457187Y-133587190D01*
X165457190Y-133587187D01*
X165543350Y-133472093D01*
X165543354Y-133472086D01*
X165593596Y-133337379D01*
X165593598Y-133337372D01*
X165599999Y-133277844D01*
X165600000Y-133277827D01*
X165600000Y-132630000D01*
X164683012Y-132630000D01*
X164715925Y-132572993D01*
X164750000Y-132445826D01*
X164750000Y-132314174D01*
X164715925Y-132187007D01*
X164683012Y-132130000D01*
X165600000Y-132130000D01*
X165600000Y-131482172D01*
X165599999Y-131482155D01*
X165593598Y-131422627D01*
X165593596Y-131422620D01*
X165543354Y-131287913D01*
X165543350Y-131287906D01*
X165457190Y-131172812D01*
X165457187Y-131172809D01*
X165342093Y-131086649D01*
X165342086Y-131086645D01*
X165207379Y-131036403D01*
X165207372Y-131036401D01*
X165147844Y-131030000D01*
X164500000Y-131030000D01*
X164500000Y-131946988D01*
X164442993Y-131914075D01*
X164315826Y-131880000D01*
X164184174Y-131880000D01*
X164057007Y-131914075D01*
X164000000Y-131946988D01*
X164000000Y-131030000D01*
X163352155Y-131030000D01*
X163292627Y-131036401D01*
X163292620Y-131036403D01*
X163157913Y-131086645D01*
X163157906Y-131086649D01*
X163042812Y-131172809D01*
X163042809Y-131172812D01*
X162956649Y-131287906D01*
X162956645Y-131287913D01*
X162906403Y-131422620D01*
X162906401Y-131422627D01*
X162900000Y-131482155D01*
X162900000Y-131678912D01*
X162880315Y-131745951D01*
X162827511Y-131791706D01*
X162758353Y-131801650D01*
X162694797Y-131772625D01*
X162675682Y-131751797D01*
X162587558Y-131630505D01*
X162587554Y-131630500D01*
X162459499Y-131502445D01*
X162459494Y-131502441D01*
X162312997Y-131396006D01*
X162312996Y-131396005D01*
X162312994Y-131396004D01*
X162261300Y-131369664D01*
X162151639Y-131313788D01*
X162151636Y-131313787D01*
X161979410Y-131257829D01*
X161800551Y-131229500D01*
X161800546Y-131229500D01*
X161619454Y-131229500D01*
X161619449Y-131229500D01*
X161440589Y-131257829D01*
X161268363Y-131313787D01*
X161268360Y-131313788D01*
X161107002Y-131396006D01*
X160960505Y-131502441D01*
X160960500Y-131502445D01*
X160832445Y-131630500D01*
X160832441Y-131630505D01*
X160726006Y-131777002D01*
X160643788Y-131938360D01*
X160643787Y-131938363D01*
X160587829Y-132110589D01*
X160562473Y-132270678D01*
X160532544Y-132333813D01*
X160473232Y-132370744D01*
X160403369Y-132369746D01*
X160345137Y-132331136D01*
X160317527Y-132270678D01*
X160292171Y-132110589D01*
X160262765Y-132020087D01*
X160260770Y-131950246D01*
X160293015Y-131894087D01*
X160360489Y-131826614D01*
X160419799Y-131723887D01*
X160434075Y-131670606D01*
X160450500Y-131609309D01*
X160450500Y-127497844D01*
X163000000Y-127497844D01*
X163006401Y-127557372D01*
X163006403Y-127557379D01*
X163056645Y-127692086D01*
X163056649Y-127692093D01*
X163142809Y-127807187D01*
X163142812Y-127807190D01*
X163257906Y-127893350D01*
X163257913Y-127893354D01*
X163392620Y-127943596D01*
X163392627Y-127943598D01*
X163452155Y-127949999D01*
X163452172Y-127950000D01*
X163750000Y-127950000D01*
X164250000Y-127950000D01*
X164547828Y-127950000D01*
X164547844Y-127949999D01*
X164607372Y-127943598D01*
X164607379Y-127943596D01*
X164742086Y-127893354D01*
X164742093Y-127893350D01*
X164857187Y-127807190D01*
X164857190Y-127807187D01*
X164943350Y-127692093D01*
X164943354Y-127692086D01*
X164993596Y-127557379D01*
X164993598Y-127557372D01*
X164999999Y-127497844D01*
X165000000Y-127497827D01*
X165000000Y-127325000D01*
X164250000Y-127325000D01*
X164250000Y-127950000D01*
X163750000Y-127950000D01*
X163750000Y-127325000D01*
X163000000Y-127325000D01*
X163000000Y-127497844D01*
X160450500Y-127497844D01*
X160450500Y-126652155D01*
X163000000Y-126652155D01*
X163000000Y-126825000D01*
X163750000Y-126825000D01*
X164250000Y-126825000D01*
X165000000Y-126825000D01*
X165000000Y-126652172D01*
X164999999Y-126652155D01*
X164993598Y-126592627D01*
X164993596Y-126592620D01*
X164943354Y-126457913D01*
X164943350Y-126457906D01*
X164857190Y-126342812D01*
X164857187Y-126342809D01*
X164742093Y-126256649D01*
X164742086Y-126256645D01*
X164607379Y-126206403D01*
X164607372Y-126206401D01*
X164547844Y-126200000D01*
X164250000Y-126200000D01*
X164250000Y-126825000D01*
X163750000Y-126825000D01*
X163750000Y-126200000D01*
X163452155Y-126200000D01*
X163392627Y-126206401D01*
X163392620Y-126206403D01*
X163257913Y-126256645D01*
X163257906Y-126256649D01*
X163142812Y-126342809D01*
X163142809Y-126342812D01*
X163056649Y-126457906D01*
X163056645Y-126457913D01*
X163006403Y-126592620D01*
X163006401Y-126592627D01*
X163000000Y-126652155D01*
X160450500Y-126652155D01*
X160450500Y-123904500D01*
X160470185Y-123837461D01*
X160522989Y-123791706D01*
X160574500Y-123780500D01*
X163126257Y-123780500D01*
X163193296Y-123800185D01*
X163239051Y-123852989D01*
X163239679Y-123854387D01*
X163247794Y-123872765D01*
X163327235Y-123952206D01*
X163430009Y-123997585D01*
X163455135Y-124000500D01*
X164544864Y-124000499D01*
X164544879Y-124000497D01*
X164544882Y-124000497D01*
X164569987Y-123997586D01*
X164569988Y-123997585D01*
X164569991Y-123997585D01*
X164672765Y-123952206D01*
X164752206Y-123872765D01*
X164797585Y-123769991D01*
X164800500Y-123744865D01*
X164800499Y-122905136D01*
X164797645Y-122880524D01*
X164797586Y-122880012D01*
X164797585Y-122880010D01*
X164797585Y-122880009D01*
X164752206Y-122777235D01*
X164672765Y-122697794D01*
X164624797Y-122676614D01*
X164569992Y-122652415D01*
X164544865Y-122649500D01*
X163455143Y-122649500D01*
X163455117Y-122649502D01*
X163430012Y-122652413D01*
X163430008Y-122652415D01*
X163327235Y-122697793D01*
X163247795Y-122777233D01*
X163247794Y-122777234D01*
X163247794Y-122777235D01*
X163235274Y-122805588D01*
X163190191Y-122858962D01*
X163123405Y-122879490D01*
X163121842Y-122879500D01*
X158878158Y-122879500D01*
X158811119Y-122859815D01*
X158765364Y-122807011D01*
X158764781Y-122805715D01*
X158752206Y-122777235D01*
X158752203Y-122777232D01*
X158747199Y-122769926D01*
X158725554Y-122703494D01*
X158725500Y-122699851D01*
X158725500Y-117844000D01*
X158745185Y-117776961D01*
X158797989Y-117731206D01*
X158849500Y-117720000D01*
X165876000Y-117720000D01*
X165943039Y-117739685D01*
X165988794Y-117792489D01*
X166000000Y-117844000D01*
X166000000Y-147521319D01*
X165992182Y-147564653D01*
X165958056Y-147656148D01*
X165950706Y-147672241D01*
X165849834Y-147856972D01*
X165840269Y-147871855D01*
X165714136Y-148040350D01*
X165702550Y-148053721D01*
X165553721Y-148202550D01*
X165540350Y-148214136D01*
X165371855Y-148340269D01*
X165356972Y-148349834D01*
X165172241Y-148450706D01*
X165156147Y-148458056D01*
X164958939Y-148531610D01*
X164941964Y-148536594D01*
X164736300Y-148581334D01*
X164718788Y-148583852D01*
X164504418Y-148599184D01*
X164495572Y-148599500D01*
X161281885Y-148599500D01*
X161214846Y-148579815D01*
X161169091Y-148527011D01*
X161159147Y-148457853D01*
X161165703Y-148432167D01*
X161193596Y-148357379D01*
X161193598Y-148357372D01*
X161199999Y-148297844D01*
X161200000Y-148297827D01*
X161200000Y-148125000D01*
X159200000Y-148125000D01*
X159200000Y-148297844D01*
X159206401Y-148357372D01*
X159206403Y-148357379D01*
X159234297Y-148432167D01*
X159239281Y-148501859D01*
X159205796Y-148563182D01*
X159144473Y-148596666D01*
X159118115Y-148599500D01*
X155281885Y-148599500D01*
X155214846Y-148579815D01*
X155169091Y-148527011D01*
X155159147Y-148457853D01*
X155165703Y-148432167D01*
X155193596Y-148357379D01*
X155193598Y-148357372D01*
X155199999Y-148297844D01*
X155200000Y-148297827D01*
X155200000Y-148125000D01*
X153200000Y-148125000D01*
X153200000Y-148297844D01*
X153206401Y-148357372D01*
X153206403Y-148357379D01*
X153234297Y-148432167D01*
X153239281Y-148501859D01*
X153205796Y-148563182D01*
X153144473Y-148596666D01*
X153118115Y-148599500D01*
X129124000Y-148599500D01*
X129056961Y-148579815D01*
X129011206Y-148527011D01*
X129000000Y-148475500D01*
X129000000Y-147452155D01*
X153200000Y-147452155D01*
X153200000Y-147625000D01*
X153950000Y-147625000D01*
X154450000Y-147625000D01*
X155200000Y-147625000D01*
X155200000Y-147452172D01*
X155199999Y-147452155D01*
X159200000Y-147452155D01*
X159200000Y-147625000D01*
X159950000Y-147625000D01*
X160450000Y-147625000D01*
X161200000Y-147625000D01*
X161200000Y-147452172D01*
X161199999Y-147452155D01*
X161193598Y-147392627D01*
X161193596Y-147392620D01*
X161143354Y-147257913D01*
X161143350Y-147257906D01*
X161057190Y-147142812D01*
X161057187Y-147142809D01*
X160942093Y-147056649D01*
X160942086Y-147056645D01*
X160807379Y-147006403D01*
X160807372Y-147006401D01*
X160747844Y-147000000D01*
X160450000Y-147000000D01*
X160450000Y-147625000D01*
X159950000Y-147625000D01*
X159950000Y-147000000D01*
X159652155Y-147000000D01*
X159592627Y-147006401D01*
X159592620Y-147006403D01*
X159457913Y-147056645D01*
X159457906Y-147056649D01*
X159342812Y-147142809D01*
X159342809Y-147142812D01*
X159256649Y-147257906D01*
X159256645Y-147257913D01*
X159206403Y-147392620D01*
X159206401Y-147392627D01*
X159200000Y-147452155D01*
X155199999Y-147452155D01*
X155193598Y-147392627D01*
X155193596Y-147392620D01*
X155143354Y-147257913D01*
X155143350Y-147257906D01*
X155057190Y-147142812D01*
X155057187Y-147142809D01*
X154942093Y-147056649D01*
X154942086Y-147056645D01*
X154807379Y-147006403D01*
X154807372Y-147006401D01*
X154747844Y-147000000D01*
X154450000Y-147000000D01*
X154450000Y-147625000D01*
X153950000Y-147625000D01*
X153950000Y-147000000D01*
X153652155Y-147000000D01*
X153592627Y-147006401D01*
X153592620Y-147006403D01*
X153457913Y-147056645D01*
X153457906Y-147056649D01*
X153342812Y-147142809D01*
X153342809Y-147142812D01*
X153256649Y-147257906D01*
X153256645Y-147257913D01*
X153206403Y-147392620D01*
X153206401Y-147392627D01*
X153200000Y-147452155D01*
X129000000Y-147452155D01*
X129000000Y-146293713D01*
X162549500Y-146293713D01*
X162549500Y-146506286D01*
X162582753Y-146716239D01*
X162648444Y-146918414D01*
X162744951Y-147107820D01*
X162869890Y-147279786D01*
X163020213Y-147430109D01*
X163192179Y-147555048D01*
X163192181Y-147555049D01*
X163192184Y-147555051D01*
X163381588Y-147651557D01*
X163583757Y-147717246D01*
X163793713Y-147750500D01*
X163793714Y-147750500D01*
X164006286Y-147750500D01*
X164006287Y-147750500D01*
X164216243Y-147717246D01*
X164418412Y-147651557D01*
X164607816Y-147555051D01*
X164629789Y-147539086D01*
X164779786Y-147430109D01*
X164779788Y-147430106D01*
X164779792Y-147430104D01*
X164930104Y-147279792D01*
X164930106Y-147279788D01*
X164930109Y-147279786D01*
X165055048Y-147107820D01*
X165055047Y-147107820D01*
X165055051Y-147107816D01*
X165151557Y-146918412D01*
X165217246Y-146716243D01*
X165250500Y-146506287D01*
X165250500Y-146293713D01*
X165217246Y-146083757D01*
X165151557Y-145881588D01*
X165055051Y-145692184D01*
X165055049Y-145692181D01*
X165055048Y-145692179D01*
X164930109Y-145520213D01*
X164779786Y-145369890D01*
X164607820Y-145244951D01*
X164418414Y-145148444D01*
X164418413Y-145148443D01*
X164418412Y-145148443D01*
X164216243Y-145082754D01*
X164216241Y-145082753D01*
X164216240Y-145082753D01*
X164054957Y-145057208D01*
X164006287Y-145049500D01*
X163793713Y-145049500D01*
X163745042Y-145057208D01*
X163583760Y-145082753D01*
X163381585Y-145148444D01*
X163192179Y-145244951D01*
X163020213Y-145369890D01*
X162869890Y-145520213D01*
X162744951Y-145692179D01*
X162648444Y-145881585D01*
X162582753Y-146083760D01*
X162549500Y-146293713D01*
X129000000Y-146293713D01*
X129000000Y-144604152D01*
X146275001Y-144604152D01*
X146285056Y-144702583D01*
X146337906Y-144862072D01*
X146337908Y-144862077D01*
X146426114Y-145005080D01*
X146544919Y-145123885D01*
X146687922Y-145212091D01*
X146687927Y-145212093D01*
X146847416Y-145264942D01*
X146945856Y-145274999D01*
X146962500Y-145274998D01*
X146962500Y-144550000D01*
X146275001Y-144550000D01*
X146275001Y-144604152D01*
X129000000Y-144604152D01*
X129000000Y-143995849D01*
X146275000Y-143995849D01*
X146275000Y-144050000D01*
X146962500Y-144050000D01*
X146962500Y-143325000D01*
X147462500Y-143325000D01*
X147462500Y-145274999D01*
X147479136Y-145274999D01*
X147479152Y-145274998D01*
X147577583Y-145264943D01*
X147737072Y-145212093D01*
X147737077Y-145212091D01*
X147880080Y-145123885D01*
X147998887Y-145005078D01*
X148023574Y-144965054D01*
X148075521Y-144918329D01*
X148144483Y-144907106D01*
X148204038Y-144931346D01*
X148301272Y-145005080D01*
X148311868Y-145013115D01*
X148444654Y-145065479D01*
X148528098Y-145075500D01*
X149046902Y-145075500D01*
X149130346Y-145065479D01*
X149263132Y-145013115D01*
X149376867Y-144926867D01*
X149463115Y-144813132D01*
X149515479Y-144680346D01*
X149525500Y-144596902D01*
X149525500Y-144003098D01*
X149524629Y-143995849D01*
X149515479Y-143919656D01*
X149515479Y-143919655D01*
X149506709Y-143897416D01*
X149463115Y-143786868D01*
X149426002Y-143737927D01*
X149376867Y-143673132D01*
X149263134Y-143586886D01*
X149263132Y-143586885D01*
X149158187Y-143545500D01*
X149130344Y-143534520D01*
X149107609Y-143531790D01*
X149043395Y-143504251D01*
X149004264Y-143446367D01*
X149003661Y-143444419D01*
X149002429Y-143440314D01*
X149002029Y-143370449D01*
X149018108Y-143335802D01*
X149018606Y-143335057D01*
X149020775Y-143331811D01*
X149073580Y-143204328D01*
X149098331Y-143079898D01*
X149100500Y-143068995D01*
X149100500Y-142931004D01*
X149073581Y-142795677D01*
X149073580Y-142795676D01*
X149073580Y-142795672D01*
X149035746Y-142704332D01*
X149020778Y-142668195D01*
X149020771Y-142668182D01*
X148944114Y-142553458D01*
X148944111Y-142553454D01*
X148846545Y-142455888D01*
X148846541Y-142455885D01*
X148731817Y-142379228D01*
X148731804Y-142379221D01*
X148604332Y-142326421D01*
X148604322Y-142326418D01*
X148468995Y-142299500D01*
X148468993Y-142299500D01*
X148331007Y-142299500D01*
X148331005Y-142299500D01*
X148195677Y-142326418D01*
X148195667Y-142326421D01*
X148068195Y-142379221D01*
X148068182Y-142379228D01*
X147953458Y-142455885D01*
X147953454Y-142455888D01*
X147855888Y-142553454D01*
X147855885Y-142553458D01*
X147779228Y-142668182D01*
X147779221Y-142668195D01*
X147726421Y-142795667D01*
X147726418Y-142795677D01*
X147699500Y-142931004D01*
X147699500Y-143068997D01*
X147723418Y-143189240D01*
X147717191Y-143258831D01*
X147674328Y-143314009D01*
X147608438Y-143337253D01*
X147584357Y-143335356D01*
X147584318Y-143335745D01*
X147479150Y-143325000D01*
X147462500Y-143325000D01*
X146962500Y-143325000D01*
X146962500Y-143324999D01*
X146945856Y-143325000D01*
X146847415Y-143335057D01*
X146687927Y-143387906D01*
X146687922Y-143387908D01*
X146544919Y-143476114D01*
X146426114Y-143594919D01*
X146337908Y-143737922D01*
X146337906Y-143737927D01*
X146285057Y-143897416D01*
X146275000Y-143995849D01*
X129000000Y-143995849D01*
X129000000Y-140997648D01*
X142099500Y-140997648D01*
X142099500Y-141202351D01*
X142131522Y-141404534D01*
X142194781Y-141599223D01*
X142246385Y-141700500D01*
X142274180Y-141755051D01*
X142287715Y-141781613D01*
X142408028Y-141947213D01*
X142552786Y-142091971D01*
X142707749Y-142204556D01*
X142718390Y-142212287D01*
X142834607Y-142271503D01*
X142900776Y-142305218D01*
X142900778Y-142305218D01*
X142900781Y-142305220D01*
X142966022Y-142326418D01*
X143095465Y-142368477D01*
X143163300Y-142379221D01*
X143297648Y-142400500D01*
X143297649Y-142400500D01*
X143502351Y-142400500D01*
X143502352Y-142400500D01*
X143704534Y-142368477D01*
X143899219Y-142305220D01*
X144081610Y-142212287D01*
X144174590Y-142144732D01*
X144247213Y-142091971D01*
X144247215Y-142091968D01*
X144247219Y-142091966D01*
X144391966Y-141947219D01*
X144391968Y-141947215D01*
X144391971Y-141947213D01*
X144512284Y-141781614D01*
X144512285Y-141781613D01*
X144512287Y-141781610D01*
X144519117Y-141768204D01*
X144567091Y-141717409D01*
X144629602Y-141700500D01*
X145013331Y-141700500D01*
X145013347Y-141700501D01*
X145020943Y-141700501D01*
X145179054Y-141700501D01*
X145179057Y-141700501D01*
X145331785Y-141659577D01*
X145382833Y-141630104D01*
X145468716Y-141580520D01*
X145580520Y-141468716D01*
X145580520Y-141468714D01*
X145590724Y-141458511D01*
X145590727Y-141458506D01*
X146555521Y-140493713D01*
X149849500Y-140493713D01*
X149849500Y-140706286D01*
X149876142Y-140874500D01*
X149882754Y-140916243D01*
X149913985Y-141012363D01*
X149948444Y-141118414D01*
X150044951Y-141307820D01*
X150169890Y-141479786D01*
X150320213Y-141630109D01*
X150492179Y-141755048D01*
X150492181Y-141755049D01*
X150492184Y-141755051D01*
X150681588Y-141851557D01*
X150883757Y-141917246D01*
X151093713Y-141950500D01*
X151093714Y-141950500D01*
X151306286Y-141950500D01*
X151306287Y-141950500D01*
X151516243Y-141917246D01*
X151718412Y-141851557D01*
X151907816Y-141755051D01*
X152039226Y-141659577D01*
X152079786Y-141630109D01*
X152079792Y-141630104D01*
X152129378Y-141580518D01*
X152230104Y-141479792D01*
X152230106Y-141479788D01*
X152230109Y-141479786D01*
X152355048Y-141307820D01*
X152355047Y-141307820D01*
X152355051Y-141307816D01*
X152451557Y-141118412D01*
X152517246Y-140916243D01*
X152550500Y-140706287D01*
X152550500Y-140493713D01*
X152517246Y-140283757D01*
X152451557Y-140081588D01*
X152355051Y-139892184D01*
X152355049Y-139892181D01*
X152355048Y-139892179D01*
X152230109Y-139720213D01*
X152079786Y-139569890D01*
X151907820Y-139444951D01*
X151718414Y-139348444D01*
X151718413Y-139348443D01*
X151718412Y-139348443D01*
X151516243Y-139282754D01*
X151516241Y-139282753D01*
X151516240Y-139282753D01*
X151354957Y-139257208D01*
X151306287Y-139249500D01*
X151093713Y-139249500D01*
X151045042Y-139257208D01*
X150883760Y-139282753D01*
X150681585Y-139348444D01*
X150492179Y-139444951D01*
X150320213Y-139569890D01*
X150169890Y-139720213D01*
X150044951Y-139892179D01*
X149948444Y-140081585D01*
X149882753Y-140283760D01*
X149849500Y-140493713D01*
X146555521Y-140493713D01*
X147262416Y-139786819D01*
X147323739Y-139753334D01*
X147350097Y-139750500D01*
X147616138Y-139750500D01*
X147616144Y-139750500D01*
X147700590Y-139740359D01*
X147834975Y-139687364D01*
X147950078Y-139600078D01*
X148037364Y-139484975D01*
X148090359Y-139350590D01*
X148100500Y-139266144D01*
X148100500Y-138733856D01*
X148090359Y-138649410D01*
X148037364Y-138515025D01*
X148037363Y-138515024D01*
X148037363Y-138515023D01*
X147950078Y-138399921D01*
X147834976Y-138312636D01*
X147700588Y-138259640D01*
X147657242Y-138254435D01*
X147616144Y-138249500D01*
X146783856Y-138249500D01*
X146745841Y-138254065D01*
X146699411Y-138259640D01*
X146565023Y-138312636D01*
X146449921Y-138399921D01*
X146362636Y-138515023D01*
X146309640Y-138649411D01*
X146304065Y-138695841D01*
X146299500Y-138733856D01*
X146299500Y-138733862D01*
X146299500Y-138999903D01*
X146279815Y-139066942D01*
X146263181Y-139087584D01*
X144887584Y-140463181D01*
X144826261Y-140496666D01*
X144799903Y-140499500D01*
X144629602Y-140499500D01*
X144562563Y-140479815D01*
X144519117Y-140431795D01*
X144512284Y-140418385D01*
X144391971Y-140252786D01*
X144247213Y-140108028D01*
X144081613Y-139987715D01*
X144081612Y-139987714D01*
X144081610Y-139987713D01*
X144024653Y-139958691D01*
X143899223Y-139894781D01*
X143704534Y-139831522D01*
X143529995Y-139803878D01*
X143502352Y-139799500D01*
X143297648Y-139799500D01*
X143273329Y-139803351D01*
X143095465Y-139831522D01*
X142900776Y-139894781D01*
X142718386Y-139987715D01*
X142552786Y-140108028D01*
X142408028Y-140252786D01*
X142287715Y-140418386D01*
X142194781Y-140600776D01*
X142131522Y-140795465D01*
X142099500Y-140997648D01*
X129000000Y-140997648D01*
X129000000Y-132555131D01*
X142099500Y-132555131D01*
X142099500Y-134644856D01*
X142099502Y-134644882D01*
X142102413Y-134669987D01*
X142102415Y-134669991D01*
X142147793Y-134772764D01*
X142147794Y-134772765D01*
X142227235Y-134852206D01*
X142330009Y-134897585D01*
X142355135Y-134900500D01*
X143870612Y-134900499D01*
X143937651Y-134920184D01*
X143958293Y-134936818D01*
X145161985Y-136140510D01*
X145287515Y-136212984D01*
X145427525Y-136250500D01*
X146350737Y-136250500D01*
X146417776Y-136270185D01*
X146443772Y-136294238D01*
X146443928Y-136294083D01*
X146447919Y-136298074D01*
X146449539Y-136299573D01*
X146449922Y-136300078D01*
X146449926Y-136300081D01*
X146565023Y-136387363D01*
X146565024Y-136387363D01*
X146565025Y-136387364D01*
X146699410Y-136440359D01*
X146783856Y-136450500D01*
X146783862Y-136450500D01*
X147616138Y-136450500D01*
X147616144Y-136450500D01*
X147700590Y-136440359D01*
X147834975Y-136387364D01*
X147950078Y-136300078D01*
X147950459Y-136299574D01*
X147950923Y-136299232D01*
X147956072Y-136294083D01*
X147956845Y-136294856D01*
X148006650Y-136258052D01*
X148049263Y-136250500D01*
X151000471Y-136250500D01*
X151067510Y-136270185D01*
X151100241Y-136300867D01*
X151152848Y-136372148D01*
X151152849Y-136372148D01*
X151152850Y-136372150D01*
X151262118Y-136452793D01*
X151304845Y-136467744D01*
X151390299Y-136497646D01*
X151420730Y-136500500D01*
X151420734Y-136500500D01*
X152704270Y-136500500D01*
X152734699Y-136497646D01*
X152736984Y-136496847D01*
X152738779Y-136496755D01*
X152742073Y-136496036D01*
X152742192Y-136496580D01*
X152806763Y-136493283D01*
X152867391Y-136528010D01*
X152899620Y-136590003D01*
X152901401Y-136625462D01*
X152899500Y-136645738D01*
X152899500Y-137054269D01*
X152902353Y-137084699D01*
X152902353Y-137084701D01*
X152931269Y-137167335D01*
X152947207Y-137212882D01*
X153027850Y-137322150D01*
X153137118Y-137402793D01*
X153179845Y-137417744D01*
X153265299Y-137447646D01*
X153295730Y-137450500D01*
X153295734Y-137450500D01*
X154579270Y-137450500D01*
X154609699Y-137447646D01*
X154609701Y-137447646D01*
X154673790Y-137425219D01*
X154737882Y-137402793D01*
X154745861Y-137396904D01*
X154843655Y-137324730D01*
X154909284Y-137300759D01*
X154917288Y-137300500D01*
X155040691Y-137300500D01*
X155054523Y-137300500D01*
X155074034Y-137302044D01*
X155087685Y-137304220D01*
X155116994Y-137301167D01*
X155129841Y-137300500D01*
X155159307Y-137300500D01*
X155159309Y-137300500D01*
X155172667Y-137296920D01*
X155191906Y-137293363D01*
X155573759Y-137253587D01*
X155642477Y-137266220D01*
X155660917Y-137277653D01*
X155782668Y-137368795D01*
X155782671Y-137368797D01*
X155827618Y-137385561D01*
X155917517Y-137419091D01*
X155977127Y-137425500D01*
X156622872Y-137425499D01*
X156682483Y-137419091D01*
X156817331Y-137368796D01*
X156932546Y-137282546D01*
X157018796Y-137167331D01*
X157069091Y-137032483D01*
X157075500Y-136972873D01*
X157075499Y-136477128D01*
X157069091Y-136417517D01*
X157057844Y-136387363D01*
X157018797Y-136282671D01*
X157018793Y-136282664D01*
X156932547Y-136167455D01*
X156865003Y-136116891D01*
X156823133Y-136060957D01*
X156818149Y-135991265D01*
X156851635Y-135929943D01*
X156875166Y-135911508D01*
X157009874Y-135830074D01*
X157009878Y-135830071D01*
X157130072Y-135709877D01*
X157218019Y-135564395D01*
X157268590Y-135402106D01*
X157275000Y-135331572D01*
X157275000Y-135325000D01*
X155674500Y-135325000D01*
X155607461Y-135305315D01*
X155561706Y-135252511D01*
X155550500Y-135201000D01*
X155550500Y-134949000D01*
X155570185Y-134881961D01*
X155622989Y-134836206D01*
X155674500Y-134825000D01*
X156050000Y-134825000D01*
X156550000Y-134825000D01*
X157274999Y-134825000D01*
X157274999Y-134818417D01*
X157268591Y-134747897D01*
X157268590Y-134747892D01*
X157218018Y-134585603D01*
X157130072Y-134440122D01*
X157009877Y-134319927D01*
X156864395Y-134231980D01*
X156864396Y-134231980D01*
X156702105Y-134181409D01*
X156702106Y-134181409D01*
X156631572Y-134175000D01*
X156550000Y-134175000D01*
X156550000Y-134825000D01*
X156050000Y-134825000D01*
X156050000Y-134175000D01*
X156049999Y-134174999D01*
X155968417Y-134175000D01*
X155897897Y-134181408D01*
X155897892Y-134181409D01*
X155735601Y-134231981D01*
X155728762Y-134235060D01*
X155727832Y-134232995D01*
X155671089Y-134247975D01*
X155604616Y-134226454D01*
X155560331Y-134172411D01*
X155550500Y-134124022D01*
X155550500Y-133540693D01*
X155550500Y-133540691D01*
X155519799Y-133426114D01*
X155460489Y-133323387D01*
X155376613Y-133239511D01*
X155273886Y-133180201D01*
X155159309Y-133149500D01*
X155159306Y-133149500D01*
X153991518Y-133149500D01*
X153924479Y-133129815D01*
X153903841Y-133113185D01*
X153846542Y-133055886D01*
X153846541Y-133055885D01*
X153846540Y-133055884D01*
X153731817Y-132979228D01*
X153731804Y-132979221D01*
X153604332Y-132926421D01*
X153604322Y-132926418D01*
X153468995Y-132899500D01*
X153468993Y-132899500D01*
X153331007Y-132899500D01*
X153331005Y-132899500D01*
X153195677Y-132926418D01*
X153189845Y-132928188D01*
X153189440Y-132926853D01*
X153126969Y-132933562D01*
X153064493Y-132902280D01*
X153028848Y-132842186D01*
X153025000Y-132811535D01*
X153025000Y-132800000D01*
X152050000Y-132800000D01*
X152050000Y-133549999D01*
X152324972Y-133549999D01*
X152324986Y-133549998D01*
X152427697Y-133539505D01*
X152536496Y-133503453D01*
X152606324Y-133501051D01*
X152666366Y-133536783D01*
X152697559Y-133599303D01*
X152699500Y-133621159D01*
X152699500Y-133668993D01*
X152699500Y-133668995D01*
X152699499Y-133668995D01*
X152726418Y-133804322D01*
X152726421Y-133804332D01*
X152779221Y-133931804D01*
X152779228Y-133931817D01*
X152855885Y-134046541D01*
X152855888Y-134046545D01*
X152932370Y-134123027D01*
X152965855Y-134184350D01*
X152960871Y-134254042D01*
X152932371Y-134298389D01*
X152832318Y-134398442D01*
X152832314Y-134398447D01*
X152748718Y-134539801D01*
X152702899Y-134697513D01*
X152702704Y-134699998D01*
X152702705Y-134700000D01*
X154525500Y-134700000D01*
X154592539Y-134719685D01*
X154638294Y-134772489D01*
X154649500Y-134824000D01*
X154649500Y-135076000D01*
X154629815Y-135143039D01*
X154577011Y-135188794D01*
X154525500Y-135200000D01*
X154187500Y-135200000D01*
X154187500Y-135750000D01*
X154525500Y-135750000D01*
X154592539Y-135769685D01*
X154638294Y-135822489D01*
X154649500Y-135874000D01*
X154649500Y-136125500D01*
X154629815Y-136192539D01*
X154577011Y-136238294D01*
X154525500Y-136249500D01*
X153295730Y-136249500D01*
X153265300Y-136252353D01*
X153265298Y-136252354D01*
X153263000Y-136253158D01*
X153261196Y-136253249D01*
X153257927Y-136253964D01*
X153257808Y-136253422D01*
X153193221Y-136256712D01*
X153132597Y-136221978D01*
X153100376Y-136159981D01*
X153098599Y-136124534D01*
X153100500Y-136104266D01*
X153100500Y-135868948D01*
X153120185Y-135801909D01*
X153172989Y-135756154D01*
X153242147Y-135746210D01*
X153246797Y-135746969D01*
X153247518Y-135747100D01*
X153284350Y-135749999D01*
X153284366Y-135750000D01*
X153687500Y-135750000D01*
X153687500Y-135200000D01*
X152702705Y-135200000D01*
X152689912Y-135213838D01*
X152685645Y-135234152D01*
X152636591Y-135283907D01*
X152576393Y-135299500D01*
X152289387Y-135299500D01*
X152222348Y-135279815D01*
X152201706Y-135263181D01*
X152198016Y-135259491D01*
X152198015Y-135259490D01*
X152072485Y-135187016D01*
X152072486Y-135187016D01*
X152037482Y-135177637D01*
X151932475Y-135149500D01*
X151932472Y-135149500D01*
X148049263Y-135149500D01*
X147982224Y-135129815D01*
X147956227Y-135105761D01*
X147956072Y-135105917D01*
X147952080Y-135101925D01*
X147950460Y-135100426D01*
X147950078Y-135099922D01*
X147950073Y-135099918D01*
X147834976Y-135012636D01*
X147700588Y-134959640D01*
X147657242Y-134954435D01*
X147616144Y-134949500D01*
X146783856Y-134949500D01*
X146745841Y-134954065D01*
X146699411Y-134959640D01*
X146565023Y-135012636D01*
X146449926Y-135099918D01*
X146449923Y-135099921D01*
X146449922Y-135099922D01*
X146449540Y-135100425D01*
X146449076Y-135100767D01*
X146443928Y-135105917D01*
X146443154Y-135105143D01*
X146393350Y-135141948D01*
X146350737Y-135149500D01*
X145779387Y-135149500D01*
X145712348Y-135129815D01*
X145691706Y-135113181D01*
X144736818Y-134158293D01*
X144703333Y-134096970D01*
X144700499Y-134070612D01*
X144700499Y-132849986D01*
X150575001Y-132849986D01*
X150585494Y-132952697D01*
X150640641Y-133119119D01*
X150640643Y-133119124D01*
X150732684Y-133268345D01*
X150856654Y-133392315D01*
X151005875Y-133484356D01*
X151005880Y-133484358D01*
X151172302Y-133539505D01*
X151172309Y-133539506D01*
X151275019Y-133549999D01*
X151549999Y-133549999D01*
X151550000Y-133549998D01*
X151550000Y-132800000D01*
X150575001Y-132800000D01*
X150575001Y-132849986D01*
X144700499Y-132849986D01*
X144700499Y-132555143D01*
X144700499Y-132555136D01*
X144700497Y-132555117D01*
X144697586Y-132530012D01*
X144697585Y-132530010D01*
X144697585Y-132530009D01*
X144652206Y-132427235D01*
X144572765Y-132347794D01*
X144496623Y-132314174D01*
X144469992Y-132302415D01*
X144444865Y-132299500D01*
X142355143Y-132299500D01*
X142355117Y-132299502D01*
X142330012Y-132302413D01*
X142330008Y-132302415D01*
X142227235Y-132347793D01*
X142147794Y-132427234D01*
X142102415Y-132530006D01*
X142102415Y-132530008D01*
X142099500Y-132555131D01*
X129000000Y-132555131D01*
X129000000Y-127500000D01*
X128880000Y-127200000D01*
X128542052Y-126355131D01*
X131089500Y-126355131D01*
X131089500Y-128044856D01*
X131089502Y-128044882D01*
X131092413Y-128069987D01*
X131092415Y-128069991D01*
X131137793Y-128172764D01*
X131137794Y-128172765D01*
X131217235Y-128252206D01*
X131320009Y-128297585D01*
X131345135Y-128300500D01*
X133034864Y-128300499D01*
X133034879Y-128300497D01*
X133034882Y-128300497D01*
X133059987Y-128297586D01*
X133059988Y-128297585D01*
X133059991Y-128297585D01*
X133162765Y-128252206D01*
X133242206Y-128172765D01*
X133287585Y-128069991D01*
X133290500Y-128044865D01*
X133290499Y-127833318D01*
X133310183Y-127766281D01*
X133362987Y-127720526D01*
X133432145Y-127710582D01*
X133495701Y-127739607D01*
X133524983Y-127777024D01*
X133578138Y-127881345D01*
X133578147Y-127881359D01*
X133610523Y-127925921D01*
X133610524Y-127925922D01*
X134290000Y-127246446D01*
X134290000Y-127252661D01*
X134317259Y-127354394D01*
X134369920Y-127445606D01*
X134444394Y-127520080D01*
X134535606Y-127572741D01*
X134637339Y-127600000D01*
X134643553Y-127600000D01*
X133964076Y-128279474D01*
X134008650Y-128311859D01*
X134190968Y-128404755D01*
X134385582Y-128467990D01*
X134587683Y-128500000D01*
X134792317Y-128500000D01*
X134994417Y-128467990D01*
X135189031Y-128404755D01*
X135371349Y-128311859D01*
X135415921Y-128279474D01*
X134736447Y-127600000D01*
X134742661Y-127600000D01*
X134844394Y-127572741D01*
X134935606Y-127520080D01*
X135010080Y-127445606D01*
X135062741Y-127354394D01*
X135090000Y-127252661D01*
X135090000Y-127246447D01*
X135769474Y-127925921D01*
X135801861Y-127881347D01*
X135801861Y-127881346D01*
X135823430Y-127839015D01*
X135871403Y-127788219D01*
X135939224Y-127771423D01*
X136005359Y-127793960D01*
X136041301Y-127833307D01*
X136061455Y-127868213D01*
X136061456Y-127868216D01*
X136119475Y-127968709D01*
X136119479Y-127968714D01*
X136119480Y-127968716D01*
X136231284Y-128080520D01*
X136231285Y-128080521D01*
X136731284Y-128580520D01*
X136731286Y-128580521D01*
X136731290Y-128580524D01*
X136798765Y-128619480D01*
X136868216Y-128659577D01*
X137020943Y-128700501D01*
X137020945Y-128700501D01*
X137186654Y-128700501D01*
X137186670Y-128700500D01*
X137463163Y-128700500D01*
X137508651Y-128709145D01*
X137519833Y-128713554D01*
X137524410Y-128715359D01*
X137608856Y-128725500D01*
X137608862Y-128725500D01*
X138191138Y-128725500D01*
X138191144Y-128725500D01*
X138275590Y-128715359D01*
X138284096Y-128712004D01*
X138291349Y-128709145D01*
X138336837Y-128700500D01*
X139602047Y-128700500D01*
X139669086Y-128720185D01*
X139708164Y-128760351D01*
X139789348Y-128894648D01*
X139789351Y-128894652D01*
X139905347Y-129010648D01*
X139905351Y-129010651D01*
X140045727Y-129095511D01*
X140045730Y-129095512D01*
X140202343Y-129144315D01*
X140270406Y-129150500D01*
X141099902Y-129150500D01*
X141166941Y-129170185D01*
X141187583Y-129186819D01*
X141581284Y-129580520D01*
X141581286Y-129580521D01*
X141581290Y-129580524D01*
X141718209Y-129659573D01*
X141718216Y-129659577D01*
X141870943Y-129700501D01*
X141870945Y-129700501D01*
X142036654Y-129700501D01*
X142036670Y-129700500D01*
X145099903Y-129700500D01*
X145166942Y-129720185D01*
X145187584Y-129736819D01*
X145615139Y-130164374D01*
X145615149Y-130164385D01*
X145619479Y-130168715D01*
X145619480Y-130168716D01*
X145731284Y-130280520D01*
X145731285Y-130280520D01*
X145738352Y-130287587D01*
X145738351Y-130287587D01*
X145738355Y-130287590D01*
X145792702Y-130341937D01*
X145823735Y-130398770D01*
X145824650Y-130398493D01*
X145825982Y-130402886D01*
X145826187Y-130403260D01*
X145826386Y-130404214D01*
X145826420Y-130404329D01*
X145879221Y-130531803D01*
X145879228Y-130531816D01*
X145955885Y-130646540D01*
X145955888Y-130646544D01*
X146053454Y-130744110D01*
X146053458Y-130744113D01*
X146168182Y-130820770D01*
X146168195Y-130820777D01*
X146295667Y-130873577D01*
X146295672Y-130873579D01*
X146295676Y-130873579D01*
X146295677Y-130873580D01*
X146431004Y-130900499D01*
X146431007Y-130900499D01*
X146568995Y-130900499D01*
X146660041Y-130882388D01*
X146704328Y-130873579D01*
X146831811Y-130820774D01*
X146946542Y-130744113D01*
X147044114Y-130646541D01*
X147120775Y-130531810D01*
X147133619Y-130500801D01*
X147143459Y-130477047D01*
X147187300Y-130422644D01*
X147253595Y-130400579D01*
X147258020Y-130400500D01*
X150650500Y-130400500D01*
X150717539Y-130420185D01*
X150763294Y-130472989D01*
X150774500Y-130524500D01*
X150774500Y-130943102D01*
X150780126Y-130989954D01*
X150785122Y-131031561D01*
X150785122Y-131031563D01*
X150785123Y-131031564D01*
X150787031Y-131036403D01*
X150840639Y-131172343D01*
X150932077Y-131292922D01*
X151059416Y-131389486D01*
X151058028Y-131391315D01*
X151098315Y-131432618D01*
X151112316Y-131501071D01*
X151087087Y-131566226D01*
X151030636Y-131607398D01*
X151027759Y-131608391D01*
X151005882Y-131615640D01*
X151005875Y-131615643D01*
X150856654Y-131707684D01*
X150732684Y-131831654D01*
X150640643Y-131980875D01*
X150640641Y-131980880D01*
X150585494Y-132147302D01*
X150585493Y-132147309D01*
X150575000Y-132250013D01*
X150575000Y-132300000D01*
X153024999Y-132300000D01*
X153024999Y-132250028D01*
X153024998Y-132250013D01*
X153014505Y-132147302D01*
X152959358Y-131980880D01*
X152959356Y-131980875D01*
X152867315Y-131831654D01*
X152743345Y-131707684D01*
X152594124Y-131615643D01*
X152594121Y-131615642D01*
X152572241Y-131608392D01*
X152514797Y-131568619D01*
X152487974Y-131504103D01*
X152500289Y-131435327D01*
X152541605Y-131390832D01*
X152540584Y-131389486D01*
X152667922Y-131292922D01*
X152705875Y-131242874D01*
X152759361Y-131172342D01*
X152814877Y-131031564D01*
X152825500Y-130943102D01*
X152825500Y-130356898D01*
X152814877Y-130268436D01*
X152759361Y-130127658D01*
X152759360Y-130127657D01*
X152759360Y-130127656D01*
X152667922Y-130007077D01*
X152547341Y-129915638D01*
X152479009Y-129888691D01*
X152423866Y-129845785D01*
X152400673Y-129779877D01*
X152400500Y-129773337D01*
X152400500Y-129720945D01*
X152400500Y-129720943D01*
X152359577Y-129568216D01*
X152359573Y-129568209D01*
X152280524Y-129431290D01*
X152280518Y-129431282D01*
X152168717Y-129319481D01*
X152168709Y-129319475D01*
X152031790Y-129240426D01*
X152031786Y-129240424D01*
X152031784Y-129240423D01*
X151879057Y-129199500D01*
X151879056Y-129199500D01*
X146400097Y-129199500D01*
X146333058Y-129179815D01*
X146312416Y-129163181D01*
X145887590Y-128738355D01*
X145887588Y-128738352D01*
X145768717Y-128619481D01*
X145768716Y-128619480D01*
X145681904Y-128569360D01*
X145681904Y-128569359D01*
X145681900Y-128569358D01*
X145631785Y-128540423D01*
X145479057Y-128499499D01*
X145320943Y-128499499D01*
X145313347Y-128499499D01*
X145313331Y-128499500D01*
X142374500Y-128499500D01*
X142307461Y-128479815D01*
X142261706Y-128427011D01*
X142250500Y-128375500D01*
X142250500Y-128181582D01*
X154325001Y-128181582D01*
X154331408Y-128252102D01*
X154331409Y-128252107D01*
X154381981Y-128414396D01*
X154469927Y-128559877D01*
X154590122Y-128680072D01*
X154735604Y-128768019D01*
X154735603Y-128768019D01*
X154897894Y-128818590D01*
X154897892Y-128818590D01*
X154968418Y-128824999D01*
X155550000Y-128824999D01*
X155631581Y-128824999D01*
X155702102Y-128818591D01*
X155702107Y-128818590D01*
X155864396Y-128768018D01*
X156009877Y-128680072D01*
X156130072Y-128559877D01*
X156218019Y-128414395D01*
X156268590Y-128252106D01*
X156275000Y-128181572D01*
X156275000Y-128175000D01*
X155550000Y-128175000D01*
X155550000Y-128824999D01*
X154968418Y-128824999D01*
X155049999Y-128824998D01*
X155050000Y-128824998D01*
X155050000Y-128175000D01*
X154325001Y-128175000D01*
X154325001Y-128181582D01*
X142250500Y-128181582D01*
X142250500Y-127670408D01*
X142250319Y-127668417D01*
X142244315Y-127602343D01*
X142195512Y-127445730D01*
X142195511Y-127445727D01*
X142110651Y-127305351D01*
X142110648Y-127305347D01*
X141994652Y-127189351D01*
X141994648Y-127189348D01*
X141854272Y-127104488D01*
X141854264Y-127104485D01*
X141738413Y-127068385D01*
X141680265Y-127029648D01*
X141652291Y-126965623D01*
X141663373Y-126896637D01*
X141709991Y-126844594D01*
X141738413Y-126831615D01*
X141854264Y-126795514D01*
X141854266Y-126795513D01*
X141854270Y-126795512D01*
X141994653Y-126710648D01*
X142110648Y-126594653D01*
X142178790Y-126481932D01*
X142191836Y-126460351D01*
X142243363Y-126413163D01*
X142297953Y-126400500D01*
X145825500Y-126400500D01*
X145892539Y-126420185D01*
X145938294Y-126472989D01*
X145949500Y-126524500D01*
X145949500Y-127244960D01*
X145964630Y-127379249D01*
X145964631Y-127379254D01*
X146024211Y-127549523D01*
X146100169Y-127670408D01*
X146120184Y-127702262D01*
X146247738Y-127829816D01*
X146400478Y-127925789D01*
X146523159Y-127968717D01*
X146570745Y-127985368D01*
X146570750Y-127985369D01*
X146661246Y-127995565D01*
X146705040Y-128000499D01*
X146705043Y-128000500D01*
X146705046Y-128000500D01*
X147794957Y-128000500D01*
X147794957Y-128000499D01*
X147795426Y-128000446D01*
X147795685Y-128000418D01*
X147795685Y-128000417D01*
X147878214Y-127991118D01*
X147929249Y-127985369D01*
X147929252Y-127985368D01*
X147929255Y-127985368D01*
X148099522Y-127925789D01*
X148252262Y-127829816D01*
X148379816Y-127702262D01*
X148475789Y-127549522D01*
X148535368Y-127379255D01*
X148535791Y-127375500D01*
X148543102Y-127310617D01*
X148570168Y-127246203D01*
X148627763Y-127206648D01*
X148666322Y-127200500D01*
X149450811Y-127200500D01*
X149517850Y-127220185D01*
X149525736Y-127225696D01*
X149640023Y-127312363D01*
X149640024Y-127312363D01*
X149640025Y-127312364D01*
X149774410Y-127365359D01*
X149858856Y-127375500D01*
X149858862Y-127375500D01*
X150391138Y-127375500D01*
X150391144Y-127375500D01*
X150475590Y-127365359D01*
X150609975Y-127312364D01*
X150687457Y-127253607D01*
X150752763Y-127228785D01*
X150821127Y-127243212D01*
X150867917Y-127287314D01*
X150877426Y-127302731D01*
X150997267Y-127422572D01*
X150997271Y-127422575D01*
X151141507Y-127511542D01*
X151141518Y-127511547D01*
X151302393Y-127564855D01*
X151401683Y-127574999D01*
X151925000Y-127574999D01*
X151948308Y-127574999D01*
X151948322Y-127574998D01*
X152047607Y-127564855D01*
X152208481Y-127511547D01*
X152208492Y-127511542D01*
X152352728Y-127422575D01*
X152352732Y-127422572D01*
X152472572Y-127302732D01*
X152472575Y-127302728D01*
X152561542Y-127158492D01*
X152561547Y-127158481D01*
X152614855Y-126997606D01*
X152624999Y-126898322D01*
X152625000Y-126898309D01*
X152625000Y-126850000D01*
X151925000Y-126850000D01*
X151925000Y-127574999D01*
X151401683Y-127574999D01*
X151425000Y-127574998D01*
X151425000Y-126350000D01*
X151925000Y-126350000D01*
X152624999Y-126350000D01*
X152624999Y-126301692D01*
X152624998Y-126301677D01*
X152614855Y-126202392D01*
X152561547Y-126041518D01*
X152561542Y-126041507D01*
X152472575Y-125897271D01*
X152472572Y-125897267D01*
X152352732Y-125777427D01*
X152352728Y-125777424D01*
X152208492Y-125688457D01*
X152208481Y-125688452D01*
X152047606Y-125635144D01*
X151948322Y-125625000D01*
X151925000Y-125625000D01*
X151925000Y-126350000D01*
X151425000Y-126350000D01*
X151425000Y-125624999D01*
X151401693Y-125625000D01*
X151401674Y-125625001D01*
X151302392Y-125635144D01*
X151141518Y-125688452D01*
X151141507Y-125688457D01*
X150997271Y-125777424D01*
X150997267Y-125777427D01*
X150877427Y-125897267D01*
X150877422Y-125897273D01*
X150867914Y-125912688D01*
X150815964Y-125959410D01*
X150747001Y-125970629D01*
X150687454Y-125946390D01*
X150609976Y-125887636D01*
X150475588Y-125834640D01*
X150432242Y-125829435D01*
X150391144Y-125824500D01*
X149858856Y-125824500D01*
X149820841Y-125829065D01*
X149774411Y-125834640D01*
X149640023Y-125887636D01*
X149525736Y-125974304D01*
X149460425Y-125999127D01*
X149450811Y-125999500D01*
X148674500Y-125999500D01*
X148607461Y-125979815D01*
X148561706Y-125927011D01*
X148550500Y-125875500D01*
X148550500Y-124724500D01*
X148570185Y-124657461D01*
X148622989Y-124611706D01*
X148674500Y-124600500D01*
X149073338Y-124600500D01*
X149140377Y-124620185D01*
X149186132Y-124672989D01*
X149188693Y-124679011D01*
X149215638Y-124747342D01*
X149307077Y-124867922D01*
X149427656Y-124959360D01*
X149427657Y-124959360D01*
X149427658Y-124959361D01*
X149568436Y-125014877D01*
X149656898Y-125025500D01*
X149656903Y-125025500D01*
X150243097Y-125025500D01*
X150243102Y-125025500D01*
X150331564Y-125014877D01*
X150472342Y-124959361D01*
X150592922Y-124867922D01*
X150648892Y-124794115D01*
X150689486Y-124740584D01*
X150691317Y-124741972D01*
X150732607Y-124701689D01*
X150801058Y-124687682D01*
X150866216Y-124712905D01*
X150907394Y-124769351D01*
X150908391Y-124772241D01*
X150915640Y-124794115D01*
X150915643Y-124794124D01*
X151007684Y-124943345D01*
X151131654Y-125067315D01*
X151280875Y-125159356D01*
X151280880Y-125159358D01*
X151447302Y-125214505D01*
X151447309Y-125214506D01*
X151550019Y-125224999D01*
X152100000Y-125224999D01*
X152149972Y-125224999D01*
X152149986Y-125224998D01*
X152252697Y-125214505D01*
X152419119Y-125159358D01*
X152419124Y-125159356D01*
X152568345Y-125067315D01*
X152692315Y-124943345D01*
X152784356Y-124794124D01*
X152784358Y-124794119D01*
X152839505Y-124627697D01*
X152839506Y-124627690D01*
X152849999Y-124524986D01*
X152850000Y-124524973D01*
X152850000Y-124250000D01*
X152100000Y-124250000D01*
X152100000Y-125224999D01*
X151550019Y-125224999D01*
X151599999Y-125224998D01*
X151600000Y-125224998D01*
X151600000Y-124124000D01*
X151619685Y-124056961D01*
X151672489Y-124011206D01*
X151724000Y-124000000D01*
X151850000Y-124000000D01*
X151850000Y-123874000D01*
X151869685Y-123806961D01*
X151922489Y-123761206D01*
X151974000Y-123750000D01*
X152849999Y-123750000D01*
X152849999Y-123475028D01*
X152849998Y-123475013D01*
X152839505Y-123372302D01*
X152782086Y-123199023D01*
X152784072Y-123198364D01*
X152775138Y-123139518D01*
X152803662Y-123075736D01*
X152862141Y-123037500D01*
X152932008Y-123036951D01*
X152966901Y-123053096D01*
X153068189Y-123120775D01*
X153068191Y-123120776D01*
X153068195Y-123120778D01*
X153195667Y-123173578D01*
X153195672Y-123173580D01*
X153195676Y-123173580D01*
X153195677Y-123173581D01*
X153331004Y-123200500D01*
X153331007Y-123200500D01*
X153468995Y-123200500D01*
X153560041Y-123182389D01*
X153604328Y-123173580D01*
X153713613Y-123128313D01*
X153731804Y-123120778D01*
X153731804Y-123120777D01*
X153731811Y-123120775D01*
X153846542Y-123044114D01*
X153944114Y-122946542D01*
X154020775Y-122831811D01*
X154029990Y-122809563D01*
X154073829Y-122755161D01*
X154140123Y-122733095D01*
X154207822Y-122750373D01*
X154232232Y-122769335D01*
X154488181Y-123025284D01*
X154521666Y-123086607D01*
X154524500Y-123112965D01*
X154524500Y-123471902D01*
X154534520Y-123555343D01*
X154534520Y-123555344D01*
X154586886Y-123688134D01*
X154673132Y-123801867D01*
X154786868Y-123888115D01*
X154793624Y-123891914D01*
X154842412Y-123941928D01*
X154856416Y-124010380D01*
X154831188Y-124075537D01*
X154793624Y-124108086D01*
X154786868Y-124111884D01*
X154673132Y-124198132D01*
X154586886Y-124311865D01*
X154534520Y-124444655D01*
X154534520Y-124444656D01*
X154524500Y-124528097D01*
X154524500Y-125046902D01*
X154534520Y-125130343D01*
X154534520Y-125130344D01*
X154586886Y-125263134D01*
X154673132Y-125376867D01*
X154765190Y-125446676D01*
X154806713Y-125502868D01*
X154811265Y-125572589D01*
X154777400Y-125633704D01*
X154764577Y-125644746D01*
X154667452Y-125717455D01*
X154581206Y-125832664D01*
X154581202Y-125832671D01*
X154530910Y-125967513D01*
X154530909Y-125967517D01*
X154524500Y-126027127D01*
X154524500Y-126027134D01*
X154524500Y-126027135D01*
X154524500Y-126522870D01*
X154524501Y-126522876D01*
X154530908Y-126582483D01*
X154581202Y-126717328D01*
X154581206Y-126717335D01*
X154667452Y-126832544D01*
X154667455Y-126832547D01*
X154734995Y-126883108D01*
X154776866Y-126939042D01*
X154781850Y-127008733D01*
X154748364Y-127070056D01*
X154724834Y-127088491D01*
X154590122Y-127169927D01*
X154469927Y-127290122D01*
X154381980Y-127435604D01*
X154331409Y-127597893D01*
X154325000Y-127668427D01*
X154325000Y-127675000D01*
X156274999Y-127675000D01*
X156274999Y-127668417D01*
X156268591Y-127597897D01*
X156268590Y-127597892D01*
X156237413Y-127497844D01*
X157000000Y-127497844D01*
X157006401Y-127557372D01*
X157006403Y-127557379D01*
X157056645Y-127692086D01*
X157056649Y-127692093D01*
X157142809Y-127807187D01*
X157142812Y-127807190D01*
X157257906Y-127893350D01*
X157257913Y-127893354D01*
X157392620Y-127943596D01*
X157392627Y-127943598D01*
X157452155Y-127949999D01*
X157452172Y-127950000D01*
X157750000Y-127950000D01*
X158250000Y-127950000D01*
X158547828Y-127950000D01*
X158547844Y-127949999D01*
X158607372Y-127943598D01*
X158607379Y-127943596D01*
X158742086Y-127893354D01*
X158742093Y-127893350D01*
X158857187Y-127807190D01*
X158857190Y-127807187D01*
X158943350Y-127692093D01*
X158943354Y-127692086D01*
X158993596Y-127557379D01*
X158993598Y-127557372D01*
X158999999Y-127497844D01*
X159000000Y-127497827D01*
X159000000Y-127325000D01*
X158250000Y-127325000D01*
X158250000Y-127950000D01*
X157750000Y-127950000D01*
X157750000Y-127325000D01*
X157000000Y-127325000D01*
X157000000Y-127497844D01*
X156237413Y-127497844D01*
X156218018Y-127435603D01*
X156158887Y-127337788D01*
X156130072Y-127290122D01*
X156009877Y-127169927D01*
X155875165Y-127088491D01*
X155827978Y-127036963D01*
X155816139Y-126968104D01*
X155843408Y-126903775D01*
X155864999Y-126883111D01*
X155932546Y-126832546D01*
X156018796Y-126717331D01*
X156028778Y-126690567D01*
X156043105Y-126652155D01*
X157000000Y-126652155D01*
X157000000Y-126825000D01*
X157750000Y-126825000D01*
X158250000Y-126825000D01*
X159000000Y-126825000D01*
X159000000Y-126652172D01*
X158999999Y-126652155D01*
X158993598Y-126592627D01*
X158993596Y-126592620D01*
X158943354Y-126457913D01*
X158943350Y-126457906D01*
X158857190Y-126342812D01*
X158857187Y-126342809D01*
X158742093Y-126256649D01*
X158742086Y-126256645D01*
X158607379Y-126206403D01*
X158607372Y-126206401D01*
X158547844Y-126200000D01*
X158250000Y-126200000D01*
X158250000Y-126825000D01*
X157750000Y-126825000D01*
X157750000Y-126200000D01*
X157452155Y-126200000D01*
X157392627Y-126206401D01*
X157392620Y-126206403D01*
X157257913Y-126256645D01*
X157257906Y-126256649D01*
X157142812Y-126342809D01*
X157142809Y-126342812D01*
X157056649Y-126457906D01*
X157056645Y-126457913D01*
X157006403Y-126592620D01*
X157006401Y-126592627D01*
X157000000Y-126652155D01*
X156043105Y-126652155D01*
X156060500Y-126605518D01*
X156060500Y-126605517D01*
X156069089Y-126582488D01*
X156069088Y-126582488D01*
X156069091Y-126582483D01*
X156075500Y-126522873D01*
X156075499Y-126027128D01*
X156069091Y-125967517D01*
X156066067Y-125959410D01*
X156018797Y-125832671D01*
X156018793Y-125832664D01*
X155932547Y-125717455D01*
X155835422Y-125644746D01*
X155793552Y-125588812D01*
X155788568Y-125519120D01*
X155822054Y-125457797D01*
X155834810Y-125446676D01*
X155926866Y-125376868D01*
X155931765Y-125370408D01*
X156013115Y-125263132D01*
X156065479Y-125130346D01*
X156075500Y-125046902D01*
X156075500Y-124528098D01*
X156065479Y-124444654D01*
X156013115Y-124311868D01*
X156013113Y-124311865D01*
X155926867Y-124198132D01*
X155813134Y-124111886D01*
X155806378Y-124108088D01*
X155757589Y-124058075D01*
X155743583Y-123989624D01*
X155768808Y-123924466D01*
X155806378Y-123891912D01*
X155813126Y-123888117D01*
X155813132Y-123888115D01*
X155926867Y-123801867D01*
X156013115Y-123688132D01*
X156065479Y-123555346D01*
X156075500Y-123471902D01*
X156075500Y-122953098D01*
X156073224Y-122934150D01*
X156069740Y-122905135D01*
X156065479Y-122869654D01*
X156013115Y-122736868D01*
X156010254Y-122733095D01*
X155926867Y-122623132D01*
X155813134Y-122536886D01*
X155813132Y-122536885D01*
X155680346Y-122484521D01*
X155680345Y-122484520D01*
X155680343Y-122484520D01*
X155596902Y-122474500D01*
X155262965Y-122474500D01*
X155195926Y-122454815D01*
X155175284Y-122438181D01*
X154986819Y-122249715D01*
X154953334Y-122188392D01*
X154950500Y-122162034D01*
X154950500Y-120660693D01*
X154950500Y-120660691D01*
X154919799Y-120546114D01*
X154919799Y-120546113D01*
X154860489Y-120443386D01*
X154211818Y-119794715D01*
X154178333Y-119733392D01*
X154175499Y-119707034D01*
X154175499Y-119377129D01*
X154175498Y-119377123D01*
X154169091Y-119317516D01*
X154118797Y-119182671D01*
X154118793Y-119182664D01*
X154032547Y-119067455D01*
X154032544Y-119067452D01*
X153917334Y-118981205D01*
X153916216Y-118980595D01*
X153915314Y-118979693D01*
X153910231Y-118975888D01*
X153910777Y-118975157D01*
X153866809Y-118931192D01*
X153851955Y-118862919D01*
X153876369Y-118797454D01*
X153932301Y-118755581D01*
X153961352Y-118748586D01*
X153969991Y-118747585D01*
X154072765Y-118702206D01*
X154152206Y-118622765D01*
X154197585Y-118519991D01*
X154200500Y-118494865D01*
X154200499Y-115905136D01*
X154200497Y-115905117D01*
X154197586Y-115880012D01*
X154197585Y-115880010D01*
X154197585Y-115880009D01*
X154152206Y-115777235D01*
X154072765Y-115697794D01*
X154072763Y-115697793D01*
X153969992Y-115652415D01*
X153944865Y-115649500D01*
X152855143Y-115649500D01*
X152855117Y-115649502D01*
X152830012Y-115652413D01*
X152830008Y-115652415D01*
X152727235Y-115697793D01*
X152647794Y-115777234D01*
X152602415Y-115880006D01*
X152602415Y-115880008D01*
X152599500Y-115905131D01*
X152599500Y-118494856D01*
X152599502Y-118494882D01*
X152602413Y-118519987D01*
X152602415Y-118519991D01*
X152647793Y-118622764D01*
X152647794Y-118622765D01*
X152727235Y-118702206D01*
X152792226Y-118730902D01*
X152830006Y-118747584D01*
X152830009Y-118747585D01*
X152838647Y-118748587D01*
X152902972Y-118775865D01*
X152942338Y-118833590D01*
X152944246Y-118903433D01*
X152908091Y-118963221D01*
X152883792Y-118980590D01*
X152882668Y-118981203D01*
X152767455Y-119067452D01*
X152767452Y-119067455D01*
X152681206Y-119182664D01*
X152681202Y-119182671D01*
X152630910Y-119317513D01*
X152630909Y-119317517D01*
X152624500Y-119377127D01*
X152624500Y-119377134D01*
X152624500Y-119377135D01*
X152624500Y-119872870D01*
X152624501Y-119872876D01*
X152630908Y-119932483D01*
X152681202Y-120067328D01*
X152681206Y-120067335D01*
X152767452Y-120182544D01*
X152767455Y-120182547D01*
X152882664Y-120268793D01*
X152882671Y-120268797D01*
X152927618Y-120285561D01*
X153017517Y-120319091D01*
X153077127Y-120325500D01*
X153417034Y-120325499D01*
X153484073Y-120345183D01*
X153504715Y-120361818D01*
X153505716Y-120362819D01*
X153539201Y-120424142D01*
X153534217Y-120493834D01*
X153492345Y-120549767D01*
X153426881Y-120574184D01*
X153418035Y-120574500D01*
X153077130Y-120574500D01*
X153077123Y-120574501D01*
X153017516Y-120580908D01*
X152882671Y-120631202D01*
X152882664Y-120631206D01*
X152767455Y-120717452D01*
X152767452Y-120717455D01*
X152681206Y-120832664D01*
X152681202Y-120832671D01*
X152630910Y-120967513D01*
X152630909Y-120967517D01*
X152624500Y-121027127D01*
X152624500Y-121027134D01*
X152624500Y-121027135D01*
X152624500Y-121522870D01*
X152624501Y-121522876D01*
X152630908Y-121582483D01*
X152681202Y-121717328D01*
X152681206Y-121717335D01*
X152704316Y-121748205D01*
X152767454Y-121832546D01*
X152830738Y-121879920D01*
X152872608Y-121935853D01*
X152877592Y-122005545D01*
X152857495Y-122047207D01*
X152859270Y-122048393D01*
X152779228Y-122168182D01*
X152779221Y-122168195D01*
X152726421Y-122295667D01*
X152726418Y-122295677D01*
X152699500Y-122431004D01*
X152699500Y-122431007D01*
X152699500Y-122568993D01*
X152699500Y-122568995D01*
X152699499Y-122568995D01*
X152726418Y-122704322D01*
X152726421Y-122704332D01*
X152761670Y-122789431D01*
X152769139Y-122858900D01*
X152737863Y-122921379D01*
X152677774Y-122957031D01*
X152607949Y-122954537D01*
X152574494Y-122936470D01*
X152574491Y-122936475D01*
X152574404Y-122936421D01*
X152570198Y-122934150D01*
X152568341Y-122932681D01*
X152419124Y-122840643D01*
X152419119Y-122840641D01*
X152252697Y-122785494D01*
X152252690Y-122785493D01*
X152196931Y-122779796D01*
X152132239Y-122753399D01*
X152092089Y-122696217D01*
X152087918Y-122632246D01*
X152100500Y-122568995D01*
X152100500Y-122431004D01*
X152073581Y-122295677D01*
X152073580Y-122295676D01*
X152073580Y-122295672D01*
X152049500Y-122237537D01*
X152020778Y-122168195D01*
X152020771Y-122168182D01*
X151940730Y-122048393D01*
X151943033Y-122046853D01*
X151920398Y-121993463D01*
X151932233Y-121924603D01*
X151969261Y-121879920D01*
X152032546Y-121832546D01*
X152118796Y-121717331D01*
X152169091Y-121582483D01*
X152175500Y-121522873D01*
X152175499Y-121027128D01*
X152169091Y-120967517D01*
X152118796Y-120832669D01*
X152118795Y-120832668D01*
X152118793Y-120832664D01*
X152032547Y-120717455D01*
X152032544Y-120717452D01*
X151917335Y-120631206D01*
X151917328Y-120631202D01*
X151782486Y-120580910D01*
X151782485Y-120580909D01*
X151782483Y-120580909D01*
X151722873Y-120574500D01*
X151722863Y-120574500D01*
X151077129Y-120574500D01*
X151077123Y-120574501D01*
X151017516Y-120580908D01*
X150882671Y-120631202D01*
X150882664Y-120631206D01*
X150767455Y-120717452D01*
X150767452Y-120717455D01*
X150681206Y-120832664D01*
X150681202Y-120832671D01*
X150630910Y-120967513D01*
X150630909Y-120967517D01*
X150624500Y-121027127D01*
X150624500Y-121027134D01*
X150624500Y-121027135D01*
X150624500Y-121522870D01*
X150624501Y-121522876D01*
X150630908Y-121582483D01*
X150681202Y-121717328D01*
X150681206Y-121717335D01*
X150704316Y-121748205D01*
X150767454Y-121832546D01*
X150830738Y-121879920D01*
X150872608Y-121935853D01*
X150877592Y-122005545D01*
X150857495Y-122047207D01*
X150859270Y-122048393D01*
X150779228Y-122168182D01*
X150779221Y-122168195D01*
X150726421Y-122295667D01*
X150726418Y-122295677D01*
X150699500Y-122431004D01*
X150699500Y-122431007D01*
X150699500Y-122568993D01*
X150699500Y-122568995D01*
X150699499Y-122568995D01*
X150726418Y-122704322D01*
X150726421Y-122704332D01*
X150779221Y-122831804D01*
X150779228Y-122831817D01*
X150855885Y-122946541D01*
X150855888Y-122946545D01*
X150922451Y-123013108D01*
X150955936Y-123074431D01*
X150950952Y-123144123D01*
X150940309Y-123165885D01*
X150915646Y-123205871D01*
X150915640Y-123205884D01*
X150908391Y-123227759D01*
X150868618Y-123285203D01*
X150804102Y-123312025D01*
X150735326Y-123299709D01*
X150690834Y-123258393D01*
X150689486Y-123259416D01*
X150592922Y-123132077D01*
X150472343Y-123040639D01*
X150446993Y-123030642D01*
X150391850Y-122987735D01*
X150372842Y-122947865D01*
X150369739Y-122936470D01*
X150075305Y-121855092D01*
X150076686Y-121785237D01*
X150095683Y-121748205D01*
X150118796Y-121717331D01*
X150169091Y-121582483D01*
X150175500Y-121522873D01*
X150175499Y-121027128D01*
X150169091Y-120967517D01*
X150118796Y-120832669D01*
X150118795Y-120832668D01*
X150118793Y-120832664D01*
X150032547Y-120717455D01*
X150032544Y-120717452D01*
X149917335Y-120631206D01*
X149917328Y-120631202D01*
X149782486Y-120580910D01*
X149782485Y-120580909D01*
X149782483Y-120580909D01*
X149722873Y-120574500D01*
X149722863Y-120574500D01*
X149077129Y-120574500D01*
X149077123Y-120574501D01*
X149017516Y-120580908D01*
X148882671Y-120631202D01*
X148882664Y-120631206D01*
X148767455Y-120717452D01*
X148767452Y-120717455D01*
X148681206Y-120832664D01*
X148681202Y-120832671D01*
X148630910Y-120967513D01*
X148630909Y-120967517D01*
X148624500Y-121027127D01*
X148624500Y-121027134D01*
X148624500Y-121027135D01*
X148624500Y-121522870D01*
X148624501Y-121522876D01*
X148630908Y-121582483D01*
X148681202Y-121717328D01*
X148681206Y-121717335D01*
X148767452Y-121832544D01*
X148767455Y-121832547D01*
X148882664Y-121918793D01*
X148882673Y-121918798D01*
X148971673Y-121951992D01*
X149015110Y-121968193D01*
X149071044Y-122010063D01*
X149091422Y-122051799D01*
X149350129Y-123001962D01*
X149348748Y-123071818D01*
X149312637Y-123125637D01*
X149313078Y-123126078D01*
X149310843Y-123128313D01*
X149309820Y-123129838D01*
X149307377Y-123131778D01*
X149307080Y-123132076D01*
X149307079Y-123132077D01*
X149307078Y-123132078D01*
X149275606Y-123173580D01*
X149215638Y-123252659D01*
X149188693Y-123320989D01*
X149145787Y-123376134D01*
X149079880Y-123399327D01*
X149073338Y-123399500D01*
X148024500Y-123399500D01*
X147957461Y-123379815D01*
X147911706Y-123327011D01*
X147900500Y-123275500D01*
X147900500Y-121993464D01*
X147920185Y-121926425D01*
X147950187Y-121894199D01*
X148032546Y-121832546D01*
X148118796Y-121717331D01*
X148169091Y-121582483D01*
X148175500Y-121522873D01*
X148175499Y-121027128D01*
X148169091Y-120967517D01*
X148118796Y-120832669D01*
X148118795Y-120832668D01*
X148118793Y-120832664D01*
X148032547Y-120717455D01*
X148032544Y-120717452D01*
X147917335Y-120631206D01*
X147917328Y-120631202D01*
X147782486Y-120580910D01*
X147782485Y-120580909D01*
X147782483Y-120580909D01*
X147722873Y-120574500D01*
X147722863Y-120574500D01*
X147077129Y-120574500D01*
X147077123Y-120574501D01*
X147017516Y-120580908D01*
X146882671Y-120631202D01*
X146882664Y-120631206D01*
X146767455Y-120717452D01*
X146767452Y-120717455D01*
X146681206Y-120832664D01*
X146681202Y-120832671D01*
X146630910Y-120967513D01*
X146630909Y-120967517D01*
X146624500Y-121027127D01*
X146624500Y-121027134D01*
X146624500Y-121027135D01*
X146624500Y-121522870D01*
X146624501Y-121522876D01*
X146630908Y-121582483D01*
X146681202Y-121717328D01*
X146681206Y-121717335D01*
X146767452Y-121832544D01*
X146767453Y-121832545D01*
X146767454Y-121832546D01*
X146849811Y-121894198D01*
X146891682Y-121950131D01*
X146899500Y-121993464D01*
X146899500Y-123449902D01*
X146879815Y-123516941D01*
X146863181Y-123537583D01*
X146837583Y-123563181D01*
X146776260Y-123596666D01*
X146749902Y-123599500D01*
X146729222Y-123599500D01*
X146662183Y-123579815D01*
X146660439Y-123578674D01*
X144430392Y-122091975D01*
X144391787Y-122050799D01*
X144380522Y-122031287D01*
X144380518Y-122031282D01*
X144268717Y-121919481D01*
X144268709Y-121919475D01*
X144131790Y-121840426D01*
X144131786Y-121840424D01*
X144131784Y-121840423D01*
X143979057Y-121799500D01*
X143820943Y-121799500D01*
X143668216Y-121840423D01*
X143668209Y-121840426D01*
X143531290Y-121919475D01*
X143531282Y-121919481D01*
X143419481Y-122031282D01*
X143419475Y-122031290D01*
X143340426Y-122168209D01*
X143340423Y-122168216D01*
X143299500Y-122320943D01*
X143299500Y-122479057D01*
X143329908Y-122592539D01*
X143340423Y-122631783D01*
X143340426Y-122631790D01*
X143419475Y-122768709D01*
X143419479Y-122768714D01*
X143419480Y-122768716D01*
X143531284Y-122880520D01*
X143531286Y-122880521D01*
X143531290Y-122880524D01*
X143647930Y-122947865D01*
X143668216Y-122959577D01*
X143780131Y-122989564D01*
X143816817Y-123006163D01*
X145894284Y-124391141D01*
X145939144Y-124444705D01*
X145949500Y-124494314D01*
X145949500Y-125075500D01*
X145929815Y-125142539D01*
X145877011Y-125188294D01*
X145825500Y-125199500D01*
X142297953Y-125199500D01*
X142230914Y-125179815D01*
X142191836Y-125139649D01*
X142110651Y-125005351D01*
X142110648Y-125005347D01*
X141994652Y-124889351D01*
X141994650Y-124889350D01*
X141964607Y-124871188D01*
X141917419Y-124819660D01*
X141905581Y-124750800D01*
X141932850Y-124686472D01*
X141973664Y-124653982D01*
X142049025Y-124616607D01*
X142197366Y-124497367D01*
X142197367Y-124497366D01*
X142316607Y-124349025D01*
X142316609Y-124349022D01*
X142401168Y-124178523D01*
X142447102Y-123993824D01*
X142450000Y-123951096D01*
X142450000Y-123750000D01*
X139450000Y-123750000D01*
X139450000Y-123951096D01*
X139452897Y-123993824D01*
X139498831Y-124178523D01*
X139583390Y-124349022D01*
X139583392Y-124349025D01*
X139702632Y-124497366D01*
X139702633Y-124497367D01*
X139850972Y-124616605D01*
X139926336Y-124653982D01*
X139977649Y-124701403D01*
X139995179Y-124769038D01*
X139973359Y-124835414D01*
X139935393Y-124871187D01*
X139905351Y-124889348D01*
X139905347Y-124889351D01*
X139789351Y-125005347D01*
X139789348Y-125005351D01*
X139704488Y-125145727D01*
X139704485Y-125145736D01*
X139655687Y-125302335D01*
X139655685Y-125302343D01*
X139649500Y-125370406D01*
X139649500Y-126229594D01*
X139655685Y-126297657D01*
X139655686Y-126297662D01*
X139655687Y-126297664D01*
X139704485Y-126454263D01*
X139704488Y-126454272D01*
X139789348Y-126594648D01*
X139789351Y-126594652D01*
X139905347Y-126710648D01*
X139905351Y-126710651D01*
X140045727Y-126795511D01*
X140045736Y-126795514D01*
X140161586Y-126831615D01*
X140219734Y-126870352D01*
X140247708Y-126934378D01*
X140236626Y-127003363D01*
X140190008Y-127055406D01*
X140161586Y-127068385D01*
X140045736Y-127104485D01*
X140045727Y-127104488D01*
X139905351Y-127189348D01*
X139905347Y-127189351D01*
X139789351Y-127305347D01*
X139789348Y-127305351D01*
X139708164Y-127439649D01*
X139656637Y-127486837D01*
X139602047Y-127499500D01*
X138681138Y-127499500D01*
X138614099Y-127479815D01*
X138582334Y-127450425D01*
X138578771Y-127445727D01*
X138561215Y-127422575D01*
X138553609Y-127412545D01*
X138528786Y-127347233D01*
X138543214Y-127278869D01*
X138587317Y-127232081D01*
X138602731Y-127222573D01*
X138722572Y-127102732D01*
X138722575Y-127102728D01*
X138811542Y-126958492D01*
X138811547Y-126958481D01*
X138864855Y-126797606D01*
X138874999Y-126698322D01*
X138875000Y-126698309D01*
X138875000Y-126675000D01*
X138024000Y-126675000D01*
X137956961Y-126655315D01*
X137911206Y-126602511D01*
X137900000Y-126551000D01*
X137900000Y-126425000D01*
X137774000Y-126425000D01*
X137706961Y-126405315D01*
X137661206Y-126352511D01*
X137650000Y-126301000D01*
X137650000Y-126175000D01*
X138150000Y-126175000D01*
X138874999Y-126175000D01*
X138874999Y-126151692D01*
X138874998Y-126151677D01*
X138864855Y-126052392D01*
X138811547Y-125891518D01*
X138811542Y-125891507D01*
X138722575Y-125747271D01*
X138722572Y-125747267D01*
X138602732Y-125627427D01*
X138602728Y-125627424D01*
X138458492Y-125538457D01*
X138458481Y-125538452D01*
X138297606Y-125485144D01*
X138198322Y-125475000D01*
X138150000Y-125475000D01*
X138150000Y-126175000D01*
X137650000Y-126175000D01*
X137650000Y-125475000D01*
X137649999Y-125474999D01*
X137601693Y-125475000D01*
X137601675Y-125475001D01*
X137502392Y-125485144D01*
X137363504Y-125531167D01*
X137293675Y-125533569D01*
X137233634Y-125497837D01*
X137202441Y-125435316D01*
X137200500Y-125413461D01*
X137200500Y-124209059D01*
X137200501Y-124209046D01*
X137200501Y-124040945D01*
X137200501Y-124040943D01*
X137159577Y-123888215D01*
X137130639Y-123838095D01*
X137080520Y-123751284D01*
X136968716Y-123639480D01*
X136968715Y-123639479D01*
X136964385Y-123635149D01*
X136964374Y-123635139D01*
X136378138Y-123048903D01*
X139450000Y-123048903D01*
X139450000Y-123250000D01*
X140700000Y-123250000D01*
X141200000Y-123250000D01*
X142450000Y-123250000D01*
X142450000Y-123048903D01*
X142447102Y-123006175D01*
X142401168Y-122821476D01*
X142316609Y-122650977D01*
X142316607Y-122650974D01*
X142197367Y-122502633D01*
X142197366Y-122502632D01*
X142049025Y-122383392D01*
X142049022Y-122383390D01*
X141878523Y-122298831D01*
X141693824Y-122252897D01*
X141651097Y-122250000D01*
X141200000Y-122250000D01*
X141200000Y-123250000D01*
X140700000Y-123250000D01*
X140700000Y-122250000D01*
X140248903Y-122250000D01*
X140206175Y-122252897D01*
X140021476Y-122298831D01*
X139850977Y-122383390D01*
X139850974Y-122383392D01*
X139702633Y-122502632D01*
X139702632Y-122502633D01*
X139583392Y-122650974D01*
X139583390Y-122650977D01*
X139498831Y-122821476D01*
X139452897Y-123006175D01*
X139450000Y-123048903D01*
X136378138Y-123048903D01*
X134116818Y-120787583D01*
X134083333Y-120726260D01*
X134080499Y-120699902D01*
X134080499Y-120698990D01*
X134100184Y-120631951D01*
X134131611Y-120598673D01*
X134229501Y-120527553D01*
X134357553Y-120399501D01*
X134463996Y-120252994D01*
X134546211Y-120091639D01*
X134602171Y-119919409D01*
X134627673Y-119758396D01*
X134630500Y-119740551D01*
X134630500Y-119259448D01*
X134614019Y-119155397D01*
X134602171Y-119080591D01*
X134569388Y-118979693D01*
X134546212Y-118908363D01*
X134546211Y-118908360D01*
X134494660Y-118807187D01*
X134463996Y-118747006D01*
X134424100Y-118692093D01*
X134357558Y-118600505D01*
X134357554Y-118600500D01*
X134254898Y-118497844D01*
X142400000Y-118497844D01*
X142406401Y-118557372D01*
X142406403Y-118557379D01*
X142456645Y-118692086D01*
X142456649Y-118692093D01*
X142542809Y-118807187D01*
X142542812Y-118807190D01*
X142657906Y-118893350D01*
X142657913Y-118893354D01*
X142792620Y-118943596D01*
X142792627Y-118943598D01*
X142852155Y-118949999D01*
X142852172Y-118950000D01*
X143150000Y-118950000D01*
X143650000Y-118950000D01*
X143947828Y-118950000D01*
X143947844Y-118949999D01*
X144007372Y-118943598D01*
X144007379Y-118943596D01*
X144142086Y-118893354D01*
X144142093Y-118893350D01*
X144257187Y-118807190D01*
X144257190Y-118807187D01*
X144343350Y-118692093D01*
X144343354Y-118692086D01*
X144390267Y-118566306D01*
X144432138Y-118510372D01*
X144497602Y-118485955D01*
X144565875Y-118500806D01*
X144615281Y-118550211D01*
X144619883Y-118559553D01*
X144647793Y-118622764D01*
X144647794Y-118622765D01*
X144727235Y-118702206D01*
X144792226Y-118730902D01*
X144830006Y-118747584D01*
X144830009Y-118747585D01*
X144838647Y-118748587D01*
X144902972Y-118775865D01*
X144942338Y-118833590D01*
X144944246Y-118903433D01*
X144908091Y-118963221D01*
X144883792Y-118980590D01*
X144882668Y-118981203D01*
X144767455Y-119067452D01*
X144767452Y-119067455D01*
X144681206Y-119182664D01*
X144681202Y-119182671D01*
X144630910Y-119317513D01*
X144630909Y-119317517D01*
X144624500Y-119377127D01*
X144624500Y-119377134D01*
X144624500Y-119377135D01*
X144624500Y-119872870D01*
X144624501Y-119872876D01*
X144630908Y-119932483D01*
X144681202Y-120067328D01*
X144681206Y-120067335D01*
X144767452Y-120182544D01*
X144767455Y-120182547D01*
X144882664Y-120268793D01*
X144882671Y-120268797D01*
X144927618Y-120285561D01*
X145017517Y-120319091D01*
X145077127Y-120325500D01*
X145722872Y-120325499D01*
X145782483Y-120319091D01*
X145917331Y-120268796D01*
X146032546Y-120182546D01*
X146118796Y-120067331D01*
X146169091Y-119932483D01*
X146175500Y-119872873D01*
X146175499Y-119377128D01*
X146169091Y-119317517D01*
X146118796Y-119182669D01*
X146118795Y-119182668D01*
X146118793Y-119182664D01*
X146032547Y-119067455D01*
X146032544Y-119067452D01*
X145917334Y-118981205D01*
X145916216Y-118980595D01*
X145915314Y-118979693D01*
X145910231Y-118975888D01*
X145910777Y-118975157D01*
X145866809Y-118931192D01*
X145851955Y-118862919D01*
X145876369Y-118797454D01*
X145932301Y-118755581D01*
X145961352Y-118748586D01*
X145969991Y-118747585D01*
X146072765Y-118702206D01*
X146152206Y-118622765D01*
X146197585Y-118519991D01*
X146200500Y-118494865D01*
X146200499Y-115905136D01*
X146200499Y-115905135D01*
X146200499Y-115905131D01*
X146599500Y-115905131D01*
X146599500Y-118494856D01*
X146599502Y-118494882D01*
X146602413Y-118519987D01*
X146602415Y-118519991D01*
X146647793Y-118622764D01*
X146647794Y-118622765D01*
X146727235Y-118702206D01*
X146792226Y-118730902D01*
X146830006Y-118747584D01*
X146830009Y-118747585D01*
X146838647Y-118748587D01*
X146902972Y-118775865D01*
X146942338Y-118833590D01*
X146944246Y-118903433D01*
X146908091Y-118963221D01*
X146883792Y-118980590D01*
X146882668Y-118981203D01*
X146767455Y-119067452D01*
X146767452Y-119067455D01*
X146681206Y-119182664D01*
X146681202Y-119182671D01*
X146630910Y-119317513D01*
X146630909Y-119317517D01*
X146624500Y-119377127D01*
X146624500Y-119377134D01*
X146624500Y-119377135D01*
X146624500Y-119872870D01*
X146624501Y-119872876D01*
X146630908Y-119932483D01*
X146681202Y-120067328D01*
X146681206Y-120067335D01*
X146767452Y-120182544D01*
X146767455Y-120182547D01*
X146882664Y-120268793D01*
X146882671Y-120268797D01*
X146927618Y-120285561D01*
X147017517Y-120319091D01*
X147077127Y-120325500D01*
X147722872Y-120325499D01*
X147782483Y-120319091D01*
X147917331Y-120268796D01*
X148032546Y-120182546D01*
X148118796Y-120067331D01*
X148169091Y-119932483D01*
X148175500Y-119872873D01*
X148175499Y-119377128D01*
X148169091Y-119317517D01*
X148118796Y-119182669D01*
X148118795Y-119182668D01*
X148118793Y-119182664D01*
X148032547Y-119067455D01*
X148032544Y-119067452D01*
X147917334Y-118981205D01*
X147916216Y-118980595D01*
X147915314Y-118979693D01*
X147910231Y-118975888D01*
X147910777Y-118975157D01*
X147866809Y-118931192D01*
X147851955Y-118862919D01*
X147876369Y-118797454D01*
X147932301Y-118755581D01*
X147961352Y-118748586D01*
X147969991Y-118747585D01*
X148072765Y-118702206D01*
X148152206Y-118622765D01*
X148197585Y-118519991D01*
X148200500Y-118494865D01*
X148200499Y-115905136D01*
X148200497Y-115905117D01*
X148197586Y-115880012D01*
X148197585Y-115880010D01*
X148197585Y-115880009D01*
X148152206Y-115777235D01*
X148072765Y-115697794D01*
X148072763Y-115697793D01*
X147969992Y-115652415D01*
X147944865Y-115649500D01*
X146855143Y-115649500D01*
X146855117Y-115649502D01*
X146830012Y-115652413D01*
X146830008Y-115652415D01*
X146727235Y-115697793D01*
X146647794Y-115777234D01*
X146602415Y-115880006D01*
X146602415Y-115880008D01*
X146599500Y-115905131D01*
X146200499Y-115905131D01*
X146200499Y-115905130D01*
X146197586Y-115880012D01*
X146197585Y-115880010D01*
X146197585Y-115880009D01*
X146152206Y-115777235D01*
X146072765Y-115697794D01*
X146072763Y-115697793D01*
X145969992Y-115652415D01*
X145944865Y-115649500D01*
X144855143Y-115649500D01*
X144855117Y-115649502D01*
X144830012Y-115652413D01*
X144830008Y-115652415D01*
X144727235Y-115697793D01*
X144647794Y-115777234D01*
X144619883Y-115840447D01*
X144574797Y-115893823D01*
X144508011Y-115914350D01*
X144440729Y-115895511D01*
X144394312Y-115843288D01*
X144390267Y-115833693D01*
X144343354Y-115707913D01*
X144343350Y-115707906D01*
X144257190Y-115592812D01*
X144257187Y-115592809D01*
X144142093Y-115506649D01*
X144142086Y-115506645D01*
X144007379Y-115456403D01*
X144007372Y-115456401D01*
X143947844Y-115450000D01*
X143650000Y-115450000D01*
X143650000Y-118950000D01*
X143150000Y-118950000D01*
X143150000Y-117450000D01*
X142400000Y-117450000D01*
X142400000Y-118497844D01*
X134254898Y-118497844D01*
X134229499Y-118472445D01*
X134229494Y-118472441D01*
X134082997Y-118366006D01*
X134082996Y-118366005D01*
X134082994Y-118366004D01*
X134031300Y-118339664D01*
X133921639Y-118283788D01*
X133921636Y-118283787D01*
X133749410Y-118227829D01*
X133570551Y-118199500D01*
X133570546Y-118199500D01*
X133389454Y-118199500D01*
X133389449Y-118199500D01*
X133210589Y-118227829D01*
X133038363Y-118283787D01*
X133038360Y-118283788D01*
X132877002Y-118366006D01*
X132730505Y-118472441D01*
X132730500Y-118472445D01*
X132602445Y-118600500D01*
X132602441Y-118600505D01*
X132496006Y-118747002D01*
X132413788Y-118908360D01*
X132413787Y-118908363D01*
X132357829Y-119080589D01*
X132329500Y-119259448D01*
X132329500Y-119740551D01*
X132357829Y-119919410D01*
X132413787Y-120091636D01*
X132413788Y-120091639D01*
X132496006Y-120252997D01*
X132602441Y-120399494D01*
X132602445Y-120399499D01*
X132730502Y-120527556D01*
X132756046Y-120546114D01*
X132828383Y-120598670D01*
X132871050Y-120653999D01*
X132879499Y-120698988D01*
X132879499Y-120699903D01*
X132859814Y-120766942D01*
X132843180Y-120787584D01*
X131709481Y-121921282D01*
X131709475Y-121921290D01*
X131630426Y-122058209D01*
X131630423Y-122058214D01*
X131589499Y-122210944D01*
X131589499Y-122379047D01*
X131589500Y-122379060D01*
X131589500Y-125975500D01*
X131569815Y-126042539D01*
X131517011Y-126088294D01*
X131465501Y-126099500D01*
X131345142Y-126099500D01*
X131345119Y-126099502D01*
X131320011Y-126102414D01*
X131320008Y-126102415D01*
X131217235Y-126147793D01*
X131137794Y-126227234D01*
X131092415Y-126330006D01*
X131092415Y-126330008D01*
X131089500Y-126355131D01*
X128542052Y-126355131D01*
X128089999Y-125224998D01*
X128008869Y-125022172D01*
X128000000Y-124976120D01*
X128000000Y-116048322D01*
X138225001Y-116048322D01*
X138235144Y-116147607D01*
X138288452Y-116308481D01*
X138288457Y-116308492D01*
X138377424Y-116452728D01*
X138377427Y-116452732D01*
X138497267Y-116572572D01*
X138497271Y-116572575D01*
X138641507Y-116661542D01*
X138641518Y-116661547D01*
X138802393Y-116714855D01*
X138901683Y-116724999D01*
X139450000Y-116724999D01*
X139498308Y-116724999D01*
X139498322Y-116724998D01*
X139597607Y-116714855D01*
X139758481Y-116661547D01*
X139758492Y-116661542D01*
X139902728Y-116572575D01*
X139902732Y-116572572D01*
X140022572Y-116452732D01*
X140022575Y-116452728D01*
X140111542Y-116308492D01*
X140111547Y-116308481D01*
X140164855Y-116147606D01*
X140174999Y-116048322D01*
X140175000Y-116048309D01*
X140175000Y-116025000D01*
X139450000Y-116025000D01*
X139450000Y-116724999D01*
X138901683Y-116724999D01*
X138949999Y-116724998D01*
X138950000Y-116724998D01*
X138950000Y-116025000D01*
X138225001Y-116025000D01*
X138225001Y-116048322D01*
X128000000Y-116048322D01*
X128000000Y-106298322D01*
X137525001Y-106298322D01*
X137535144Y-106397607D01*
X137588452Y-106558481D01*
X137588457Y-106558492D01*
X137677424Y-106702728D01*
X137677427Y-106702732D01*
X137797267Y-106822572D01*
X137797271Y-106822575D01*
X137941507Y-106911542D01*
X137941518Y-106911547D01*
X138102393Y-106964855D01*
X138201683Y-106974999D01*
X138225000Y-106974998D01*
X138225000Y-106250000D01*
X137525001Y-106250000D01*
X137525001Y-106298322D01*
X128000000Y-106298322D01*
X128000000Y-104243753D01*
X132130000Y-104243753D01*
X132130000Y-104250000D01*
X133046988Y-104250000D01*
X133014075Y-104307007D01*
X132980000Y-104434174D01*
X132980000Y-104565826D01*
X133014075Y-104692993D01*
X133046988Y-104750000D01*
X132130000Y-104750000D01*
X132130000Y-104756246D01*
X132163242Y-104966127D01*
X132163242Y-104966130D01*
X132228904Y-105168217D01*
X132325379Y-105357557D01*
X132450272Y-105529459D01*
X132450276Y-105529464D01*
X132600535Y-105679723D01*
X132600540Y-105679727D01*
X132772442Y-105804620D01*
X132961782Y-105901095D01*
X133163871Y-105966757D01*
X133230000Y-105977231D01*
X133230000Y-104933012D01*
X133287007Y-104965925D01*
X133414174Y-105000000D01*
X133545826Y-105000000D01*
X133672993Y-104965925D01*
X133730000Y-104933012D01*
X133730000Y-105977230D01*
X133796126Y-105966757D01*
X133796129Y-105966757D01*
X133998217Y-105901095D01*
X134187557Y-105804620D01*
X134359459Y-105679727D01*
X134359464Y-105679723D01*
X134509723Y-105529464D01*
X134509727Y-105529459D01*
X134634620Y-105357557D01*
X134731095Y-105168217D01*
X134796757Y-104966130D01*
X134796757Y-104966127D01*
X134830000Y-104756246D01*
X134830000Y-104750000D01*
X133913012Y-104750000D01*
X133945925Y-104692993D01*
X133980000Y-104565826D01*
X133980000Y-104434174D01*
X133945925Y-104307007D01*
X133913012Y-104250000D01*
X134830000Y-104250000D01*
X134830000Y-104243753D01*
X134796757Y-104033872D01*
X134796757Y-104033869D01*
X134731095Y-103831782D01*
X134634620Y-103642442D01*
X134509727Y-103470540D01*
X134509723Y-103470535D01*
X134359464Y-103320276D01*
X134359459Y-103320272D01*
X134187557Y-103195379D01*
X133998215Y-103098903D01*
X133796124Y-103033241D01*
X133730000Y-103022768D01*
X133730000Y-104066988D01*
X133672993Y-104034075D01*
X133545826Y-104000000D01*
X133414174Y-104000000D01*
X133287007Y-104034075D01*
X133230000Y-104066988D01*
X133230000Y-103022768D01*
X133229999Y-103022768D01*
X133163875Y-103033241D01*
X132961784Y-103098903D01*
X132772442Y-103195379D01*
X132600540Y-103320272D01*
X132600535Y-103320276D01*
X132450276Y-103470535D01*
X132450272Y-103470540D01*
X132325379Y-103642442D01*
X132228904Y-103831782D01*
X132163242Y-104033869D01*
X132163242Y-104033872D01*
X132130000Y-104243753D01*
X128000000Y-104243753D01*
X128000000Y-100724000D01*
X128019685Y-100656961D01*
X128072489Y-100611206D01*
X128124000Y-100600000D01*
X142475500Y-100600000D01*
X142542539Y-100619685D01*
G37*
%TD.AperFunction*%
%TD*%
M02*
