%TF.GenerationSoftware,KiCad,Pcbnew,7.0.11+dfsg-1build4*%
%TF.CreationDate,2026-09-25T14:59:03+00:00*%
%TF.ProjectId,rele-esp12f,72656c65-2d65-4737-9031-32662e6b6963,rev?*%
%TF.SameCoordinates,Original*%
%TF.FileFunction,Copper,L1,Top*%
%TF.FilePolarity,Positive*%
%FSLAX46Y46*%
G04 Gerber Fmt 4.6, Leading zero omitted, Abs format (unit mm)*
G04 Created by KiCad (PCBNEW 7.0.11+dfsg-1build4) date 2026-09-25 14:59:03*
%MOMM*%
%LPD*%
G01*
G04 APERTURE LIST*
G04 Aperture macros list*
%AMRoundRect*
0 Rectangle with rounded corners*
0 $1 Rounding radius*
0 $2 $3 $4 $5 $6 $7 $8 $9 X,Y pos of 4 corners*
0 Add a 4 corners polygon primitive as box body*
4,1,4,$2,$3,$4,$5,$6,$7,$8,$9,$2,$3,0*
0 Add four circle primitives for the rounded corners*
1,1,$1+$1,$2,$3*
1,1,$1+$1,$4,$5*
1,1,$1+$1,$6,$7*
1,1,$1+$1,$8,$9*
0 Add four rect primitives between the rounded corners*
20,1,$1+$1,$2,$3,$4,$5,0*
20,1,$1+$1,$4,$5,$6,$7,0*
20,1,$1+$1,$6,$7,$8,$9,0*
20,1,$1+$1,$8,$9,$2,$3,0*%
G04 Aperture macros list end*
%TA.AperFunction,SMDPad,CuDef*%
%ADD10R,2.500000X1.000000*%
%TD*%
%TA.AperFunction,SMDPad,CuDef*%
%ADD11R,1.000000X1.800000*%
%TD*%
%TA.AperFunction,SMDPad,CuDef*%
%ADD12RoundRect,0.225000X0.250000X-0.225000X0.250000X0.225000X-0.250000X0.225000X-0.250000X-0.225000X0*%
%TD*%
%TA.AperFunction,ComponentPad*%
%ADD13C,2.000000*%
%TD*%
%TA.AperFunction,ComponentPad*%
%ADD14R,1.700000X1.700000*%
%TD*%
%TA.AperFunction,ComponentPad*%
%ADD15O,1.700000X1.700000*%
%TD*%
%TA.AperFunction,SMDPad,CuDef*%
%ADD16R,1.000000X0.750000*%
%TD*%
%TA.AperFunction,SMDPad,CuDef*%
%ADD17RoundRect,0.150000X-0.587500X-0.150000X0.587500X-0.150000X0.587500X0.150000X-0.587500X0.150000X0*%
%TD*%
%TA.AperFunction,SMDPad,CuDef*%
%ADD18RoundRect,0.218750X-0.218750X-0.256250X0.218750X-0.256250X0.218750X0.256250X-0.218750X0.256250X0*%
%TD*%
%TA.AperFunction,ComponentPad*%
%ADD19R,2.600000X2.600000*%
%TD*%
%TA.AperFunction,ComponentPad*%
%ADD20C,2.600000*%
%TD*%
%TA.AperFunction,SMDPad,CuDef*%
%ADD21RoundRect,0.200000X-0.200000X-0.275000X0.200000X-0.275000X0.200000X0.275000X-0.200000X0.275000X0*%
%TD*%
%TA.AperFunction,SMDPad,CuDef*%
%ADD22RoundRect,0.200000X0.275000X-0.200000X0.275000X0.200000X-0.275000X0.200000X-0.275000X-0.200000X0*%
%TD*%
%TA.AperFunction,SMDPad,CuDef*%
%ADD23RoundRect,0.225000X-0.225000X-0.375000X0.225000X-0.375000X0.225000X0.375000X-0.225000X0.375000X0*%
%TD*%
%TA.AperFunction,SMDPad,CuDef*%
%ADD24RoundRect,0.250000X0.475000X-0.250000X0.475000X0.250000X-0.475000X0.250000X-0.475000X-0.250000X0*%
%TD*%
%TA.AperFunction,ComponentPad*%
%ADD25R,1.600000X1.600000*%
%TD*%
%TA.AperFunction,ComponentPad*%
%ADD26C,1.600000*%
%TD*%
%TA.AperFunction,SMDPad,CuDef*%
%ADD27RoundRect,0.375000X-0.625000X-0.375000X0.625000X-0.375000X0.625000X0.375000X-0.625000X0.375000X0*%
%TD*%
%TA.AperFunction,SMDPad,CuDef*%
%ADD28RoundRect,0.500000X-0.500000X-1.400000X0.500000X-1.400000X0.500000X1.400000X-0.500000X1.400000X0*%
%TD*%
%TA.AperFunction,SMDPad,CuDef*%
%ADD29RoundRect,0.250000X-0.250000X-0.475000X0.250000X-0.475000X0.250000X0.475000X-0.250000X0.475000X0*%
%TD*%
%TA.AperFunction,ComponentPad*%
%ADD30R,1.700000X2.000000*%
%TD*%
%TA.AperFunction,ComponentPad*%
%ADD31O,1.700000X2.000000*%
%TD*%
%TA.AperFunction,SMDPad,CuDef*%
%ADD32RoundRect,0.225000X-0.225000X-0.250000X0.225000X-0.250000X0.225000X0.250000X-0.225000X0.250000X0*%
%TD*%
%TA.AperFunction,ComponentPad*%
%ADD33C,3.000000*%
%TD*%
%TA.AperFunction,ComponentPad*%
%ADD34C,2.500000*%
%TD*%
%TA.AperFunction,ViaPad*%
%ADD35C,0.600000*%
%TD*%
%TA.AperFunction,Conductor*%
%ADD36C,1.000000*%
%TD*%
%TA.AperFunction,Conductor*%
%ADD37C,2.500000*%
%TD*%
%TA.AperFunction,Conductor*%
%ADD38C,0.600000*%
%TD*%
%TA.AperFunction,Conductor*%
%ADD39C,0.300000*%
%TD*%
%TA.AperFunction,Conductor*%
%ADD40C,0.250000*%
%TD*%
G04 APERTURE END LIST*
D10*
%TO.P,U2,1*%
%TO.N,RST*%
X144900000Y-109100000D03*
%TO.P,U2,2*%
%TO.N,N/C*%
X144900000Y-111100000D03*
%TO.P,U2,3*%
%TO.N,EN*%
X144900000Y-113100000D03*
%TO.P,U2,4*%
%TO.N,N/C*%
X144900000Y-115100000D03*
%TO.P,U2,5*%
X144900000Y-117100000D03*
%TO.P,U2,6*%
X144900000Y-119100000D03*
%TO.P,U2,7*%
X144900000Y-121100000D03*
%TO.P,U2,8*%
%TO.N,+3V3*%
X144900000Y-123100000D03*
D11*
%TO.P,U2,9*%
%TO.N,N/C*%
X147500000Y-124600000D03*
%TO.P,U2,10*%
X149500000Y-124600000D03*
%TO.P,U2,11*%
X151500000Y-124600000D03*
%TO.P,U2,12*%
X153500000Y-124600000D03*
%TO.P,U2,13*%
X155500000Y-124600000D03*
%TO.P,U2,14*%
X157500000Y-124600000D03*
D10*
%TO.P,U2,15*%
%TO.N,GND*%
X160100000Y-123100000D03*
%TO.P,U2,16*%
%TO.N,GPIO15*%
X160100000Y-121100000D03*
%TO.P,U2,17*%
%TO.N,GPIO2*%
X160100000Y-119100000D03*
%TO.P,U2,18*%
%TO.N,GPIO0*%
X160100000Y-117100000D03*
%TO.P,U2,19*%
%TO.N,WIFI_LED*%
X160100000Y-115100000D03*
%TO.P,U2,20*%
%TO.N,RELAY*%
X160100000Y-113100000D03*
%TO.P,U2,21*%
%TO.N,RXD*%
X160100000Y-111100000D03*
%TO.P,U2,22*%
%TO.N,TXD*%
X160100000Y-109100000D03*
%TD*%
D12*
%TO.P,C6,1*%
%TO.N,+3V3*%
X161000000Y-131175000D03*
%TO.P,C6,2*%
%TO.N,GND*%
X161000000Y-129625000D03*
%TD*%
D13*
%TO.P,F1,1*%
%TO.N,L_IN*%
X112000000Y-126300000D03*
%TO.P,F1,2*%
%TO.N,L_F*%
X117080000Y-126310000D03*
%TD*%
D14*
%TO.P,J3,1*%
%TO.N,+3V3*%
X163800000Y-133199999D03*
D15*
%TO.P,J3,2*%
%TO.N,GND*%
X163800000Y-135739999D03*
%TO.P,J3,3*%
%TO.N,TXD*%
X163800000Y-138279999D03*
%TO.P,J3,4*%
%TO.N,RXD*%
X163800000Y-140819999D03*
%TO.P,J3,5*%
%TO.N,GPIO0*%
X163800000Y-143359999D03*
%TO.P,J3,6*%
%TO.N,RST*%
X163800000Y-145899999D03*
%TD*%
D16*
%TO.P,SW1,1*%
%TO.N,GPIO0*%
X153600000Y-139725000D03*
X159600000Y-139725000D03*
%TO.P,SW1,2*%
%TO.N,GND*%
X153600000Y-143475000D03*
X159600000Y-143475000D03*
%TD*%
D12*
%TO.P,C5,1*%
%TO.N,+3V3*%
X141200000Y-119675000D03*
%TO.P,C5,2*%
%TO.N,GND*%
X141200000Y-118125000D03*
%TD*%
D17*
%TO.P,Q1,1*%
%TO.N,Q1_B*%
X147062500Y-141650000D03*
%TO.P,Q1,2*%
%TO.N,GND*%
X147062500Y-143550000D03*
%TO.P,Q1,3*%
%TO.N,COIL_N*%
X148937500Y-142600000D03*
%TD*%
D18*
%TO.P,D3,1*%
%TO.N,GND*%
X158212500Y-152000000D03*
%TO.P,D3,2*%
%TO.N,LED_WIFI_A*%
X159787500Y-152000000D03*
%TD*%
D19*
%TO.P,J1,1*%
%TO.N,N*%
X104000000Y-142500000D03*
D20*
%TO.P,J1,2*%
%TO.N,L_OUT*%
X109080000Y-142500000D03*
%TO.P,J1,3*%
%TO.N,L_IN*%
X114160000Y-142500000D03*
%TD*%
D21*
%TO.P,R7,1*%
%TO.N,Q1_B*%
X146775000Y-145800000D03*
%TO.P,R7,2*%
%TO.N,GND*%
X148425000Y-145800000D03*
%TD*%
D22*
%TO.P,R1,1*%
%TO.N,+3V3*%
X141200000Y-114025000D03*
%TO.P,R1,2*%
%TO.N,EN*%
X141200000Y-112375000D03*
%TD*%
D23*
%TO.P,D1,1*%
%TO.N,+5V*%
X146350000Y-138800000D03*
%TO.P,D1,2*%
%TO.N,COIL_N*%
X149650000Y-138800000D03*
%TD*%
D24*
%TO.P,C4,1*%
%TO.N,+3V3*%
X141200000Y-123550000D03*
%TO.P,C4,2*%
%TO.N,GND*%
X141200000Y-121650000D03*
%TD*%
D25*
%TO.P,C1,1*%
%TO.N,+5V*%
X146000000Y-130000000D03*
D26*
%TO.P,C1,2*%
%TO.N,GND*%
X148500000Y-130000000D03*
%TD*%
D27*
%TO.P,U1,1*%
%TO.N,GND*%
X152050000Y-128100000D03*
%TO.P,U1,2*%
%TO.N,+3V3*%
X152050000Y-130400000D03*
D28*
X158350000Y-130400000D03*
D27*
%TO.P,U1,3*%
%TO.N,+5V*%
X152050000Y-132700000D03*
%TD*%
D22*
%TO.P,R4,1*%
%TO.N,+3V3*%
X163800000Y-120225000D03*
%TO.P,R4,2*%
%TO.N,GPIO2*%
X163800000Y-118575000D03*
%TD*%
D18*
%TO.P,D2,1*%
%TO.N,LED_RELAY_K*%
X148212500Y-152000000D03*
%TO.P,D2,2*%
%TO.N,RELAY*%
X149787500Y-152000000D03*
%TD*%
D21*
%TO.P,R6,1*%
%TO.N,RELAY*%
X150975000Y-145800000D03*
%TO.P,R6,2*%
%TO.N,Q1_B*%
X152625000Y-145800000D03*
%TD*%
D29*
%TO.P,C2,1*%
%TO.N,+5V*%
X147350000Y-135300000D03*
%TO.P,C2,2*%
%TO.N,GND*%
X149250000Y-135300000D03*
%TD*%
D30*
%TO.P,PS1,1*%
%TO.N,L_F*%
X105500000Y-109500000D03*
D31*
%TO.P,PS1,2*%
%TO.N,N*%
X105500000Y-114500000D03*
%TO.P,PS1,3*%
%TO.N,GND*%
X134580000Y-104500000D03*
%TO.P,PS1,4*%
%TO.N,+5V*%
X134580000Y-119500000D03*
%TD*%
D16*
%TO.P,SW2,1*%
%TO.N,RST*%
X135000000Y-150125000D03*
X141000000Y-150125000D03*
%TO.P,SW2,2*%
%TO.N,GND*%
X135000000Y-153875000D03*
X141000000Y-153875000D03*
%TD*%
D21*
%TO.P,R9,1*%
%TO.N,WIFI_LED*%
X154175000Y-152000000D03*
%TO.P,R9,2*%
%TO.N,LED_WIFI_A*%
X155825000Y-152000000D03*
%TD*%
D22*
%TO.P,R5,1*%
%TO.N,GPIO15*%
X163800000Y-123825000D03*
%TO.P,R5,2*%
%TO.N,GND*%
X163800000Y-122175000D03*
%TD*%
D21*
%TO.P,R8,1*%
%TO.N,LED_RELAY_K*%
X144175000Y-152000000D03*
%TO.P,R8,2*%
%TO.N,GND*%
X145825000Y-152000000D03*
%TD*%
D22*
%TO.P,R3,1*%
%TO.N,+3V3*%
X163800000Y-116625000D03*
%TO.P,R3,2*%
%TO.N,GPIO0*%
X163800000Y-114975000D03*
%TD*%
D32*
%TO.P,C3,1*%
%TO.N,+5V*%
X151525000Y-136300000D03*
%TO.P,C3,2*%
%TO.N,GND*%
X153075000Y-136300000D03*
%TD*%
D26*
%TO.P,RV1,1*%
%TO.N,L_F*%
X120600000Y-125000000D03*
%TO.P,RV1,2*%
%TO.N,N*%
X125600000Y-126300000D03*
%TD*%
D22*
%TO.P,R2,1*%
%TO.N,+3V3*%
X141200000Y-110225000D03*
%TO.P,R2,2*%
%TO.N,RST*%
X141200000Y-108575000D03*
%TD*%
D33*
%TO.P,K1,1*%
%TO.N,L_IN*%
X138500000Y-137500000D03*
D34*
%TO.P,K1,2*%
%TO.N,+5V*%
X136550000Y-131450000D03*
D33*
%TO.P,K1,3*%
%TO.N,L_OUT*%
X124350000Y-131450000D03*
%TO.P,K1,4*%
%TO.N,N/C*%
X124300000Y-143500000D03*
D34*
%TO.P,K1,5*%
%TO.N,COIL_N*%
X136550000Y-143450000D03*
%TD*%
D35*
%TO.N,GND*%
X149297700Y-127048300D03*
X147076100Y-142743300D03*
%TO.N,COIL_N*%
X138386100Y-143450000D03*
%TO.N,+3V3*%
X163573500Y-121200000D03*
%TO.N,RST*%
X158158000Y-109100000D03*
%TO.N,GPIO0*%
X165123400Y-115321900D03*
%TO.N,WIFI_LED*%
X158158000Y-149930400D03*
X158158000Y-115100000D03*
%TO.N,RELAY*%
X150016400Y-113100000D03*
X150016400Y-145300900D03*
%TO.N,RXD*%
X162045900Y-111100000D03*
%TO.N,TXD*%
X162817000Y-109100000D03*
%TD*%
D36*
%TO.N,N*%
X104000000Y-116000000D02*
X105500000Y-114500000D01*
X104000000Y-142500000D02*
X104000000Y-116000000D01*
D37*
%TO.N,L_OUT*%
X122300000Y-133500000D02*
X124350000Y-131449999D01*
X109080000Y-137000000D02*
X112580000Y-133500000D01*
X109080000Y-142500000D02*
X109080000Y-137000000D01*
X112580000Y-133500000D02*
X122300000Y-133500000D01*
%TO.N,L_IN*%
X114160000Y-142500000D02*
X118160000Y-138500000D01*
X118160000Y-138500000D02*
X137500000Y-138500000D01*
X137500000Y-138500000D02*
X138500000Y-137500000D01*
D36*
%TO.N,L_F*%
X117080000Y-126310000D02*
X120600000Y-125000000D01*
X114580000Y-109500000D02*
X105500000Y-109500000D01*
X117080000Y-126310000D02*
X117080000Y-112000000D01*
X117080000Y-112000000D02*
X114580000Y-109500000D01*
D38*
%TO.N,GND*%
X153600000Y-143624800D02*
X153600000Y-143624100D01*
X159302000Y-123898000D02*
X159734900Y-123465100D01*
X147062500Y-142756900D02*
X147062500Y-143400800D01*
X153600000Y-150698200D02*
X153600000Y-143849600D01*
X153260400Y-152996100D02*
X153260400Y-151037800D01*
X140176300Y-120626300D02*
X141200000Y-121650000D01*
X149250000Y-130750000D02*
X149250000Y-135300000D01*
X143800500Y-127945900D02*
X146445900Y-127945900D01*
X147062500Y-143545300D02*
X147062500Y-143547600D01*
X144946100Y-153875000D02*
X141000000Y-153875000D01*
X147062500Y-143549700D02*
X147062500Y-143549800D01*
X139944900Y-124090300D02*
X143800500Y-127945900D01*
X140176300Y-119148700D02*
X140176300Y-120626300D01*
X141000000Y-153875000D02*
X141000000Y-152998100D01*
X141200000Y-118125000D02*
X140176300Y-119148700D01*
X151031900Y-137316200D02*
X152058800Y-137316200D01*
X159302000Y-127927000D02*
X159302000Y-123898000D01*
X141226900Y-152998100D02*
X141000000Y-152998100D01*
X153600000Y-143625200D02*
X153600000Y-143624800D01*
X152050000Y-128100000D02*
X152223000Y-127927000D01*
X159734900Y-123465100D02*
X159917500Y-123282500D01*
X150998300Y-127048300D02*
X152050000Y-128100000D01*
X141200000Y-121650000D02*
X139944900Y-122905100D01*
X153600000Y-143615400D02*
X153600000Y-143568600D01*
X147062500Y-143549400D02*
X147062500Y-143549700D01*
X153600000Y-143662300D02*
X153600000Y-143638800D01*
X147062500Y-143400800D02*
X147062500Y-143475400D01*
X139944900Y-122905100D02*
X139944900Y-124090300D01*
X165151900Y-132142100D02*
X162634800Y-129625000D01*
X159917500Y-123282500D02*
X160100000Y-123100000D01*
X153600000Y-143638800D02*
X153600000Y-143627100D01*
X147062500Y-143512700D02*
X147062500Y-143531300D01*
X163800000Y-135740000D02*
X165151900Y-134388100D01*
X147062500Y-143549800D02*
X147062500Y-143549900D01*
X153260400Y-152996100D02*
X145825000Y-152996100D01*
X145825000Y-152996100D02*
X144946100Y-153875000D01*
X147062500Y-143531300D02*
X147062500Y-143540600D01*
X152058800Y-137316200D02*
X153075000Y-136300000D01*
X153600000Y-143625400D02*
X153600000Y-143625300D01*
X153600000Y-143627100D02*
X153600000Y-143625600D01*
X147076100Y-142743300D02*
X147062500Y-142756900D01*
X146445900Y-127945900D02*
X148500000Y-130000000D01*
X149297700Y-127048300D02*
X150998300Y-127048300D01*
X159600000Y-143475000D02*
X153600000Y-143475000D01*
X147062500Y-143540600D02*
X147062500Y-143545300D01*
X149250000Y-135534300D02*
X151031900Y-137316200D01*
X147062500Y-143549900D02*
X147062500Y-143550000D01*
X165151900Y-134388100D02*
X165151900Y-132142100D01*
X153600000Y-143625300D02*
X153600000Y-143625200D01*
X145825000Y-152000000D02*
X145825000Y-152996100D01*
X148500000Y-130000000D02*
X149250000Y-130750000D01*
X147062500Y-143475400D02*
X147062500Y-143512700D01*
X153600000Y-143849600D02*
X153600000Y-143662300D01*
X159302000Y-127927000D02*
X161000000Y-129625000D01*
X148425000Y-145800000D02*
X141226900Y-152998100D01*
X153260400Y-151037800D02*
X153600000Y-150698200D01*
X162634800Y-129625000D02*
X161000000Y-129625000D01*
X157216400Y-152996100D02*
X153260400Y-152996100D01*
X147062500Y-143548800D02*
X147062500Y-143549400D01*
X153600000Y-143621200D02*
X153600000Y-143615400D01*
X152223000Y-127927000D02*
X159302000Y-127927000D01*
X134580000Y-111505000D02*
X141200000Y-118125000D01*
X158212500Y-152000000D02*
X157216400Y-152996100D01*
X153600000Y-143624100D02*
X153600000Y-143621200D01*
X153600000Y-143568600D02*
X153600000Y-143475000D01*
X153600000Y-143625600D02*
X153600000Y-143625400D01*
X147062500Y-143547600D02*
X147062500Y-143548800D01*
X134580000Y-104500000D02*
X134580000Y-111505000D01*
X141000000Y-153875000D02*
X135000000Y-153875000D01*
X149250000Y-135300000D02*
X149250000Y-135534300D01*
%TO.N,+5V*%
X146350000Y-137689000D02*
X150168200Y-137689000D01*
X154053800Y-136831800D02*
X154053800Y-135759700D01*
X146350000Y-135300000D02*
X146350000Y-137689000D01*
X146000000Y-130000000D02*
X144698100Y-130000000D01*
X146350000Y-134300000D02*
X146350000Y-135300000D01*
X152050000Y-132700000D02*
X152050000Y-135322200D01*
X150168200Y-137689000D02*
X150618700Y-138139500D01*
X146350000Y-135300000D02*
X147350000Y-135300000D01*
X154053800Y-135759700D02*
X153616300Y-135322200D01*
X152746100Y-138139500D02*
X154053800Y-136831800D01*
X136550000Y-131450000D02*
X143500000Y-131450000D01*
X150618700Y-138139500D02*
X152746100Y-138139500D01*
X152050000Y-135322200D02*
X151525000Y-135847200D01*
X151525000Y-135847200D02*
X151525000Y-136300000D01*
X143500000Y-131450000D02*
X143500000Y-131198100D01*
X143500000Y-131450000D02*
X146350000Y-134300000D01*
X153616300Y-135322200D02*
X152050000Y-135322200D01*
X146350000Y-137689000D02*
X146350000Y-138800000D01*
X143500000Y-131198100D02*
X144698100Y-130000000D01*
%TO.N,COIL_N*%
X149295000Y-140700000D02*
X148937500Y-141057500D01*
D39*
X149650000Y-138800000D02*
X148940000Y-142600000D01*
D38*
X141210300Y-143450000D02*
X138386100Y-143450000D01*
X143876600Y-140783700D02*
X141210300Y-143450000D01*
X148663700Y-140783700D02*
X143876600Y-140783700D01*
X148937500Y-141057500D02*
X148663700Y-140783700D01*
X148937500Y-141057500D02*
X148937500Y-142600000D01*
%TO.N,+3V3*%
X144900000Y-123100000D02*
X143774000Y-123100000D01*
X141200000Y-123550000D02*
X142698100Y-123550000D01*
X163800000Y-133200000D02*
X162448100Y-133200000D01*
X141200000Y-110225000D02*
X142198100Y-111223100D01*
X142698100Y-123550000D02*
X143148100Y-123100000D01*
X142198100Y-111223100D02*
X142198100Y-113026900D01*
X142229000Y-118646000D02*
X141200000Y-119675000D01*
X143148100Y-121623100D02*
X143148100Y-123100000D01*
X162770700Y-117654300D02*
X163800000Y-116625000D01*
X142229000Y-115054000D02*
X142229000Y-118646000D01*
X141200000Y-119675000D02*
X143148100Y-121623100D01*
X163800000Y-120973500D02*
X163800000Y-120225000D01*
X159125000Y-131175000D02*
X161000000Y-131175000D01*
X162448100Y-132623100D02*
X161000000Y-131175000D01*
X142198100Y-113026900D02*
X141200000Y-114025000D01*
X143774000Y-123100000D02*
X151074000Y-130400000D01*
X158350000Y-130400000D02*
X159125000Y-131175000D01*
X151074000Y-130400000D02*
X152050000Y-130400000D01*
X163800000Y-120225000D02*
X162770700Y-119195700D01*
X162770700Y-119195700D02*
X162770700Y-117654300D01*
X141200000Y-114025000D02*
X142229000Y-115054000D01*
X143774000Y-123100000D02*
X143148100Y-123100000D01*
X162448100Y-133200000D02*
X162448100Y-132623100D01*
X152050000Y-130400000D02*
X158350000Y-130400000D01*
X163573500Y-121200000D02*
X163800000Y-120973500D01*
D40*
%TO.N,RST*%
X141000000Y-150125000D02*
X135000000Y-150125000D01*
X144875100Y-109100000D02*
X144900000Y-109100000D01*
X134162700Y-151664200D02*
X134162700Y-154384800D01*
X141200000Y-108575000D02*
X142798100Y-108575000D01*
X144875100Y-109100000D02*
X143323100Y-109100000D01*
X135000000Y-150125000D02*
X135000000Y-150826900D01*
X163800000Y-149250300D02*
X163800000Y-145900000D01*
X134162700Y-154384800D02*
X134365300Y-154587400D01*
X144900000Y-109100000D02*
X158158000Y-109100000D01*
X135000000Y-150826900D02*
X134162700Y-151664200D01*
X158462900Y-154587400D02*
X163800000Y-149250300D01*
X142798100Y-108575000D02*
X143323100Y-109100000D01*
X134365300Y-154587400D02*
X158462900Y-154587400D01*
%TO.N,EN*%
X140349700Y-111524700D02*
X141200000Y-112375000D01*
X144900000Y-113100000D02*
X143323100Y-113100000D01*
X143323100Y-111046000D02*
X141734900Y-109457800D01*
X140349700Y-109801300D02*
X140349700Y-111524700D01*
X141734900Y-109457800D02*
X140693200Y-109457800D01*
X143323100Y-113100000D02*
X143323100Y-111046000D01*
X140693200Y-109457800D02*
X140349700Y-109801300D01*
%TO.N,GPIO15*%
X161676900Y-121701900D02*
X163800000Y-123825000D01*
X160100000Y-121100000D02*
X161676900Y-121100000D01*
X161676900Y-121100000D02*
X161676900Y-121701900D01*
%TO.N,GPIO2*%
X164329700Y-115879300D02*
X164602700Y-116152300D01*
X164602700Y-116152300D02*
X164602700Y-117772300D01*
X160100000Y-119100000D02*
X161676900Y-119100000D01*
X163293700Y-115879300D02*
X164329700Y-115879300D01*
X164602700Y-117772300D02*
X163800000Y-118575000D01*
X161676900Y-117496100D02*
X163293700Y-115879300D01*
X161676900Y-119100000D02*
X161676900Y-117496100D01*
%TO.N,GPIO0*%
X162802700Y-114975000D02*
X160677700Y-117100000D01*
X159600000Y-140075900D02*
X159600000Y-139725000D01*
X159600000Y-140075900D02*
X159600000Y-140426900D01*
X153600000Y-139725000D02*
X159600000Y-139725000D01*
X159690000Y-140426900D02*
X162623100Y-143360000D01*
X160677700Y-117100000D02*
X160100000Y-117100000D01*
X159600000Y-140426900D02*
X159690000Y-140426900D01*
X164146900Y-115321900D02*
X163800000Y-114975000D01*
X163800000Y-114975000D02*
X162802700Y-114975000D01*
X163800000Y-143360000D02*
X162623100Y-143360000D01*
X165123400Y-115321900D02*
X164146900Y-115321900D01*
%TO.N,WIFI_LED*%
X156244600Y-149930400D02*
X158158000Y-149930400D01*
X160100000Y-115100000D02*
X158523100Y-115100000D01*
X158523100Y-115100000D02*
X158158000Y-115100000D01*
X154175000Y-152000000D02*
X156244600Y-149930400D01*
%TO.N,RELAY*%
X150975000Y-145800000D02*
X150475900Y-145300900D01*
X150975000Y-145800000D02*
X150975000Y-150812500D01*
X150475900Y-145300900D02*
X150016400Y-145300900D01*
X150975000Y-150812500D02*
X149787500Y-152000000D01*
X160100000Y-113100000D02*
X150016400Y-113100000D01*
%TO.N,RXD*%
X161676900Y-111100000D02*
X162045900Y-111100000D01*
X160100000Y-111100000D02*
X161676900Y-111100000D01*
%TO.N,TXD*%
X160100000Y-109100000D02*
X161676900Y-109100000D01*
X161676900Y-109100000D02*
X162817000Y-109100000D01*
%TO.N,Q1_B*%
X146775000Y-145800000D02*
X146780000Y-145800000D01*
D39*
X144000000Y-144500000D02*
X152620000Y-144500000D01*
X152620000Y-144500000D02*
X152620000Y-145800000D01*
X144000000Y-141650000D02*
X144000000Y-144500000D01*
X147060000Y-141650000D02*
X144000000Y-141650000D01*
D40*
X152625000Y-145800000D02*
X152620000Y-145800000D01*
D39*
X146780000Y-145800000D02*
X146780000Y-144500000D01*
D40*
X147060000Y-141650000D02*
X147062500Y-141650000D01*
%TO.N,LED_RELAY_K*%
X144175000Y-152000000D02*
X145028900Y-151146100D01*
X145028900Y-151146100D02*
X147358600Y-151146100D01*
X147358600Y-151146100D02*
X148212500Y-152000000D01*
%TO.N,LED_WIFI_A*%
X158943100Y-151155600D02*
X159787500Y-152000000D01*
X155825000Y-152000000D02*
X156669400Y-151155600D01*
X156669400Y-151155600D02*
X158943100Y-151155600D01*
%TD*%
%TA.AperFunction,Conductor*%
%TO.N,GND*%
G36*
X165542539Y-108019685D02*
G01*
X165588294Y-108072489D01*
X165599500Y-108124000D01*
X165599500Y-114683551D01*
X165579815Y-114750590D01*
X165527011Y-114796345D01*
X165457853Y-114806289D01*
X165428047Y-114798112D01*
X165280162Y-114736856D01*
X165280160Y-114736855D01*
X165123401Y-114716218D01*
X165123399Y-114716218D01*
X164966639Y-114736855D01*
X164966637Y-114736856D01*
X164820558Y-114797364D01*
X164774984Y-114832334D01*
X164709815Y-114857527D01*
X164641370Y-114843488D01*
X164591381Y-114794674D01*
X164575499Y-114733957D01*
X164575499Y-114727129D01*
X164575498Y-114727123D01*
X164575323Y-114725499D01*
X164569229Y-114668797D01*
X164569091Y-114667516D01*
X164518797Y-114532671D01*
X164518793Y-114532664D01*
X164432547Y-114417455D01*
X164432544Y-114417452D01*
X164317335Y-114331206D01*
X164317328Y-114331202D01*
X164182486Y-114280910D01*
X164182485Y-114280909D01*
X164182483Y-114280909D01*
X164122873Y-114274500D01*
X164122863Y-114274500D01*
X163477129Y-114274500D01*
X163477123Y-114274501D01*
X163417516Y-114280908D01*
X163282671Y-114331202D01*
X163282664Y-114331206D01*
X163167456Y-114417452D01*
X163167455Y-114417453D01*
X163167454Y-114417454D01*
X163109914Y-114494318D01*
X163105802Y-114499811D01*
X163049868Y-114541682D01*
X163006535Y-114549500D01*
X162870093Y-114549500D01*
X162735307Y-114549500D01*
X162735304Y-114549501D01*
X162712335Y-114556963D01*
X162693422Y-114561503D01*
X162669574Y-114565280D01*
X162648059Y-114576242D01*
X162630089Y-114583685D01*
X162607121Y-114591148D01*
X162607117Y-114591149D01*
X162587580Y-114605344D01*
X162570998Y-114615506D01*
X162549483Y-114626469D01*
X162549480Y-114626471D01*
X162525506Y-114650446D01*
X161862180Y-115313771D01*
X161800857Y-115347256D01*
X161731165Y-115342272D01*
X161675232Y-115300400D01*
X161650815Y-115234936D01*
X161650499Y-115226090D01*
X161650499Y-114555143D01*
X161650499Y-114555136D01*
X161649846Y-114549501D01*
X161647586Y-114530012D01*
X161647585Y-114530010D01*
X161647585Y-114530009D01*
X161602206Y-114427235D01*
X161522765Y-114347794D01*
X161485188Y-114331202D01*
X161419992Y-114302415D01*
X161394865Y-114299500D01*
X158805143Y-114299500D01*
X158805117Y-114299502D01*
X158780012Y-114302413D01*
X158780008Y-114302415D01*
X158677235Y-114347793D01*
X158597794Y-114427234D01*
X158570231Y-114489659D01*
X158525145Y-114543035D01*
X158458359Y-114563562D01*
X158409345Y-114554133D01*
X158314765Y-114514957D01*
X158314760Y-114514955D01*
X158158001Y-114494318D01*
X158157999Y-114494318D01*
X158001239Y-114514955D01*
X158001237Y-114514956D01*
X157855160Y-114575463D01*
X157729718Y-114671718D01*
X157633463Y-114797160D01*
X157572956Y-114943237D01*
X157572955Y-114943239D01*
X157552318Y-115099998D01*
X157552318Y-115100001D01*
X157572955Y-115256760D01*
X157572956Y-115256762D01*
X157613273Y-115354097D01*
X157633464Y-115402841D01*
X157729718Y-115528282D01*
X157855159Y-115624536D01*
X158001238Y-115685044D01*
X158079619Y-115695363D01*
X158157999Y-115705682D01*
X158158000Y-115705682D01*
X158158001Y-115705682D01*
X158210254Y-115698802D01*
X158314762Y-115685044D01*
X158409346Y-115645865D01*
X158478813Y-115638397D01*
X158541292Y-115669672D01*
X158570231Y-115710341D01*
X158597793Y-115772764D01*
X158597794Y-115772765D01*
X158677235Y-115852206D01*
X158780009Y-115897585D01*
X158805135Y-115900500D01*
X160976089Y-115900499D01*
X161043128Y-115920184D01*
X161088883Y-115972987D01*
X161098827Y-116042146D01*
X161069802Y-116105702D01*
X161063770Y-116112180D01*
X160912769Y-116263181D01*
X160851446Y-116296666D01*
X160825088Y-116299500D01*
X158805143Y-116299500D01*
X158805117Y-116299502D01*
X158780012Y-116302413D01*
X158780008Y-116302415D01*
X158677235Y-116347793D01*
X158597794Y-116427234D01*
X158552415Y-116530006D01*
X158552415Y-116530008D01*
X158549500Y-116555131D01*
X158549500Y-117644856D01*
X158549502Y-117644882D01*
X158552413Y-117669987D01*
X158552415Y-117669991D01*
X158597793Y-117772764D01*
X158597794Y-117772765D01*
X158677235Y-117852206D01*
X158780009Y-117897585D01*
X158805135Y-117900500D01*
X161127400Y-117900499D01*
X161194439Y-117920184D01*
X161240194Y-117972987D01*
X161251400Y-118024499D01*
X161251400Y-118175500D01*
X161231715Y-118242539D01*
X161178911Y-118288294D01*
X161127400Y-118299500D01*
X158805143Y-118299500D01*
X158805117Y-118299502D01*
X158780012Y-118302413D01*
X158780008Y-118302415D01*
X158677235Y-118347793D01*
X158597794Y-118427234D01*
X158552415Y-118530006D01*
X158552415Y-118530008D01*
X158549500Y-118555131D01*
X158549500Y-119644856D01*
X158549502Y-119644882D01*
X158552413Y-119669987D01*
X158552415Y-119669991D01*
X158597793Y-119772764D01*
X158597794Y-119772765D01*
X158677235Y-119852206D01*
X158780009Y-119897585D01*
X158805135Y-119900500D01*
X161394864Y-119900499D01*
X161394879Y-119900497D01*
X161394882Y-119900497D01*
X161419987Y-119897586D01*
X161419988Y-119897585D01*
X161419991Y-119897585D01*
X161522765Y-119852206D01*
X161602206Y-119772765D01*
X161647585Y-119669991D01*
X161650500Y-119644865D01*
X161650499Y-119640903D01*
X161670175Y-119573865D01*
X161722973Y-119528103D01*
X161755096Y-119518418D01*
X161810026Y-119509719D01*
X161930120Y-119448528D01*
X162007725Y-119370922D01*
X162069046Y-119337439D01*
X162138738Y-119342423D01*
X162194672Y-119384294D01*
X162209966Y-119411152D01*
X162246164Y-119498541D01*
X162309595Y-119581206D01*
X162342419Y-119623983D01*
X162367469Y-119643204D01*
X162379664Y-119653899D01*
X162988181Y-120262416D01*
X163021666Y-120323739D01*
X163024500Y-120350096D01*
X163024500Y-120472869D01*
X163024501Y-120472876D01*
X163030908Y-120532483D01*
X163081202Y-120667328D01*
X163081203Y-120667329D01*
X163081204Y-120667331D01*
X163096048Y-120687160D01*
X163120465Y-120752624D01*
X163105613Y-120820897D01*
X163095158Y-120836956D01*
X163048964Y-120897158D01*
X162988456Y-121043237D01*
X162988455Y-121043239D01*
X162967818Y-121199998D01*
X162967818Y-121200001D01*
X162988455Y-121356760D01*
X162988456Y-121356762D01*
X163048055Y-121500648D01*
X163048964Y-121502841D01*
X163145218Y-121628282D01*
X163270659Y-121724536D01*
X163416738Y-121785044D01*
X163495119Y-121795363D01*
X163573499Y-121805682D01*
X163573500Y-121805682D01*
X163573501Y-121805682D01*
X163625754Y-121798802D01*
X163730262Y-121785044D01*
X163876341Y-121724536D01*
X164001782Y-121628282D01*
X164021009Y-121603223D01*
X164031690Y-121591043D01*
X164191043Y-121431690D01*
X164203223Y-121421009D01*
X164228282Y-121401782D01*
X164324536Y-121276341D01*
X164385044Y-121130262D01*
X164400500Y-121012861D01*
X164405682Y-120973500D01*
X164401561Y-120942197D01*
X164400500Y-120926012D01*
X164400500Y-120865955D01*
X164420185Y-120798916D01*
X164427495Y-120789844D01*
X164427231Y-120789646D01*
X164445807Y-120764831D01*
X164518796Y-120667331D01*
X164569091Y-120532483D01*
X164575500Y-120472873D01*
X164575499Y-119977128D01*
X164569091Y-119917517D01*
X164561657Y-119897586D01*
X164518797Y-119782671D01*
X164518793Y-119782664D01*
X164432547Y-119667455D01*
X164432544Y-119667452D01*
X164317335Y-119581206D01*
X164317328Y-119581202D01*
X164182482Y-119530908D01*
X164182483Y-119530908D01*
X164122883Y-119524501D01*
X164122881Y-119524500D01*
X164122873Y-119524500D01*
X164122865Y-119524500D01*
X164000097Y-119524500D01*
X163933058Y-119504815D01*
X163912416Y-119488181D01*
X163911415Y-119487180D01*
X163877930Y-119425857D01*
X163882914Y-119356165D01*
X163924786Y-119300232D01*
X163990250Y-119275815D01*
X163999096Y-119275499D01*
X164122871Y-119275499D01*
X164122872Y-119275499D01*
X164182483Y-119269091D01*
X164317331Y-119218796D01*
X164432546Y-119132546D01*
X164518796Y-119017331D01*
X164569091Y-118882483D01*
X164575500Y-118822873D01*
X164575499Y-118452608D01*
X164595183Y-118385570D01*
X164611809Y-118364937D01*
X164927253Y-118049495D01*
X164951228Y-118025520D01*
X164962193Y-118003998D01*
X164972354Y-117987418D01*
X164986549Y-117967881D01*
X164994009Y-117944916D01*
X165001459Y-117926934D01*
X165012418Y-117905428D01*
X165012418Y-117905427D01*
X165012419Y-117905426D01*
X165016195Y-117881576D01*
X165020736Y-117862660D01*
X165028200Y-117839693D01*
X165028200Y-117704907D01*
X165028200Y-116118812D01*
X165028200Y-116084907D01*
X165028199Y-116084906D01*
X165026673Y-116075269D01*
X165028788Y-116074933D01*
X165027158Y-116018021D01*
X165063233Y-115958185D01*
X165125931Y-115927351D01*
X165130885Y-115926596D01*
X165280162Y-115906944D01*
X165426241Y-115846436D01*
X165426243Y-115846433D01*
X165428047Y-115845687D01*
X165497516Y-115838218D01*
X165559995Y-115869493D01*
X165595648Y-115929582D01*
X165599500Y-115960248D01*
X165599500Y-163995572D01*
X165599184Y-164004419D01*
X165583851Y-164218788D01*
X165581333Y-164236299D01*
X165536595Y-164441960D01*
X165531611Y-164458936D01*
X165458053Y-164656150D01*
X165450703Y-164672242D01*
X165349836Y-164856968D01*
X165340271Y-164871853D01*
X165214133Y-165040353D01*
X165202547Y-165053723D01*
X165053723Y-165202547D01*
X165040353Y-165214133D01*
X164871853Y-165340271D01*
X164856968Y-165349836D01*
X164672242Y-165450703D01*
X164656150Y-165458053D01*
X164458936Y-165531611D01*
X164441960Y-165536595D01*
X164236299Y-165581333D01*
X164218788Y-165583851D01*
X164023369Y-165597828D01*
X164004417Y-165599184D01*
X163995572Y-165599500D01*
X131124000Y-165599500D01*
X131056961Y-165579815D01*
X131011206Y-165527011D01*
X131000000Y-165475500D01*
X131000000Y-161000000D01*
X132644341Y-161000000D01*
X132664936Y-161235403D01*
X132664938Y-161235413D01*
X132726094Y-161463655D01*
X132726096Y-161463659D01*
X132726097Y-161463663D01*
X132776031Y-161570746D01*
X132825964Y-161677828D01*
X132825965Y-161677830D01*
X132961505Y-161871402D01*
X133128597Y-162038494D01*
X133322169Y-162174034D01*
X133322171Y-162174035D01*
X133536337Y-162273903D01*
X133764592Y-162335063D01*
X133941032Y-162350499D01*
X133941033Y-162350500D01*
X133941034Y-162350500D01*
X134058967Y-162350500D01*
X134058967Y-162350499D01*
X134235408Y-162335063D01*
X134463663Y-162273903D01*
X134677829Y-162174035D01*
X134871401Y-162038495D01*
X135038495Y-161871401D01*
X135174035Y-161677830D01*
X135273903Y-161463663D01*
X135335063Y-161235408D01*
X135355659Y-161000000D01*
X160644341Y-161000000D01*
X160664936Y-161235403D01*
X160664938Y-161235413D01*
X160726094Y-161463655D01*
X160726096Y-161463659D01*
X160726097Y-161463663D01*
X160776031Y-161570746D01*
X160825964Y-161677828D01*
X160825965Y-161677830D01*
X160961505Y-161871402D01*
X161128597Y-162038494D01*
X161322169Y-162174034D01*
X161322171Y-162174035D01*
X161536337Y-162273903D01*
X161764592Y-162335063D01*
X161941032Y-162350499D01*
X161941033Y-162350500D01*
X161941034Y-162350500D01*
X162058967Y-162350500D01*
X162058967Y-162350499D01*
X162235408Y-162335063D01*
X162463663Y-162273903D01*
X162677829Y-162174035D01*
X162871401Y-162038495D01*
X163038495Y-161871401D01*
X163174035Y-161677830D01*
X163273903Y-161463663D01*
X163335063Y-161235408D01*
X163355659Y-161000000D01*
X163335063Y-160764592D01*
X163273903Y-160536337D01*
X163174035Y-160322171D01*
X163174034Y-160322169D01*
X163038494Y-160128597D01*
X162871402Y-159961505D01*
X162677830Y-159825965D01*
X162677828Y-159825964D01*
X162570746Y-159776031D01*
X162463663Y-159726097D01*
X162463659Y-159726096D01*
X162463655Y-159726094D01*
X162235413Y-159664938D01*
X162235403Y-159664936D01*
X162058967Y-159649500D01*
X162058966Y-159649500D01*
X161941034Y-159649500D01*
X161941033Y-159649500D01*
X161764596Y-159664936D01*
X161764586Y-159664938D01*
X161536344Y-159726094D01*
X161536335Y-159726098D01*
X161322171Y-159825964D01*
X161322169Y-159825965D01*
X161128597Y-159961505D01*
X160961506Y-160128597D01*
X160961501Y-160128604D01*
X160825967Y-160322165D01*
X160825965Y-160322169D01*
X160726098Y-160536335D01*
X160726094Y-160536344D01*
X160664938Y-160764586D01*
X160664936Y-160764596D01*
X160644341Y-160999999D01*
X160644341Y-161000000D01*
X135355659Y-161000000D01*
X135335063Y-160764592D01*
X135273903Y-160536337D01*
X135174035Y-160322171D01*
X135174034Y-160322169D01*
X135038494Y-160128597D01*
X134871402Y-159961505D01*
X134677830Y-159825965D01*
X134677828Y-159825964D01*
X134570746Y-159776031D01*
X134463663Y-159726097D01*
X134463659Y-159726096D01*
X134463655Y-159726094D01*
X134235413Y-159664938D01*
X134235403Y-159664936D01*
X134058967Y-159649500D01*
X134058966Y-159649500D01*
X133941034Y-159649500D01*
X133941033Y-159649500D01*
X133764596Y-159664936D01*
X133764586Y-159664938D01*
X133536344Y-159726094D01*
X133536335Y-159726098D01*
X133322171Y-159825964D01*
X133322169Y-159825965D01*
X133128597Y-159961505D01*
X132961506Y-160128597D01*
X132961501Y-160128604D01*
X132825967Y-160322165D01*
X132825965Y-160322169D01*
X132726098Y-160536335D01*
X132726094Y-160536344D01*
X132664938Y-160764586D01*
X132664936Y-160764596D01*
X132644341Y-160999999D01*
X132644341Y-161000000D01*
X131000000Y-161000000D01*
X131000000Y-147724000D01*
X131019685Y-147656961D01*
X131072489Y-147611206D01*
X131124000Y-147600000D01*
X145500000Y-147600000D01*
X145500000Y-145074500D01*
X145519685Y-145007461D01*
X145572489Y-144961706D01*
X145624000Y-144950500D01*
X146135045Y-144950500D01*
X146202084Y-144970185D01*
X146247839Y-145022989D01*
X146257783Y-145092147D01*
X146228758Y-145155703D01*
X146222730Y-145162177D01*
X146217457Y-145167450D01*
X146131206Y-145282664D01*
X146131202Y-145282671D01*
X146080910Y-145417513D01*
X146080909Y-145417517D01*
X146074500Y-145477127D01*
X146074500Y-145477134D01*
X146074500Y-145477135D01*
X146074500Y-146122870D01*
X146074501Y-146122876D01*
X146080908Y-146182483D01*
X146131202Y-146317328D01*
X146131206Y-146317335D01*
X146217452Y-146432544D01*
X146217455Y-146432547D01*
X146332664Y-146518793D01*
X146332671Y-146518797D01*
X146353123Y-146526425D01*
X146467517Y-146569091D01*
X146527127Y-146575500D01*
X147022872Y-146575499D01*
X147082483Y-146569091D01*
X147217331Y-146518796D01*
X147332546Y-146432546D01*
X147418796Y-146317331D01*
X147430497Y-146285958D01*
X147472366Y-146230026D01*
X147537830Y-146205607D01*
X147606103Y-146220457D01*
X147655510Y-146269862D01*
X147661240Y-146281839D01*
X147700899Y-146377585D01*
X147797075Y-146502924D01*
X147922413Y-146599100D01*
X148068365Y-146659554D01*
X148068369Y-146659555D01*
X148175000Y-146673594D01*
X148175000Y-146050000D01*
X148675000Y-146050000D01*
X148675000Y-146673592D01*
X148675001Y-146673593D01*
X148781627Y-146659557D01*
X148781633Y-146659555D01*
X148927585Y-146599100D01*
X149052924Y-146502924D01*
X149149100Y-146377586D01*
X149209554Y-146231634D01*
X149209555Y-146231630D01*
X149224999Y-146114330D01*
X149225000Y-146114316D01*
X149225000Y-146050000D01*
X148675000Y-146050000D01*
X148175000Y-146050000D01*
X148175000Y-145674000D01*
X148194685Y-145606961D01*
X148247489Y-145561206D01*
X148299000Y-145550000D01*
X149224999Y-145550000D01*
X149238659Y-145536339D01*
X149244684Y-145515822D01*
X149297488Y-145470067D01*
X149366646Y-145460123D01*
X149430202Y-145489148D01*
X149463560Y-145535409D01*
X149491862Y-145603738D01*
X149491863Y-145603740D01*
X149491864Y-145603741D01*
X149588118Y-145729182D01*
X149713559Y-145825436D01*
X149859638Y-145885944D01*
X149898483Y-145891058D01*
X150016399Y-145906582D01*
X150016400Y-145906582D01*
X150134315Y-145891058D01*
X150203350Y-145901823D01*
X150255606Y-145948203D01*
X150274500Y-146013996D01*
X150274500Y-146122869D01*
X150274501Y-146122876D01*
X150280908Y-146182483D01*
X150331202Y-146317328D01*
X150331206Y-146317335D01*
X150417452Y-146432544D01*
X150417453Y-146432545D01*
X150417454Y-146432546D01*
X150499811Y-146494198D01*
X150541682Y-146550131D01*
X150549500Y-146593464D01*
X150549500Y-150584890D01*
X150529815Y-150651929D01*
X150513181Y-150672571D01*
X149997571Y-151188181D01*
X149936248Y-151221666D01*
X149909890Y-151224500D01*
X149528098Y-151224500D01*
X149444656Y-151234520D01*
X149444655Y-151234520D01*
X149311865Y-151286886D01*
X149198132Y-151373132D01*
X149111884Y-151486868D01*
X149108086Y-151493624D01*
X149058072Y-151542412D01*
X148989620Y-151556416D01*
X148924463Y-151531188D01*
X148891914Y-151493624D01*
X148888115Y-151486868D01*
X148801867Y-151373132D01*
X148688134Y-151286886D01*
X148688132Y-151286885D01*
X148555346Y-151234521D01*
X148555345Y-151234520D01*
X148555343Y-151234520D01*
X148471902Y-151224500D01*
X148090110Y-151224500D01*
X148023071Y-151204815D01*
X148002429Y-151188181D01*
X147611818Y-150797570D01*
X147590303Y-150786608D01*
X147573710Y-150776440D01*
X147554180Y-150762250D01*
X147531215Y-150754788D01*
X147513241Y-150747343D01*
X147491727Y-150736381D01*
X147486610Y-150735570D01*
X147467873Y-150732603D01*
X147448958Y-150728062D01*
X147425994Y-150720600D01*
X147425993Y-150720600D01*
X147392088Y-150720600D01*
X145096293Y-150720600D01*
X144961507Y-150720600D01*
X144961504Y-150720600D01*
X144938539Y-150728062D01*
X144919622Y-150732603D01*
X144895773Y-150736380D01*
X144874258Y-150747343D01*
X144856285Y-150754788D01*
X144833317Y-150762251D01*
X144833314Y-150762252D01*
X144813778Y-150776446D01*
X144797193Y-150786610D01*
X144775680Y-150797571D01*
X144766182Y-150807070D01*
X144751706Y-150821546D01*
X144385069Y-151188181D01*
X144323746Y-151221666D01*
X144297388Y-151224500D01*
X143927130Y-151224500D01*
X143927123Y-151224501D01*
X143867516Y-151230908D01*
X143732671Y-151281202D01*
X143732664Y-151281206D01*
X143617455Y-151367452D01*
X143617452Y-151367455D01*
X143531206Y-151482664D01*
X143531202Y-151482671D01*
X143480910Y-151617513D01*
X143480909Y-151617517D01*
X143474500Y-151677127D01*
X143474500Y-151677134D01*
X143474500Y-151677135D01*
X143474500Y-152322870D01*
X143474501Y-152322876D01*
X143480908Y-152382483D01*
X143531202Y-152517328D01*
X143531206Y-152517335D01*
X143617452Y-152632544D01*
X143617455Y-152632547D01*
X143732664Y-152718793D01*
X143732671Y-152718797D01*
X143777618Y-152735561D01*
X143867517Y-152769091D01*
X143927127Y-152775500D01*
X144422872Y-152775499D01*
X144482483Y-152769091D01*
X144617331Y-152718796D01*
X144732546Y-152632546D01*
X144818796Y-152517331D01*
X144830497Y-152485958D01*
X144872366Y-152430026D01*
X144937830Y-152405607D01*
X145006103Y-152420457D01*
X145055510Y-152469862D01*
X145061240Y-152481839D01*
X145100899Y-152577585D01*
X145197075Y-152702924D01*
X145322413Y-152799100D01*
X145468365Y-152859554D01*
X145468369Y-152859555D01*
X145575000Y-152873594D01*
X145575000Y-152250000D01*
X146075000Y-152250000D01*
X146075000Y-152873592D01*
X146075001Y-152873593D01*
X146181627Y-152859557D01*
X146181633Y-152859555D01*
X146327585Y-152799100D01*
X146452924Y-152702924D01*
X146549100Y-152577586D01*
X146609554Y-152431634D01*
X146609555Y-152431630D01*
X146624999Y-152314330D01*
X146625000Y-152314316D01*
X146625000Y-152250000D01*
X146075000Y-152250000D01*
X145575000Y-152250000D01*
X145575000Y-151874000D01*
X145594685Y-151806961D01*
X145647489Y-151761206D01*
X145699000Y-151750000D01*
X146624999Y-151750000D01*
X146624999Y-151695600D01*
X146644684Y-151628561D01*
X146697488Y-151582806D01*
X146748999Y-151571600D01*
X147130990Y-151571600D01*
X147198029Y-151591285D01*
X147218671Y-151607919D01*
X147438181Y-151827429D01*
X147471666Y-151888752D01*
X147474500Y-151915110D01*
X147474500Y-152296902D01*
X147484520Y-152380343D01*
X147484520Y-152380344D01*
X147484521Y-152380346D01*
X147533257Y-152503933D01*
X147536886Y-152513134D01*
X147623132Y-152626867D01*
X147723429Y-152702924D01*
X147736868Y-152713115D01*
X147869654Y-152765479D01*
X147953098Y-152775500D01*
X148471902Y-152775500D01*
X148555346Y-152765479D01*
X148688132Y-152713115D01*
X148801867Y-152626867D01*
X148888115Y-152513132D01*
X148888117Y-152513126D01*
X148891912Y-152506378D01*
X148941925Y-152457589D01*
X149010376Y-152443583D01*
X149075534Y-152468808D01*
X149108088Y-152506378D01*
X149111886Y-152513134D01*
X149198132Y-152626867D01*
X149298429Y-152702924D01*
X149311868Y-152713115D01*
X149444654Y-152765479D01*
X149528098Y-152775500D01*
X150046902Y-152775500D01*
X150130346Y-152765479D01*
X150263132Y-152713115D01*
X150376867Y-152626867D01*
X150463115Y-152513132D01*
X150515479Y-152380346D01*
X150525500Y-152296902D01*
X150525500Y-151915110D01*
X150545185Y-151848071D01*
X150561819Y-151827429D01*
X150940170Y-151449078D01*
X151299554Y-151089694D01*
X151323528Y-151065720D01*
X151334490Y-151044205D01*
X151344652Y-151027621D01*
X151358850Y-151008081D01*
X151366311Y-150985114D01*
X151373760Y-150967133D01*
X151384718Y-150945629D01*
X151384718Y-150945628D01*
X151384718Y-150945627D01*
X151384719Y-150945626D01*
X151388496Y-150921773D01*
X151393035Y-150902866D01*
X151400500Y-150879893D01*
X151400500Y-150745107D01*
X151400500Y-146593464D01*
X151420185Y-146526425D01*
X151450187Y-146494199D01*
X151532546Y-146432546D01*
X151618796Y-146317331D01*
X151669091Y-146182483D01*
X151675500Y-146122873D01*
X151675499Y-145477128D01*
X151669091Y-145417517D01*
X151660554Y-145394629D01*
X151618797Y-145282671D01*
X151618793Y-145282664D01*
X151532547Y-145167455D01*
X151527273Y-145162181D01*
X151493788Y-145100858D01*
X151498772Y-145031166D01*
X151540644Y-144975233D01*
X151606108Y-144950816D01*
X151614954Y-144950500D01*
X151985045Y-144950500D01*
X152052084Y-144970185D01*
X152097839Y-145022989D01*
X152107783Y-145092147D01*
X152078758Y-145155703D01*
X152072730Y-145162177D01*
X152067457Y-145167450D01*
X151981206Y-145282664D01*
X151981202Y-145282671D01*
X151930910Y-145417513D01*
X151930909Y-145417517D01*
X151924500Y-145477127D01*
X151924500Y-145477134D01*
X151924500Y-145477135D01*
X151924500Y-146122870D01*
X151924501Y-146122876D01*
X151930908Y-146182483D01*
X151981202Y-146317328D01*
X151981206Y-146317335D01*
X152067452Y-146432544D01*
X152067455Y-146432547D01*
X152182664Y-146518793D01*
X152182671Y-146518797D01*
X152203123Y-146526425D01*
X152317517Y-146569091D01*
X152377127Y-146575500D01*
X152872872Y-146575499D01*
X152932483Y-146569091D01*
X153067331Y-146518796D01*
X153182546Y-146432546D01*
X153268796Y-146317331D01*
X153319091Y-146182483D01*
X153325500Y-146122873D01*
X153325499Y-145477128D01*
X153319091Y-145417517D01*
X153310554Y-145394629D01*
X153268797Y-145282671D01*
X153268793Y-145282664D01*
X153182548Y-145167457D01*
X153182546Y-145167454D01*
X153182541Y-145167450D01*
X153182539Y-145167448D01*
X153120189Y-145120772D01*
X153078318Y-145064838D01*
X153070500Y-145021506D01*
X153070500Y-144564733D01*
X153073609Y-144537139D01*
X153074315Y-144534044D01*
X153070847Y-144487770D01*
X153070500Y-144478502D01*
X153070500Y-144466240D01*
X153070500Y-144466238D01*
X153068671Y-144454110D01*
X153067633Y-144444891D01*
X153063472Y-144389353D01*
X153065603Y-144389193D01*
X153069117Y-144331853D01*
X153110416Y-144275495D01*
X153175628Y-144250412D01*
X153185735Y-144249999D01*
X153349999Y-144249999D01*
X153350000Y-144249998D01*
X153350000Y-143725000D01*
X153850000Y-143725000D01*
X153850000Y-144249999D01*
X154131479Y-144249999D01*
X154225149Y-144235164D01*
X154225155Y-144235162D01*
X154338041Y-144177643D01*
X154338050Y-144177636D01*
X154427636Y-144088050D01*
X154427639Y-144088046D01*
X154485166Y-143975144D01*
X154500000Y-143881486D01*
X154500000Y-143725000D01*
X158700001Y-143725000D01*
X158700001Y-143881479D01*
X158714835Y-143975149D01*
X158714837Y-143975155D01*
X158772356Y-144088041D01*
X158772363Y-144088050D01*
X158861949Y-144177636D01*
X158861953Y-144177639D01*
X158974855Y-144235166D01*
X159068514Y-144249999D01*
X159349999Y-144249999D01*
X159350000Y-144249998D01*
X159350000Y-143725000D01*
X159850000Y-143725000D01*
X159850000Y-144249999D01*
X160131479Y-144249999D01*
X160225149Y-144235164D01*
X160225155Y-144235162D01*
X160338041Y-144177643D01*
X160338050Y-144177636D01*
X160427636Y-144088050D01*
X160427639Y-144088046D01*
X160485166Y-143975144D01*
X160500000Y-143881486D01*
X160500000Y-143725000D01*
X159850000Y-143725000D01*
X159350000Y-143725000D01*
X158700001Y-143725000D01*
X154500000Y-143725000D01*
X153850000Y-143725000D01*
X153350000Y-143725000D01*
X152700001Y-143725000D01*
X152700001Y-143881484D01*
X152703900Y-143906103D01*
X152694945Y-143975396D01*
X152649948Y-144028848D01*
X152583197Y-144049487D01*
X152581427Y-144049500D01*
X148285589Y-144049500D01*
X148218550Y-144029815D01*
X148172795Y-143977011D01*
X148162851Y-143907853D01*
X148170234Y-143880010D01*
X148189386Y-143831442D01*
X148193162Y-143800000D01*
X145931838Y-143800000D01*
X145935613Y-143831442D01*
X145954766Y-143880010D01*
X145961047Y-143949597D01*
X145928710Y-144011533D01*
X145868021Y-144046154D01*
X145839411Y-144049500D01*
X145624000Y-144049500D01*
X145556961Y-144029815D01*
X145511206Y-143977011D01*
X145500000Y-143925500D01*
X145500000Y-143300000D01*
X145931838Y-143300000D01*
X146812500Y-143300000D01*
X146812500Y-142850000D01*
X146431946Y-142850000D01*
X146343556Y-142860613D01*
X146202904Y-142916079D01*
X146082435Y-143007435D01*
X145991079Y-143127904D01*
X145935613Y-143268557D01*
X145931838Y-143300000D01*
X145500000Y-143300000D01*
X145500000Y-142224500D01*
X145519685Y-142157461D01*
X145572489Y-142111706D01*
X145624000Y-142100500D01*
X146082712Y-142100500D01*
X146149751Y-142120185D01*
X146156345Y-142124730D01*
X146262113Y-142202790D01*
X146262115Y-142202791D01*
X146262118Y-142202793D01*
X146300436Y-142216201D01*
X146390299Y-142247646D01*
X146420730Y-142250500D01*
X146420734Y-142250500D01*
X147704270Y-142250500D01*
X147734699Y-142247646D01*
X147736984Y-142246847D01*
X147738779Y-142246755D01*
X147742073Y-142246036D01*
X147742192Y-142246580D01*
X147806763Y-142243283D01*
X147867391Y-142278010D01*
X147899620Y-142340003D01*
X147901401Y-142375462D01*
X147899501Y-142395730D01*
X147899500Y-142395738D01*
X147899500Y-142735008D01*
X147879815Y-142802047D01*
X147827011Y-142847802D01*
X147760718Y-142858124D01*
X147693056Y-142850000D01*
X147312500Y-142850000D01*
X147312500Y-143300000D01*
X148193162Y-143300000D01*
X148207099Y-143284289D01*
X148209433Y-143270372D01*
X148250639Y-143225000D01*
X152700000Y-143225000D01*
X153350000Y-143225000D01*
X153350000Y-142700000D01*
X153850000Y-142700000D01*
X153850000Y-143225000D01*
X154499999Y-143225000D01*
X158700000Y-143225000D01*
X159350000Y-143225000D01*
X159350000Y-142700000D01*
X159850000Y-142700000D01*
X159850000Y-143225000D01*
X160499999Y-143225000D01*
X160499999Y-143068520D01*
X160485164Y-142974850D01*
X160485162Y-142974844D01*
X160427643Y-142861958D01*
X160427636Y-142861949D01*
X160338050Y-142772363D01*
X160338046Y-142772360D01*
X160225144Y-142714833D01*
X160131486Y-142700000D01*
X159850000Y-142700000D01*
X159350000Y-142700000D01*
X159068520Y-142700000D01*
X158974850Y-142714835D01*
X158974844Y-142714837D01*
X158861958Y-142772356D01*
X158861949Y-142772363D01*
X158772363Y-142861949D01*
X158772360Y-142861953D01*
X158714833Y-142974855D01*
X158700000Y-143068513D01*
X158700000Y-143225000D01*
X154499999Y-143225000D01*
X154499999Y-143068520D01*
X154485164Y-142974850D01*
X154485162Y-142974844D01*
X154427643Y-142861958D01*
X154427636Y-142861949D01*
X154338050Y-142772363D01*
X154338046Y-142772360D01*
X154225144Y-142714833D01*
X154131486Y-142700000D01*
X153850000Y-142700000D01*
X153350000Y-142700000D01*
X153068520Y-142700000D01*
X152974850Y-142714835D01*
X152974844Y-142714837D01*
X152861958Y-142772356D01*
X152861949Y-142772363D01*
X152772363Y-142861949D01*
X152772360Y-142861953D01*
X152714833Y-142974855D01*
X152700000Y-143068513D01*
X152700000Y-143225000D01*
X148250639Y-143225000D01*
X148256407Y-143218649D01*
X148320995Y-143200500D01*
X148890013Y-143200500D01*
X148906197Y-143201560D01*
X148937500Y-143205682D01*
X148968802Y-143201560D01*
X148984987Y-143200500D01*
X149579270Y-143200500D01*
X149609699Y-143197646D01*
X149609701Y-143197646D01*
X149673790Y-143175219D01*
X149737882Y-143152793D01*
X149847150Y-143072150D01*
X149927793Y-142962882D01*
X149950219Y-142898790D01*
X149972646Y-142834701D01*
X149972646Y-142834699D01*
X149975500Y-142804269D01*
X149975500Y-142395730D01*
X149972646Y-142365300D01*
X149972646Y-142365298D01*
X149939006Y-142269163D01*
X149927793Y-142237118D01*
X149847150Y-142127850D01*
X149737882Y-142047207D01*
X149621044Y-142006323D01*
X149564269Y-141965601D01*
X149538522Y-141900648D01*
X149538000Y-141889282D01*
X149538000Y-141863771D01*
X149540109Y-141840997D01*
X149585435Y-141598405D01*
X149656413Y-141218516D01*
X149688076Y-141156234D01*
X149690579Y-141153655D01*
X149747450Y-141096785D01*
X149819536Y-141002841D01*
X149880044Y-140856762D01*
X149900682Y-140700000D01*
X149898065Y-140680125D01*
X149882254Y-140560026D01*
X149880044Y-140543238D01*
X149826973Y-140415115D01*
X149819505Y-140345646D01*
X149819644Y-140344889D01*
X149821169Y-140336727D01*
X149924676Y-139782743D01*
X149956338Y-139720463D01*
X150001073Y-139690168D01*
X150134975Y-139637364D01*
X150250078Y-139550078D01*
X150337364Y-139434975D01*
X150390359Y-139300590D01*
X150400500Y-139216144D01*
X150400500Y-138857850D01*
X150420185Y-138790811D01*
X150472989Y-138745056D01*
X150540684Y-138734911D01*
X150618700Y-138745182D01*
X150650002Y-138741060D01*
X150666187Y-138740000D01*
X152698613Y-138740000D01*
X152714797Y-138741060D01*
X152746100Y-138745182D01*
X152746101Y-138745182D01*
X152824116Y-138734911D01*
X152902862Y-138724544D01*
X153048941Y-138664036D01*
X153174382Y-138567782D01*
X153193609Y-138542723D01*
X153204290Y-138530543D01*
X154444843Y-137289990D01*
X154457023Y-137279309D01*
X154482082Y-137260082D01*
X154578336Y-137134641D01*
X154638844Y-136988562D01*
X154654300Y-136871161D01*
X154659482Y-136831800D01*
X154655361Y-136800497D01*
X154654300Y-136784312D01*
X154654300Y-135807187D01*
X154655361Y-135791001D01*
X154659482Y-135759700D01*
X154638844Y-135602938D01*
X154578336Y-135456859D01*
X154506250Y-135362915D01*
X154485670Y-135336094D01*
X154482081Y-135331416D01*
X154457029Y-135312194D01*
X154444834Y-135301499D01*
X154074499Y-134931164D01*
X154063804Y-134918969D01*
X154044583Y-134893919D01*
X153941753Y-134815015D01*
X153919141Y-134797664D01*
X153773062Y-134737156D01*
X153773060Y-134737155D01*
X153655661Y-134721700D01*
X153616300Y-134716518D01*
X153584997Y-134720639D01*
X153568813Y-134721700D01*
X152774500Y-134721700D01*
X152707461Y-134702015D01*
X152661706Y-134649211D01*
X152650500Y-134597700D01*
X152650500Y-133870929D01*
X152670185Y-133803890D01*
X152722989Y-133758135D01*
X152763276Y-133747439D01*
X152797657Y-133744315D01*
X152954270Y-133695512D01*
X153094653Y-133610648D01*
X153210648Y-133494653D01*
X153295512Y-133354270D01*
X153344315Y-133197657D01*
X153350500Y-133129594D01*
X153350500Y-132270406D01*
X153344315Y-132202343D01*
X153297594Y-132052412D01*
X153295514Y-132045736D01*
X153295511Y-132045727D01*
X153210651Y-131905351D01*
X153210648Y-131905347D01*
X153094652Y-131789351D01*
X153094648Y-131789348D01*
X152954272Y-131704488D01*
X152954264Y-131704485D01*
X152838413Y-131668385D01*
X152780265Y-131629648D01*
X152752291Y-131565623D01*
X152763373Y-131496637D01*
X152809991Y-131444594D01*
X152838413Y-131431615D01*
X152954264Y-131395514D01*
X152954266Y-131395513D01*
X152954270Y-131395512D01*
X153094653Y-131310648D01*
X153210648Y-131194653D01*
X153291836Y-131060351D01*
X153343363Y-131013163D01*
X153397953Y-131000500D01*
X156925500Y-131000500D01*
X156992539Y-131020185D01*
X157038294Y-131072989D01*
X157049500Y-131124500D01*
X157049500Y-131844960D01*
X157064630Y-131979249D01*
X157064631Y-131979254D01*
X157124211Y-132149523D01*
X157200169Y-132270408D01*
X157220184Y-132302262D01*
X157347738Y-132429816D01*
X157500478Y-132525789D01*
X157643290Y-132575761D01*
X157670745Y-132585368D01*
X157670750Y-132585369D01*
X157761246Y-132595565D01*
X157805040Y-132600499D01*
X157805043Y-132600500D01*
X157805046Y-132600500D01*
X158894957Y-132600500D01*
X158894958Y-132600499D01*
X158962104Y-132592934D01*
X159029249Y-132585369D01*
X159029252Y-132585368D01*
X159029255Y-132585368D01*
X159199522Y-132525789D01*
X159352262Y-132429816D01*
X159479816Y-132302262D01*
X159575789Y-132149522D01*
X159635368Y-131979255D01*
X159641425Y-131925500D01*
X159645919Y-131885617D01*
X159672985Y-131821203D01*
X159730580Y-131781647D01*
X159769139Y-131775500D01*
X160333779Y-131775500D01*
X160400818Y-131795185D01*
X160408689Y-131800685D01*
X160490025Y-131862364D01*
X160624410Y-131915359D01*
X160708856Y-131925500D01*
X160849903Y-131925500D01*
X160916942Y-131945185D01*
X160937584Y-131961819D01*
X161811281Y-132835516D01*
X161844766Y-132896839D01*
X161847600Y-132923197D01*
X161847600Y-133152512D01*
X161846539Y-133168697D01*
X161842418Y-133199998D01*
X161842418Y-133200000D01*
X161847600Y-133239360D01*
X161847600Y-133239361D01*
X161863055Y-133356760D01*
X161863056Y-133356762D01*
X161923564Y-133502841D01*
X162019818Y-133628282D01*
X162145259Y-133724536D01*
X162291338Y-133785044D01*
X162369719Y-133795363D01*
X162448099Y-133805682D01*
X162448100Y-133805682D01*
X162479402Y-133801560D01*
X162495587Y-133800500D01*
X162525501Y-133800500D01*
X162592540Y-133820185D01*
X162638295Y-133872989D01*
X162649501Y-133924500D01*
X162649501Y-134094855D01*
X162649502Y-134094881D01*
X162652413Y-134119986D01*
X162652415Y-134119990D01*
X162697793Y-134222763D01*
X162697794Y-134222764D01*
X162777235Y-134302205D01*
X162880009Y-134347584D01*
X162905135Y-134350499D01*
X163262715Y-134350498D01*
X163329752Y-134370182D01*
X163375507Y-134422986D01*
X163385451Y-134492145D01*
X163356426Y-134555700D01*
X163315118Y-134586880D01*
X163172613Y-134653332D01*
X163172608Y-134653334D01*
X162993450Y-134778782D01*
X162993444Y-134778787D01*
X162838788Y-134933443D01*
X162838783Y-134933449D01*
X162713335Y-135112607D01*
X162713333Y-135112611D01*
X162620898Y-135310839D01*
X162620894Y-135310848D01*
X162572891Y-135489998D01*
X162572892Y-135489999D01*
X163366314Y-135489999D01*
X163340507Y-135530155D01*
X163300000Y-135668110D01*
X163300000Y-135811888D01*
X163340507Y-135949843D01*
X163366314Y-135989999D01*
X162572892Y-135989999D01*
X162620894Y-136169149D01*
X162620898Y-136169158D01*
X162713333Y-136367386D01*
X162838787Y-136546553D01*
X162993445Y-136701211D01*
X163172612Y-136826665D01*
X163370840Y-136919100D01*
X163370851Y-136919105D01*
X163451735Y-136940777D01*
X163511396Y-136977141D01*
X163541926Y-137039988D01*
X163533632Y-137109364D01*
X163489147Y-137163242D01*
X163464437Y-137176178D01*
X163284991Y-137245696D01*
X163284980Y-137245701D01*
X163103699Y-137357946D01*
X162946127Y-137501592D01*
X162817632Y-137671745D01*
X162722596Y-137862604D01*
X162722596Y-137862606D01*
X162664244Y-138067688D01*
X162644571Y-138279998D01*
X162644571Y-138279999D01*
X162664244Y-138492309D01*
X162722596Y-138697391D01*
X162722596Y-138697393D01*
X162817632Y-138888252D01*
X162939402Y-139049500D01*
X162946128Y-139058406D01*
X163103698Y-139202051D01*
X163284981Y-139314297D01*
X163483802Y-139391320D01*
X163680613Y-139428110D01*
X163742893Y-139459778D01*
X163778166Y-139520091D01*
X163775232Y-139589899D01*
X163735023Y-139647039D01*
X163680613Y-139671887D01*
X163483802Y-139708678D01*
X163483799Y-139708678D01*
X163483799Y-139708679D01*
X163284982Y-139785700D01*
X163284980Y-139785701D01*
X163103699Y-139897946D01*
X162946127Y-140041592D01*
X162817632Y-140211745D01*
X162722596Y-140402604D01*
X162722596Y-140402606D01*
X162664244Y-140607688D01*
X162644571Y-140819998D01*
X162644571Y-140819999D01*
X162664244Y-141032309D01*
X162722596Y-141237391D01*
X162722596Y-141237393D01*
X162817632Y-141428252D01*
X162817634Y-141428254D01*
X162946128Y-141598406D01*
X163103698Y-141742051D01*
X163284981Y-141854297D01*
X163483802Y-141931320D01*
X163680613Y-141968110D01*
X163742893Y-141999778D01*
X163778166Y-142060091D01*
X163775232Y-142129899D01*
X163735023Y-142187039D01*
X163680613Y-142211887D01*
X163483802Y-142248678D01*
X163483799Y-142248678D01*
X163483799Y-142248679D01*
X163284982Y-142325700D01*
X163284980Y-142325701D01*
X163103699Y-142437946D01*
X162946126Y-142581593D01*
X162817007Y-142752572D01*
X162760898Y-142794207D01*
X162691186Y-142798898D01*
X162630373Y-142765525D01*
X160332590Y-140467742D01*
X160299105Y-140406419D01*
X160304089Y-140336727D01*
X160332587Y-140292383D01*
X160352206Y-140272765D01*
X160397585Y-140169991D01*
X160400500Y-140144865D01*
X160400499Y-139305136D01*
X160399972Y-139300588D01*
X160397586Y-139280012D01*
X160397585Y-139280010D01*
X160397585Y-139280009D01*
X160352206Y-139177235D01*
X160272765Y-139097794D01*
X160272763Y-139097793D01*
X160169992Y-139052415D01*
X160144865Y-139049500D01*
X159055143Y-139049500D01*
X159055117Y-139049502D01*
X159030012Y-139052413D01*
X159030008Y-139052415D01*
X158927235Y-139097793D01*
X158847795Y-139177233D01*
X158847794Y-139177234D01*
X158847794Y-139177235D01*
X158826443Y-139225588D01*
X158781360Y-139278962D01*
X158714574Y-139299490D01*
X158713011Y-139299500D01*
X154486989Y-139299500D01*
X154419950Y-139279815D01*
X154374195Y-139227011D01*
X154373607Y-139225704D01*
X154352206Y-139177235D01*
X154272765Y-139097794D01*
X154272763Y-139097793D01*
X154169992Y-139052415D01*
X154144865Y-139049500D01*
X153055143Y-139049500D01*
X153055117Y-139049502D01*
X153030012Y-139052413D01*
X153030008Y-139052415D01*
X152927235Y-139097793D01*
X152847794Y-139177234D01*
X152802415Y-139280006D01*
X152802415Y-139280008D01*
X152799500Y-139305131D01*
X152799500Y-140144856D01*
X152799502Y-140144882D01*
X152802413Y-140169987D01*
X152802415Y-140169991D01*
X152847793Y-140272764D01*
X152847794Y-140272765D01*
X152927235Y-140352206D01*
X153030009Y-140397585D01*
X153055135Y-140400500D01*
X154144864Y-140400499D01*
X154144879Y-140400497D01*
X154144882Y-140400497D01*
X154169987Y-140397586D01*
X154169988Y-140397585D01*
X154169991Y-140397585D01*
X154272765Y-140352206D01*
X154352206Y-140272765D01*
X154373556Y-140224411D01*
X154418640Y-140171038D01*
X154485426Y-140150510D01*
X154486989Y-140150500D01*
X158713011Y-140150500D01*
X158780050Y-140170185D01*
X158825805Y-140222989D01*
X158826392Y-140224295D01*
X158847794Y-140272765D01*
X158927235Y-140352206D01*
X159030009Y-140397585D01*
X159055135Y-140400500D01*
X159059095Y-140400499D01*
X159126134Y-140420175D01*
X159171896Y-140472973D01*
X159181581Y-140505101D01*
X159190279Y-140560021D01*
X159190280Y-140560024D01*
X159190281Y-140560026D01*
X159214567Y-140607689D01*
X159251473Y-140680121D01*
X159251476Y-140680125D01*
X159346774Y-140775423D01*
X159346778Y-140775426D01*
X159346780Y-140775428D01*
X159466874Y-140836619D01*
X159466875Y-140836619D01*
X159466877Y-140836620D01*
X159476159Y-140839636D01*
X159475515Y-140841615D01*
X159527152Y-140866086D01*
X159532312Y-140870960D01*
X162274572Y-143613220D01*
X162369880Y-143708528D01*
X162391396Y-143719491D01*
X162407978Y-143729653D01*
X162427519Y-143743850D01*
X162450483Y-143751311D01*
X162468462Y-143758757D01*
X162489974Y-143769719D01*
X162513821Y-143773495D01*
X162532743Y-143778039D01*
X162555701Y-143785499D01*
X162555707Y-143785500D01*
X162589612Y-143785500D01*
X162649857Y-143785500D01*
X162716896Y-143805185D01*
X162760855Y-143854225D01*
X162808344Y-143949597D01*
X162817635Y-143968256D01*
X162930932Y-144118284D01*
X162946128Y-144138406D01*
X163103698Y-144282051D01*
X163284981Y-144394297D01*
X163483802Y-144471320D01*
X163680613Y-144508110D01*
X163742893Y-144539778D01*
X163778166Y-144600091D01*
X163775232Y-144669899D01*
X163735023Y-144727039D01*
X163680613Y-144751887D01*
X163483802Y-144788678D01*
X163483799Y-144788678D01*
X163483799Y-144788679D01*
X163284982Y-144865700D01*
X163284980Y-144865701D01*
X163103699Y-144977946D01*
X162946127Y-145121592D01*
X162817632Y-145291745D01*
X162722596Y-145482604D01*
X162722596Y-145482606D01*
X162688130Y-145603741D01*
X162664244Y-145687689D01*
X162644571Y-145899999D01*
X162664244Y-146112309D01*
X162722578Y-146317330D01*
X162722596Y-146317391D01*
X162722596Y-146317393D01*
X162817632Y-146508252D01*
X162942493Y-146673593D01*
X162946128Y-146678406D01*
X163103698Y-146822051D01*
X163284981Y-146934297D01*
X163295290Y-146938290D01*
X163350692Y-146980859D01*
X163374285Y-147046625D01*
X163374500Y-147053918D01*
X163374500Y-149022690D01*
X163354815Y-149089729D01*
X163338181Y-149110371D01*
X160729462Y-151719089D01*
X160668139Y-151752574D01*
X160598447Y-151747590D01*
X160542514Y-151705718D01*
X160518666Y-151646193D01*
X160516807Y-151630712D01*
X160515479Y-151619654D01*
X160463115Y-151486868D01*
X160463113Y-151486865D01*
X160376867Y-151373132D01*
X160263134Y-151286886D01*
X160263132Y-151286885D01*
X160130346Y-151234521D01*
X160130345Y-151234520D01*
X160130343Y-151234520D01*
X160046902Y-151224500D01*
X159665110Y-151224500D01*
X159598071Y-151204815D01*
X159577429Y-151188181D01*
X159196318Y-150807070D01*
X159174803Y-150796108D01*
X159158210Y-150785940D01*
X159138680Y-150771750D01*
X159115715Y-150764288D01*
X159097741Y-150756843D01*
X159076227Y-150745881D01*
X159071110Y-150745070D01*
X159052373Y-150742103D01*
X159033458Y-150737562D01*
X159010494Y-150730100D01*
X159010493Y-150730100D01*
X158976588Y-150730100D01*
X158419926Y-150730100D01*
X158352887Y-150710415D01*
X158307132Y-150657611D01*
X158297188Y-150588453D01*
X158326213Y-150524897D01*
X158372472Y-150491539D01*
X158460841Y-150454936D01*
X158586282Y-150358682D01*
X158682536Y-150233241D01*
X158743044Y-150087162D01*
X158763682Y-149930400D01*
X158743044Y-149773638D01*
X158682536Y-149627559D01*
X158586282Y-149502118D01*
X158460841Y-149405864D01*
X158325821Y-149349937D01*
X158314762Y-149345356D01*
X158314760Y-149345355D01*
X158158001Y-149324718D01*
X158157999Y-149324718D01*
X158001239Y-149345355D01*
X158001237Y-149345356D01*
X157855157Y-149405864D01*
X157759485Y-149479276D01*
X157694315Y-149504470D01*
X157683999Y-149504900D01*
X156177204Y-149504900D01*
X156154239Y-149512362D01*
X156135322Y-149516903D01*
X156111473Y-149520680D01*
X156089958Y-149531643D01*
X156071986Y-149539088D01*
X156049018Y-149546551D01*
X156049016Y-149546552D01*
X156029484Y-149560743D01*
X156012899Y-149570906D01*
X155991382Y-149581869D01*
X155991380Y-149581871D01*
X155967405Y-149605847D01*
X154385069Y-151188181D01*
X154323746Y-151221666D01*
X154297388Y-151224500D01*
X153927130Y-151224500D01*
X153927123Y-151224501D01*
X153867516Y-151230908D01*
X153732671Y-151281202D01*
X153732664Y-151281206D01*
X153617455Y-151367452D01*
X153617452Y-151367455D01*
X153531206Y-151482664D01*
X153531202Y-151482671D01*
X153480910Y-151617513D01*
X153480909Y-151617517D01*
X153474500Y-151677127D01*
X153474500Y-151677134D01*
X153474500Y-151677135D01*
X153474500Y-152322870D01*
X153474501Y-152322876D01*
X153480908Y-152382483D01*
X153531202Y-152517328D01*
X153531206Y-152517335D01*
X153617452Y-152632544D01*
X153617455Y-152632547D01*
X153732664Y-152718793D01*
X153732671Y-152718797D01*
X153777618Y-152735561D01*
X153867517Y-152769091D01*
X153927127Y-152775500D01*
X154422872Y-152775499D01*
X154482483Y-152769091D01*
X154617331Y-152718796D01*
X154732546Y-152632546D01*
X154818796Y-152517331D01*
X154869091Y-152382483D01*
X154875500Y-152322873D01*
X154875499Y-151952608D01*
X154895183Y-151885570D01*
X154911813Y-151864933D01*
X154912821Y-151863925D01*
X154974142Y-151830442D01*
X155043834Y-151835426D01*
X155099767Y-151877298D01*
X155124184Y-151942762D01*
X155124500Y-151951608D01*
X155124500Y-152322869D01*
X155124501Y-152322876D01*
X155130908Y-152382483D01*
X155181202Y-152517328D01*
X155181206Y-152517335D01*
X155267452Y-152632544D01*
X155267455Y-152632547D01*
X155382664Y-152718793D01*
X155382671Y-152718797D01*
X155427618Y-152735561D01*
X155517517Y-152769091D01*
X155577127Y-152775500D01*
X156072872Y-152775499D01*
X156132483Y-152769091D01*
X156267331Y-152718796D01*
X156382546Y-152632546D01*
X156468796Y-152517331D01*
X156519091Y-152382483D01*
X156525500Y-152322873D01*
X156525500Y-152250000D01*
X157375000Y-152250000D01*
X157375000Y-152318749D01*
X157377759Y-152353811D01*
X157377760Y-152353817D01*
X157421373Y-152503933D01*
X157421375Y-152503936D01*
X157500954Y-152638498D01*
X157500960Y-152638506D01*
X157611493Y-152749039D01*
X157611501Y-152749045D01*
X157746063Y-152828624D01*
X157746066Y-152828626D01*
X157896182Y-152872239D01*
X157896188Y-152872240D01*
X157931250Y-152874999D01*
X157931266Y-152875000D01*
X157962500Y-152875000D01*
X157962500Y-152250000D01*
X157375000Y-152250000D01*
X156525500Y-152250000D01*
X156525499Y-151952608D01*
X156545183Y-151885570D01*
X156561809Y-151864937D01*
X156809330Y-151617416D01*
X156870652Y-151583934D01*
X156897010Y-151581100D01*
X157251000Y-151581100D01*
X157318039Y-151600785D01*
X157363794Y-151653589D01*
X157375000Y-151705100D01*
X157375000Y-151750000D01*
X158338500Y-151750000D01*
X158405539Y-151769685D01*
X158451294Y-151822489D01*
X158462500Y-151874000D01*
X158462500Y-152875000D01*
X158493734Y-152875000D01*
X158493749Y-152874999D01*
X158528811Y-152872240D01*
X158528817Y-152872239D01*
X158678933Y-152828626D01*
X158678936Y-152828624D01*
X158813498Y-152749045D01*
X158813506Y-152749039D01*
X158924039Y-152638506D01*
X158924043Y-152638500D01*
X158954023Y-152587807D01*
X159005091Y-152540123D01*
X159073833Y-152527618D01*
X159138423Y-152554263D01*
X159159560Y-152576001D01*
X159198134Y-152626868D01*
X159213470Y-152638498D01*
X159311868Y-152713115D01*
X159326274Y-152718796D01*
X159439771Y-152763554D01*
X159494915Y-152806459D01*
X159518108Y-152872367D01*
X159501987Y-152940352D01*
X159481962Y-152966589D01*
X158322971Y-154125581D01*
X158261648Y-154159066D01*
X158235290Y-154161900D01*
X141988262Y-154161900D01*
X141921223Y-154142215D01*
X141900581Y-154125581D01*
X141900000Y-154125000D01*
X140100001Y-154125000D01*
X140099420Y-154125581D01*
X140038097Y-154159066D01*
X140011739Y-154161900D01*
X135988262Y-154161900D01*
X135921223Y-154142215D01*
X135900581Y-154125581D01*
X135900000Y-154125000D01*
X134874000Y-154125000D01*
X134806961Y-154105315D01*
X134761206Y-154052511D01*
X134750000Y-154001000D01*
X134750000Y-153100000D01*
X135250000Y-153100000D01*
X135250000Y-153625000D01*
X135899999Y-153625000D01*
X140100000Y-153625000D01*
X140750000Y-153625000D01*
X140750000Y-153100000D01*
X141250000Y-153100000D01*
X141250000Y-153625000D01*
X141899999Y-153625000D01*
X141899999Y-153468520D01*
X141885164Y-153374850D01*
X141885162Y-153374844D01*
X141827643Y-153261958D01*
X141827636Y-153261949D01*
X141738050Y-153172363D01*
X141738046Y-153172360D01*
X141625144Y-153114833D01*
X141531486Y-153100000D01*
X141250000Y-153100000D01*
X140750000Y-153100000D01*
X140468520Y-153100000D01*
X140374850Y-153114835D01*
X140374844Y-153114837D01*
X140261958Y-153172356D01*
X140261949Y-153172363D01*
X140172363Y-153261949D01*
X140172360Y-153261953D01*
X140114833Y-153374855D01*
X140100000Y-153468513D01*
X140100000Y-153625000D01*
X135899999Y-153625000D01*
X135899999Y-153468520D01*
X135885164Y-153374850D01*
X135885162Y-153374844D01*
X135827643Y-153261958D01*
X135827636Y-153261949D01*
X135738050Y-153172363D01*
X135738046Y-153172360D01*
X135625144Y-153114833D01*
X135531486Y-153100000D01*
X135250000Y-153100000D01*
X134750000Y-153100000D01*
X134712200Y-153100000D01*
X134645161Y-153080315D01*
X134599406Y-153027511D01*
X134588200Y-152976000D01*
X134588200Y-151891810D01*
X134607885Y-151824771D01*
X134624519Y-151804129D01*
X135324554Y-151104094D01*
X135348528Y-151080120D01*
X135359488Y-151058606D01*
X135369653Y-151042018D01*
X135383849Y-151022481D01*
X135391310Y-150999514D01*
X135398759Y-150981534D01*
X135406098Y-150967133D01*
X135409719Y-150960026D01*
X135413495Y-150936176D01*
X135418037Y-150917257D01*
X135425500Y-150894293D01*
X135425500Y-150894292D01*
X135428138Y-150886175D01*
X135467578Y-150828501D01*
X135531939Y-150801307D01*
X135541294Y-150800771D01*
X135541291Y-150800705D01*
X135544847Y-150800499D01*
X135544864Y-150800499D01*
X135544880Y-150800497D01*
X135544882Y-150800497D01*
X135569987Y-150797586D01*
X135569988Y-150797585D01*
X135569991Y-150797585D01*
X135672765Y-150752206D01*
X135752206Y-150672765D01*
X135773556Y-150624411D01*
X135818640Y-150571038D01*
X135885426Y-150550510D01*
X135886989Y-150550500D01*
X140113011Y-150550500D01*
X140180050Y-150570185D01*
X140225805Y-150622989D01*
X140226392Y-150624295D01*
X140247794Y-150672765D01*
X140327235Y-150752206D01*
X140430009Y-150797585D01*
X140455135Y-150800500D01*
X141544864Y-150800499D01*
X141544879Y-150800497D01*
X141544882Y-150800497D01*
X141569987Y-150797586D01*
X141569988Y-150797585D01*
X141569991Y-150797585D01*
X141672765Y-150752206D01*
X141752206Y-150672765D01*
X141797585Y-150569991D01*
X141800500Y-150544865D01*
X141800499Y-149705136D01*
X141800497Y-149705117D01*
X141797586Y-149680012D01*
X141797585Y-149680010D01*
X141797585Y-149680009D01*
X141752206Y-149577235D01*
X141672765Y-149497794D01*
X141630826Y-149479276D01*
X141569992Y-149452415D01*
X141544865Y-149449500D01*
X140455143Y-149449500D01*
X140455117Y-149449502D01*
X140430012Y-149452413D01*
X140430008Y-149452415D01*
X140327235Y-149497793D01*
X140247795Y-149577233D01*
X140247794Y-149577234D01*
X140247794Y-149577235D01*
X140226443Y-149625588D01*
X140181360Y-149678962D01*
X140114574Y-149699490D01*
X140113011Y-149699500D01*
X135886989Y-149699500D01*
X135819950Y-149679815D01*
X135774195Y-149627011D01*
X135773607Y-149625704D01*
X135752206Y-149577235D01*
X135672765Y-149497794D01*
X135630826Y-149479276D01*
X135569992Y-149452415D01*
X135544865Y-149449500D01*
X134455143Y-149449500D01*
X134455117Y-149449502D01*
X134430012Y-149452413D01*
X134430008Y-149452415D01*
X134327235Y-149497793D01*
X134247794Y-149577234D01*
X134202415Y-149680006D01*
X134202415Y-149680008D01*
X134199500Y-149705131D01*
X134199500Y-150544856D01*
X134199502Y-150544882D01*
X134202413Y-150569987D01*
X134202415Y-150569991D01*
X134247793Y-150672764D01*
X134312409Y-150737380D01*
X134345894Y-150798703D01*
X134340910Y-150868395D01*
X134312409Y-150912742D01*
X134073141Y-151152011D01*
X133909480Y-151315672D01*
X133861825Y-151363326D01*
X133814171Y-151410980D01*
X133803210Y-151432493D01*
X133793046Y-151449078D01*
X133778852Y-151468614D01*
X133778851Y-151468617D01*
X133771388Y-151491585D01*
X133763943Y-151509558D01*
X133752980Y-151531073D01*
X133749203Y-151554922D01*
X133744662Y-151573839D01*
X133737200Y-151596804D01*
X133737200Y-154452194D01*
X133744662Y-154475158D01*
X133749203Y-154494073D01*
X133752170Y-154512810D01*
X133752981Y-154517927D01*
X133763943Y-154539441D01*
X133771388Y-154557415D01*
X133778850Y-154580380D01*
X133793040Y-154599910D01*
X133803208Y-154616503D01*
X133814170Y-154638018D01*
X133814172Y-154638020D01*
X133838146Y-154661994D01*
X134016772Y-154840620D01*
X134112080Y-154935928D01*
X134133596Y-154946891D01*
X134150178Y-154957053D01*
X134163382Y-154966646D01*
X134169719Y-154971250D01*
X134192683Y-154978711D01*
X134210662Y-154986157D01*
X134232174Y-154997119D01*
X134256021Y-155000895D01*
X134274943Y-155005439D01*
X134297901Y-155012899D01*
X134297907Y-155012900D01*
X158530292Y-155012900D01*
X158530293Y-155012900D01*
X158553260Y-155005436D01*
X158572176Y-155000895D01*
X158596026Y-154997119D01*
X158617536Y-154986157D01*
X158635514Y-154978710D01*
X158658481Y-154971249D01*
X158678018Y-154957053D01*
X158694606Y-154946888D01*
X158716120Y-154935928D01*
X158811428Y-154840620D01*
X158811428Y-154840619D01*
X164043010Y-149609035D01*
X164043015Y-149609032D01*
X164053218Y-149598828D01*
X164053220Y-149598828D01*
X164148528Y-149503520D01*
X164159493Y-149481998D01*
X164169658Y-149465412D01*
X164183849Y-149445881D01*
X164191310Y-149422914D01*
X164198759Y-149404934D01*
X164209718Y-149383428D01*
X164209718Y-149383427D01*
X164209719Y-149383426D01*
X164213495Y-149359576D01*
X164218036Y-149340660D01*
X164225500Y-149317693D01*
X164225500Y-149182907D01*
X164225500Y-147053918D01*
X164245185Y-146986879D01*
X164297989Y-146941124D01*
X164304687Y-146938299D01*
X164315019Y-146934297D01*
X164496302Y-146822051D01*
X164653872Y-146678406D01*
X164782366Y-146508254D01*
X164785020Y-146502924D01*
X164877403Y-146317393D01*
X164877403Y-146317392D01*
X164877405Y-146317388D01*
X164935756Y-146112309D01*
X164955429Y-145899999D01*
X164935756Y-145687689D01*
X164877405Y-145482610D01*
X164877403Y-145482605D01*
X164877403Y-145482604D01*
X164782367Y-145291745D01*
X164653872Y-145121592D01*
X164631128Y-145100858D01*
X164496302Y-144977947D01*
X164315019Y-144865701D01*
X164315017Y-144865700D01*
X164215608Y-144827189D01*
X164116198Y-144788678D01*
X163919385Y-144751887D01*
X163857106Y-144720220D01*
X163821833Y-144659907D01*
X163824767Y-144590099D01*
X163864976Y-144532959D01*
X163919384Y-144508110D01*
X164116198Y-144471320D01*
X164315019Y-144394297D01*
X164496302Y-144282051D01*
X164653872Y-144138406D01*
X164782366Y-143968254D01*
X164825572Y-143881484D01*
X164877403Y-143777393D01*
X164877403Y-143777392D01*
X164877405Y-143777388D01*
X164935756Y-143572309D01*
X164955429Y-143359999D01*
X164935756Y-143147689D01*
X164877405Y-142942610D01*
X164877403Y-142942605D01*
X164877403Y-142942604D01*
X164782367Y-142751745D01*
X164653872Y-142581592D01*
X164592834Y-142525948D01*
X164496302Y-142437947D01*
X164315019Y-142325701D01*
X164315017Y-142325700D01*
X164120901Y-142250500D01*
X164116198Y-142248678D01*
X163919385Y-142211887D01*
X163857106Y-142180220D01*
X163821833Y-142119907D01*
X163824767Y-142050099D01*
X163864976Y-141992959D01*
X163919384Y-141968110D01*
X164116198Y-141931320D01*
X164315019Y-141854297D01*
X164496302Y-141742051D01*
X164653872Y-141598406D01*
X164782366Y-141428254D01*
X164877405Y-141237388D01*
X164935756Y-141032309D01*
X164955429Y-140819999D01*
X164935756Y-140607689D01*
X164877405Y-140402610D01*
X164877403Y-140402605D01*
X164877403Y-140402604D01*
X164782367Y-140211745D01*
X164653872Y-140041592D01*
X164496302Y-139897947D01*
X164315019Y-139785701D01*
X164315017Y-139785700D01*
X164215608Y-139747189D01*
X164116198Y-139708678D01*
X163919385Y-139671887D01*
X163857106Y-139640220D01*
X163821833Y-139579907D01*
X163824767Y-139510099D01*
X163864976Y-139452959D01*
X163919384Y-139428110D01*
X164116198Y-139391320D01*
X164315019Y-139314297D01*
X164496302Y-139202051D01*
X164653872Y-139058406D01*
X164782366Y-138888254D01*
X164797505Y-138857850D01*
X164877403Y-138697393D01*
X164877403Y-138697392D01*
X164877405Y-138697388D01*
X164935756Y-138492309D01*
X164955429Y-138279999D01*
X164935756Y-138067689D01*
X164877405Y-137862610D01*
X164877403Y-137862605D01*
X164877403Y-137862604D01*
X164782367Y-137671745D01*
X164653872Y-137501592D01*
X164652126Y-137500000D01*
X164496302Y-137357947D01*
X164315019Y-137245701D01*
X164315008Y-137245696D01*
X164135562Y-137176178D01*
X164080160Y-137133606D01*
X164056570Y-137067839D01*
X164072281Y-136999758D01*
X164122305Y-136950980D01*
X164148264Y-136940777D01*
X164229148Y-136919105D01*
X164229159Y-136919100D01*
X164427387Y-136826665D01*
X164606554Y-136701211D01*
X164761212Y-136546553D01*
X164886666Y-136367386D01*
X164979101Y-136169158D01*
X164979105Y-136169149D01*
X165027108Y-135989999D01*
X164233686Y-135989999D01*
X164259493Y-135949843D01*
X164300000Y-135811888D01*
X164300000Y-135668110D01*
X164259493Y-135530155D01*
X164233686Y-135489999D01*
X165027108Y-135489999D01*
X165027108Y-135489998D01*
X164979105Y-135310848D01*
X164979101Y-135310839D01*
X164886666Y-135112611D01*
X164886664Y-135112607D01*
X164761216Y-134933449D01*
X164761211Y-134933443D01*
X164606554Y-134778786D01*
X164427386Y-134653331D01*
X164427384Y-134653330D01*
X164284881Y-134586880D01*
X164232441Y-134540708D01*
X164213289Y-134473514D01*
X164233505Y-134406633D01*
X164286670Y-134361299D01*
X164337284Y-134350498D01*
X164694864Y-134350498D01*
X164694879Y-134350496D01*
X164694882Y-134350496D01*
X164719987Y-134347585D01*
X164719988Y-134347584D01*
X164719991Y-134347584D01*
X164822765Y-134302205D01*
X164902206Y-134222764D01*
X164947585Y-134119990D01*
X164950500Y-134094864D01*
X164950499Y-132305135D01*
X164950166Y-132302262D01*
X164947586Y-132280011D01*
X164947585Y-132280009D01*
X164947585Y-132280008D01*
X164902206Y-132177234D01*
X164822765Y-132097793D01*
X164719992Y-132052414D01*
X164694865Y-132049499D01*
X162905143Y-132049499D01*
X162905117Y-132049501D01*
X162880012Y-132052412D01*
X162880007Y-132052414D01*
X162851322Y-132065079D01*
X162782044Y-132074148D01*
X162718860Y-132044323D01*
X162713559Y-132039324D01*
X161811819Y-131137584D01*
X161778334Y-131076261D01*
X161775500Y-131049903D01*
X161775500Y-130908862D01*
X161775500Y-130908856D01*
X161765359Y-130824410D01*
X161712364Y-130690025D01*
X161712363Y-130690024D01*
X161712363Y-130690023D01*
X161625079Y-130574923D01*
X161624521Y-130574500D01*
X161608725Y-130562521D01*
X161567203Y-130506329D01*
X161562652Y-130436608D01*
X161596517Y-130375494D01*
X161620532Y-130356986D01*
X161636105Y-130347776D01*
X161636116Y-130347767D01*
X161747767Y-130236116D01*
X161747773Y-130236108D01*
X161828155Y-130100188D01*
X161828156Y-130100185D01*
X161872210Y-129948553D01*
X161872211Y-129948547D01*
X161874999Y-129913118D01*
X161875000Y-129913105D01*
X161875000Y-129875000D01*
X160125000Y-129875000D01*
X160125000Y-129913118D01*
X160127788Y-129948547D01*
X160127789Y-129948553D01*
X160171843Y-130100185D01*
X160171844Y-130100188D01*
X160252226Y-130236108D01*
X160252232Y-130236116D01*
X160363889Y-130347773D01*
X160370010Y-130352521D01*
X160410917Y-130409164D01*
X160414707Y-130478930D01*
X160380176Y-130539671D01*
X160318288Y-130572100D01*
X160294010Y-130574500D01*
X159774500Y-130574500D01*
X159707461Y-130554815D01*
X159661706Y-130502011D01*
X159650500Y-130450500D01*
X159650500Y-129375000D01*
X160125000Y-129375000D01*
X160750000Y-129375000D01*
X160750000Y-128775000D01*
X161250000Y-128775000D01*
X161250000Y-129375000D01*
X161875000Y-129375000D01*
X161875000Y-129336894D01*
X161874999Y-129336881D01*
X161872211Y-129301452D01*
X161872210Y-129301446D01*
X161828156Y-129149814D01*
X161828155Y-129149811D01*
X161747773Y-129013891D01*
X161747767Y-129013883D01*
X161636116Y-128902232D01*
X161636108Y-128902226D01*
X161500188Y-128821844D01*
X161500185Y-128821843D01*
X161348553Y-128777789D01*
X161348547Y-128777788D01*
X161313118Y-128775000D01*
X161250000Y-128775000D01*
X160750000Y-128775000D01*
X160686881Y-128775000D01*
X160651452Y-128777788D01*
X160651446Y-128777789D01*
X160499814Y-128821843D01*
X160499811Y-128821844D01*
X160363891Y-128902226D01*
X160363883Y-128902232D01*
X160252232Y-129013883D01*
X160252226Y-129013891D01*
X160171844Y-129149811D01*
X160171843Y-129149814D01*
X160127789Y-129301446D01*
X160127788Y-129301452D01*
X160125000Y-129336881D01*
X160125000Y-129375000D01*
X159650500Y-129375000D01*
X159650500Y-128955043D01*
X159650499Y-128955039D01*
X159635369Y-128820750D01*
X159635368Y-128820745D01*
X159575788Y-128650476D01*
X159479815Y-128497737D01*
X159352262Y-128370184D01*
X159199523Y-128274211D01*
X159029254Y-128214631D01*
X159029249Y-128214630D01*
X158894960Y-128199500D01*
X158894954Y-128199500D01*
X157805046Y-128199500D01*
X157805039Y-128199500D01*
X157670750Y-128214630D01*
X157670745Y-128214631D01*
X157500476Y-128274211D01*
X157347737Y-128370184D01*
X157220184Y-128497737D01*
X157124211Y-128650476D01*
X157064631Y-128820745D01*
X157064630Y-128820750D01*
X157049500Y-128955039D01*
X157049500Y-129675500D01*
X157029815Y-129742539D01*
X156977011Y-129788294D01*
X156925500Y-129799500D01*
X153397953Y-129799500D01*
X153330914Y-129779815D01*
X153291836Y-129739649D01*
X153210651Y-129605351D01*
X153210648Y-129605347D01*
X153094652Y-129489351D01*
X153094648Y-129489348D01*
X152963605Y-129410131D01*
X152916417Y-129358604D01*
X152904578Y-129289745D01*
X152931846Y-129225416D01*
X152986801Y-129186972D01*
X153013386Y-129177669D01*
X153161262Y-129084753D01*
X153284753Y-128961262D01*
X153377669Y-128813386D01*
X153435351Y-128648539D01*
X153449999Y-128518530D01*
X153450000Y-128518526D01*
X153450000Y-128350000D01*
X150650000Y-128350000D01*
X150650000Y-128518530D01*
X150664648Y-128648539D01*
X150722330Y-128813387D01*
X150788908Y-128919345D01*
X150807908Y-128986582D01*
X150787540Y-129053417D01*
X150734272Y-129098631D01*
X150665016Y-129107868D01*
X150601759Y-129078197D01*
X150596233Y-129072998D01*
X149373235Y-127850000D01*
X150650000Y-127850000D01*
X151800000Y-127850000D01*
X151800000Y-126950000D01*
X152300000Y-126950000D01*
X152300000Y-127850000D01*
X153450000Y-127850000D01*
X153450000Y-127681473D01*
X153449999Y-127681469D01*
X153435351Y-127551460D01*
X153377669Y-127386613D01*
X153284753Y-127238737D01*
X153161262Y-127115246D01*
X153013386Y-127022330D01*
X152848539Y-126964648D01*
X152718530Y-126950000D01*
X152300000Y-126950000D01*
X151800000Y-126950000D01*
X151381469Y-126950000D01*
X151251460Y-126964648D01*
X151086613Y-127022330D01*
X150938737Y-127115246D01*
X150815246Y-127238737D01*
X150722330Y-127386613D01*
X150664648Y-127551460D01*
X150650000Y-127681469D01*
X150650000Y-127850000D01*
X149373235Y-127850000D01*
X147535415Y-126012180D01*
X147501930Y-125950857D01*
X147506914Y-125881165D01*
X147548786Y-125825232D01*
X147614250Y-125800815D01*
X147623096Y-125800499D01*
X148044856Y-125800499D01*
X148044864Y-125800499D01*
X148044879Y-125800497D01*
X148044882Y-125800497D01*
X148069987Y-125797586D01*
X148069988Y-125797585D01*
X148069991Y-125797585D01*
X148172765Y-125752206D01*
X148252206Y-125672765D01*
X148297585Y-125569991D01*
X148300500Y-125544865D01*
X148300500Y-125544856D01*
X148699500Y-125544856D01*
X148699502Y-125544882D01*
X148702413Y-125569987D01*
X148702415Y-125569991D01*
X148747793Y-125672764D01*
X148747794Y-125672765D01*
X148827235Y-125752206D01*
X148930009Y-125797585D01*
X148955135Y-125800500D01*
X150044864Y-125800499D01*
X150044879Y-125800497D01*
X150044882Y-125800497D01*
X150069987Y-125797586D01*
X150069988Y-125797585D01*
X150069991Y-125797585D01*
X150172765Y-125752206D01*
X150252206Y-125672765D01*
X150297585Y-125569991D01*
X150300500Y-125544865D01*
X150300500Y-125544856D01*
X150699500Y-125544856D01*
X150699502Y-125544882D01*
X150702413Y-125569987D01*
X150702415Y-125569991D01*
X150747793Y-125672764D01*
X150747794Y-125672765D01*
X150827235Y-125752206D01*
X150930009Y-125797585D01*
X150955135Y-125800500D01*
X152044864Y-125800499D01*
X152044879Y-125800497D01*
X152044882Y-125800497D01*
X152069987Y-125797586D01*
X152069988Y-125797585D01*
X152069991Y-125797585D01*
X152172765Y-125752206D01*
X152252206Y-125672765D01*
X152297585Y-125569991D01*
X152300500Y-125544865D01*
X152300500Y-125544856D01*
X152699500Y-125544856D01*
X152699502Y-125544882D01*
X152702413Y-125569987D01*
X152702415Y-125569991D01*
X152747793Y-125672764D01*
X152747794Y-125672765D01*
X152827235Y-125752206D01*
X152930009Y-125797585D01*
X152955135Y-125800500D01*
X154044864Y-125800499D01*
X154044879Y-125800497D01*
X154044882Y-125800497D01*
X154069987Y-125797586D01*
X154069988Y-125797585D01*
X154069991Y-125797585D01*
X154172765Y-125752206D01*
X154252206Y-125672765D01*
X154297585Y-125569991D01*
X154300500Y-125544865D01*
X154300500Y-125544856D01*
X154699500Y-125544856D01*
X154699502Y-125544882D01*
X154702413Y-125569987D01*
X154702415Y-125569991D01*
X154747793Y-125672764D01*
X154747794Y-125672765D01*
X154827235Y-125752206D01*
X154930009Y-125797585D01*
X154955135Y-125800500D01*
X156044864Y-125800499D01*
X156044879Y-125800497D01*
X156044882Y-125800497D01*
X156069987Y-125797586D01*
X156069988Y-125797585D01*
X156069991Y-125797585D01*
X156172765Y-125752206D01*
X156252206Y-125672765D01*
X156297585Y-125569991D01*
X156300500Y-125544865D01*
X156300500Y-125544856D01*
X156699500Y-125544856D01*
X156699502Y-125544882D01*
X156702413Y-125569987D01*
X156702415Y-125569991D01*
X156747793Y-125672764D01*
X156747794Y-125672765D01*
X156827235Y-125752206D01*
X156930009Y-125797585D01*
X156955135Y-125800500D01*
X158044864Y-125800499D01*
X158044879Y-125800497D01*
X158044882Y-125800497D01*
X158069987Y-125797586D01*
X158069988Y-125797585D01*
X158069991Y-125797585D01*
X158172765Y-125752206D01*
X158252206Y-125672765D01*
X158297585Y-125569991D01*
X158300500Y-125544865D01*
X158300499Y-123914313D01*
X158320184Y-123847275D01*
X158372987Y-123801520D01*
X158442146Y-123791576D01*
X158505702Y-123820601D01*
X158515416Y-123831186D01*
X158515458Y-123831145D01*
X158611949Y-123927636D01*
X158611953Y-123927639D01*
X158724855Y-123985166D01*
X158818514Y-123999999D01*
X159849999Y-123999999D01*
X159850000Y-123999998D01*
X159850000Y-123350000D01*
X160350000Y-123350000D01*
X160350000Y-123999999D01*
X161381479Y-123999999D01*
X161475149Y-123985164D01*
X161475155Y-123985162D01*
X161588041Y-123927643D01*
X161588050Y-123927636D01*
X161677636Y-123838050D01*
X161677639Y-123838046D01*
X161735166Y-123725144D01*
X161750000Y-123631486D01*
X161750000Y-123350000D01*
X160350000Y-123350000D01*
X159850000Y-123350000D01*
X158450001Y-123350000D01*
X158450001Y-123425668D01*
X158430316Y-123492707D01*
X158377512Y-123538462D01*
X158308354Y-123548406D01*
X158244798Y-123519381D01*
X158238320Y-123513349D01*
X158172765Y-123447794D01*
X158069992Y-123402415D01*
X158044865Y-123399500D01*
X156955143Y-123399500D01*
X156955117Y-123399502D01*
X156930012Y-123402413D01*
X156930008Y-123402415D01*
X156827235Y-123447793D01*
X156747794Y-123527234D01*
X156702415Y-123630006D01*
X156702415Y-123630008D01*
X156699500Y-123655131D01*
X156699500Y-125544856D01*
X156300500Y-125544856D01*
X156300499Y-123655136D01*
X156300048Y-123651248D01*
X156297586Y-123630012D01*
X156297585Y-123630010D01*
X156297585Y-123630009D01*
X156252206Y-123527235D01*
X156172765Y-123447794D01*
X156172763Y-123447793D01*
X156069992Y-123402415D01*
X156044865Y-123399500D01*
X154955143Y-123399500D01*
X154955117Y-123399502D01*
X154930012Y-123402413D01*
X154930008Y-123402415D01*
X154827235Y-123447793D01*
X154747794Y-123527234D01*
X154702415Y-123630006D01*
X154702415Y-123630008D01*
X154699500Y-123655131D01*
X154699500Y-125544856D01*
X154300500Y-125544856D01*
X154300499Y-123655136D01*
X154300048Y-123651248D01*
X154297586Y-123630012D01*
X154297585Y-123630010D01*
X154297585Y-123630009D01*
X154252206Y-123527235D01*
X154172765Y-123447794D01*
X154172763Y-123447793D01*
X154069992Y-123402415D01*
X154044865Y-123399500D01*
X152955143Y-123399500D01*
X152955117Y-123399502D01*
X152930012Y-123402413D01*
X152930008Y-123402415D01*
X152827235Y-123447793D01*
X152747794Y-123527234D01*
X152702415Y-123630006D01*
X152702415Y-123630008D01*
X152699500Y-123655131D01*
X152699500Y-125544856D01*
X152300500Y-125544856D01*
X152300499Y-123655136D01*
X152300048Y-123651248D01*
X152297586Y-123630012D01*
X152297585Y-123630010D01*
X152297585Y-123630009D01*
X152252206Y-123527235D01*
X152172765Y-123447794D01*
X152172763Y-123447793D01*
X152069992Y-123402415D01*
X152044865Y-123399500D01*
X150955143Y-123399500D01*
X150955117Y-123399502D01*
X150930012Y-123402413D01*
X150930008Y-123402415D01*
X150827235Y-123447793D01*
X150747794Y-123527234D01*
X150702415Y-123630006D01*
X150702415Y-123630008D01*
X150699500Y-123655131D01*
X150699500Y-125544856D01*
X150300500Y-125544856D01*
X150300499Y-123655136D01*
X150300048Y-123651248D01*
X150297586Y-123630012D01*
X150297585Y-123630010D01*
X150297585Y-123630009D01*
X150252206Y-123527235D01*
X150172765Y-123447794D01*
X150172763Y-123447793D01*
X150069992Y-123402415D01*
X150044865Y-123399500D01*
X148955143Y-123399500D01*
X148955117Y-123399502D01*
X148930012Y-123402413D01*
X148930008Y-123402415D01*
X148827235Y-123447793D01*
X148747794Y-123527234D01*
X148702415Y-123630006D01*
X148702415Y-123630008D01*
X148699500Y-123655131D01*
X148699500Y-125544856D01*
X148300500Y-125544856D01*
X148300499Y-123655136D01*
X148300048Y-123651248D01*
X148297586Y-123630012D01*
X148297585Y-123630010D01*
X148297585Y-123630009D01*
X148252206Y-123527235D01*
X148172765Y-123447794D01*
X148172763Y-123447793D01*
X148069992Y-123402415D01*
X148044865Y-123399500D01*
X146955143Y-123399500D01*
X146955117Y-123399502D01*
X146930012Y-123402413D01*
X146930008Y-123402415D01*
X146827235Y-123447793D01*
X146747794Y-123527234D01*
X146702415Y-123630006D01*
X146702415Y-123630008D01*
X146699500Y-123655131D01*
X146699500Y-124876903D01*
X146679815Y-124943942D01*
X146627011Y-124989697D01*
X146557853Y-124999641D01*
X146494297Y-124970616D01*
X146487819Y-124964584D01*
X145635415Y-124112180D01*
X145601930Y-124050857D01*
X145606914Y-123981165D01*
X145648786Y-123925232D01*
X145714250Y-123900815D01*
X145723096Y-123900499D01*
X146194856Y-123900499D01*
X146194864Y-123900499D01*
X146194879Y-123900497D01*
X146194882Y-123900497D01*
X146219987Y-123897586D01*
X146219988Y-123897585D01*
X146219991Y-123897585D01*
X146322765Y-123852206D01*
X146402206Y-123772765D01*
X146447585Y-123669991D01*
X146450500Y-123644865D01*
X146450499Y-122850000D01*
X158450000Y-122850000D01*
X159850000Y-122850000D01*
X159850000Y-122200000D01*
X158818520Y-122200000D01*
X158724850Y-122214835D01*
X158724844Y-122214837D01*
X158611958Y-122272356D01*
X158611949Y-122272363D01*
X158522363Y-122361949D01*
X158522360Y-122361953D01*
X158464833Y-122474855D01*
X158450000Y-122568513D01*
X158450000Y-122850000D01*
X146450499Y-122850000D01*
X146450499Y-122555136D01*
X146450497Y-122555117D01*
X146447586Y-122530012D01*
X146447585Y-122530010D01*
X146447585Y-122530009D01*
X146402206Y-122427235D01*
X146322765Y-122347794D01*
X146219992Y-122302415D01*
X146194868Y-122299500D01*
X146194865Y-122299500D01*
X143872600Y-122299500D01*
X143805561Y-122279815D01*
X143759806Y-122227011D01*
X143748600Y-122175500D01*
X143748600Y-122024499D01*
X143768285Y-121957460D01*
X143821089Y-121911705D01*
X143872600Y-121900499D01*
X146194856Y-121900499D01*
X146194864Y-121900499D01*
X146194879Y-121900497D01*
X146194882Y-121900497D01*
X146219987Y-121897586D01*
X146219988Y-121897585D01*
X146219991Y-121897585D01*
X146322765Y-121852206D01*
X146402206Y-121772765D01*
X146447585Y-121669991D01*
X146450500Y-121644865D01*
X146450500Y-121644856D01*
X158549500Y-121644856D01*
X158549502Y-121644882D01*
X158552413Y-121669987D01*
X158552415Y-121669991D01*
X158597793Y-121772764D01*
X158597794Y-121772765D01*
X158677235Y-121852206D01*
X158780009Y-121897585D01*
X158805135Y-121900500D01*
X161225506Y-121900499D01*
X161292545Y-121920184D01*
X161325821Y-121951610D01*
X161328369Y-121955117D01*
X161361571Y-121988319D01*
X161395056Y-122049642D01*
X161390072Y-122119334D01*
X161348200Y-122175267D01*
X161282736Y-122199684D01*
X161273890Y-122200000D01*
X160350000Y-122200000D01*
X160350000Y-122850000D01*
X161749999Y-122850000D01*
X161749999Y-122676109D01*
X161769684Y-122609070D01*
X161822488Y-122563315D01*
X161891646Y-122553371D01*
X161955202Y-122582396D01*
X161961680Y-122588428D01*
X162988181Y-123614929D01*
X163021666Y-123676252D01*
X163024500Y-123702610D01*
X163024500Y-124072869D01*
X163024501Y-124072876D01*
X163030908Y-124132483D01*
X163081202Y-124267328D01*
X163081206Y-124267335D01*
X163167452Y-124382544D01*
X163167455Y-124382547D01*
X163282664Y-124468793D01*
X163282671Y-124468797D01*
X163327618Y-124485561D01*
X163417517Y-124519091D01*
X163477127Y-124525500D01*
X164122872Y-124525499D01*
X164182483Y-124519091D01*
X164317331Y-124468796D01*
X164432546Y-124382546D01*
X164518796Y-124267331D01*
X164569091Y-124132483D01*
X164575500Y-124072873D01*
X164575499Y-123577128D01*
X164569091Y-123517517D01*
X164567536Y-123513349D01*
X164518797Y-123382671D01*
X164518793Y-123382664D01*
X164432547Y-123267455D01*
X164432544Y-123267452D01*
X164317335Y-123181206D01*
X164317328Y-123181202D01*
X164182482Y-123130908D01*
X164182483Y-123130908D01*
X164122883Y-123124501D01*
X164122881Y-123124500D01*
X164122873Y-123124500D01*
X164122865Y-123124500D01*
X163752610Y-123124500D01*
X163685571Y-123104815D01*
X163664929Y-123088181D01*
X162138719Y-121561971D01*
X162105234Y-121500648D01*
X162102400Y-121474290D01*
X162102400Y-121143245D01*
X162103927Y-121123846D01*
X162107704Y-121100000D01*
X162107704Y-121099997D01*
X162086620Y-120966878D01*
X162086619Y-120966876D01*
X162086619Y-120966874D01*
X162025428Y-120846780D01*
X162025426Y-120846778D01*
X162025423Y-120846774D01*
X161930125Y-120751476D01*
X161930121Y-120751473D01*
X161930120Y-120751472D01*
X161810026Y-120690281D01*
X161810024Y-120690280D01*
X161810021Y-120690279D01*
X161755101Y-120681581D01*
X161691966Y-120651652D01*
X161655035Y-120592340D01*
X161650499Y-120559108D01*
X161650499Y-120555143D01*
X161650499Y-120555136D01*
X161650497Y-120555117D01*
X161647586Y-120530012D01*
X161647585Y-120530010D01*
X161647585Y-120530009D01*
X161602206Y-120427235D01*
X161522765Y-120347794D01*
X161522763Y-120347793D01*
X161419992Y-120302415D01*
X161394865Y-120299500D01*
X158805143Y-120299500D01*
X158805117Y-120299502D01*
X158780012Y-120302413D01*
X158780008Y-120302415D01*
X158677235Y-120347793D01*
X158597794Y-120427234D01*
X158552415Y-120530006D01*
X158552415Y-120530008D01*
X158549500Y-120555131D01*
X158549500Y-121644856D01*
X146450500Y-121644856D01*
X146450499Y-120555136D01*
X146450497Y-120555117D01*
X146447586Y-120530012D01*
X146447585Y-120530010D01*
X146447585Y-120530009D01*
X146402206Y-120427235D01*
X146322765Y-120347794D01*
X146322763Y-120347793D01*
X146219992Y-120302415D01*
X146194865Y-120299500D01*
X143605143Y-120299500D01*
X143605117Y-120299502D01*
X143580012Y-120302413D01*
X143580008Y-120302415D01*
X143477235Y-120347793D01*
X143397794Y-120427234D01*
X143352415Y-120530006D01*
X143352415Y-120530008D01*
X143349500Y-120555131D01*
X143349500Y-120675902D01*
X143329815Y-120742941D01*
X143277011Y-120788696D01*
X143207853Y-120798640D01*
X143144297Y-120769615D01*
X143137819Y-120763583D01*
X142136916Y-119762680D01*
X142103431Y-119701357D01*
X142107472Y-119644856D01*
X143349500Y-119644856D01*
X143349502Y-119644882D01*
X143352413Y-119669987D01*
X143352415Y-119669991D01*
X143397793Y-119772764D01*
X143397794Y-119772765D01*
X143477235Y-119852206D01*
X143580009Y-119897585D01*
X143605135Y-119900500D01*
X146194864Y-119900499D01*
X146194879Y-119900497D01*
X146194882Y-119900497D01*
X146219987Y-119897586D01*
X146219988Y-119897585D01*
X146219991Y-119897585D01*
X146322765Y-119852206D01*
X146402206Y-119772765D01*
X146447585Y-119669991D01*
X146450500Y-119644865D01*
X146450499Y-118555136D01*
X146450497Y-118555117D01*
X146447586Y-118530012D01*
X146447585Y-118530010D01*
X146447585Y-118530009D01*
X146402206Y-118427235D01*
X146322765Y-118347794D01*
X146322763Y-118347793D01*
X146219992Y-118302415D01*
X146194865Y-118299500D01*
X143605143Y-118299500D01*
X143605117Y-118299502D01*
X143580012Y-118302413D01*
X143580008Y-118302415D01*
X143477235Y-118347793D01*
X143397794Y-118427234D01*
X143352415Y-118530006D01*
X143352415Y-118530008D01*
X143349500Y-118555131D01*
X143349500Y-119644856D01*
X142107472Y-119644856D01*
X142108415Y-119631665D01*
X142136916Y-119587318D01*
X142371772Y-119352462D01*
X142620043Y-119104190D01*
X142632223Y-119093509D01*
X142657282Y-119074282D01*
X142753536Y-118948841D01*
X142814044Y-118802762D01*
X142829500Y-118685361D01*
X142834682Y-118646000D01*
X142830561Y-118614697D01*
X142829500Y-118598512D01*
X142829500Y-117644856D01*
X143349500Y-117644856D01*
X143349502Y-117644882D01*
X143352413Y-117669987D01*
X143352415Y-117669991D01*
X143397793Y-117772764D01*
X143397794Y-117772765D01*
X143477235Y-117852206D01*
X143580009Y-117897585D01*
X143605135Y-117900500D01*
X146194864Y-117900499D01*
X146194879Y-117900497D01*
X146194882Y-117900497D01*
X146219987Y-117897586D01*
X146219988Y-117897585D01*
X146219991Y-117897585D01*
X146322765Y-117852206D01*
X146402206Y-117772765D01*
X146447585Y-117669991D01*
X146450500Y-117644865D01*
X146450499Y-116555136D01*
X146450497Y-116555117D01*
X146447586Y-116530012D01*
X146447585Y-116530010D01*
X146447585Y-116530009D01*
X146402206Y-116427235D01*
X146322765Y-116347794D01*
X146322763Y-116347793D01*
X146219992Y-116302415D01*
X146194865Y-116299500D01*
X143605143Y-116299500D01*
X143605117Y-116299502D01*
X143580012Y-116302413D01*
X143580008Y-116302415D01*
X143477235Y-116347793D01*
X143397794Y-116427234D01*
X143352415Y-116530006D01*
X143352415Y-116530008D01*
X143349500Y-116555131D01*
X143349500Y-117644856D01*
X142829500Y-117644856D01*
X142829500Y-115644856D01*
X143349500Y-115644856D01*
X143349502Y-115644882D01*
X143352413Y-115669987D01*
X143352415Y-115669991D01*
X143397793Y-115772764D01*
X143397794Y-115772765D01*
X143477235Y-115852206D01*
X143580009Y-115897585D01*
X143605135Y-115900500D01*
X146194864Y-115900499D01*
X146194879Y-115900497D01*
X146194882Y-115900497D01*
X146219987Y-115897586D01*
X146219988Y-115897585D01*
X146219991Y-115897585D01*
X146322765Y-115852206D01*
X146402206Y-115772765D01*
X146447585Y-115669991D01*
X146450500Y-115644865D01*
X146450499Y-114555136D01*
X146449846Y-114549501D01*
X146447586Y-114530012D01*
X146447585Y-114530010D01*
X146447585Y-114530009D01*
X146402206Y-114427235D01*
X146322765Y-114347794D01*
X146285188Y-114331202D01*
X146219992Y-114302415D01*
X146194865Y-114299500D01*
X143605143Y-114299500D01*
X143605117Y-114299502D01*
X143580012Y-114302413D01*
X143580008Y-114302415D01*
X143477235Y-114347793D01*
X143397794Y-114427234D01*
X143352415Y-114530006D01*
X143352415Y-114530008D01*
X143349500Y-114555131D01*
X143349500Y-115644856D01*
X142829500Y-115644856D01*
X142829500Y-115101487D01*
X142830561Y-115085301D01*
X142834682Y-115054000D01*
X142834682Y-115053998D01*
X142814044Y-114897239D01*
X142814044Y-114897238D01*
X142753536Y-114751159D01*
X142753535Y-114751158D01*
X142753535Y-114751157D01*
X142703535Y-114685996D01*
X142657282Y-114625718D01*
X142646738Y-114617627D01*
X142632228Y-114606493D01*
X142620034Y-114595799D01*
X142136915Y-114112680D01*
X142103430Y-114051357D01*
X142108414Y-113981665D01*
X142136911Y-113937323D01*
X142589144Y-113485089D01*
X142601322Y-113474410D01*
X142626382Y-113455182D01*
X142722636Y-113329741D01*
X142727308Y-113318460D01*
X142771148Y-113264056D01*
X142837441Y-113241990D01*
X142905141Y-113259268D01*
X142952354Y-113309615D01*
X142974572Y-113353220D01*
X142974574Y-113353222D01*
X142974576Y-113353225D01*
X143069874Y-113448523D01*
X143069878Y-113448526D01*
X143069880Y-113448528D01*
X143189974Y-113509719D01*
X143244898Y-113518418D01*
X143308032Y-113548346D01*
X143344963Y-113607657D01*
X143349500Y-113640875D01*
X143349500Y-113644849D01*
X143349502Y-113644881D01*
X143352414Y-113669988D01*
X143352415Y-113669991D01*
X143397793Y-113772764D01*
X143397794Y-113772765D01*
X143477235Y-113852206D01*
X143580009Y-113897585D01*
X143605135Y-113900500D01*
X146194864Y-113900499D01*
X146194879Y-113900497D01*
X146194882Y-113900497D01*
X146219987Y-113897586D01*
X146219988Y-113897585D01*
X146219991Y-113897585D01*
X146322765Y-113852206D01*
X146402206Y-113772765D01*
X146447585Y-113669991D01*
X146450500Y-113644865D01*
X146450500Y-113100001D01*
X149410718Y-113100001D01*
X149431355Y-113256760D01*
X149431356Y-113256762D01*
X149491864Y-113402841D01*
X149588118Y-113528282D01*
X149713559Y-113624536D01*
X149859638Y-113685044D01*
X149938019Y-113695363D01*
X150016399Y-113705682D01*
X150016400Y-113705682D01*
X150016401Y-113705682D01*
X150068654Y-113698802D01*
X150173162Y-113685044D01*
X150319241Y-113624536D01*
X150373801Y-113582671D01*
X150414915Y-113551124D01*
X150480085Y-113525930D01*
X150490401Y-113525500D01*
X158425562Y-113525500D01*
X158492601Y-113545185D01*
X158538356Y-113597989D01*
X158549356Y-113642347D01*
X158549502Y-113644882D01*
X158552413Y-113669987D01*
X158552415Y-113669991D01*
X158597793Y-113772764D01*
X158597794Y-113772765D01*
X158677235Y-113852206D01*
X158780009Y-113897585D01*
X158805135Y-113900500D01*
X161394864Y-113900499D01*
X161394879Y-113900497D01*
X161394882Y-113900497D01*
X161419987Y-113897586D01*
X161419988Y-113897585D01*
X161419991Y-113897585D01*
X161522765Y-113852206D01*
X161602206Y-113772765D01*
X161647585Y-113669991D01*
X161650500Y-113644865D01*
X161650499Y-112555136D01*
X161650497Y-112555117D01*
X161647586Y-112530012D01*
X161647585Y-112530010D01*
X161647585Y-112530009D01*
X161602206Y-112427235D01*
X161522765Y-112347794D01*
X161522763Y-112347793D01*
X161419992Y-112302415D01*
X161394865Y-112299500D01*
X158805143Y-112299500D01*
X158805117Y-112299502D01*
X158780012Y-112302413D01*
X158780008Y-112302415D01*
X158677235Y-112347793D01*
X158597794Y-112427234D01*
X158552415Y-112530006D01*
X158552415Y-112530008D01*
X158549500Y-112555133D01*
X158549355Y-112557647D01*
X158549138Y-112558253D01*
X158549087Y-112558694D01*
X158548985Y-112558682D01*
X158525839Y-112623440D01*
X158470486Y-112666076D01*
X158425561Y-112674500D01*
X150490401Y-112674500D01*
X150423362Y-112654815D01*
X150414915Y-112648876D01*
X150319242Y-112575464D01*
X150173162Y-112514956D01*
X150173160Y-112514955D01*
X150016401Y-112494318D01*
X150016399Y-112494318D01*
X149859639Y-112514955D01*
X149859637Y-112514956D01*
X149713560Y-112575463D01*
X149588118Y-112671718D01*
X149491863Y-112797160D01*
X149431356Y-112943237D01*
X149431355Y-112943239D01*
X149410718Y-113099998D01*
X149410718Y-113100001D01*
X146450500Y-113100001D01*
X146450499Y-112555136D01*
X146450497Y-112555117D01*
X146447586Y-112530012D01*
X146447585Y-112530010D01*
X146447585Y-112530009D01*
X146402206Y-112427235D01*
X146322765Y-112347794D01*
X146322763Y-112347793D01*
X146219992Y-112302415D01*
X146194868Y-112299500D01*
X146194865Y-112299500D01*
X143872600Y-112299500D01*
X143805561Y-112279815D01*
X143759806Y-112227011D01*
X143748600Y-112175500D01*
X143748600Y-112024499D01*
X143768285Y-111957460D01*
X143821089Y-111911705D01*
X143872600Y-111900499D01*
X146194856Y-111900499D01*
X146194864Y-111900499D01*
X146194879Y-111900497D01*
X146194882Y-111900497D01*
X146219987Y-111897586D01*
X146219988Y-111897585D01*
X146219991Y-111897585D01*
X146322765Y-111852206D01*
X146402206Y-111772765D01*
X146447585Y-111669991D01*
X146450500Y-111644865D01*
X146450500Y-111644856D01*
X158549500Y-111644856D01*
X158549502Y-111644882D01*
X158552413Y-111669987D01*
X158552415Y-111669991D01*
X158597793Y-111772764D01*
X158597794Y-111772765D01*
X158677235Y-111852206D01*
X158780009Y-111897585D01*
X158805135Y-111900500D01*
X161394864Y-111900499D01*
X161394879Y-111900497D01*
X161394882Y-111900497D01*
X161419987Y-111897586D01*
X161419988Y-111897585D01*
X161419991Y-111897585D01*
X161522765Y-111852206D01*
X161602206Y-111772765D01*
X161630372Y-111708975D01*
X161675457Y-111655599D01*
X161742244Y-111635071D01*
X161791253Y-111644498D01*
X161889138Y-111685044D01*
X161911865Y-111688036D01*
X162045899Y-111705682D01*
X162045900Y-111705682D01*
X162045901Y-111705682D01*
X162109454Y-111697315D01*
X162202662Y-111685044D01*
X162348741Y-111624536D01*
X162474182Y-111528282D01*
X162570436Y-111402841D01*
X162630944Y-111256762D01*
X162651582Y-111100000D01*
X162644933Y-111049499D01*
X162630944Y-110943239D01*
X162630944Y-110943238D01*
X162570436Y-110797159D01*
X162474182Y-110671718D01*
X162348741Y-110575464D01*
X162300541Y-110555499D01*
X162202662Y-110514956D01*
X162202660Y-110514955D01*
X162045901Y-110494318D01*
X162045899Y-110494318D01*
X161889139Y-110514955D01*
X161889134Y-110514957D01*
X161791257Y-110555499D01*
X161721788Y-110562968D01*
X161659309Y-110531693D01*
X161630372Y-110491026D01*
X161602206Y-110427235D01*
X161522765Y-110347794D01*
X161522763Y-110347793D01*
X161419992Y-110302415D01*
X161394865Y-110299500D01*
X158805143Y-110299500D01*
X158805117Y-110299502D01*
X158780012Y-110302413D01*
X158780008Y-110302415D01*
X158677235Y-110347793D01*
X158597794Y-110427234D01*
X158552415Y-110530006D01*
X158552415Y-110530008D01*
X158549500Y-110555131D01*
X158549500Y-111644856D01*
X146450500Y-111644856D01*
X146450499Y-110555136D01*
X146450497Y-110555117D01*
X146447586Y-110530012D01*
X146447585Y-110530010D01*
X146447585Y-110530009D01*
X146402206Y-110427235D01*
X146322765Y-110347794D01*
X146322763Y-110347793D01*
X146219992Y-110302415D01*
X146194865Y-110299500D01*
X143605143Y-110299500D01*
X143605117Y-110299502D01*
X143580012Y-110302413D01*
X143580008Y-110302415D01*
X143477235Y-110347793D01*
X143477233Y-110347794D01*
X143439618Y-110385410D01*
X143378295Y-110418894D01*
X143308603Y-110413909D01*
X143264257Y-110385409D01*
X142091029Y-109212181D01*
X142057544Y-109150858D01*
X142062528Y-109081166D01*
X142104400Y-109025233D01*
X142169864Y-109000816D01*
X142178710Y-109000500D01*
X142570490Y-109000500D01*
X142637529Y-109020185D01*
X142658171Y-109036819D01*
X142967501Y-109346148D01*
X142967504Y-109346152D01*
X142974572Y-109353220D01*
X143069880Y-109448528D01*
X143091401Y-109459493D01*
X143107980Y-109469653D01*
X143127519Y-109483849D01*
X143150481Y-109491309D01*
X143168454Y-109498753D01*
X143189974Y-109509719D01*
X143213824Y-109513495D01*
X143232742Y-109518038D01*
X143245558Y-109522202D01*
X143255707Y-109525500D01*
X143255708Y-109525500D01*
X143263818Y-109528135D01*
X143321494Y-109567572D01*
X143348693Y-109631930D01*
X143349228Y-109641294D01*
X143349295Y-109641291D01*
X143349502Y-109644882D01*
X143352413Y-109669987D01*
X143352415Y-109669991D01*
X143397793Y-109772764D01*
X143397794Y-109772765D01*
X143477235Y-109852206D01*
X143580009Y-109897585D01*
X143605135Y-109900500D01*
X146194864Y-109900499D01*
X146194879Y-109900497D01*
X146194882Y-109900497D01*
X146219987Y-109897586D01*
X146219988Y-109897585D01*
X146219991Y-109897585D01*
X146322765Y-109852206D01*
X146402206Y-109772765D01*
X146447585Y-109669991D01*
X146450500Y-109644865D01*
X146450500Y-109644848D01*
X146450645Y-109642353D01*
X146450861Y-109641746D01*
X146450913Y-109641306D01*
X146451014Y-109641317D01*
X146474161Y-109576560D01*
X146529514Y-109533924D01*
X146574439Y-109525500D01*
X157683999Y-109525500D01*
X157751038Y-109545185D01*
X157759485Y-109551124D01*
X157855157Y-109624535D01*
X157855158Y-109624535D01*
X157855159Y-109624536D01*
X158001238Y-109685044D01*
X158079619Y-109695363D01*
X158157999Y-109705682D01*
X158158000Y-109705682D01*
X158158001Y-109705682D01*
X158210254Y-109698802D01*
X158314762Y-109685044D01*
X158409346Y-109645865D01*
X158478813Y-109638397D01*
X158541292Y-109669672D01*
X158570231Y-109710341D01*
X158597793Y-109772764D01*
X158597794Y-109772765D01*
X158677235Y-109852206D01*
X158780009Y-109897585D01*
X158805135Y-109900500D01*
X161394864Y-109900499D01*
X161394879Y-109900497D01*
X161394882Y-109900497D01*
X161419987Y-109897586D01*
X161419988Y-109897585D01*
X161419991Y-109897585D01*
X161522765Y-109852206D01*
X161602206Y-109772765D01*
X161647585Y-109669991D01*
X161650500Y-109644865D01*
X161650500Y-109644848D01*
X161650645Y-109642353D01*
X161650861Y-109641746D01*
X161650913Y-109641306D01*
X161651014Y-109641317D01*
X161674161Y-109576560D01*
X161729514Y-109533924D01*
X161774439Y-109525500D01*
X162342999Y-109525500D01*
X162410038Y-109545185D01*
X162418485Y-109551124D01*
X162514157Y-109624535D01*
X162514158Y-109624535D01*
X162514159Y-109624536D01*
X162660238Y-109685044D01*
X162738619Y-109695363D01*
X162816999Y-109705682D01*
X162817000Y-109705682D01*
X162817001Y-109705682D01*
X162869254Y-109698802D01*
X162973762Y-109685044D01*
X163119841Y-109624536D01*
X163245282Y-109528282D01*
X163341536Y-109402841D01*
X163402044Y-109256762D01*
X163422682Y-109100000D01*
X163420202Y-109081166D01*
X163402044Y-108943239D01*
X163402044Y-108943238D01*
X163341536Y-108797159D01*
X163245282Y-108671718D01*
X163119841Y-108575464D01*
X163068343Y-108554133D01*
X162973762Y-108514956D01*
X162973760Y-108514955D01*
X162817001Y-108494318D01*
X162816999Y-108494318D01*
X162660239Y-108514955D01*
X162660237Y-108514956D01*
X162514157Y-108575464D01*
X162418485Y-108648876D01*
X162353315Y-108674070D01*
X162342999Y-108674500D01*
X161774438Y-108674500D01*
X161707399Y-108654815D01*
X161661644Y-108602011D01*
X161650644Y-108557653D01*
X161650499Y-108555151D01*
X161650499Y-108555136D01*
X161649096Y-108543035D01*
X161647586Y-108530012D01*
X161647585Y-108530010D01*
X161647585Y-108530009D01*
X161602206Y-108427235D01*
X161522765Y-108347794D01*
X161475959Y-108327127D01*
X161419992Y-108302415D01*
X161394865Y-108299500D01*
X158805143Y-108299500D01*
X158805117Y-108299502D01*
X158780012Y-108302413D01*
X158780008Y-108302415D01*
X158677235Y-108347793D01*
X158597794Y-108427234D01*
X158570231Y-108489659D01*
X158525145Y-108543035D01*
X158458359Y-108563562D01*
X158409345Y-108554133D01*
X158314765Y-108514957D01*
X158314760Y-108514955D01*
X158158001Y-108494318D01*
X158157999Y-108494318D01*
X158001239Y-108514955D01*
X158001237Y-108514956D01*
X157855157Y-108575464D01*
X157759485Y-108648876D01*
X157694315Y-108674070D01*
X157683999Y-108674500D01*
X146574438Y-108674500D01*
X146507399Y-108654815D01*
X146461644Y-108602011D01*
X146450644Y-108557653D01*
X146450499Y-108555151D01*
X146450499Y-108555136D01*
X146449096Y-108543035D01*
X146447586Y-108530012D01*
X146447585Y-108530010D01*
X146447585Y-108530009D01*
X146402206Y-108427235D01*
X146322765Y-108347794D01*
X146275959Y-108327127D01*
X146219992Y-108302415D01*
X146194865Y-108299500D01*
X143605143Y-108299500D01*
X143605117Y-108299502D01*
X143580012Y-108302413D01*
X143580008Y-108302415D01*
X143477235Y-108347793D01*
X143477233Y-108347794D01*
X143412617Y-108412410D01*
X143351293Y-108445895D01*
X143281602Y-108440909D01*
X143237257Y-108412410D01*
X143075294Y-108250446D01*
X143051320Y-108226472D01*
X143051319Y-108226471D01*
X143048353Y-108224316D01*
X143045621Y-108220773D01*
X143044419Y-108219571D01*
X143044574Y-108219415D01*
X143005689Y-108168985D01*
X142999711Y-108099371D01*
X143032319Y-108037577D01*
X143093159Y-108003222D01*
X143121241Y-108000000D01*
X165475500Y-108000000D01*
X165542539Y-108019685D01*
G37*
%TD.AperFunction*%
%TA.AperFunction,Conductor*%
G36*
X149902065Y-130077300D02*
G01*
X150615799Y-130791034D01*
X150626493Y-130803228D01*
X150645717Y-130828281D01*
X150645718Y-130828282D01*
X150673370Y-130849500D01*
X150730630Y-130893437D01*
X150771833Y-130949865D01*
X150773529Y-130954922D01*
X150804486Y-131054265D01*
X150804488Y-131054272D01*
X150889348Y-131194648D01*
X150889351Y-131194652D01*
X151005347Y-131310648D01*
X151005351Y-131310651D01*
X151145727Y-131395511D01*
X151145736Y-131395514D01*
X151261586Y-131431615D01*
X151319734Y-131470352D01*
X151347708Y-131534378D01*
X151336626Y-131603363D01*
X151290008Y-131655406D01*
X151261586Y-131668385D01*
X151145736Y-131704485D01*
X151145727Y-131704488D01*
X151005351Y-131789348D01*
X151005347Y-131789351D01*
X150889351Y-131905347D01*
X150889348Y-131905351D01*
X150804488Y-132045727D01*
X150804485Y-132045736D01*
X150770098Y-132156089D01*
X150755685Y-132202343D01*
X150749500Y-132270406D01*
X150749500Y-133129594D01*
X150755685Y-133197657D01*
X150755686Y-133197662D01*
X150755687Y-133197664D01*
X150804485Y-133354263D01*
X150804488Y-133354272D01*
X150889348Y-133494648D01*
X150889351Y-133494652D01*
X151005347Y-133610648D01*
X151005351Y-133610651D01*
X151145727Y-133695511D01*
X151145730Y-133695512D01*
X151302343Y-133744315D01*
X151336721Y-133747439D01*
X151401703Y-133773107D01*
X151442492Y-133829834D01*
X151449500Y-133870929D01*
X151449500Y-135022102D01*
X151429815Y-135089141D01*
X151413181Y-135109783D01*
X151133965Y-135388998D01*
X151121775Y-135399689D01*
X151096717Y-135418918D01*
X151067606Y-135456858D01*
X151067605Y-135456859D01*
X151000464Y-135544358D01*
X151000463Y-135544359D01*
X150969070Y-135620149D01*
X150929441Y-135671494D01*
X150924921Y-135674921D01*
X150837636Y-135790023D01*
X150784640Y-135924411D01*
X150781246Y-135952680D01*
X150774500Y-136008856D01*
X150774500Y-136591144D01*
X150779825Y-136635494D01*
X150784640Y-136675588D01*
X150837636Y-136809976D01*
X150924921Y-136925078D01*
X151040023Y-137012363D01*
X151040024Y-137012363D01*
X151040025Y-137012364D01*
X151174410Y-137065359D01*
X151258856Y-137075500D01*
X151258862Y-137075500D01*
X151791138Y-137075500D01*
X151791144Y-137075500D01*
X151875590Y-137065359D01*
X152009975Y-137012364D01*
X152125078Y-136925078D01*
X152137477Y-136908727D01*
X152193667Y-136867204D01*
X152263388Y-136862651D01*
X152324503Y-136896515D01*
X152343011Y-136920528D01*
X152352223Y-136936105D01*
X152352232Y-136936116D01*
X152463883Y-137047767D01*
X152463891Y-137047773D01*
X152599811Y-137128155D01*
X152599810Y-137128155D01*
X152637433Y-137139085D01*
X152696319Y-137176691D01*
X152725527Y-137240163D01*
X152715782Y-137309349D01*
X152690522Y-137345843D01*
X152533682Y-137502682D01*
X152472361Y-137536166D01*
X152446003Y-137539000D01*
X150918797Y-137539000D01*
X150851758Y-137519315D01*
X150831116Y-137502681D01*
X150626399Y-137297964D01*
X150615704Y-137285769D01*
X150596483Y-137260719D01*
X150595653Y-137260082D01*
X150471041Y-137164464D01*
X150399044Y-137134642D01*
X150324962Y-137103956D01*
X150324960Y-137103955D01*
X150207561Y-137088500D01*
X150168200Y-137083318D01*
X150136897Y-137087439D01*
X150120713Y-137088500D01*
X147074500Y-137088500D01*
X147007461Y-137068815D01*
X146961706Y-137016011D01*
X146950500Y-136964500D01*
X146950500Y-136449500D01*
X146970185Y-136382461D01*
X147022989Y-136336706D01*
X147074500Y-136325500D01*
X147643097Y-136325500D01*
X147643102Y-136325500D01*
X147731564Y-136314877D01*
X147872342Y-136259361D01*
X147992922Y-136167922D01*
X148084361Y-136047342D01*
X148134237Y-135920864D01*
X148177141Y-135865724D01*
X148243048Y-135842530D01*
X148311033Y-135858650D01*
X148359510Y-135908967D01*
X148368666Y-135931762D01*
X148398715Y-136035193D01*
X148398717Y-136035196D01*
X148482314Y-136176552D01*
X148482321Y-136176561D01*
X148598438Y-136292678D01*
X148598447Y-136292685D01*
X148739803Y-136376282D01*
X148739806Y-136376283D01*
X148897504Y-136422099D01*
X148897510Y-136422100D01*
X148934350Y-136424999D01*
X148934366Y-136425000D01*
X149000000Y-136425000D01*
X149000000Y-135550000D01*
X149500000Y-135550000D01*
X149500000Y-136425000D01*
X149565634Y-136425000D01*
X149565649Y-136424999D01*
X149602489Y-136422100D01*
X149602495Y-136422099D01*
X149760193Y-136376283D01*
X149760196Y-136376282D01*
X149901552Y-136292685D01*
X149901561Y-136292678D01*
X150017678Y-136176561D01*
X150017685Y-136176552D01*
X150101282Y-136035196D01*
X150101283Y-136035193D01*
X150147099Y-135877495D01*
X150147100Y-135877489D01*
X150149999Y-135840649D01*
X150150000Y-135840634D01*
X150150000Y-135550000D01*
X149500000Y-135550000D01*
X149000000Y-135550000D01*
X149000000Y-134175000D01*
X149500000Y-134175000D01*
X149500000Y-135050000D01*
X150150000Y-135050000D01*
X150150000Y-134759365D01*
X150149999Y-134759350D01*
X150147100Y-134722510D01*
X150147099Y-134722504D01*
X150101283Y-134564806D01*
X150101282Y-134564803D01*
X150017685Y-134423447D01*
X150017678Y-134423438D01*
X149901561Y-134307321D01*
X149901552Y-134307314D01*
X149760196Y-134223717D01*
X149760193Y-134223716D01*
X149602495Y-134177900D01*
X149602489Y-134177899D01*
X149565649Y-134175000D01*
X149500000Y-134175000D01*
X149000000Y-134175000D01*
X148934350Y-134175000D01*
X148897510Y-134177899D01*
X148897504Y-134177900D01*
X148739806Y-134223716D01*
X148739803Y-134223717D01*
X148598447Y-134307314D01*
X148598438Y-134307321D01*
X148482321Y-134423438D01*
X148482314Y-134423447D01*
X148398717Y-134564803D01*
X148398716Y-134564804D01*
X148368666Y-134668238D01*
X148331059Y-134727123D01*
X148267587Y-134756329D01*
X148198400Y-134746583D01*
X148145466Y-134700978D01*
X148134238Y-134679137D01*
X148100782Y-134594298D01*
X148084361Y-134552657D01*
X147992922Y-134432077D01*
X147872343Y-134340639D01*
X147731561Y-134285122D01*
X147685926Y-134279642D01*
X147643102Y-134274500D01*
X147061070Y-134274500D01*
X146994031Y-134254815D01*
X146948276Y-134202011D01*
X146938131Y-134166686D01*
X146937870Y-134164708D01*
X146935044Y-134143238D01*
X146874536Y-133997159D01*
X146802450Y-133903215D01*
X146788761Y-133885375D01*
X146778281Y-133871716D01*
X146753229Y-133852494D01*
X146741034Y-133841799D01*
X145536319Y-132637084D01*
X145502834Y-132575761D01*
X145500000Y-132549403D01*
X145500000Y-131224499D01*
X145519685Y-131157460D01*
X145572489Y-131111705D01*
X145623996Y-131100499D01*
X146844864Y-131100499D01*
X146844879Y-131100497D01*
X146844882Y-131100497D01*
X146869987Y-131097586D01*
X146869988Y-131097585D01*
X146869991Y-131097585D01*
X146972765Y-131052206D01*
X147052206Y-130972765D01*
X147097585Y-130869991D01*
X147100500Y-130844865D01*
X147100499Y-130355146D01*
X147120183Y-130288110D01*
X147172987Y-130242355D01*
X147242146Y-130232411D01*
X147305702Y-130261436D01*
X147343476Y-130320214D01*
X147343765Y-130321215D01*
X147376236Y-130435342D01*
X147376239Y-130435348D01*
X147475369Y-130634428D01*
X147491137Y-130655308D01*
X147491138Y-130655308D01*
X148102046Y-130044400D01*
X148114835Y-130125148D01*
X148172359Y-130238045D01*
X148261955Y-130327641D01*
X148374852Y-130385165D01*
X148455599Y-130397953D01*
X147846672Y-131006879D01*
X147846672Y-131006880D01*
X147962821Y-131078797D01*
X147962822Y-131078798D01*
X148170195Y-131159134D01*
X148388807Y-131200000D01*
X148611193Y-131200000D01*
X148829809Y-131159133D01*
X149037168Y-131078801D01*
X149037181Y-131078795D01*
X149153326Y-131006879D01*
X148544401Y-130397953D01*
X148625148Y-130385165D01*
X148738045Y-130327641D01*
X148827641Y-130238045D01*
X148885165Y-130125148D01*
X148897953Y-130044400D01*
X149508861Y-130655308D01*
X149524631Y-130634425D01*
X149524633Y-130634422D01*
X149623759Y-130435350D01*
X149684621Y-130221439D01*
X149690913Y-130153540D01*
X149716699Y-130088603D01*
X149773499Y-130047915D01*
X149843280Y-130044395D01*
X149902065Y-130077300D01*
G37*
%TD.AperFunction*%
%TA.AperFunction,Conductor*%
G36*
X140443039Y-100420185D02*
G01*
X140488794Y-100472989D01*
X140500000Y-100524500D01*
X140500000Y-108024881D01*
X140503556Y-108031394D01*
X140498572Y-108101086D01*
X140481661Y-108132057D01*
X140481207Y-108132663D01*
X140481202Y-108132671D01*
X140430910Y-108267513D01*
X140430909Y-108267517D01*
X140424500Y-108327127D01*
X140424500Y-108327134D01*
X140424500Y-108327135D01*
X140424500Y-108822870D01*
X140424501Y-108822876D01*
X140430908Y-108882483D01*
X140467133Y-108979605D01*
X140472117Y-109049297D01*
X140438634Y-109110617D01*
X140416008Y-109133244D01*
X140416006Y-109133246D01*
X140416005Y-109133247D01*
X140096480Y-109452772D01*
X140065404Y-109483848D01*
X140001171Y-109548080D01*
X139990210Y-109569593D01*
X139980046Y-109586178D01*
X139965852Y-109605714D01*
X139965851Y-109605717D01*
X139958388Y-109628685D01*
X139950943Y-109646658D01*
X139939980Y-109668173D01*
X139936203Y-109692022D01*
X139931662Y-109710939D01*
X139924200Y-109733904D01*
X139924200Y-111592094D01*
X139931662Y-111615058D01*
X139936203Y-111633973D01*
X139937927Y-111644856D01*
X139939981Y-111657827D01*
X139950943Y-111679341D01*
X139958388Y-111697315D01*
X139965850Y-111720280D01*
X139980040Y-111739810D01*
X139990208Y-111756403D01*
X140001170Y-111777918D01*
X140388181Y-112164929D01*
X140421666Y-112226252D01*
X140424500Y-112252610D01*
X140424500Y-112622869D01*
X140424501Y-112622876D01*
X140430908Y-112682483D01*
X140481202Y-112817328D01*
X140481206Y-112817335D01*
X140567452Y-112932544D01*
X140567455Y-112932547D01*
X140682664Y-113018793D01*
X140682671Y-113018797D01*
X140704397Y-113026900D01*
X140817517Y-113069091D01*
X140877127Y-113075500D01*
X141000903Y-113075499D01*
X141067941Y-113095183D01*
X141113696Y-113147987D01*
X141123640Y-113217145D01*
X141094616Y-113280701D01*
X141088583Y-113287180D01*
X141087582Y-113288181D01*
X141026259Y-113321666D01*
X140999902Y-113324500D01*
X140877130Y-113324500D01*
X140877123Y-113324501D01*
X140817516Y-113330908D01*
X140682671Y-113381202D01*
X140682664Y-113381206D01*
X140567455Y-113467452D01*
X140567452Y-113467455D01*
X140481206Y-113582664D01*
X140481202Y-113582671D01*
X140435323Y-113705682D01*
X140430909Y-113717517D01*
X140424500Y-113777127D01*
X140424500Y-113777134D01*
X140424500Y-113777135D01*
X140424500Y-114272870D01*
X140424501Y-114272876D01*
X140430908Y-114332483D01*
X140481202Y-114467328D01*
X140481206Y-114467335D01*
X140567452Y-114582544D01*
X140567455Y-114582547D01*
X140682664Y-114668793D01*
X140682671Y-114668797D01*
X140690503Y-114671718D01*
X140817517Y-114719091D01*
X140877127Y-114725500D01*
X140999902Y-114725499D01*
X141066941Y-114745183D01*
X141087583Y-114761818D01*
X141592181Y-115266416D01*
X141625666Y-115327739D01*
X141628500Y-115354097D01*
X141628500Y-117151000D01*
X141608815Y-117218039D01*
X141556011Y-117263794D01*
X141504500Y-117275000D01*
X141450000Y-117275000D01*
X141450000Y-118251000D01*
X141430315Y-118318039D01*
X141377511Y-118363794D01*
X141326000Y-118375000D01*
X140325000Y-118375000D01*
X140325000Y-118413118D01*
X140327788Y-118448547D01*
X140327789Y-118448553D01*
X140371843Y-118600185D01*
X140371844Y-118600188D01*
X140452226Y-118736108D01*
X140452232Y-118736116D01*
X140563883Y-118847767D01*
X140563894Y-118847776D01*
X140579469Y-118856987D01*
X140627152Y-118908057D01*
X140639655Y-118976798D01*
X140613009Y-119041387D01*
X140591275Y-119062520D01*
X140574921Y-119074921D01*
X140487636Y-119190023D01*
X140434640Y-119324411D01*
X140429065Y-119370841D01*
X140424500Y-119408856D01*
X140424500Y-119941144D01*
X140429825Y-119985494D01*
X140434640Y-120025588D01*
X140487636Y-120159976D01*
X140574921Y-120275078D01*
X140690023Y-120362363D01*
X140690024Y-120362363D01*
X140690025Y-120362364D01*
X140824410Y-120415359D01*
X140908856Y-120425500D01*
X141049903Y-120425500D01*
X141116942Y-120445185D01*
X141137584Y-120461819D01*
X141413681Y-120737916D01*
X141447166Y-120799239D01*
X141450000Y-120825597D01*
X141450000Y-121776000D01*
X141430315Y-121843039D01*
X141377511Y-121888794D01*
X141326000Y-121900000D01*
X140075000Y-121900000D01*
X140075000Y-121965649D01*
X140077899Y-122002489D01*
X140077900Y-122002495D01*
X140123716Y-122160193D01*
X140123717Y-122160196D01*
X140207314Y-122301552D01*
X140207321Y-122301561D01*
X140323438Y-122417678D01*
X140323447Y-122417685D01*
X140464803Y-122501282D01*
X140464806Y-122501283D01*
X140568237Y-122531333D01*
X140627122Y-122568939D01*
X140656329Y-122632411D01*
X140646583Y-122701598D01*
X140600979Y-122754532D01*
X140579132Y-122765763D01*
X140452660Y-122815637D01*
X140452658Y-122815638D01*
X140332077Y-122907077D01*
X140240639Y-123027656D01*
X140185122Y-123168438D01*
X140179188Y-123217853D01*
X140174500Y-123256898D01*
X140174500Y-123843102D01*
X140180126Y-123889954D01*
X140185122Y-123931561D01*
X140185122Y-123931563D01*
X140185123Y-123931564D01*
X140232166Y-124050857D01*
X140240639Y-124072342D01*
X140332077Y-124192922D01*
X140452656Y-124284360D01*
X140452657Y-124284360D01*
X140452658Y-124284361D01*
X140593436Y-124339877D01*
X140681898Y-124350500D01*
X140681903Y-124350500D01*
X141718097Y-124350500D01*
X141718102Y-124350500D01*
X141806564Y-124339877D01*
X141947342Y-124284361D01*
X142067922Y-124192922D01*
X142067928Y-124192913D01*
X142073915Y-124186928D01*
X142076526Y-124189539D01*
X142118802Y-124158149D01*
X142161680Y-124150500D01*
X142650613Y-124150500D01*
X142666797Y-124151560D01*
X142698100Y-124155682D01*
X142698101Y-124155682D01*
X142750354Y-124148802D01*
X142854862Y-124135044D01*
X143000941Y-124074536D01*
X143003800Y-124072342D01*
X143126382Y-123978282D01*
X143145609Y-123953223D01*
X143156290Y-123941043D01*
X143273502Y-123823831D01*
X143334823Y-123790348D01*
X143404515Y-123795332D01*
X143448862Y-123823833D01*
X143477235Y-123852206D01*
X143580009Y-123897585D01*
X143605135Y-123900500D01*
X143673901Y-123900499D01*
X143740940Y-123920183D01*
X143761583Y-123936818D01*
X148421259Y-128596494D01*
X148454744Y-128657817D01*
X148449760Y-128727509D01*
X148407888Y-128783442D01*
X148356363Y-128806064D01*
X148170195Y-128840865D01*
X147962824Y-128921200D01*
X147962823Y-128921201D01*
X147846671Y-128993119D01*
X148455599Y-129602046D01*
X148374852Y-129614835D01*
X148261955Y-129672359D01*
X148172359Y-129761955D01*
X148114835Y-129874852D01*
X148102046Y-129955599D01*
X147491138Y-129344691D01*
X147491137Y-129344691D01*
X147475368Y-129365574D01*
X147376239Y-129564651D01*
X147376236Y-129564657D01*
X147343765Y-129678785D01*
X147306486Y-129737878D01*
X147243177Y-129767436D01*
X147173937Y-129758074D01*
X147120750Y-129712765D01*
X147100503Y-129645893D01*
X147100499Y-129644851D01*
X147100499Y-129155143D01*
X147100499Y-129155136D01*
X147099882Y-129149814D01*
X147097586Y-129130012D01*
X147097585Y-129130010D01*
X147097585Y-129130009D01*
X147052206Y-129027235D01*
X146972765Y-128947794D01*
X146869992Y-128902415D01*
X146844868Y-128899500D01*
X145624000Y-128899500D01*
X145556961Y-128879815D01*
X145511206Y-128827011D01*
X145500000Y-128775500D01*
X145500000Y-128000000D01*
X131124000Y-128000000D01*
X131056961Y-127980315D01*
X131011206Y-127927511D01*
X131000000Y-127876000D01*
X131000000Y-121400000D01*
X140075000Y-121400000D01*
X140950000Y-121400000D01*
X140950000Y-120750000D01*
X140659350Y-120750000D01*
X140622510Y-120752899D01*
X140622504Y-120752900D01*
X140464806Y-120798716D01*
X140464803Y-120798717D01*
X140323447Y-120882314D01*
X140323438Y-120882321D01*
X140207321Y-120998438D01*
X140207314Y-120998447D01*
X140123717Y-121139803D01*
X140123716Y-121139806D01*
X140077900Y-121297504D01*
X140077899Y-121297510D01*
X140075000Y-121334350D01*
X140075000Y-121400000D01*
X131000000Y-121400000D01*
X131000000Y-119703194D01*
X133429500Y-119703194D01*
X133444244Y-119862310D01*
X133490701Y-120025588D01*
X133502596Y-120067392D01*
X133502596Y-120067394D01*
X133597632Y-120258253D01*
X133725242Y-120427234D01*
X133726128Y-120428407D01*
X133883698Y-120572052D01*
X134064981Y-120684298D01*
X134263802Y-120761321D01*
X134473390Y-120800500D01*
X134473392Y-120800500D01*
X134686608Y-120800500D01*
X134686610Y-120800500D01*
X134896198Y-120761321D01*
X135095019Y-120684298D01*
X135276302Y-120572052D01*
X135433872Y-120428407D01*
X135562366Y-120258255D01*
X135657405Y-120067389D01*
X135715756Y-119862310D01*
X135730500Y-119703194D01*
X135730500Y-119296806D01*
X135715756Y-119137690D01*
X135657405Y-118932611D01*
X135657403Y-118932606D01*
X135657403Y-118932605D01*
X135562367Y-118741746D01*
X135433872Y-118571593D01*
X135415820Y-118555136D01*
X135276302Y-118427948D01*
X135095019Y-118315702D01*
X135095017Y-118315701D01*
X134928002Y-118251000D01*
X134896198Y-118238679D01*
X134686610Y-118199500D01*
X134473390Y-118199500D01*
X134263802Y-118238679D01*
X134263799Y-118238679D01*
X134263799Y-118238680D01*
X134064982Y-118315701D01*
X134064980Y-118315702D01*
X133883699Y-118427947D01*
X133726127Y-118571593D01*
X133597632Y-118741746D01*
X133502596Y-118932605D01*
X133502596Y-118932607D01*
X133445708Y-119132546D01*
X133444244Y-119137690D01*
X133429500Y-119296806D01*
X133429500Y-119703194D01*
X131000000Y-119703194D01*
X131000000Y-117875000D01*
X140325000Y-117875000D01*
X140950000Y-117875000D01*
X140950000Y-117275000D01*
X140886881Y-117275000D01*
X140851452Y-117277788D01*
X140851446Y-117277789D01*
X140699814Y-117321843D01*
X140699811Y-117321844D01*
X140563891Y-117402226D01*
X140563883Y-117402232D01*
X140452232Y-117513883D01*
X140452226Y-117513891D01*
X140371844Y-117649811D01*
X140371843Y-117649814D01*
X140327789Y-117801446D01*
X140327788Y-117801452D01*
X140325000Y-117836881D01*
X140325000Y-117875000D01*
X131000000Y-117875000D01*
X131000000Y-104250000D01*
X133330000Y-104250000D01*
X134146314Y-104250000D01*
X134120507Y-104290156D01*
X134080000Y-104428111D01*
X134080000Y-104571889D01*
X134120507Y-104709844D01*
X134146314Y-104750000D01*
X133333948Y-104750000D01*
X133345116Y-104874095D01*
X133345117Y-104874102D01*
X133404973Y-105090984D01*
X133404978Y-105090997D01*
X133502598Y-105293708D01*
X133502602Y-105293716D01*
X133634851Y-105475741D01*
X133634857Y-105475749D01*
X133797486Y-105631237D01*
X133985266Y-105755191D01*
X134192169Y-105843624D01*
X134192178Y-105843627D01*
X134329999Y-105875084D01*
X134330000Y-105875084D01*
X134330000Y-104935501D01*
X134437685Y-104984680D01*
X134544237Y-105000000D01*
X134615763Y-105000000D01*
X134722315Y-104984680D01*
X134830000Y-104935501D01*
X134830000Y-105877549D01*
X134859267Y-105873586D01*
X134859273Y-105873585D01*
X135073268Y-105804054D01*
X135271401Y-105697434D01*
X135271404Y-105697432D01*
X135447320Y-105557145D01*
X135595352Y-105387707D01*
X135595359Y-105387699D01*
X135710759Y-105194553D01*
X135710761Y-105194548D01*
X135789824Y-104983889D01*
X135789824Y-104983888D01*
X135830000Y-104762505D01*
X135830000Y-104750000D01*
X135013686Y-104750000D01*
X135039493Y-104709844D01*
X135080000Y-104571889D01*
X135080000Y-104428111D01*
X135039493Y-104290156D01*
X135013686Y-104250000D01*
X135826052Y-104250000D01*
X135826052Y-104249999D01*
X135814883Y-104125904D01*
X135814882Y-104125897D01*
X135755026Y-103909015D01*
X135755021Y-103909002D01*
X135657401Y-103706291D01*
X135657397Y-103706283D01*
X135525148Y-103524258D01*
X135525142Y-103524250D01*
X135362513Y-103368762D01*
X135174733Y-103244808D01*
X134967830Y-103156375D01*
X134967823Y-103156373D01*
X134830000Y-103124915D01*
X134830000Y-104064498D01*
X134722315Y-104015320D01*
X134615763Y-104000000D01*
X134544237Y-104000000D01*
X134437685Y-104015320D01*
X134330000Y-104064498D01*
X134330000Y-103122449D01*
X134329999Y-103122449D01*
X134300721Y-103126415D01*
X134086731Y-103195945D01*
X133888598Y-103302565D01*
X133888595Y-103302567D01*
X133712679Y-103442854D01*
X133564647Y-103612292D01*
X133564640Y-103612300D01*
X133449240Y-103805446D01*
X133449238Y-103805451D01*
X133370175Y-104016110D01*
X133370175Y-104016111D01*
X133330000Y-104237494D01*
X133330000Y-104250000D01*
X131000000Y-104250000D01*
X131000000Y-100524500D01*
X131019685Y-100457461D01*
X131072489Y-100411706D01*
X131124000Y-100400500D01*
X140376000Y-100400500D01*
X140443039Y-100420185D01*
G37*
%TD.AperFunction*%
%TD*%
M02*
