%TF.GenerationSoftware,KiCad,Pcbnew,10.0.5*%
%TF.CreationDate,2026-09-30T10:53:16-04:00*%
%TF.ProjectId,rele-esp12f,72656c65-2d65-4737-9031-32662e6b6963,rev?*%
%TF.SameCoordinates,Original*%
%TF.FileFunction,Copper,L2,Bot*%
%TF.FilePolarity,Positive*%
%FSLAX46Y46*%
G04 Gerber Fmt 4.6, Leading zero omitted, Abs format (unit mm)*
G04 Created by KiCad (PCBNEW 10.0.5) date 2026-09-30 10:53:16*
%MOMM*%
%LPD*%
G01*
G04 APERTURE LIST*
%TA.AperFunction,ComponentPad*%
%ADD10R,1.700000X1.700000*%
%TD*%
%TA.AperFunction,ComponentPad*%
%ADD11C,1.700000*%
%TD*%
%TA.AperFunction,ComponentPad*%
%ADD12C,2.000000*%
%TD*%
%TA.AperFunction,ComponentPad*%
%ADD13R,2.600000X2.600000*%
%TD*%
%TA.AperFunction,ComponentPad*%
%ADD14C,2.600000*%
%TD*%
%TA.AperFunction,ComponentPad*%
%ADD15R,1.600000X1.600000*%
%TD*%
%TA.AperFunction,ComponentPad*%
%ADD16C,1.600000*%
%TD*%
%TA.AperFunction,ComponentPad*%
%ADD17R,1.700000X2.000000*%
%TD*%
%TA.AperFunction,ComponentPad*%
%ADD18O,1.700000X2.000000*%
%TD*%
%TA.AperFunction,ComponentPad*%
%ADD19C,3.000000*%
%TD*%
%TA.AperFunction,ComponentPad*%
%ADD20C,2.500000*%
%TD*%
%TA.AperFunction,ViaPad*%
%ADD21C,0.600000*%
%TD*%
%TA.AperFunction,Conductor*%
%ADD22C,0.300000*%
%TD*%
%TA.AperFunction,Conductor*%
%ADD23C,0.500000*%
%TD*%
%TA.AperFunction,Conductor*%
%ADD24C,2.500000*%
%TD*%
%TA.AperFunction,Conductor*%
%ADD25C,1.000000*%
%TD*%
%TA.AperFunction,Conductor*%
%ADD26C,0.600000*%
%TD*%
G04 APERTURE END LIST*
D10*
%TO.P,J3,1*%
%TO.N,+3V3*%
X164250000Y-132380000D03*
D11*
%TO.P,J3,2*%
%TO.N,GND*%
X164250000Y-134920000D03*
%TO.P,J3,3*%
%TO.N,/TXD*%
X161710000Y-132380000D03*
%TO.P,J3,4*%
%TO.N,/RXD*%
X161710000Y-134920000D03*
%TO.P,J3,5*%
%TO.N,/GPIO0*%
X159170000Y-132380000D03*
%TO.P,J3,6*%
%TO.N,/RST*%
X159170000Y-134920000D03*
%TD*%
D12*
%TO.P,F1,1*%
%TO.N,/L_IN*%
X115500000Y-126600000D03*
%TO.P,F1,2*%
%TO.N,/L_F*%
X110420000Y-126590000D03*
%TD*%
D13*
%TO.P,J1,1*%
%TO.N,/N*%
X103340000Y-138800000D03*
D14*
%TO.P,J1,2*%
%TO.N,/L_OUT*%
X108420000Y-138800000D03*
%TO.P,J1,3*%
%TO.N,/L_IN*%
X113500000Y-138800000D03*
%TD*%
D15*
%TO.P,C1,1*%
%TO.N,+5V*%
X146100000Y-133400000D03*
D16*
%TO.P,C1,2*%
%TO.N,GND*%
X148600000Y-133400000D03*
%TD*%
D17*
%TO.P,PS1,1*%
%TO.N,/L_F*%
X104400000Y-109500000D03*
D18*
%TO.P,PS1,2*%
%TO.N,/N*%
X104400000Y-114500000D03*
%TO.P,PS1,3*%
%TO.N,GND*%
X133480000Y-104500000D03*
%TO.P,PS1,4*%
%TO.N,+5V*%
X133480000Y-119500000D03*
%TD*%
D16*
%TO.P,RV1,1*%
%TO.N,/L_F*%
X107100000Y-126600000D03*
%TO.P,RV1,2*%
%TO.N,/N*%
X102100000Y-125300000D03*
%TD*%
D19*
%TO.P,K1,1*%
%TO.N,/L_IN*%
X138050000Y-135600000D03*
D20*
%TO.P,K1,2*%
%TO.N,+5V*%
X136100000Y-129550000D03*
D19*
%TO.P,K1,3*%
%TO.N,/L_OUT*%
X123900000Y-129550000D03*
%TO.P,K1,4*%
%TO.N,unconnected-(K1-Pad4)*%
X123850000Y-141600000D03*
D20*
%TO.P,K1,5*%
%TO.N,/COIL_N*%
X136100000Y-141550000D03*
%TD*%
D21*
%TO.N,/RST*%
X154400000Y-137200000D03*
X154400000Y-111600000D03*
%TO.N,+3V3*%
X140300000Y-103000000D03*
X143900000Y-122400000D03*
X140300000Y-109830000D03*
X140300000Y-112830000D03*
%TO.N,/RELAY*%
X149700000Y-137700000D03*
X153400000Y-115300000D03*
%TO.N,/RXD*%
X155400000Y-115300000D03*
%TO.N,/TXD*%
X157400000Y-115300000D03*
%TO.N,Net-(Q1-B)*%
X153400000Y-122500000D03*
X153000000Y-134000000D03*
%TO.N,/COIL_N*%
X156000000Y-138100000D03*
%TO.N,Net-(D3-A)*%
X151400000Y-122500000D03*
X153000000Y-140600000D03*
%TD*%
%TO.N,/RST*%
D22*
X154400000Y-111600000D02*
X154400000Y-137200000D01*
%TO.N,+3V3*%
D23*
X140300000Y-118800000D02*
X140300000Y-103000000D01*
X140300000Y-104000000D02*
X158300000Y-104000000D01*
X143900000Y-122400000D02*
X140300000Y-118800000D01*
X158300000Y-117900000D02*
X164250000Y-123850000D01*
X164250000Y-123850000D02*
X164250000Y-132380000D01*
X158300000Y-104000000D02*
X158300000Y-117900000D01*
%TO.N,/RELAY*%
D22*
X150000000Y-118700000D02*
X150000000Y-137400000D01*
X153400000Y-115300000D02*
X150000000Y-118700000D01*
X150000000Y-137400000D02*
X149700000Y-137700000D01*
%TO.N,/RXD*%
X160440000Y-124040000D02*
X160440000Y-133600000D01*
X160440000Y-133600000D02*
X161710000Y-134920000D01*
X155400000Y-119000000D02*
X160440000Y-124040000D01*
X155400000Y-115300000D02*
X155400000Y-119000000D01*
%TO.N,/TXD*%
X157400000Y-115300000D02*
X157400000Y-118000000D01*
X157400000Y-118000000D02*
X161710000Y-122310000D01*
X161710000Y-122310000D02*
X161710000Y-132380000D01*
%TO.N,/L_IN*%
D24*
X116700000Y-135600000D02*
X138050000Y-135600000D01*
X113500000Y-138800000D02*
X116700000Y-135600000D01*
D25*
X116700000Y-135600000D02*
X116700000Y-127800000D01*
X116700000Y-127800000D02*
X115500000Y-126600000D01*
%TO.N,Net-(Q1-B)*%
D22*
X153400000Y-122500000D02*
X153400000Y-133600000D01*
X153400000Y-133600000D02*
X153000000Y-134000000D01*
%TO.N,/COIL_N*%
D26*
X156000000Y-141600000D02*
X156000000Y-138100000D01*
X137550000Y-143000000D02*
X154600000Y-143000000D01*
X136100000Y-141550000D02*
X137550000Y-143000000D01*
X154600000Y-143000000D02*
X156000000Y-141600000D01*
%TO.N,Net-(D3-A)*%
D22*
X153000000Y-139100000D02*
X153000000Y-140600000D01*
X151400000Y-122500000D02*
X151400000Y-137500000D01*
X151400000Y-137500000D02*
X153000000Y-139100000D01*
%TD*%
%TA.AperFunction,Conductor*%
%TO.N,GND*%
G36*
X165292876Y-100615166D02*
G01*
X165356978Y-100650168D01*
X165371848Y-100659724D01*
X165457710Y-100724000D01*
X165540353Y-100785866D01*
X165553723Y-100797452D01*
X165702547Y-100946276D01*
X165714133Y-100959646D01*
X165840271Y-101128146D01*
X165849836Y-101143030D01*
X165884832Y-101207120D01*
X165900000Y-101266547D01*
X165900000Y-101356000D01*
X165880315Y-101423039D01*
X165827511Y-101468794D01*
X165776000Y-101480000D01*
X158700000Y-101480000D01*
X158700000Y-103380503D01*
X158680315Y-103447542D01*
X158627511Y-103493297D01*
X158558353Y-103503241D01*
X158520057Y-103489987D01*
X158519999Y-103490128D01*
X158517632Y-103489147D01*
X158514001Y-103487891D01*
X158512487Y-103487017D01*
X158512486Y-103487016D01*
X158512485Y-103487016D01*
X158372475Y-103449500D01*
X158372472Y-103449500D01*
X140974500Y-103449500D01*
X140907461Y-103429815D01*
X140861706Y-103377011D01*
X140850500Y-103325500D01*
X140850500Y-103278362D01*
X140858167Y-103239822D01*
X140857473Y-103239636D01*
X140859577Y-103231784D01*
X140900500Y-103079057D01*
X140900500Y-102920943D01*
X140859577Y-102768216D01*
X140859573Y-102768209D01*
X140780524Y-102631290D01*
X140780518Y-102631282D01*
X140668717Y-102519481D01*
X140668709Y-102519475D01*
X140531790Y-102440426D01*
X140531786Y-102440424D01*
X140531784Y-102440423D01*
X140379057Y-102399500D01*
X140220943Y-102399500D01*
X140068216Y-102440423D01*
X140068209Y-102440426D01*
X139931290Y-102519475D01*
X139931282Y-102519481D01*
X139819481Y-102631282D01*
X139819475Y-102631290D01*
X139740426Y-102768209D01*
X139740423Y-102768216D01*
X139699500Y-102920943D01*
X139699500Y-103079056D01*
X139742527Y-103239636D01*
X139741832Y-103239822D01*
X139749500Y-103278362D01*
X139749500Y-109551637D01*
X139741834Y-109590179D01*
X139742527Y-109590365D01*
X139699500Y-109750943D01*
X139699500Y-109909056D01*
X139742527Y-110069636D01*
X139741832Y-110069822D01*
X139749500Y-110108362D01*
X139749500Y-112551637D01*
X139741834Y-112590179D01*
X139742527Y-112590365D01*
X139699500Y-112750943D01*
X139699500Y-112909056D01*
X139742527Y-113069636D01*
X139741832Y-113069822D01*
X139749500Y-113108362D01*
X139749500Y-118872475D01*
X139751037Y-118878211D01*
X139787016Y-119012485D01*
X139826335Y-119080589D01*
X139859489Y-119138013D01*
X139859491Y-119138016D01*
X143313905Y-122592430D01*
X143335737Y-122625105D01*
X143336359Y-122624746D01*
X143419477Y-122768712D01*
X143419479Y-122768715D01*
X143419480Y-122768716D01*
X143531284Y-122880520D01*
X143531286Y-122880521D01*
X143531290Y-122880524D01*
X143562835Y-122898736D01*
X143668216Y-122959577D01*
X143820943Y-123000500D01*
X143820945Y-123000500D01*
X143979055Y-123000500D01*
X143979057Y-123000500D01*
X144131784Y-122959577D01*
X144268716Y-122880520D01*
X144380520Y-122768716D01*
X144459577Y-122631784D01*
X144500500Y-122479057D01*
X144500500Y-122320943D01*
X144459577Y-122168216D01*
X144438258Y-122131290D01*
X144380524Y-122031290D01*
X144380518Y-122031282D01*
X144268717Y-121919481D01*
X144268712Y-121919477D01*
X144124746Y-121836359D01*
X144125105Y-121835737D01*
X144092430Y-121813905D01*
X140886819Y-118608294D01*
X140853334Y-118546971D01*
X140850500Y-118520613D01*
X140850500Y-113108362D01*
X140858167Y-113069822D01*
X140857473Y-113069636D01*
X140859577Y-113061784D01*
X140900500Y-112909057D01*
X140900500Y-112750943D01*
X140859577Y-112598216D01*
X140859576Y-112598214D01*
X140857473Y-112590365D01*
X140858165Y-112590179D01*
X140850500Y-112551637D01*
X140850500Y-110108362D01*
X140858167Y-110069822D01*
X140857473Y-110069636D01*
X140859577Y-110061784D01*
X140900500Y-109909057D01*
X140900500Y-109750943D01*
X140859577Y-109598216D01*
X140859576Y-109598214D01*
X140857473Y-109590365D01*
X140858165Y-109590179D01*
X140850500Y-109551637D01*
X140850500Y-104674500D01*
X140870185Y-104607461D01*
X140922989Y-104561706D01*
X140974500Y-104550500D01*
X157625500Y-104550500D01*
X157692539Y-104570185D01*
X157738294Y-104622989D01*
X157749500Y-104674500D01*
X157749500Y-114610365D01*
X157729815Y-114677404D01*
X157677011Y-114723159D01*
X157607853Y-114733103D01*
X157593407Y-114730140D01*
X157479057Y-114699500D01*
X157320943Y-114699500D01*
X157168216Y-114740423D01*
X157168209Y-114740426D01*
X157031290Y-114819475D01*
X157031282Y-114819481D01*
X156919481Y-114931282D01*
X156919475Y-114931290D01*
X156840426Y-115068209D01*
X156840423Y-115068216D01*
X156799500Y-115220943D01*
X156799500Y-115379056D01*
X156840423Y-115531783D01*
X156840426Y-115531790D01*
X156919473Y-115668706D01*
X156919477Y-115668712D01*
X156919480Y-115668716D01*
X156919482Y-115668718D01*
X156923872Y-115674438D01*
X156949069Y-115739606D01*
X156949500Y-115749930D01*
X156949500Y-118059309D01*
X156963749Y-118112487D01*
X156980199Y-118173884D01*
X156980201Y-118173887D01*
X157039511Y-118276614D01*
X157039513Y-118276616D01*
X161223181Y-122460284D01*
X161256666Y-122521607D01*
X161259500Y-122547965D01*
X161259500Y-131242316D01*
X161239815Y-131309355D01*
X161191796Y-131352800D01*
X161107006Y-131396003D01*
X161087383Y-131410260D01*
X161021576Y-131433738D01*
X160953523Y-131417911D01*
X160904829Y-131367804D01*
X160890500Y-131309940D01*
X160890500Y-123980693D01*
X160890500Y-123980691D01*
X160859799Y-123866114D01*
X160859797Y-123866110D01*
X160834731Y-123822694D01*
X160800493Y-123763392D01*
X160800487Y-123763384D01*
X155886819Y-118849716D01*
X155853334Y-118788393D01*
X155850500Y-118762035D01*
X155850500Y-115749930D01*
X155870185Y-115682891D01*
X155876128Y-115674438D01*
X155880512Y-115668723D01*
X155880520Y-115668716D01*
X155959577Y-115531784D01*
X156000500Y-115379057D01*
X156000500Y-115220943D01*
X155959577Y-115068216D01*
X155959573Y-115068209D01*
X155880524Y-114931290D01*
X155880518Y-114931282D01*
X155768717Y-114819481D01*
X155768709Y-114819475D01*
X155631790Y-114740426D01*
X155631786Y-114740424D01*
X155631784Y-114740423D01*
X155479057Y-114699500D01*
X155320943Y-114699500D01*
X155168216Y-114740423D01*
X155168215Y-114740423D01*
X155036499Y-114816469D01*
X154968599Y-114832941D01*
X154902572Y-114810088D01*
X154859382Y-114755166D01*
X154850500Y-114709081D01*
X154850500Y-112049930D01*
X154870185Y-111982891D01*
X154876128Y-111974438D01*
X154880512Y-111968723D01*
X154880520Y-111968716D01*
X154959577Y-111831784D01*
X155000500Y-111679057D01*
X155000500Y-111520943D01*
X154959577Y-111368216D01*
X154959573Y-111368209D01*
X154880524Y-111231290D01*
X154880518Y-111231282D01*
X154768717Y-111119481D01*
X154768709Y-111119475D01*
X154631790Y-111040426D01*
X154631786Y-111040424D01*
X154631784Y-111040423D01*
X154479057Y-110999500D01*
X154320943Y-110999500D01*
X154168216Y-111040423D01*
X154168209Y-111040426D01*
X154031290Y-111119475D01*
X154031282Y-111119481D01*
X153919481Y-111231282D01*
X153919475Y-111231290D01*
X153840426Y-111368209D01*
X153840423Y-111368216D01*
X153799500Y-111520943D01*
X153799500Y-111679056D01*
X153840423Y-111831783D01*
X153840426Y-111831790D01*
X153919473Y-111968706D01*
X153919477Y-111968712D01*
X153919480Y-111968716D01*
X153919482Y-111968718D01*
X153923872Y-111974438D01*
X153949069Y-112039606D01*
X153949500Y-112049930D01*
X153949500Y-114709081D01*
X153929815Y-114776120D01*
X153877011Y-114821875D01*
X153807853Y-114831819D01*
X153763501Y-114816469D01*
X153631784Y-114740423D01*
X153593407Y-114730140D01*
X153479057Y-114699500D01*
X153320943Y-114699500D01*
X153168216Y-114740423D01*
X153168209Y-114740426D01*
X153031290Y-114819475D01*
X153031282Y-114819481D01*
X152919481Y-114931282D01*
X152919475Y-114931290D01*
X152840426Y-115068209D01*
X152840423Y-115068216D01*
X152799498Y-115220949D01*
X152798556Y-115228107D01*
X152770287Y-115292003D01*
X152763299Y-115299597D01*
X149639513Y-118423383D01*
X149639509Y-118423389D01*
X149580201Y-118526112D01*
X149580200Y-118526117D01*
X149549500Y-118640691D01*
X149549500Y-132239599D01*
X149529815Y-132306638D01*
X149477011Y-132352393D01*
X149407853Y-132362337D01*
X149352615Y-132339917D01*
X149281352Y-132288142D01*
X149099031Y-132195244D01*
X148904417Y-132132009D01*
X148702317Y-132100000D01*
X148497683Y-132100000D01*
X148295582Y-132132009D01*
X148100968Y-132195244D01*
X147918644Y-132288143D01*
X147874077Y-132320523D01*
X147874077Y-132320524D01*
X148553553Y-133000000D01*
X148547339Y-133000000D01*
X148445606Y-133027259D01*
X148354394Y-133079920D01*
X148279920Y-133154394D01*
X148227259Y-133245606D01*
X148200000Y-133347339D01*
X148200000Y-133353553D01*
X147520524Y-132674077D01*
X147520523Y-132674077D01*
X147488143Y-132718644D01*
X147434984Y-132822976D01*
X147387009Y-132873772D01*
X147319188Y-132890567D01*
X147253053Y-132868029D01*
X147209602Y-132813314D01*
X147200499Y-132766681D01*
X147200499Y-132555143D01*
X147200499Y-132555136D01*
X147200497Y-132555117D01*
X147197586Y-132530012D01*
X147197585Y-132530010D01*
X147197585Y-132530009D01*
X147152206Y-132427235D01*
X147072765Y-132347794D01*
X147054925Y-132339917D01*
X146969992Y-132302415D01*
X146944865Y-132299500D01*
X145255143Y-132299500D01*
X145255117Y-132299502D01*
X145230012Y-132302413D01*
X145230008Y-132302415D01*
X145127235Y-132347793D01*
X145047794Y-132427234D01*
X145002415Y-132530006D01*
X145002415Y-132530008D01*
X144999500Y-132555131D01*
X144999500Y-134244856D01*
X144999502Y-134244882D01*
X145002413Y-134269987D01*
X145002415Y-134269991D01*
X145047793Y-134372764D01*
X145047794Y-134372765D01*
X145127235Y-134452206D01*
X145230009Y-134497585D01*
X145255135Y-134500500D01*
X146944864Y-134500499D01*
X146944879Y-134500497D01*
X146944882Y-134500497D01*
X146969987Y-134497586D01*
X146969988Y-134497585D01*
X146969991Y-134497585D01*
X147072765Y-134452206D01*
X147152206Y-134372765D01*
X147197585Y-134269991D01*
X147200500Y-134244865D01*
X147200499Y-134033318D01*
X147220183Y-133966281D01*
X147272987Y-133920526D01*
X147342145Y-133910582D01*
X147405701Y-133939607D01*
X147434983Y-133977024D01*
X147488138Y-134081345D01*
X147488147Y-134081359D01*
X147520523Y-134125921D01*
X147520524Y-134125922D01*
X148200000Y-133446446D01*
X148200000Y-133452661D01*
X148227259Y-133554394D01*
X148279920Y-133645606D01*
X148354394Y-133720080D01*
X148445606Y-133772741D01*
X148547339Y-133800000D01*
X148553552Y-133800000D01*
X147874076Y-134479474D01*
X147918650Y-134511859D01*
X148100968Y-134604755D01*
X148295582Y-134667990D01*
X148497683Y-134700000D01*
X148702317Y-134700000D01*
X148904417Y-134667990D01*
X149099031Y-134604755D01*
X149281349Y-134511859D01*
X149352614Y-134460082D01*
X149418420Y-134436602D01*
X149486474Y-134452427D01*
X149535169Y-134502532D01*
X149549500Y-134560400D01*
X149549500Y-137023900D01*
X149529815Y-137090939D01*
X149477011Y-137136694D01*
X149472952Y-137138461D01*
X149468213Y-137140423D01*
X149331290Y-137219475D01*
X149331282Y-137219481D01*
X149219481Y-137331282D01*
X149219475Y-137331290D01*
X149140426Y-137468209D01*
X149140423Y-137468216D01*
X149099500Y-137620943D01*
X149099500Y-137779057D01*
X149105246Y-137800499D01*
X149140423Y-137931783D01*
X149140426Y-137931790D01*
X149219475Y-138068709D01*
X149219479Y-138068714D01*
X149219480Y-138068716D01*
X149331284Y-138180520D01*
X149331286Y-138180521D01*
X149331290Y-138180524D01*
X149468209Y-138259573D01*
X149468216Y-138259577D01*
X149620943Y-138300500D01*
X149620945Y-138300500D01*
X149779055Y-138300500D01*
X149779057Y-138300500D01*
X149931784Y-138259577D01*
X150068716Y-138180520D01*
X150180520Y-138068716D01*
X150259577Y-137931784D01*
X150300500Y-137779057D01*
X150300500Y-137779044D01*
X150301441Y-137771901D01*
X150316929Y-137726195D01*
X150325107Y-137711995D01*
X150360489Y-137676614D01*
X150419799Y-137573887D01*
X150428765Y-137540423D01*
X150450500Y-137459309D01*
X150450500Y-122420943D01*
X150799500Y-122420943D01*
X150799500Y-122579057D01*
X150811743Y-122624746D01*
X150840423Y-122731783D01*
X150840426Y-122731790D01*
X150919473Y-122868706D01*
X150919477Y-122868712D01*
X150919480Y-122868716D01*
X150919482Y-122868718D01*
X150923872Y-122874438D01*
X150949069Y-122939606D01*
X150949500Y-122949930D01*
X150949500Y-137559309D01*
X150966015Y-137620943D01*
X150980201Y-137673887D01*
X151039511Y-137776614D01*
X151039513Y-137776616D01*
X152513181Y-139250284D01*
X152546666Y-139311607D01*
X152549500Y-139337965D01*
X152549500Y-140150069D01*
X152529815Y-140217108D01*
X152523875Y-140225557D01*
X152519475Y-140231290D01*
X152440426Y-140368209D01*
X152440423Y-140368216D01*
X152399500Y-140520943D01*
X152399500Y-140679057D01*
X152432430Y-140801951D01*
X152440423Y-140831783D01*
X152440426Y-140831790D01*
X152519475Y-140968709D01*
X152519479Y-140968714D01*
X152519480Y-140968716D01*
X152631284Y-141080520D01*
X152631286Y-141080521D01*
X152631290Y-141080524D01*
X152768209Y-141159573D01*
X152768216Y-141159577D01*
X152920943Y-141200500D01*
X152920945Y-141200500D01*
X153079055Y-141200500D01*
X153079057Y-141200500D01*
X153231784Y-141159577D01*
X153368716Y-141080520D01*
X153480520Y-140968716D01*
X153559577Y-140831784D01*
X153600500Y-140679057D01*
X153600500Y-140520943D01*
X153559577Y-140368216D01*
X153510817Y-140283760D01*
X153480524Y-140231290D01*
X153480521Y-140231287D01*
X153480520Y-140231284D01*
X153480517Y-140231281D01*
X153476125Y-140225557D01*
X153450930Y-140160388D01*
X153450500Y-140150069D01*
X153450500Y-139040693D01*
X153450500Y-139040691D01*
X153419799Y-138926114D01*
X153419799Y-138926113D01*
X153419799Y-138926112D01*
X153360492Y-138823389D01*
X153360488Y-138823384D01*
X151886819Y-137349715D01*
X151853334Y-137288392D01*
X151850500Y-137262034D01*
X151850500Y-122949930D01*
X151870185Y-122882891D01*
X151876128Y-122874438D01*
X151880512Y-122868723D01*
X151880520Y-122868716D01*
X151959577Y-122731784D01*
X152000500Y-122579057D01*
X152000500Y-122420943D01*
X151959577Y-122268216D01*
X151959573Y-122268209D01*
X151880524Y-122131290D01*
X151880518Y-122131282D01*
X151768717Y-122019481D01*
X151768709Y-122019475D01*
X151631790Y-121940426D01*
X151631786Y-121940424D01*
X151631784Y-121940423D01*
X151479057Y-121899500D01*
X151320943Y-121899500D01*
X151168216Y-121940423D01*
X151168209Y-121940426D01*
X151031290Y-122019475D01*
X151031282Y-122019481D01*
X150919481Y-122131282D01*
X150919475Y-122131290D01*
X150840426Y-122268209D01*
X150840423Y-122268216D01*
X150799500Y-122420943D01*
X150450500Y-122420943D01*
X150450500Y-118937965D01*
X150470185Y-118870926D01*
X150486819Y-118850284D01*
X151617103Y-117720000D01*
X153400404Y-115936698D01*
X153461725Y-115903215D01*
X153471901Y-115901441D01*
X153479045Y-115900500D01*
X153479057Y-115900500D01*
X153631784Y-115859577D01*
X153763501Y-115783530D01*
X153831400Y-115767058D01*
X153897427Y-115789911D01*
X153940618Y-115844832D01*
X153949500Y-115890918D01*
X153949500Y-121909081D01*
X153929815Y-121976120D01*
X153877011Y-122021875D01*
X153807853Y-122031819D01*
X153763501Y-122016469D01*
X153631784Y-121940423D01*
X153553627Y-121919481D01*
X153479057Y-121899500D01*
X153320943Y-121899500D01*
X153168216Y-121940423D01*
X153168209Y-121940426D01*
X153031290Y-122019475D01*
X153031282Y-122019481D01*
X152919481Y-122131282D01*
X152919475Y-122131290D01*
X152840426Y-122268209D01*
X152840423Y-122268216D01*
X152799500Y-122420943D01*
X152799500Y-122579057D01*
X152811743Y-122624746D01*
X152840423Y-122731783D01*
X152840426Y-122731790D01*
X152919473Y-122868706D01*
X152919477Y-122868712D01*
X152919480Y-122868716D01*
X152919482Y-122868718D01*
X152923872Y-122874438D01*
X152949069Y-122939606D01*
X152949500Y-122949930D01*
X152949500Y-133296699D01*
X152929815Y-133363738D01*
X152877011Y-133409493D01*
X152857594Y-133416474D01*
X152768216Y-133440423D01*
X152768215Y-133440423D01*
X152768213Y-133440424D01*
X152768209Y-133440426D01*
X152631290Y-133519475D01*
X152631282Y-133519481D01*
X152519481Y-133631282D01*
X152519475Y-133631290D01*
X152440426Y-133768209D01*
X152440423Y-133768216D01*
X152399500Y-133920943D01*
X152399500Y-134079057D01*
X152436320Y-134216469D01*
X152440423Y-134231783D01*
X152440426Y-134231790D01*
X152519475Y-134368709D01*
X152519479Y-134368714D01*
X152519480Y-134368716D01*
X152631284Y-134480520D01*
X152631286Y-134480521D01*
X152631290Y-134480524D01*
X152728290Y-134536526D01*
X152768216Y-134559577D01*
X152920943Y-134600500D01*
X152920945Y-134600500D01*
X153079055Y-134600500D01*
X153079057Y-134600500D01*
X153231784Y-134559577D01*
X153368716Y-134480520D01*
X153480520Y-134368716D01*
X153559577Y-134231784D01*
X153600500Y-134079057D01*
X153600500Y-134079044D01*
X153601441Y-134071901D01*
X153629707Y-134008003D01*
X153636677Y-134000425D01*
X153737821Y-133899281D01*
X153799143Y-133865799D01*
X153868834Y-133870783D01*
X153924767Y-133912655D01*
X153949184Y-133978120D01*
X153949500Y-133986965D01*
X153949500Y-136750069D01*
X153929815Y-136817108D01*
X153923875Y-136825557D01*
X153919475Y-136831290D01*
X153840426Y-136968209D01*
X153840423Y-136968216D01*
X153799500Y-137120943D01*
X153799500Y-137279057D01*
X153832041Y-137400500D01*
X153840423Y-137431783D01*
X153840426Y-137431790D01*
X153919475Y-137568709D01*
X153919479Y-137568714D01*
X153919480Y-137568716D01*
X154031284Y-137680520D01*
X154031286Y-137680521D01*
X154031290Y-137680524D01*
X154119221Y-137731290D01*
X154168216Y-137759577D01*
X154320943Y-137800500D01*
X154320945Y-137800500D01*
X154479055Y-137800500D01*
X154479057Y-137800500D01*
X154631784Y-137759577D01*
X154768716Y-137680520D01*
X154880520Y-137568716D01*
X154959577Y-137431784D01*
X155000500Y-137279057D01*
X155000500Y-137120943D01*
X154959577Y-136968216D01*
X154935265Y-136926106D01*
X154880524Y-136831290D01*
X154880521Y-136831287D01*
X154880520Y-136831284D01*
X154880517Y-136831281D01*
X154876125Y-136825557D01*
X154850930Y-136760388D01*
X154850500Y-136750069D01*
X154850500Y-119386965D01*
X154870185Y-119319926D01*
X154922989Y-119274171D01*
X154992147Y-119264227D01*
X155055703Y-119293252D01*
X155062181Y-119299284D01*
X159953181Y-124190284D01*
X159986666Y-124251607D01*
X159989500Y-124277965D01*
X159989500Y-131309940D01*
X159969815Y-131376979D01*
X159917011Y-131422734D01*
X159847853Y-131432678D01*
X159792617Y-131410260D01*
X159777695Y-131399419D01*
X159772994Y-131396004D01*
X159688202Y-131352800D01*
X159611639Y-131313788D01*
X159611636Y-131313787D01*
X159439410Y-131257829D01*
X159260551Y-131229500D01*
X159260546Y-131229500D01*
X159079454Y-131229500D01*
X159079449Y-131229500D01*
X158900589Y-131257829D01*
X158728363Y-131313787D01*
X158728360Y-131313788D01*
X158567002Y-131396006D01*
X158420505Y-131502441D01*
X158420500Y-131502445D01*
X158292445Y-131630500D01*
X158292441Y-131630505D01*
X158186006Y-131777002D01*
X158103788Y-131938360D01*
X158103787Y-131938363D01*
X158047829Y-132110589D01*
X158019500Y-132289448D01*
X158019500Y-132470551D01*
X158047829Y-132649410D01*
X158103787Y-132821636D01*
X158103788Y-132821639D01*
X158186006Y-132982997D01*
X158292441Y-133129494D01*
X158292445Y-133129499D01*
X158420500Y-133257554D01*
X158420505Y-133257558D01*
X158515068Y-133326261D01*
X158567006Y-133363996D01*
X158669789Y-133416367D01*
X158728360Y-133446211D01*
X158728363Y-133446212D01*
X158748212Y-133452661D01*
X158900591Y-133502171D01*
X158973639Y-133513740D01*
X159060678Y-133527527D01*
X159123813Y-133557456D01*
X159160744Y-133616768D01*
X159159746Y-133686631D01*
X159121136Y-133744863D01*
X159060678Y-133772473D01*
X158900589Y-133797829D01*
X158728363Y-133853787D01*
X158728360Y-133853788D01*
X158567002Y-133936006D01*
X158420505Y-134042441D01*
X158420500Y-134042445D01*
X158292445Y-134170500D01*
X158292441Y-134170505D01*
X158186006Y-134317002D01*
X158103788Y-134478360D01*
X158103787Y-134478363D01*
X158047829Y-134650589D01*
X158019500Y-134829448D01*
X158019500Y-135010551D01*
X158047829Y-135189410D01*
X158103787Y-135361636D01*
X158103788Y-135361639D01*
X158186006Y-135522997D01*
X158292441Y-135669494D01*
X158292445Y-135669499D01*
X158420500Y-135797554D01*
X158420505Y-135797558D01*
X158544565Y-135887692D01*
X158567006Y-135903996D01*
X158661246Y-135952014D01*
X158728360Y-135986211D01*
X158728363Y-135986212D01*
X158814476Y-136014191D01*
X158900591Y-136042171D01*
X158983429Y-136055291D01*
X159079449Y-136070500D01*
X159079454Y-136070500D01*
X159260551Y-136070500D01*
X159347259Y-136056765D01*
X159439409Y-136042171D01*
X159611639Y-135986211D01*
X159772994Y-135903996D01*
X159919501Y-135797553D01*
X160047553Y-135669501D01*
X160153996Y-135522994D01*
X160236211Y-135361639D01*
X160292171Y-135189409D01*
X160306422Y-135099425D01*
X160317527Y-135029321D01*
X160347456Y-134966186D01*
X160406768Y-134929255D01*
X160476630Y-134930253D01*
X160534863Y-134968863D01*
X160562473Y-135029321D01*
X160587829Y-135189410D01*
X160643787Y-135361636D01*
X160643788Y-135361639D01*
X160726006Y-135522997D01*
X160832441Y-135669494D01*
X160832445Y-135669499D01*
X160960500Y-135797554D01*
X160960505Y-135797558D01*
X161084565Y-135887692D01*
X161107006Y-135903996D01*
X161201246Y-135952014D01*
X161268360Y-135986211D01*
X161268363Y-135986212D01*
X161354476Y-136014191D01*
X161440591Y-136042171D01*
X161523429Y-136055291D01*
X161619449Y-136070500D01*
X161619454Y-136070500D01*
X161800551Y-136070500D01*
X161887259Y-136056765D01*
X161979409Y-136042171D01*
X162151639Y-135986211D01*
X162312994Y-135903996D01*
X162388081Y-135849442D01*
X162459495Y-135797558D01*
X162459497Y-135797555D01*
X162459501Y-135797553D01*
X162587553Y-135669501D01*
X162693996Y-135522994D01*
X162761090Y-135391314D01*
X162809065Y-135340519D01*
X162876886Y-135323724D01*
X162943021Y-135346262D01*
X162986472Y-135400977D01*
X162989506Y-135409292D01*
X162998904Y-135438217D01*
X163095375Y-135627550D01*
X163134728Y-135681716D01*
X163767037Y-135049408D01*
X163784075Y-135112993D01*
X163849901Y-135227007D01*
X163942993Y-135320099D01*
X164057007Y-135385925D01*
X164120590Y-135402962D01*
X163488282Y-136035269D01*
X163488282Y-136035270D01*
X163542449Y-136074624D01*
X163731782Y-136171095D01*
X163933870Y-136236757D01*
X164143754Y-136270000D01*
X164356246Y-136270000D01*
X164566127Y-136236757D01*
X164566130Y-136236757D01*
X164768217Y-136171095D01*
X164957554Y-136074622D01*
X165011716Y-136035270D01*
X165011717Y-136035270D01*
X164379408Y-135402962D01*
X164442993Y-135385925D01*
X164557007Y-135320099D01*
X164650099Y-135227007D01*
X164715925Y-135112993D01*
X164732962Y-135049408D01*
X165365270Y-135681717D01*
X165365270Y-135681716D01*
X165404622Y-135627554D01*
X165501095Y-135438217D01*
X165566757Y-135236130D01*
X165566757Y-135236127D01*
X165600000Y-135026246D01*
X165600000Y-134813753D01*
X165566757Y-134603872D01*
X165566757Y-134603869D01*
X165501095Y-134401782D01*
X165404624Y-134212449D01*
X165365270Y-134158282D01*
X165365269Y-134158282D01*
X164732962Y-134790590D01*
X164715925Y-134727007D01*
X164650099Y-134612993D01*
X164557007Y-134519901D01*
X164442993Y-134454075D01*
X164379409Y-134437037D01*
X165011716Y-133804728D01*
X164957550Y-133765375D01*
X164956786Y-133764986D01*
X164956546Y-133764759D01*
X164953396Y-133762829D01*
X164953801Y-133762167D01*
X164905988Y-133717013D01*
X164889191Y-133649192D01*
X164911726Y-133583057D01*
X164966440Y-133539604D01*
X165013076Y-133530499D01*
X165144864Y-133530499D01*
X165144879Y-133530497D01*
X165144882Y-133530497D01*
X165169987Y-133527586D01*
X165169988Y-133527585D01*
X165169991Y-133527585D01*
X165272765Y-133482206D01*
X165352206Y-133402765D01*
X165397585Y-133299991D01*
X165400500Y-133274865D01*
X165400499Y-131485136D01*
X165400497Y-131485117D01*
X165397586Y-131460012D01*
X165397585Y-131460010D01*
X165397585Y-131460009D01*
X165352206Y-131357235D01*
X165272765Y-131277794D01*
X165272763Y-131277793D01*
X165169992Y-131232415D01*
X165144868Y-131229500D01*
X165144865Y-131229500D01*
X164924500Y-131229500D01*
X164857461Y-131209815D01*
X164811706Y-131157011D01*
X164800500Y-131105500D01*
X164800500Y-123777527D01*
X164800500Y-123777525D01*
X164762984Y-123637515D01*
X164752988Y-123620201D01*
X164690510Y-123511985D01*
X159110206Y-117931681D01*
X159076721Y-117870358D01*
X159081705Y-117800666D01*
X159123577Y-117744733D01*
X159189041Y-117720316D01*
X159197887Y-117720000D01*
X165776000Y-117720000D01*
X165843039Y-117739685D01*
X165888794Y-117792489D01*
X165900000Y-117844000D01*
X165900000Y-142733449D01*
X165884832Y-142792877D01*
X165849833Y-142856972D01*
X165840268Y-142871854D01*
X165714135Y-143040349D01*
X165702549Y-143053720D01*
X165553720Y-143202549D01*
X165540349Y-143214135D01*
X165371854Y-143340268D01*
X165356972Y-143349832D01*
X165292878Y-143384831D01*
X165233450Y-143400000D01*
X155348596Y-143400000D01*
X155281557Y-143380315D01*
X155235802Y-143327511D01*
X155225858Y-143258353D01*
X155254883Y-143194797D01*
X155260915Y-143188319D01*
X155797679Y-142651555D01*
X156358506Y-142090728D01*
X156358511Y-142090724D01*
X156368714Y-142080520D01*
X156368716Y-142080520D01*
X156480520Y-141968716D01*
X156512644Y-141913076D01*
X156533327Y-141877252D01*
X156533328Y-141877250D01*
X156559574Y-141831790D01*
X156559575Y-141831789D01*
X156559575Y-141831787D01*
X156559577Y-141831785D01*
X156600501Y-141679057D01*
X156600501Y-141520943D01*
X156600501Y-141513348D01*
X156600500Y-141513330D01*
X156600500Y-141293713D01*
X162549500Y-141293713D01*
X162549500Y-141506287D01*
X162551821Y-141520939D01*
X162579989Y-141698790D01*
X162582754Y-141716243D01*
X162646709Y-141913076D01*
X162648444Y-141918414D01*
X162744951Y-142107820D01*
X162869890Y-142279786D01*
X163020213Y-142430109D01*
X163192179Y-142555048D01*
X163192181Y-142555049D01*
X163192184Y-142555051D01*
X163381588Y-142651557D01*
X163583757Y-142717246D01*
X163793713Y-142750500D01*
X163793714Y-142750500D01*
X164006286Y-142750500D01*
X164006287Y-142750500D01*
X164216243Y-142717246D01*
X164418412Y-142651557D01*
X164607816Y-142555051D01*
X164629789Y-142539086D01*
X164779786Y-142430109D01*
X164779788Y-142430106D01*
X164779792Y-142430104D01*
X164930104Y-142279792D01*
X164930106Y-142279788D01*
X164930109Y-142279786D01*
X165055048Y-142107820D01*
X165055047Y-142107820D01*
X165055051Y-142107816D01*
X165151557Y-141918412D01*
X165217246Y-141716243D01*
X165250500Y-141506287D01*
X165250500Y-141293713D01*
X165217246Y-141083757D01*
X165151557Y-140881588D01*
X165055051Y-140692184D01*
X165055049Y-140692181D01*
X165055048Y-140692179D01*
X164930109Y-140520213D01*
X164779786Y-140369890D01*
X164607820Y-140244951D01*
X164418414Y-140148444D01*
X164418413Y-140148443D01*
X164418412Y-140148443D01*
X164216243Y-140082754D01*
X164216241Y-140082753D01*
X164216240Y-140082753D01*
X164054957Y-140057208D01*
X164006287Y-140049500D01*
X163793713Y-140049500D01*
X163745042Y-140057208D01*
X163583760Y-140082753D01*
X163381585Y-140148444D01*
X163192179Y-140244951D01*
X163020213Y-140369890D01*
X162869890Y-140520213D01*
X162744951Y-140692179D01*
X162648444Y-140881585D01*
X162582753Y-141083760D01*
X162556742Y-141247986D01*
X162549500Y-141293713D01*
X156600500Y-141293713D01*
X156600500Y-138020945D01*
X156600500Y-138020943D01*
X156559577Y-137868216D01*
X156520481Y-137800499D01*
X156480524Y-137731290D01*
X156480518Y-137731282D01*
X156368717Y-137619481D01*
X156368709Y-137619475D01*
X156231790Y-137540426D01*
X156231786Y-137540424D01*
X156231784Y-137540423D01*
X156079057Y-137499500D01*
X155920943Y-137499500D01*
X155768216Y-137540423D01*
X155768209Y-137540426D01*
X155631290Y-137619475D01*
X155631282Y-137619481D01*
X155519481Y-137731282D01*
X155519475Y-137731290D01*
X155440426Y-137868209D01*
X155440423Y-137868216D01*
X155399500Y-138020943D01*
X155399500Y-141299903D01*
X155379815Y-141366942D01*
X155363181Y-141387584D01*
X154387584Y-142363181D01*
X154326261Y-142396666D01*
X154299903Y-142399500D01*
X139845392Y-142399500D01*
X139778353Y-142379815D01*
X139732598Y-142327011D01*
X139721697Y-142284184D01*
X139685406Y-141767041D01*
X139700350Y-141698790D01*
X139746762Y-141651173D01*
X142500000Y-140050000D01*
X142501994Y-140046570D01*
X142552709Y-139998517D01*
X142621357Y-139985509D01*
X142686140Y-140011680D01*
X142726490Y-140068720D01*
X142729597Y-140138521D01*
X142727115Y-140147228D01*
X142682753Y-140283759D01*
X142649500Y-140493713D01*
X142649500Y-140706286D01*
X142677264Y-140881585D01*
X142682754Y-140916243D01*
X142736132Y-141080524D01*
X142748444Y-141118414D01*
X142844951Y-141307820D01*
X142969890Y-141479786D01*
X143120213Y-141630109D01*
X143292179Y-141755048D01*
X143292181Y-141755049D01*
X143292184Y-141755051D01*
X143481588Y-141851557D01*
X143683757Y-141917246D01*
X143893713Y-141950500D01*
X143893714Y-141950500D01*
X144106286Y-141950500D01*
X144106287Y-141950500D01*
X144316243Y-141917246D01*
X144518412Y-141851557D01*
X144707816Y-141755051D01*
X144822090Y-141672027D01*
X144879786Y-141630109D01*
X144879788Y-141630106D01*
X144879792Y-141630104D01*
X145030104Y-141479792D01*
X145030106Y-141479788D01*
X145030109Y-141479786D01*
X145155048Y-141307820D01*
X145155047Y-141307820D01*
X145155051Y-141307816D01*
X145251557Y-141118412D01*
X145317246Y-140916243D01*
X145350500Y-140706287D01*
X145350500Y-140493713D01*
X145317246Y-140283757D01*
X145251557Y-140081588D01*
X145155051Y-139892184D01*
X145155049Y-139892181D01*
X145155048Y-139892179D01*
X145030109Y-139720213D01*
X144879786Y-139569890D01*
X144707820Y-139444951D01*
X144518414Y-139348444D01*
X144518413Y-139348443D01*
X144518412Y-139348443D01*
X144316243Y-139282754D01*
X144316241Y-139282753D01*
X144316240Y-139282753D01*
X144154957Y-139257208D01*
X144106287Y-139249500D01*
X143893713Y-139249500D01*
X143845042Y-139257208D01*
X143683760Y-139282753D01*
X143481585Y-139348444D01*
X143292179Y-139444951D01*
X143120215Y-139569889D01*
X142979491Y-139710613D01*
X142918168Y-139744097D01*
X142848476Y-139739113D01*
X142792543Y-139697241D01*
X142768126Y-139631777D01*
X142782978Y-139563504D01*
X142784597Y-139560630D01*
X144140000Y-137230000D01*
X144140000Y-133970000D01*
X142500000Y-131150000D01*
X139745990Y-129548376D01*
X139697935Y-129497658D01*
X139684549Y-129433796D01*
X139800000Y-127500000D01*
X139799999Y-127500000D01*
X130059598Y-127500000D01*
X129992559Y-127480315D01*
X129962770Y-127453462D01*
X128027172Y-125033965D01*
X128000664Y-124969319D01*
X128000000Y-124956503D01*
X128000000Y-119259448D01*
X132329500Y-119259448D01*
X132329500Y-119740551D01*
X132357829Y-119919410D01*
X132413787Y-120091636D01*
X132413788Y-120091639D01*
X132496006Y-120252997D01*
X132602441Y-120399494D01*
X132602445Y-120399499D01*
X132730500Y-120527554D01*
X132730505Y-120527558D01*
X132858287Y-120620396D01*
X132877006Y-120633996D01*
X132982484Y-120687740D01*
X133038360Y-120716211D01*
X133038363Y-120716212D01*
X133124476Y-120744191D01*
X133210591Y-120772171D01*
X133293429Y-120785291D01*
X133389449Y-120800500D01*
X133389454Y-120800500D01*
X133570551Y-120800500D01*
X133657259Y-120786765D01*
X133749409Y-120772171D01*
X133921639Y-120716211D01*
X134082994Y-120633996D01*
X134229501Y-120527553D01*
X134357553Y-120399501D01*
X134463996Y-120252994D01*
X134546211Y-120091639D01*
X134602171Y-119919409D01*
X134616765Y-119827259D01*
X134630500Y-119740551D01*
X134630500Y-119259448D01*
X134611266Y-119138013D01*
X134602171Y-119080591D01*
X134546211Y-118908361D01*
X134546211Y-118908360D01*
X134497824Y-118813397D01*
X134463996Y-118747006D01*
X134386754Y-118640691D01*
X134357558Y-118600505D01*
X134357554Y-118600500D01*
X134229499Y-118472445D01*
X134229494Y-118472441D01*
X134082997Y-118366006D01*
X134082996Y-118366005D01*
X134082994Y-118366004D01*
X134031300Y-118339664D01*
X133921639Y-118283788D01*
X133921636Y-118283787D01*
X133749410Y-118227829D01*
X133570551Y-118199500D01*
X133570546Y-118199500D01*
X133389454Y-118199500D01*
X133389449Y-118199500D01*
X133210589Y-118227829D01*
X133038363Y-118283787D01*
X133038360Y-118283788D01*
X132877002Y-118366006D01*
X132730505Y-118472441D01*
X132730500Y-118472445D01*
X132602445Y-118600500D01*
X132602441Y-118600505D01*
X132496006Y-118747002D01*
X132413788Y-118908360D01*
X132413787Y-118908363D01*
X132357829Y-119080589D01*
X132329500Y-119259448D01*
X128000000Y-119259448D01*
X128000000Y-104243753D01*
X132130000Y-104243753D01*
X132130000Y-104250000D01*
X133046988Y-104250000D01*
X133014075Y-104307007D01*
X132980000Y-104434174D01*
X132980000Y-104565826D01*
X133014075Y-104692993D01*
X133046988Y-104750000D01*
X132130000Y-104750000D01*
X132130000Y-104756246D01*
X132163242Y-104966127D01*
X132163242Y-104966130D01*
X132228904Y-105168217D01*
X132325379Y-105357557D01*
X132450272Y-105529459D01*
X132450276Y-105529464D01*
X132600535Y-105679723D01*
X132600540Y-105679727D01*
X132772442Y-105804620D01*
X132961782Y-105901095D01*
X133163871Y-105966757D01*
X133230000Y-105977231D01*
X133230000Y-104933012D01*
X133287007Y-104965925D01*
X133414174Y-105000000D01*
X133545826Y-105000000D01*
X133672993Y-104965925D01*
X133730000Y-104933012D01*
X133730000Y-105977230D01*
X133796126Y-105966757D01*
X133796129Y-105966757D01*
X133998217Y-105901095D01*
X134187557Y-105804620D01*
X134359459Y-105679727D01*
X134359464Y-105679723D01*
X134509723Y-105529464D01*
X134509727Y-105529459D01*
X134634620Y-105357557D01*
X134731095Y-105168217D01*
X134796757Y-104966130D01*
X134796757Y-104966127D01*
X134830000Y-104756246D01*
X134830000Y-104750000D01*
X133913012Y-104750000D01*
X133945925Y-104692993D01*
X133980000Y-104565826D01*
X133980000Y-104434174D01*
X133945925Y-104307007D01*
X133913012Y-104250000D01*
X134830000Y-104250000D01*
X134830000Y-104243753D01*
X134796757Y-104033872D01*
X134796757Y-104033869D01*
X134731095Y-103831782D01*
X134634620Y-103642442D01*
X134509727Y-103470540D01*
X134509723Y-103470535D01*
X134359464Y-103320276D01*
X134359459Y-103320272D01*
X134187557Y-103195379D01*
X133998215Y-103098903D01*
X133796124Y-103033241D01*
X133730000Y-103022768D01*
X133730000Y-104066988D01*
X133672993Y-104034075D01*
X133545826Y-104000000D01*
X133414174Y-104000000D01*
X133287007Y-104034075D01*
X133230000Y-104066988D01*
X133230000Y-103022768D01*
X133229999Y-103022768D01*
X133163875Y-103033241D01*
X132961784Y-103098903D01*
X132772442Y-103195379D01*
X132600540Y-103320272D01*
X132600535Y-103320276D01*
X132450276Y-103470535D01*
X132450272Y-103470540D01*
X132325379Y-103642442D01*
X132228904Y-103831782D01*
X132163242Y-104033869D01*
X132163242Y-104033872D01*
X132130000Y-104243753D01*
X128000000Y-104243753D01*
X128000000Y-100724000D01*
X128019685Y-100656961D01*
X128072489Y-100611206D01*
X128124000Y-100600000D01*
X165233452Y-100600000D01*
X165292876Y-100615166D01*
G37*
%TD.AperFunction*%
%TA.AperFunction,Conductor*%
G36*
X163012130Y-132418661D02*
G01*
X163070363Y-132457271D01*
X163098477Y-132521234D01*
X163099500Y-132537127D01*
X163099500Y-133274856D01*
X163099502Y-133274882D01*
X163102413Y-133299987D01*
X163102415Y-133299991D01*
X163147793Y-133402764D01*
X163147794Y-133402765D01*
X163227235Y-133482206D01*
X163330009Y-133527585D01*
X163355135Y-133530500D01*
X163486923Y-133530499D01*
X163553960Y-133550183D01*
X163599715Y-133602987D01*
X163609659Y-133672145D01*
X163580635Y-133735701D01*
X163546387Y-133762507D01*
X163546590Y-133762838D01*
X163543715Y-133764599D01*
X163543239Y-133764972D01*
X163542451Y-133765373D01*
X163542440Y-133765380D01*
X163488282Y-133804727D01*
X163488282Y-133804728D01*
X164120591Y-134437037D01*
X164057007Y-134454075D01*
X163942993Y-134519901D01*
X163849901Y-134612993D01*
X163784075Y-134727007D01*
X163767037Y-134790591D01*
X163134728Y-134158282D01*
X163134727Y-134158282D01*
X163095380Y-134212439D01*
X162998905Y-134401781D01*
X162989506Y-134430708D01*
X162950068Y-134488383D01*
X162885709Y-134515581D01*
X162816862Y-134503666D01*
X162765387Y-134456421D01*
X162761090Y-134448684D01*
X162737191Y-134401781D01*
X162693996Y-134317006D01*
X162668763Y-134282275D01*
X162587558Y-134170505D01*
X162587554Y-134170500D01*
X162459499Y-134042445D01*
X162459494Y-134042441D01*
X162312997Y-133936006D01*
X162312996Y-133936005D01*
X162312994Y-133936004D01*
X162261300Y-133909664D01*
X162151639Y-133853788D01*
X162151636Y-133853787D01*
X161979410Y-133797829D01*
X161819321Y-133772473D01*
X161756186Y-133742544D01*
X161719255Y-133683232D01*
X161720253Y-133613370D01*
X161758863Y-133555137D01*
X161819321Y-133527527D01*
X161889425Y-133516422D01*
X161979409Y-133502171D01*
X162151639Y-133446211D01*
X162312994Y-133363996D01*
X162459501Y-133257553D01*
X162587553Y-133129501D01*
X162693996Y-132982994D01*
X162776211Y-132821639D01*
X162832171Y-132649409D01*
X162853027Y-132517729D01*
X162882956Y-132454595D01*
X162942267Y-132417663D01*
X163012130Y-132418661D01*
G37*
%TD.AperFunction*%
%TD*%
M02*
