%TF.GenerationSoftware,KiCad,Pcbnew,10.0.5*%
%TF.CreationDate,2026-10-03T19:11:21-04:00*%
%TF.ProjectId,rele-esp12f,72656c65-2d65-4737-9031-32662e6b6963,rev?*%
%TF.SameCoordinates,Original*%
%TF.FileFunction,Paste,Top*%
%TF.FilePolarity,Positive*%
%FSLAX46Y46*%
G04 Gerber Fmt 4.6, Leading zero omitted, Abs format (unit mm)*
G04 Created by KiCad (PCBNEW 10.0.5) date 2026-10-03 19:11:21*
%MOMM*%
%LPD*%
G01*
G04 APERTURE LIST*
G04 Aperture macros list*
%AMRoundRect*
0 Rectangle with rounded corners*
0 $1 Rounding radius*
0 $2 $3 $4 $5 $6 $7 $8 $9 X,Y pos of 4 corners*
0 Add a 4 corners polygon primitive as box body*
4,1,4,$2,$3,$4,$5,$6,$7,$8,$9,$2,$3,0*
0 Add four circle primitives for the rounded corners*
1,1,$1+$1,$2,$3*
1,1,$1+$1,$4,$5*
1,1,$1+$1,$6,$7*
1,1,$1+$1,$8,$9*
0 Add four rect primitives between the rounded corners*
20,1,$1+$1,$2,$3,$4,$5,0*
20,1,$1+$1,$4,$5,$6,$7,0*
20,1,$1+$1,$6,$7,$8,$9,0*
20,1,$1+$1,$8,$9,$2,$3,0*%
G04 Aperture macros list end*
%ADD10R,1.000000X2.500000*%
%ADD11R,1.800000X1.000000*%
%ADD12RoundRect,0.225000X-0.225000X-0.250000X0.225000X-0.250000X0.225000X0.250000X-0.225000X0.250000X0*%
%ADD13R,1.000000X0.750000*%
%ADD14RoundRect,0.225000X-0.250000X0.225000X-0.250000X-0.225000X0.250000X-0.225000X0.250000X0.225000X0*%
%ADD15RoundRect,0.150000X0.587500X0.150000X-0.587500X0.150000X-0.587500X-0.150000X0.587500X-0.150000X0*%
%ADD16RoundRect,0.218750X-0.218750X-0.256250X0.218750X-0.256250X0.218750X0.256250X-0.218750X0.256250X0*%
%ADD17RoundRect,0.225000X0.225000X0.250000X-0.225000X0.250000X-0.225000X-0.250000X0.225000X-0.250000X0*%
%ADD18RoundRect,0.200000X0.275000X-0.200000X0.275000X0.200000X-0.275000X0.200000X-0.275000X-0.200000X0*%
%ADD19RoundRect,0.225000X0.375000X-0.225000X0.375000X0.225000X-0.375000X0.225000X-0.375000X-0.225000X0*%
%ADD20RoundRect,0.250000X-0.250000X-0.475000X0.250000X-0.475000X0.250000X0.475000X-0.250000X0.475000X0*%
%ADD21RoundRect,0.375000X-0.625000X-0.375000X0.625000X-0.375000X0.625000X0.375000X-0.625000X0.375000X0*%
%ADD22RoundRect,0.500000X-0.500000X-1.400000X0.500000X-1.400000X0.500000X1.400000X-0.500000X1.400000X0*%
%ADD23RoundRect,0.218750X0.256250X-0.218750X0.256250X0.218750X-0.256250X0.218750X-0.256250X-0.218750X0*%
%ADD24RoundRect,0.200000X-0.275000X0.200000X-0.275000X-0.200000X0.275000X-0.200000X0.275000X0.200000X0*%
%ADD25RoundRect,0.250000X-0.475000X0.250000X-0.475000X-0.250000X0.475000X-0.250000X0.475000X0.250000X0*%
%ADD26RoundRect,0.225000X0.250000X-0.225000X0.250000X0.225000X-0.250000X0.225000X-0.250000X-0.225000X0*%
G04 APERTURE END LIST*
D10*
%TO.C,U2*%
X157400000Y-102000000D03*
X155400000Y-102000000D03*
X153400000Y-102000000D03*
X151400000Y-102000000D03*
X149400000Y-102000000D03*
X147400000Y-102000000D03*
X145400000Y-102000000D03*
X143400000Y-102000000D03*
D11*
X141900000Y-104600000D03*
X141900000Y-106600000D03*
X141900000Y-108600000D03*
X141900000Y-110600000D03*
X141900000Y-112600000D03*
X141900000Y-114600000D03*
D10*
X143400000Y-117200000D03*
X145400000Y-117200000D03*
X147400000Y-117200000D03*
X149400000Y-117200000D03*
X151400000Y-117200000D03*
X153400000Y-117200000D03*
X155400000Y-117200000D03*
X157400000Y-117200000D03*
%TD*%
D12*
%TO.C,C6*%
X150125000Y-126600000D03*
X151675000Y-126600000D03*
%TD*%
D13*
%TO.C,SW1*%
X158000000Y-123325000D03*
X164000000Y-123325000D03*
X158000000Y-127075000D03*
X164000000Y-127075000D03*
%TD*%
D14*
%TO.C,C5*%
X139200000Y-102825000D03*
X139200000Y-104375000D03*
%TD*%
D15*
%TO.C,Q1*%
X153937500Y-136850000D03*
X153937500Y-134950000D03*
X152062500Y-135900000D03*
%TD*%
D16*
%TO.C,D3*%
X147212500Y-144300000D03*
X148787500Y-144300000D03*
%TD*%
D17*
%TO.C,C9*%
X140025000Y-106000000D03*
X138475000Y-106000000D03*
%TD*%
D18*
%TO.C,R7*%
X156300000Y-136725000D03*
X156300000Y-135075000D03*
%TD*%
%TO.C,R1*%
X139200000Y-109825000D03*
X139200000Y-108175000D03*
%TD*%
D19*
%TO.C,D1*%
X147200000Y-139000000D03*
X147200000Y-135700000D03*
%TD*%
D20*
%TO.C,C4*%
X149950000Y-124000000D03*
X151850000Y-124000000D03*
%TD*%
D12*
%TO.C,C8*%
X160725000Y-140300000D03*
X162275000Y-140300000D03*
%TD*%
D21*
%TO.C,U1*%
X140950000Y-123500000D03*
X140950000Y-125800000D03*
D22*
X147250000Y-125800000D03*
D21*
X140950000Y-128100000D03*
%TD*%
D18*
%TO.C,R4*%
X147400000Y-121275000D03*
X147400000Y-119625000D03*
%TD*%
D23*
%TO.C,D2*%
X155300000Y-124787500D03*
X155300000Y-123212500D03*
%TD*%
D24*
%TO.C,R6*%
X153400000Y-119625000D03*
X153400000Y-121275000D03*
%TD*%
D25*
%TO.C,C2*%
X151800000Y-130650000D03*
X151800000Y-132550000D03*
%TD*%
D13*
%TO.C,SW2*%
X154200000Y-144125000D03*
X160200000Y-144125000D03*
X154200000Y-147875000D03*
X160200000Y-147875000D03*
%TD*%
D24*
%TO.C,R9*%
X151400000Y-119625000D03*
X151400000Y-121275000D03*
%TD*%
%TO.C,R5*%
X145400000Y-119625000D03*
X145400000Y-121275000D03*
%TD*%
%TO.C,R8*%
X155300000Y-126275000D03*
X155300000Y-127925000D03*
%TD*%
D14*
%TO.C,C7*%
X139200000Y-114225000D03*
X139200000Y-115775000D03*
%TD*%
D18*
%TO.C,R3*%
X149400000Y-121275000D03*
X149400000Y-119625000D03*
%TD*%
D26*
%TO.C,C3*%
X137900000Y-127975000D03*
X137900000Y-126425000D03*
%TD*%
D18*
%TO.C,R2*%
X139200000Y-112825000D03*
X139200000Y-111175000D03*
%TD*%
M02*
