%TF.GenerationSoftware,KiCad,Pcbnew,7.0.11+dfsg-1build4*%
%TF.CreationDate,2026-09-25T14:59:03+00:00*%
%TF.ProjectId,rele-esp12f,72656c65-2d65-4737-9031-32662e6b6963,rev?*%
%TF.SameCoordinates,Original*%
%TF.FileFunction,Copper,L2,Bot*%
%TF.FilePolarity,Positive*%
%FSLAX46Y46*%
G04 Gerber Fmt 4.6, Leading zero omitted, Abs format (unit mm)*
G04 Created by KiCad (PCBNEW 7.0.11+dfsg-1build4) date 2026-09-25 14:59:03*
%MOMM*%
%LPD*%
G01*
G04 APERTURE LIST*
%TA.AperFunction,ComponentPad*%
%ADD10C,2.000000*%
%TD*%
%TA.AperFunction,ComponentPad*%
%ADD11R,1.700000X1.700000*%
%TD*%
%TA.AperFunction,ComponentPad*%
%ADD12O,1.700000X1.700000*%
%TD*%
%TA.AperFunction,ComponentPad*%
%ADD13R,2.600000X2.600000*%
%TD*%
%TA.AperFunction,ComponentPad*%
%ADD14C,2.600000*%
%TD*%
%TA.AperFunction,ComponentPad*%
%ADD15R,1.600000X1.600000*%
%TD*%
%TA.AperFunction,ComponentPad*%
%ADD16C,1.600000*%
%TD*%
%TA.AperFunction,ComponentPad*%
%ADD17R,1.700000X2.000000*%
%TD*%
%TA.AperFunction,ComponentPad*%
%ADD18O,1.700000X2.000000*%
%TD*%
%TA.AperFunction,ComponentPad*%
%ADD19C,3.000000*%
%TD*%
%TA.AperFunction,ComponentPad*%
%ADD20C,2.500000*%
%TD*%
%TA.AperFunction,ViaPad*%
%ADD21C,0.600000*%
%TD*%
%TA.AperFunction,Conductor*%
%ADD22C,1.000000*%
%TD*%
%TA.AperFunction,Conductor*%
%ADD23C,0.600000*%
%TD*%
%TA.AperFunction,Conductor*%
%ADD24C,0.250000*%
%TD*%
G04 APERTURE END LIST*
D10*
%TO.P,F1,1*%
%TO.N,L_IN*%
X112000000Y-126300000D03*
%TO.P,F1,2*%
%TO.N,L_F*%
X117080000Y-126310000D03*
%TD*%
D11*
%TO.P,J3,1*%
%TO.N,+3V3*%
X163800000Y-133199999D03*
D12*
%TO.P,J3,2*%
%TO.N,GND*%
X163800000Y-135739999D03*
%TO.P,J3,3*%
%TO.N,TXD*%
X163800000Y-138279999D03*
%TO.P,J3,4*%
%TO.N,RXD*%
X163800000Y-140819999D03*
%TO.P,J3,5*%
%TO.N,GPIO0*%
X163800000Y-143359999D03*
%TO.P,J3,6*%
%TO.N,RST*%
X163800000Y-145899999D03*
%TD*%
D13*
%TO.P,J1,1*%
%TO.N,N*%
X104000000Y-142500000D03*
D14*
%TO.P,J1,2*%
%TO.N,L_OUT*%
X109080000Y-142500000D03*
%TO.P,J1,3*%
%TO.N,L_IN*%
X114160000Y-142500000D03*
%TD*%
D15*
%TO.P,C1,1*%
%TO.N,+5V*%
X146000000Y-130000000D03*
D16*
%TO.P,C1,2*%
%TO.N,GND*%
X148500000Y-130000000D03*
%TD*%
D17*
%TO.P,PS1,1*%
%TO.N,L_F*%
X105500000Y-109500000D03*
D18*
%TO.P,PS1,2*%
%TO.N,N*%
X105500000Y-114500000D03*
%TO.P,PS1,3*%
%TO.N,GND*%
X134580000Y-104500000D03*
%TO.P,PS1,4*%
%TO.N,+5V*%
X134580000Y-119500000D03*
%TD*%
D16*
%TO.P,RV1,1*%
%TO.N,L_F*%
X120600000Y-125000000D03*
%TO.P,RV1,2*%
%TO.N,N*%
X125600000Y-126300000D03*
%TD*%
D19*
%TO.P,K1,1*%
%TO.N,L_IN*%
X138500000Y-137500000D03*
D20*
%TO.P,K1,2*%
%TO.N,+5V*%
X136550000Y-131450000D03*
D19*
%TO.P,K1,3*%
%TO.N,L_OUT*%
X124350000Y-131450000D03*
%TO.P,K1,4*%
%TO.N,N/C*%
X124300000Y-143500000D03*
D20*
%TO.P,K1,5*%
%TO.N,COIL_N*%
X136550000Y-143450000D03*
%TD*%
D21*
%TO.N,GND*%
X149297700Y-127048300D03*
X147076100Y-142743300D03*
%TO.N,COIL_N*%
X138386100Y-143450000D03*
%TO.N,+3V3*%
X163573500Y-121200000D03*
%TO.N,RST*%
X158158000Y-109100000D03*
%TO.N,GPIO0*%
X165123400Y-115321900D03*
%TO.N,WIFI_LED*%
X158158000Y-149930400D03*
X158158000Y-115100000D03*
%TO.N,RELAY*%
X150016400Y-113100000D03*
X150016400Y-145300900D03*
%TO.N,RXD*%
X162045900Y-111100000D03*
%TO.N,TXD*%
X162817000Y-109100000D03*
%TD*%
D22*
%TO.N,N*%
X125600000Y-118000000D02*
X108000000Y-118000000D01*
X125600000Y-126300000D02*
X125600000Y-118000000D01*
X108000000Y-118000000D02*
X105500000Y-115500000D01*
X105500000Y-115500000D02*
X105500000Y-114500000D01*
%TO.N,L_IN*%
X112000000Y-126300000D02*
X114160000Y-128460000D01*
X114160000Y-128460000D02*
X114160000Y-142500000D01*
D23*
%TO.N,GND*%
X148500000Y-127846000D02*
X149297700Y-127048300D01*
X148500000Y-130000000D02*
X148500000Y-127846000D01*
X148500000Y-130000000D02*
X148500000Y-141319400D01*
X148500000Y-141319400D02*
X147076100Y-142743300D01*
%TO.N,+5V*%
X134580000Y-119500000D02*
X135931900Y-119500000D01*
X135931900Y-119500000D02*
X135931900Y-130831900D01*
X135931900Y-130831900D02*
X136550000Y-131450000D01*
%TO.N,COIL_N*%
X136550000Y-143450000D02*
X138386100Y-143450000D01*
%TO.N,+3V3*%
X163800000Y-133200000D02*
X163800000Y-131848100D01*
X163573500Y-121200000D02*
X163573500Y-131621600D01*
X163573500Y-131621600D02*
X163800000Y-131848100D01*
D24*
%TO.N,RST*%
X163432200Y-144723100D02*
X161148600Y-142439500D01*
X161148600Y-112090600D02*
X158158000Y-109100000D01*
X163800000Y-145900000D02*
X163800000Y-144723100D01*
X161148600Y-142439500D02*
X161148600Y-112090600D01*
X163800000Y-144723100D02*
X163432200Y-144723100D01*
%TO.N,GPIO0*%
X163800000Y-143360000D02*
X163800000Y-142183100D01*
X165123400Y-141227500D02*
X165123400Y-115321900D01*
X163800000Y-142183100D02*
X164167800Y-142183100D01*
X164167800Y-142183100D02*
X165123400Y-141227500D01*
%TO.N,WIFI_LED*%
X158158000Y-149930400D02*
X158158000Y-115100000D01*
%TO.N,RELAY*%
X150016400Y-145300900D02*
X150016400Y-113100000D01*
%TO.N,RXD*%
X163432200Y-139643100D02*
X162045900Y-138256800D01*
X162045900Y-138256800D02*
X162045900Y-111100000D01*
X163800000Y-140820000D02*
X163800000Y-139643100D01*
X163800000Y-139643100D02*
X163432200Y-139643100D01*
%TO.N,TXD*%
X163800000Y-137103100D02*
X163432100Y-137103100D01*
X162817000Y-111904400D02*
X162817000Y-109100000D01*
X162623100Y-112098300D02*
X162817000Y-111904400D01*
X162623100Y-136294100D02*
X162623100Y-112098300D01*
X163432100Y-137103100D02*
X162623100Y-136294100D01*
X163800000Y-138280000D02*
X163800000Y-137103100D01*
%TD*%
%TA.AperFunction,Conductor*%
%TO.N,GND*%
G36*
X140443039Y-100420185D02*
G01*
X140488794Y-100472989D01*
X140500000Y-100524500D01*
X140500000Y-108000000D01*
X165475500Y-108000000D01*
X165542539Y-108019685D01*
X165588294Y-108072489D01*
X165599500Y-108124000D01*
X165599500Y-114683551D01*
X165579815Y-114750590D01*
X165527011Y-114796345D01*
X165457853Y-114806289D01*
X165428047Y-114798112D01*
X165280162Y-114736856D01*
X165280160Y-114736855D01*
X165123401Y-114716218D01*
X165123399Y-114716218D01*
X164966639Y-114736855D01*
X164966637Y-114736856D01*
X164820560Y-114797363D01*
X164695118Y-114893618D01*
X164598863Y-115019060D01*
X164538356Y-115165137D01*
X164538355Y-115165139D01*
X164517718Y-115321898D01*
X164517718Y-115321901D01*
X164538355Y-115478660D01*
X164538356Y-115478662D01*
X164598864Y-115624741D01*
X164672277Y-115720415D01*
X164697470Y-115785581D01*
X164697900Y-115795899D01*
X164697900Y-131925499D01*
X164678215Y-131992538D01*
X164625411Y-132038293D01*
X164573900Y-132049499D01*
X164524500Y-132049499D01*
X164457461Y-132029814D01*
X164411706Y-131977010D01*
X164400500Y-131925499D01*
X164400500Y-131895587D01*
X164401561Y-131879401D01*
X164405682Y-131848100D01*
X164405682Y-131848098D01*
X164391923Y-131743592D01*
X164385044Y-131691338D01*
X164324536Y-131545259D01*
X164252450Y-131451315D01*
X164238761Y-131433475D01*
X164228281Y-131419816D01*
X164222511Y-131415389D01*
X164181310Y-131358960D01*
X164174000Y-131317015D01*
X164174000Y-121247487D01*
X164175061Y-121231301D01*
X164179182Y-121199999D01*
X164179182Y-121199998D01*
X164158544Y-121043239D01*
X164158544Y-121043238D01*
X164098036Y-120897159D01*
X164001782Y-120771718D01*
X163876341Y-120675464D01*
X163730262Y-120614956D01*
X163730260Y-120614955D01*
X163573501Y-120594318D01*
X163573499Y-120594318D01*
X163416739Y-120614955D01*
X163416737Y-120614956D01*
X163270658Y-120675464D01*
X163248085Y-120692785D01*
X163182916Y-120717978D01*
X163114471Y-120703939D01*
X163064482Y-120655124D01*
X163048600Y-120594408D01*
X163048600Y-112325910D01*
X163068285Y-112258871D01*
X163084919Y-112238229D01*
X163141554Y-112181594D01*
X163165528Y-112157620D01*
X163176488Y-112136106D01*
X163186653Y-112119518D01*
X163200849Y-112099981D01*
X163208310Y-112077014D01*
X163215759Y-112059034D01*
X163216739Y-112057112D01*
X163226719Y-112037526D01*
X163230495Y-112013676D01*
X163235036Y-111994760D01*
X163242500Y-111971793D01*
X163242500Y-111837007D01*
X163242500Y-109573999D01*
X163262185Y-109506960D01*
X163268110Y-109498531D01*
X163341536Y-109402841D01*
X163402044Y-109256762D01*
X163418167Y-109134294D01*
X163422682Y-109100001D01*
X163422682Y-109099998D01*
X163402044Y-108943239D01*
X163402044Y-108943238D01*
X163341536Y-108797159D01*
X163245282Y-108671718D01*
X163119841Y-108575464D01*
X162973762Y-108514956D01*
X162973760Y-108514955D01*
X162817001Y-108494318D01*
X162816999Y-108494318D01*
X162660239Y-108514955D01*
X162660237Y-108514956D01*
X162514160Y-108575463D01*
X162388718Y-108671718D01*
X162292463Y-108797160D01*
X162231956Y-108943237D01*
X162231955Y-108943239D01*
X162211318Y-109099998D01*
X162211318Y-109100001D01*
X162231955Y-109256760D01*
X162231956Y-109256762D01*
X162292464Y-109402841D01*
X162365877Y-109498515D01*
X162391070Y-109563681D01*
X162391500Y-109573999D01*
X162391500Y-110407596D01*
X162371815Y-110474635D01*
X162319011Y-110520390D01*
X162249853Y-110530334D01*
X162220049Y-110522158D01*
X162202662Y-110514956D01*
X162202660Y-110514955D01*
X162045901Y-110494318D01*
X162045899Y-110494318D01*
X161889139Y-110514955D01*
X161889137Y-110514956D01*
X161743060Y-110575463D01*
X161617618Y-110671718D01*
X161521363Y-110797160D01*
X161460856Y-110943237D01*
X161460855Y-110943239D01*
X161440218Y-111099998D01*
X161440218Y-111100001D01*
X161460855Y-111256760D01*
X161460856Y-111256762D01*
X161521364Y-111402841D01*
X161594777Y-111498515D01*
X161619970Y-111563681D01*
X161620400Y-111573999D01*
X161620400Y-111661290D01*
X161600715Y-111728329D01*
X161547911Y-111774084D01*
X161478753Y-111784028D01*
X161415197Y-111755003D01*
X161408719Y-111748971D01*
X158794042Y-109134294D01*
X158760557Y-109072971D01*
X158758784Y-109062798D01*
X158743044Y-108943239D01*
X158743044Y-108943238D01*
X158682536Y-108797159D01*
X158586282Y-108671718D01*
X158460841Y-108575464D01*
X158314762Y-108514956D01*
X158314760Y-108514955D01*
X158158001Y-108494318D01*
X158157999Y-108494318D01*
X158001239Y-108514955D01*
X158001237Y-108514956D01*
X157855160Y-108575463D01*
X157729718Y-108671718D01*
X157633463Y-108797160D01*
X157572956Y-108943237D01*
X157572955Y-108943239D01*
X157552318Y-109099998D01*
X157552318Y-109100001D01*
X157572955Y-109256760D01*
X157572956Y-109256762D01*
X157633464Y-109402841D01*
X157729718Y-109528282D01*
X157855159Y-109624536D01*
X158001238Y-109685044D01*
X158120798Y-109700784D01*
X158184695Y-109729050D01*
X158192294Y-109736042D01*
X160686781Y-112230528D01*
X160720266Y-112291851D01*
X160723100Y-112318209D01*
X160723100Y-142506894D01*
X160730562Y-142529858D01*
X160735103Y-142548773D01*
X160738070Y-142567510D01*
X160738881Y-142572627D01*
X160749843Y-142594141D01*
X160757288Y-142612115D01*
X160764750Y-142635080D01*
X160778940Y-142654610D01*
X160789108Y-142671203D01*
X160800070Y-142692718D01*
X163002244Y-144894892D01*
X163035729Y-144956215D01*
X163030745Y-145025907D01*
X162998103Y-145074209D01*
X162946127Y-145121592D01*
X162817632Y-145291745D01*
X162722596Y-145482604D01*
X162722596Y-145482606D01*
X162664244Y-145687688D01*
X162644571Y-145899998D01*
X162644571Y-145899999D01*
X162664244Y-146112309D01*
X162722596Y-146317391D01*
X162722596Y-146317393D01*
X162817632Y-146508252D01*
X162817634Y-146508254D01*
X162946128Y-146678406D01*
X163103698Y-146822051D01*
X163284981Y-146934297D01*
X163483802Y-147011320D01*
X163693390Y-147050499D01*
X163693392Y-147050499D01*
X163906608Y-147050499D01*
X163906610Y-147050499D01*
X164116198Y-147011320D01*
X164315019Y-146934297D01*
X164496302Y-146822051D01*
X164653872Y-146678406D01*
X164782366Y-146508254D01*
X164877405Y-146317388D01*
X164935756Y-146112309D01*
X164955429Y-145899999D01*
X164935756Y-145687689D01*
X164877405Y-145482610D01*
X164877403Y-145482605D01*
X164877403Y-145482604D01*
X164782367Y-145291745D01*
X164653872Y-145121592D01*
X164496302Y-144977947D01*
X164374266Y-144902385D01*
X164315020Y-144865701D01*
X164315012Y-144865697D01*
X164307729Y-144862876D01*
X164252328Y-144820303D01*
X164228738Y-144754535D01*
X164230052Y-144727846D01*
X164230804Y-144723099D01*
X164230804Y-144723097D01*
X164209720Y-144589977D01*
X164209719Y-144589975D01*
X164209719Y-144589974D01*
X164206137Y-144582945D01*
X164193243Y-144514278D01*
X164219520Y-144449538D01*
X164271830Y-144411027D01*
X164315019Y-144394297D01*
X164496302Y-144282051D01*
X164653872Y-144138406D01*
X164782366Y-143968254D01*
X164801109Y-143930612D01*
X164877403Y-143777393D01*
X164877403Y-143777392D01*
X164877405Y-143777388D01*
X164935756Y-143572309D01*
X164955429Y-143359999D01*
X164935756Y-143147689D01*
X164877405Y-142942610D01*
X164877403Y-142942605D01*
X164877403Y-142942604D01*
X164782367Y-142751745D01*
X164737791Y-142692718D01*
X164653872Y-142581592D01*
X164653869Y-142581589D01*
X164653870Y-142581589D01*
X164601897Y-142534209D01*
X164565616Y-142474498D01*
X164567377Y-142404650D01*
X164597753Y-142354894D01*
X165387819Y-141564829D01*
X165449142Y-141531344D01*
X165518834Y-141536328D01*
X165574767Y-141578200D01*
X165599184Y-141643664D01*
X165599500Y-141652510D01*
X165599500Y-163995572D01*
X165599184Y-164004419D01*
X165583851Y-164218788D01*
X165581333Y-164236299D01*
X165536595Y-164441960D01*
X165531611Y-164458936D01*
X165458053Y-164656150D01*
X165450703Y-164672242D01*
X165349836Y-164856968D01*
X165340271Y-164871853D01*
X165214133Y-165040353D01*
X165202547Y-165053723D01*
X165053723Y-165202547D01*
X165040353Y-165214133D01*
X164871853Y-165340271D01*
X164856968Y-165349836D01*
X164672242Y-165450703D01*
X164656150Y-165458053D01*
X164458936Y-165531611D01*
X164441960Y-165536595D01*
X164236299Y-165581333D01*
X164218788Y-165583851D01*
X164023369Y-165597828D01*
X164004417Y-165599184D01*
X163995572Y-165599500D01*
X131124000Y-165599500D01*
X131056961Y-165579815D01*
X131011206Y-165527011D01*
X131000000Y-165475500D01*
X131000000Y-161000000D01*
X132644341Y-161000000D01*
X132664936Y-161235403D01*
X132664938Y-161235413D01*
X132726094Y-161463655D01*
X132726096Y-161463659D01*
X132726097Y-161463663D01*
X132776031Y-161570746D01*
X132825964Y-161677828D01*
X132825965Y-161677830D01*
X132961505Y-161871402D01*
X133128597Y-162038494D01*
X133322169Y-162174034D01*
X133322171Y-162174035D01*
X133536337Y-162273903D01*
X133764592Y-162335063D01*
X133941032Y-162350499D01*
X133941033Y-162350500D01*
X133941034Y-162350500D01*
X134058967Y-162350500D01*
X134058967Y-162350499D01*
X134235408Y-162335063D01*
X134463663Y-162273903D01*
X134677829Y-162174035D01*
X134871401Y-162038495D01*
X135038495Y-161871401D01*
X135174035Y-161677830D01*
X135273903Y-161463663D01*
X135335063Y-161235408D01*
X135355659Y-161000000D01*
X160644341Y-161000000D01*
X160664936Y-161235403D01*
X160664938Y-161235413D01*
X160726094Y-161463655D01*
X160726096Y-161463659D01*
X160726097Y-161463663D01*
X160776031Y-161570746D01*
X160825964Y-161677828D01*
X160825965Y-161677830D01*
X160961505Y-161871402D01*
X161128597Y-162038494D01*
X161322169Y-162174034D01*
X161322171Y-162174035D01*
X161536337Y-162273903D01*
X161764592Y-162335063D01*
X161941032Y-162350499D01*
X161941033Y-162350500D01*
X161941034Y-162350500D01*
X162058967Y-162350500D01*
X162058967Y-162350499D01*
X162235408Y-162335063D01*
X162463663Y-162273903D01*
X162677829Y-162174035D01*
X162871401Y-162038495D01*
X163038495Y-161871401D01*
X163174035Y-161677830D01*
X163273903Y-161463663D01*
X163335063Y-161235408D01*
X163355659Y-161000000D01*
X163335063Y-160764592D01*
X163273903Y-160536337D01*
X163174035Y-160322171D01*
X163174034Y-160322169D01*
X163038494Y-160128597D01*
X162871402Y-159961505D01*
X162677830Y-159825965D01*
X162677828Y-159825964D01*
X162570746Y-159776031D01*
X162463663Y-159726097D01*
X162463659Y-159726096D01*
X162463655Y-159726094D01*
X162235413Y-159664938D01*
X162235403Y-159664936D01*
X162058967Y-159649500D01*
X162058966Y-159649500D01*
X161941034Y-159649500D01*
X161941033Y-159649500D01*
X161764596Y-159664936D01*
X161764586Y-159664938D01*
X161536344Y-159726094D01*
X161536335Y-159726098D01*
X161322171Y-159825964D01*
X161322169Y-159825965D01*
X161128597Y-159961505D01*
X160961506Y-160128597D01*
X160961501Y-160128604D01*
X160825967Y-160322165D01*
X160825965Y-160322169D01*
X160726098Y-160536335D01*
X160726094Y-160536344D01*
X160664938Y-160764586D01*
X160664936Y-160764596D01*
X160644341Y-160999999D01*
X160644341Y-161000000D01*
X135355659Y-161000000D01*
X135335063Y-160764592D01*
X135273903Y-160536337D01*
X135174035Y-160322171D01*
X135174034Y-160322169D01*
X135038494Y-160128597D01*
X134871402Y-159961505D01*
X134677830Y-159825965D01*
X134677828Y-159825964D01*
X134570746Y-159776031D01*
X134463663Y-159726097D01*
X134463659Y-159726096D01*
X134463655Y-159726094D01*
X134235413Y-159664938D01*
X134235403Y-159664936D01*
X134058967Y-159649500D01*
X134058966Y-159649500D01*
X133941034Y-159649500D01*
X133941033Y-159649500D01*
X133764596Y-159664936D01*
X133764586Y-159664938D01*
X133536344Y-159726094D01*
X133536335Y-159726098D01*
X133322171Y-159825964D01*
X133322169Y-159825965D01*
X133128597Y-159961505D01*
X132961506Y-160128597D01*
X132961501Y-160128604D01*
X132825967Y-160322165D01*
X132825965Y-160322169D01*
X132726098Y-160536335D01*
X132726094Y-160536344D01*
X132664938Y-160764586D01*
X132664936Y-160764596D01*
X132644341Y-160999999D01*
X132644341Y-161000000D01*
X131000000Y-161000000D01*
X131000000Y-149930401D01*
X157552318Y-149930401D01*
X157572955Y-150087160D01*
X157572956Y-150087162D01*
X157633464Y-150233241D01*
X157729718Y-150358682D01*
X157855159Y-150454936D01*
X158001238Y-150515444D01*
X158079619Y-150525763D01*
X158157999Y-150536082D01*
X158158000Y-150536082D01*
X158158001Y-150536082D01*
X158210254Y-150529202D01*
X158314762Y-150515444D01*
X158460841Y-150454936D01*
X158586282Y-150358682D01*
X158682536Y-150233241D01*
X158743044Y-150087162D01*
X158763682Y-149930400D01*
X158743044Y-149773638D01*
X158682536Y-149627559D01*
X158682535Y-149627558D01*
X158682535Y-149627557D01*
X158609124Y-149531885D01*
X158583930Y-149466715D01*
X158583500Y-149456399D01*
X158583500Y-115573999D01*
X158603185Y-115506960D01*
X158609110Y-115498531D01*
X158682536Y-115402841D01*
X158743044Y-115256762D01*
X158763682Y-115100000D01*
X158743044Y-114943238D01*
X158682536Y-114797159D01*
X158586282Y-114671718D01*
X158460841Y-114575464D01*
X158314762Y-114514956D01*
X158314760Y-114514955D01*
X158158001Y-114494318D01*
X158157999Y-114494318D01*
X158001239Y-114514955D01*
X158001237Y-114514956D01*
X157855160Y-114575463D01*
X157729718Y-114671718D01*
X157633463Y-114797160D01*
X157572956Y-114943237D01*
X157572955Y-114943239D01*
X157552318Y-115099998D01*
X157552318Y-115100001D01*
X157572955Y-115256760D01*
X157572956Y-115256762D01*
X157599937Y-115321901D01*
X157633464Y-115402841D01*
X157706877Y-115498515D01*
X157732070Y-115563681D01*
X157732500Y-115573999D01*
X157732500Y-149456399D01*
X157712815Y-149523438D01*
X157706876Y-149531885D01*
X157633464Y-149627557D01*
X157572956Y-149773637D01*
X157572955Y-149773639D01*
X157552318Y-149930398D01*
X157552318Y-149930401D01*
X131000000Y-149930401D01*
X131000000Y-147724000D01*
X131019685Y-147656961D01*
X131072489Y-147611206D01*
X131124000Y-147600000D01*
X145500000Y-147600000D01*
X145500000Y-131224499D01*
X145519685Y-131157460D01*
X145572489Y-131111705D01*
X145623996Y-131100499D01*
X146844864Y-131100499D01*
X146844879Y-131100497D01*
X146844882Y-131100497D01*
X146869987Y-131097586D01*
X146869988Y-131097585D01*
X146869991Y-131097585D01*
X146972765Y-131052206D01*
X147052206Y-130972765D01*
X147097585Y-130869991D01*
X147100500Y-130844865D01*
X147100499Y-130355146D01*
X147120183Y-130288110D01*
X147172987Y-130242355D01*
X147242146Y-130232411D01*
X147305702Y-130261436D01*
X147343476Y-130320214D01*
X147343765Y-130321215D01*
X147376236Y-130435342D01*
X147376239Y-130435348D01*
X147475369Y-130634428D01*
X147491137Y-130655308D01*
X147491138Y-130655308D01*
X148102046Y-130044400D01*
X148114835Y-130125148D01*
X148172359Y-130238045D01*
X148261955Y-130327641D01*
X148374852Y-130385165D01*
X148455599Y-130397953D01*
X147846672Y-131006879D01*
X147846672Y-131006880D01*
X147962821Y-131078797D01*
X147962822Y-131078798D01*
X148170195Y-131159134D01*
X148388807Y-131200000D01*
X148611193Y-131200000D01*
X148829809Y-131159133D01*
X149037168Y-131078801D01*
X149037181Y-131078795D01*
X149153326Y-131006879D01*
X148544401Y-130397953D01*
X148625148Y-130385165D01*
X148738045Y-130327641D01*
X148827641Y-130238045D01*
X148885165Y-130125148D01*
X148897953Y-130044400D01*
X149548792Y-130695239D01*
X149548341Y-130695689D01*
X149575855Y-130723316D01*
X149590900Y-130782518D01*
X149590900Y-144826899D01*
X149571215Y-144893938D01*
X149565276Y-144902385D01*
X149491864Y-144998057D01*
X149431356Y-145144137D01*
X149431355Y-145144139D01*
X149410718Y-145300898D01*
X149410718Y-145300901D01*
X149431355Y-145457660D01*
X149431356Y-145457662D01*
X149491864Y-145603741D01*
X149588118Y-145729182D01*
X149713559Y-145825436D01*
X149859638Y-145885944D01*
X149938019Y-145896263D01*
X150016399Y-145906582D01*
X150016400Y-145906582D01*
X150016401Y-145906582D01*
X150068654Y-145899702D01*
X150173162Y-145885944D01*
X150319241Y-145825436D01*
X150444682Y-145729182D01*
X150540936Y-145603741D01*
X150601444Y-145457662D01*
X150622082Y-145300900D01*
X150601444Y-145144138D01*
X150540936Y-144998059D01*
X150540935Y-144998058D01*
X150540935Y-144998057D01*
X150467524Y-144902385D01*
X150442330Y-144837215D01*
X150441900Y-144826899D01*
X150441900Y-113573999D01*
X150461585Y-113506960D01*
X150467510Y-113498531D01*
X150540936Y-113402841D01*
X150601444Y-113256762D01*
X150622082Y-113100000D01*
X150601444Y-112943238D01*
X150540936Y-112797159D01*
X150444682Y-112671718D01*
X150319241Y-112575464D01*
X150173162Y-112514956D01*
X150173160Y-112514955D01*
X150016401Y-112494318D01*
X150016399Y-112494318D01*
X149859639Y-112514955D01*
X149859637Y-112514956D01*
X149713560Y-112575463D01*
X149588118Y-112671718D01*
X149491863Y-112797160D01*
X149431356Y-112943237D01*
X149431355Y-112943239D01*
X149410718Y-113099998D01*
X149410718Y-113100001D01*
X149431355Y-113256760D01*
X149431356Y-113256762D01*
X149491864Y-113402841D01*
X149565277Y-113498515D01*
X149590470Y-113563681D01*
X149590900Y-113573999D01*
X149590900Y-129217479D01*
X149571215Y-129284518D01*
X149548357Y-129304324D01*
X149548792Y-129304759D01*
X148897953Y-129955598D01*
X148885165Y-129874852D01*
X148827641Y-129761955D01*
X148738045Y-129672359D01*
X148625148Y-129614835D01*
X148544401Y-129602046D01*
X149153327Y-128993119D01*
X149037178Y-128921202D01*
X149037177Y-128921201D01*
X148829804Y-128840865D01*
X148611193Y-128800000D01*
X148388807Y-128800000D01*
X148170195Y-128840865D01*
X147962824Y-128921200D01*
X147962823Y-128921201D01*
X147846671Y-128993119D01*
X148455599Y-129602046D01*
X148374852Y-129614835D01*
X148261955Y-129672359D01*
X148172359Y-129761955D01*
X148114835Y-129874852D01*
X148102046Y-129955599D01*
X147491138Y-129344691D01*
X147491137Y-129344691D01*
X147475368Y-129365574D01*
X147376239Y-129564651D01*
X147376236Y-129564657D01*
X147343765Y-129678785D01*
X147306486Y-129737878D01*
X147243177Y-129767436D01*
X147173937Y-129758074D01*
X147120750Y-129712765D01*
X147100503Y-129645893D01*
X147100499Y-129644851D01*
X147100499Y-129155143D01*
X147100499Y-129155136D01*
X147100497Y-129155117D01*
X147097586Y-129130012D01*
X147097585Y-129130010D01*
X147097585Y-129130009D01*
X147052206Y-129027235D01*
X146972765Y-128947794D01*
X146912540Y-128921202D01*
X146869992Y-128902415D01*
X146844868Y-128899500D01*
X145624000Y-128899500D01*
X145556961Y-128879815D01*
X145511206Y-128827011D01*
X145500000Y-128775500D01*
X145500000Y-128000000D01*
X136656400Y-128000000D01*
X136589361Y-127980315D01*
X136543606Y-127927511D01*
X136532400Y-127876000D01*
X136532400Y-119547487D01*
X136533461Y-119531301D01*
X136537582Y-119500000D01*
X136537582Y-119499998D01*
X136516944Y-119343239D01*
X136516944Y-119343238D01*
X136456436Y-119197159D01*
X136360182Y-119071718D01*
X136234741Y-118975464D01*
X136131270Y-118932605D01*
X136088662Y-118914956D01*
X136088660Y-118914955D01*
X135971261Y-118899500D01*
X135931900Y-118894318D01*
X135900597Y-118898439D01*
X135884413Y-118899500D01*
X135717695Y-118899500D01*
X135650656Y-118879815D01*
X135606696Y-118830774D01*
X135562366Y-118741745D01*
X135433872Y-118571593D01*
X135276302Y-118427948D01*
X135095019Y-118315702D01*
X135095017Y-118315701D01*
X134995608Y-118277190D01*
X134896198Y-118238679D01*
X134686610Y-118199500D01*
X134473390Y-118199500D01*
X134263802Y-118238679D01*
X134263799Y-118238679D01*
X134263799Y-118238680D01*
X134064982Y-118315701D01*
X134064980Y-118315702D01*
X133883699Y-118427947D01*
X133726127Y-118571593D01*
X133597632Y-118741746D01*
X133502596Y-118932605D01*
X133502596Y-118932607D01*
X133502595Y-118932611D01*
X133444244Y-119137690D01*
X133438734Y-119197159D01*
X133429500Y-119296809D01*
X133429500Y-119703190D01*
X133444244Y-119862310D01*
X133502596Y-120067392D01*
X133502596Y-120067394D01*
X133597632Y-120258253D01*
X133597634Y-120258255D01*
X133726128Y-120428407D01*
X133883698Y-120572052D01*
X134064981Y-120684298D01*
X134263802Y-120761321D01*
X134473390Y-120800500D01*
X134473392Y-120800500D01*
X134686608Y-120800500D01*
X134686610Y-120800500D01*
X134896198Y-120761321D01*
X135095019Y-120684298D01*
X135142122Y-120655133D01*
X135209482Y-120636576D01*
X135276182Y-120657384D01*
X135321043Y-120710949D01*
X135331400Y-120760559D01*
X135331400Y-127876000D01*
X135311715Y-127943039D01*
X135258911Y-127988794D01*
X135207400Y-128000000D01*
X131124000Y-128000000D01*
X131056961Y-127980315D01*
X131011206Y-127927511D01*
X131000000Y-127876000D01*
X131000000Y-104250000D01*
X133330000Y-104250000D01*
X134146314Y-104250000D01*
X134120507Y-104290156D01*
X134080000Y-104428111D01*
X134080000Y-104571889D01*
X134120507Y-104709844D01*
X134146314Y-104750000D01*
X133333948Y-104750000D01*
X133345116Y-104874095D01*
X133345117Y-104874102D01*
X133404973Y-105090984D01*
X133404978Y-105090997D01*
X133502598Y-105293708D01*
X133502602Y-105293716D01*
X133634851Y-105475741D01*
X133634857Y-105475749D01*
X133797486Y-105631237D01*
X133985266Y-105755191D01*
X134192169Y-105843624D01*
X134192178Y-105843627D01*
X134329999Y-105875084D01*
X134330000Y-105875084D01*
X134330000Y-104935501D01*
X134437685Y-104984680D01*
X134544237Y-105000000D01*
X134615763Y-105000000D01*
X134722315Y-104984680D01*
X134830000Y-104935501D01*
X134830000Y-105877549D01*
X134859267Y-105873586D01*
X134859273Y-105873585D01*
X135073268Y-105804054D01*
X135271401Y-105697434D01*
X135271404Y-105697432D01*
X135447320Y-105557145D01*
X135595352Y-105387707D01*
X135595359Y-105387699D01*
X135710759Y-105194553D01*
X135710761Y-105194548D01*
X135789824Y-104983889D01*
X135789824Y-104983888D01*
X135830000Y-104762505D01*
X135830000Y-104750000D01*
X135013686Y-104750000D01*
X135039493Y-104709844D01*
X135080000Y-104571889D01*
X135080000Y-104428111D01*
X135039493Y-104290156D01*
X135013686Y-104250000D01*
X135826052Y-104250000D01*
X135826052Y-104249999D01*
X135814883Y-104125904D01*
X135814882Y-104125897D01*
X135755026Y-103909015D01*
X135755021Y-103909002D01*
X135657401Y-103706291D01*
X135657397Y-103706283D01*
X135525148Y-103524258D01*
X135525142Y-103524250D01*
X135362513Y-103368762D01*
X135174733Y-103244808D01*
X134967830Y-103156375D01*
X134967823Y-103156373D01*
X134830000Y-103124915D01*
X134830000Y-104064498D01*
X134722315Y-104015320D01*
X134615763Y-104000000D01*
X134544237Y-104000000D01*
X134437685Y-104015320D01*
X134330000Y-104064498D01*
X134330000Y-103122449D01*
X134329999Y-103122449D01*
X134300721Y-103126415D01*
X134086731Y-103195945D01*
X133888598Y-103302565D01*
X133888595Y-103302567D01*
X133712679Y-103442854D01*
X133564647Y-103612292D01*
X133564640Y-103612300D01*
X133449240Y-103805446D01*
X133449238Y-103805451D01*
X133370175Y-104016110D01*
X133370175Y-104016111D01*
X133330000Y-104237494D01*
X133330000Y-104250000D01*
X131000000Y-104250000D01*
X131000000Y-100524500D01*
X131019685Y-100457461D01*
X131072489Y-100411706D01*
X131124000Y-100400500D01*
X140376000Y-100400500D01*
X140443039Y-100420185D01*
G37*
%TD.AperFunction*%
%TD*%
M02*
